<svg id="图层_1" data-name="图层 1" xmlns="http://www.w3.org/2000/svg" viewBox="0 0 512 512"><defs><style>.cls-1{fill:#b5b5b6;}</style></defs><path class="cls-1" d="M256,6C117.93,6,6,117.93,6,256S117.93,506,256,506,506,394.07,506,256,394.07,6,256,6ZM407,148.67c-.78,10.82-7,48.69-13.14,89.66-9.28,58-19.33,121.35-19.33,121.35s-1.54,17.78-14.68,20.87-34.79-10.82-38.65-13.91c-3.09-2.32-58-37.1-78.07-54.11-5.41-4.63-11.59-13.91.77-24.73,27.83-25.51,61.07-57.2,81.16-77.3,9.28-9.27,18.55-30.92-20.09-4.63-54.88,37.87-109,73.43-109,73.43s-12.37,7.73-35.56.77-50.24-16.23-50.24-16.23-18.55-11.6,13.14-24c0,0,133.72-54.88,180.1-74.21,17.78-7.73,78.07-32.46,78.07-32.46S409.36,122.39,407,148.67Z"/></svg>