<svg id="图层_1" data-name="图层 1" xmlns="http://www.w3.org/2000/svg" viewBox="0 0 512 512"><defs><style>.cls-1{fill:#eb5c20;}</style></defs><path class="cls-1" d="M256,6C117.93,6,6,117.93,6,256S117.93,506,256,506,506,394.07,506,256,394.07,6,256,6ZM235.91,116.79a20.09,20.09,0,1,1,40.18,0V232.57a20.09,20.09,0,1,1-40.18,0ZM256,415.3c-83.28,0-151-67.77-151-151,0-61.4,36.87-114.28,89.6-137.87v42.87a113.26,113.26,0,1,0,122.88,0V126.38c52.71,23.59,89.63,76.47,89.63,137.87C407.06,347.53,339.29,415.3,256,415.3Z"/></svg>