<svg id="图层_1" data-name="图层 1" xmlns="http://www.w3.org/2000/svg" viewBox="0 0 512 512"><defs><style>.cls-1{fill:#b5b5b6;stroke:#b5b5b6;stroke-miterlimit:10;stroke-width:18px;}</style></defs><path class="cls-1" d="M452.43,256c0-108.48-87.95-196.43-196.43-196.43A196.15,196.15,0,0,0,91.77,148.41l26.31,26.31C146,127.38,197,95.29,256,95.29A160.7,160.7,0,0,1,416.72,256H363.14l71.43,71.43L506,256Z"/><path class="cls-1" d="M256,416.71A160.7,160.7,0,0,1,95.28,256h53.57L77.43,184.57,6,256H59.57c0,108.48,88,196.43,196.43,196.43a196.15,196.15,0,0,0,164.23-88.84l-26.31-26.31C366,384.62,315,416.71,256,416.71Z"/></svg>