<svg id="图层_1" data-name="图层 1" xmlns="http://www.w3.org/2000/svg" viewBox="0 0 512 512"><defs><style>.cls-1{fill:#b5b5b6;}</style></defs><path class="cls-1" d="M6,256C6,394.07,117.93,506,256,506S506,394.07,506,256,394.07,6,256,6,6,117.93,6,256ZM242,145.22a29.24,29.24,0,0,1,0,42.8l-39.67,37.71H383.16c17.59,0,31.85,13.56,31.85,30.26s-14.26,30.28-31.85,30.28H202.29L242,324a29.24,29.24,0,0,1,0,42.81,33,33,0,0,1-45.05,0l-94-89.38a29.24,29.24,0,0,1,0-42.81l94.05-89.36A33,33,0,0,1,242,145.22Z"/></svg>