<svg id="图层_1" data-name="图层 1" xmlns="http://www.w3.org/2000/svg" viewBox="0 0 512 512"><defs><style>.cls-1{fill:#b5b5b6;}</style></defs><path class="cls-1" d="M480.29,10.48a41.19,41.19,0,0,0-57.17,11.16l-169.45,252a10,10,0,0,1-15.36,1.49l-59.4-59.37a41.16,41.16,0,0,0-58.23,58.2L224,377.31a41.39,41.39,0,0,0,29.12,12.07c1.36,0,2.68-.11,4-.23a41.09,41.09,0,0,0,30.18-18L491.53,67.62A41.23,41.23,0,0,0,480.29,10.48Z"/><path class="cls-1" d="M397.77,426.2a27.44,27.44,0,0,1-27.48,27.45H95.85A27.45,27.45,0,0,1,68.38,426.2V151.72a27.5,27.5,0,0,1,27.47-27.44H281.59a10,10,0,0,0,8.32-4.45l23.28-34.91a10,10,0,0,0-8.32-15.54h-209A82.59,82.59,0,0,0,13.5,151.72V426.2a82.47,82.47,0,0,0,82.35,82.35H370.3a82.35,82.35,0,0,0,82.35-82.35V255.1c0-9.9-12.84-13.78-18.32-5.55l-34.88,52.34a10.08,10.08,0,0,0-1.68,5.55Z"/></svg>