<svg id="图层_1" data-name="图层 1" xmlns="http://www.w3.org/2000/svg" viewBox="0 0 512 512"><defs><style>.cls-1{fill:#b5b5b6;}</style></defs><path class="cls-1" d="M349.28,70.32c-76.93-76.91-202.06-76.92-279,0s-76.9,202.05,0,279C135,414,233.71,424.18,309.23,380.07a17,17,0,0,1,20.58,2.68L437,490a32,32,0,0,0,45.28,0l7.66-7.66a32,32,0,0,0,0-45.28L382.75,329.81a17,17,0,0,1-2.67-20.58C424.17,233.72,414,135,349.28,70.32ZM309.9,309.92c-55.2,55.19-145,55.19-200.21,0s-55.21-145,0-200.21,145-55.2,200.21,0S365.09,254.71,309.9,309.92Z"/></svg>