<svg id="图层_1" data-name="图层 1" xmlns="http://www.w3.org/2000/svg" viewBox="0 0 512 512"><defs><style>.cls-1{fill:#b5b5b6;}</style></defs><path class="cls-1" d="M187.28,164.94H43.43v26.57H189.87A166,166,0,0,1,187.28,164.94Z"/><rect class="cls-1" x="43.43" y="430.13" width="250.48" height="26.56"/><path class="cls-1" d="M193,118.69H23.76a17.76,17.76,0,1,0,0,35.51H187.41A164.39,164.39,0,0,1,193,118.69Z"/><path class="cls-1" d="M313.59,467.44H23.76a17.76,17.76,0,1,0,0,35.52H313.59a17.76,17.76,0,0,0,0-35.52Z"/><path class="cls-1" d="M192.14,202.26H43.43V419.38H293.91V317A166.36,166.36,0,0,1,192.14,202.26Zm-23.1,183c-22.93,0-51.12-29.09-38.73-66.69,4.82-14.66,19.45-35.23,26.76-50.65a194,194,0,0,0,12-31.47s3.81,11.94,12,31.46c6.89,16.5,22.25,33.65,26.76,50.66C218,357.12,192,385.23,169,385.23Z"/><path class="cls-1" d="M352.89,315.26c-84.42,0-153.1-68.68-153.1-153.1S268.47,9,352.89,9,506,77.73,506,162.16,437.32,315.26,352.89,315.26Zm0-283.44c-71.86,0-130.33,58.47-130.33,130.34S281,292.49,352.89,292.49,483.23,234,483.23,162.16A130.49,130.49,0,0,0,352.89,31.82Z"/><path class="cls-1" d="M352.89,272.62A110.47,110.47,0,1,1,463.35,162.16,110.58,110.58,0,0,1,352.89,272.62Zm0-209.54A99.08,99.08,0,1,0,452,162.16,99.18,99.18,0,0,0,352.89,63.08Z"/><path class="cls-1" d="M381.34,154.75q-6-3.51-26.66-8.51-14.42-3.5-14.41-9.86,0-3.85,4.76-6.15a18.5,18.5,0,0,1,7.83-1.71c4.87,0,8.38.69,10.56,2.07q3.91,2.5,5.8,9.8l24.84-1.94q-2.74-16.29-12.55-24-6.5-5.13-16.68-6.86c0-.22,0-.45,0-.68V98.22a6.18,6.18,0,0,0-6.16-6.17H347.6a6.19,6.19,0,0,0-6.17,6.17v8.64a5.26,5.26,0,0,0,.1,1A39.84,39.84,0,0,0,327,114.23q-12.66,8.86-12.66,25.08,0,17.31,14.28,25.37,5.22,2.92,26.54,8.58,14.28,3.8,14.28,10.5c0,3.25-2,5.67-5.87,7.29a24.78,24.78,0,0,1-9.58,1.79q-8.86,0-12.91-3.58c-2.69-2.38-4.48-6.49-5.35-12.36l-25.17,1.93q2,20.44,14.15,29,6.42,4.52,16.74,6.17a4.9,4.9,0,0,0-.06.77v8.63a6.19,6.19,0,0,0,6.17,6.18h11.1a6.19,6.19,0,0,0,6.16-6.18v-8.63c0-.19,0-.36,0-.56a42.27,42.27,0,0,0,17.68-6.81q13.17-9,13.17-26.22Q395.69,163,381.34,154.75Z"/></svg>