<svg id="图层_1" data-name="图层 1" xmlns="http://www.w3.org/2000/svg" viewBox="0 0 512 512"><defs><style>.cls-1{fill:#b5b5b6;}</style></defs><path class="cls-1" d="M256,6C118.16,6,6,118.16,6,256S118.16,506,256,506,506,393.84,506,256,393.83,6,256,6ZM400.12,393.79v-9.87c0-34.09-39.36-46.53-60.46-55.57-7.62-3.25-22-10.18-36.78-17.35-5-2.45-9.49-8.95-10.08-14.5l-1.62-16.13c11.31-10.53,21.48-25.18,23.21-41.5H317c4,0,7.76-3,8.35-6.68l4-24.73c.5-5.28-4.47-8.47-8.5-8.47.1-.54.2-1.09.24-1.53a76.24,76.24,0,0,0,1-8.6c.24-2.27.49-4.58.54-7,.44-11.64-1.53-21.88-4.82-27.58a65.38,65.38,0,0,0-15.34-22.36C282.92,113.44,260.3,106.26,241,121.1c-13.12-2.25-28.76,3.74-40.07,17a53,53,0,0,0-11.65,23.6,73.91,73.91,0,0,0-2.65,17.8,69.46,69.46,0,0,0,1.81,19.62,8.29,8.29,0,0,0-7.72,8.42l4,24.68c.6,3.68,4.39,6.68,8.41,6.68h2.27a83.26,83.26,0,0,0,23.4,42.28l-1.57,15.58c-.54,5.57-5.06,12-10,14.51-14.31,7-28.37,13.67-36.77,17.16-19.88,8.17-60.48,21.43-60.48,55.52v7.71A198.71,198.71,0,0,1,56.35,256C56.35,145.94,145.94,56.41,256,56.41S455.65,145.94,455.65,256a199,199,0,0,1-55.53,137.76Zm0,0"/></svg>