<svg id="图层_1" data-name="图层 1" xmlns="http://www.w3.org/2000/svg" viewBox="0 0 512 512"><defs><style>.cls-1{fill:#b5b5b6;}</style></defs><path class="cls-1" d="M256,506C118.15,506,6,393.85,6,256S118.15,6,256,6,506,118.15,506,256,393.85,506,256,506Zm0-462.81C138.66,43.19,43.19,138.66,43.19,256S138.66,468.81,256,468.81,468.81,373.34,468.81,256,373.34,43.19,256,43.19Z"/><path class="cls-1" d="M256,436.37c-99.46,0-180.37-80.91-180.37-180.37S156.54,75.63,256,75.63,436.37,156.54,436.37,256,355.46,436.37,256,436.37Zm0-342.15C166.8,94.22,94.22,166.8,94.22,256S166.8,417.78,256,417.78,417.78,345.2,417.78,256,345.2,94.22,256,94.22Z"/><path class="cls-1" d="M302.46,243.9q-9.79-5.7-43.54-13.88-23.54-5.72-23.53-16.1,0-6.31,7.77-10a30.13,30.13,0,0,1,12.78-2.8q11.93,0,17.25,3.38,6.38,4.09,9.47,16l40.56-3.15q-4.47-26.61-20.49-39.27-10.62-8.39-27.25-11.2a8.32,8.32,0,0,0,.07-1.12v-14.1a10.1,10.1,0,0,0-10.07-10.07H247.35a10.1,10.1,0,0,0-10.07,10.07v14.1a9.74,9.74,0,0,0,.16,1.72,65,65,0,0,0-23.66,10.31q-20.65,14.47-20.66,41,0,28.25,23.32,41.43,8.52,4.78,43.33,14,23.31,6.19,23.32,17.15,0,7.94-9.58,11.91a40.61,40.61,0,0,1-15.66,2.92q-14.48,0-21.08-5.84T228,280.08L187,283.23q3.3,33.38,23.1,47.38,10.47,7.35,27.32,10.08a10.38,10.38,0,0,0-.09,1.26V356a10.11,10.11,0,0,0,10.07,10.08h18.13A10.11,10.11,0,0,0,275.55,356V342a9.08,9.08,0,0,0-.05-.91,69.39,69.39,0,0,0,28.88-11.13q21.5-14.7,21.5-42.82Q325.88,257.44,302.46,243.9Z"/></svg>