<svg id="图层_1" data-name="图层 1" xmlns="http://www.w3.org/2000/svg" viewBox="0 0 512 512"><defs><style>.cls-1{fill:#b5b5b6;}</style></defs><path class="cls-1" d="M293.68,74.38A181.62,181.62,0,0,0,111.93,256.13c.07,98.73,82.76,181.42,181.49,181.49A181.62,181.62,0,0,0,475.17,255.87C475.1,157.14,392.41,74.45,293.68,74.38ZM340,329.61A67,67,0,0,1,312,340.38a8.64,8.64,0,0,1,0,.88V354.9a9.78,9.78,0,0,1-9.75,9.75H284.78A9.78,9.78,0,0,1,275,354.9V341.26a9.87,9.87,0,0,1,.09-1.22q-16.29-2.62-26.44-9.75-19.16-13.56-22.35-45.84l39.76-3q2.06,13.88,8.46,19.52t20.39,5.66a39.34,39.34,0,0,0,15.14-2.82q9.27-3.84,9.27-11.53,0-10.62-22.55-16.6-33.71-8.91-41.93-13.54Q232.31,249.32,232.31,222q0-25.65,20-39.64a62.85,62.85,0,0,1,22.89-10,9,9,0,0,1-.16-1.67V157.09a9.77,9.77,0,0,1,9.74-9.74h17.55a9.77,9.77,0,0,1,9.74,9.75v13.63a7.88,7.88,0,0,1-.06,1.09q16.06,2.73,26.36,10.84,15.5,12.26,19.83,38l-39.25,3.06q-3-11.53-9.16-15.47c-3.44-2.2-9-3.28-16.69-3.28a29.3,29.3,0,0,0-12.37,2.71q-7.52,3.62-7.52,9.71,0,10.05,22.76,15.58,32.67,7.9,42.14,13.44,22.66,13.1,22.67,41.78Q360.77,315.39,340,329.61ZM465.35,249V263a5,5,0,0,1-5,5H376.23a5,5,0,0,1-5-5V249a5,5,0,0,1,5-5h84.12A5,5,0,0,1,465.35,249Z"/><path class="cls-1" d="M450.82,420a5.5,5.5,0,0,0-7.69-.1c-88.85,84.57-229.11,83.3-316.45-3.74a226.73,226.73,0,0,1,0-320.3c87.3-87,227.57-88.27,316.43-3.73a5.5,5.5,0,0,0,7.68-.1l8.85-8.85a5.53,5.53,0,0,0-.09-7.9C361.64-18.38,206.35-17.07,110,79.19c-97.62,97.67-97.6,255.94,0,353.58,96.33,96.29,251.62,97.63,349.54,4a5.52,5.52,0,0,0,.09-7.9Z"/></svg>