<svg id="图层_1" data-name="图层 1" xmlns="http://www.w3.org/2000/svg" viewBox="0 0 512 512"><defs><style>.cls-1{fill:#b5b5b6;}</style></defs><path class="cls-1" d="M411.73,248.77c-20.3-111.66-81.92-113.69-102.88-124.68a10,10,0,0,0,5.24-8.77v-4.7a10.07,10.07,0,0,0-5.92-9.14c13-13.73,41.42-25.22,41.42-51.76V29.4a23.41,23.41,0,0,0-46.81,0A23.39,23.39,0,0,0,256,29a23.39,23.39,0,0,0-46.78.41,23.41,23.41,0,0,0-46.81,0V49.72c0,26.54,28.4,38,41.42,51.76a10.07,10.07,0,0,0-5.92,9.14v4.7a10,10,0,0,0,5.24,8.77c-21,11-82.58,13-102.88,124.68C98,261.43,56.9,454.41,85.91,491c10,12.66,19.78,15,38.68,15H387.41c18.9,0,28.64-2.33,38.68-15C455.1,454.41,414,261.43,411.73,248.77ZM256,446A125,125,0,1,1,381,321,125,125,0,0,1,256,446Z"/><path class="cls-1" d="M248.25,391.73c-36.63-1.19-51.92-22.45-54.15-45.8a3.37,3.37,0,0,1,3.37-3.67h34.7a3.36,3.36,0,0,1,3.36,3.07c.5,5.83,2.8,13,11.88,15.16a3.35,3.35,0,0,0,4.11-3.27v-21a3.33,3.33,0,0,0-2.45-3.21c-4.49-1.24-9.16-2.35-14.25-4.15-21.36-7.38-35.53-14.76-35.53-36.9,0-30.45,25.57-44.22,49-45.36a3.36,3.36,0,0,0,3.2-3.36v-8.87a3.37,3.37,0,0,1,3.37-3.38h3.35a3.38,3.38,0,0,1,3.38,3.38v8.85a3.37,3.37,0,0,0,3.23,3.37c24,1,44.83,12.88,47.69,38.89a5.64,5.64,0,0,1-5.59,6.29H280.59a5.71,5.71,0,0,1-5.5-4.43c-1.25-5.18-3.87-7.44-9.15-9.05a3.37,3.37,0,0,0-4.32,3.24v14.71a3.39,3.39,0,0,0,2.64,3.3c47.87,10.83,53.86,26,53.86,47.37,0,20.41-14.52,43.57-53.23,44.81a3.36,3.36,0,0,0-3.27,3.36v12.54a3.37,3.37,0,0,1-3.38,3.37h-3.35a3.37,3.37,0,0,1-3.37-3.37V395.09A3.36,3.36,0,0,0,248.25,391.73Zm3.27-111a3.38,3.38,0,0,0-3.67-3.36c-5.52.48-10.12,2.4-10.12,8.79,0,4.32,3.17,7.45,9.4,9.4a3.38,3.38,0,0,0,4.39-3.22Zm10.1,76.51a3.38,3.38,0,0,0,4.08,3.3c7.05-1.4,12-4.88,12-11.28,0-5.7-4.23-8.53-11.54-11.24a3.38,3.38,0,0,0-4.57,3.16Z"/></svg>