<svg id="图层_1" data-name="图层 1" xmlns="http://www.w3.org/2000/svg" viewBox="0 0 512 512"><defs><style>.cls-1{fill:#eb5c20;}</style></defs><path class="cls-1" d="M446.15,251.91c-.68-.57-1.41-1.08-2-1.7q-44.19-44.16-88.38-88.31a4.52,4.52,0,0,1-1.4-4.62c2.4-12.62,11.72-22.19,24.3-24.35a29.23,29.23,0,0,1,25,7c.72.62,1.4,1.3,2.08,2q45.35,45.36,90.72,90.7a30.35,30.35,0,0,1,9.37,23,40.06,40.06,0,0,1-.91,9.27,29.28,29.28,0,0,1-7.71,13.59q-46.1,46.13-92.26,92.2c-8.72,8.66-19.44,11-31,6.95S356,365.08,354.12,353.07c0-.16,0-.32-.05-.48-.58-6.65-.58-6.65,4.1-11.34q39-39,78-78C439.59,259.78,443.56,256.76,446.15,251.91Z"/><path class="cls-1" d="M322.63,303.15a47.24,47.24,0,1,1,47.19-47.5A47.16,47.16,0,0,1,322.63,303.15Z"/><path class="cls-1" d="M169.32,255.93A32.07,32.07,0,1,1,201.26,288,32,32,0,0,1,169.32,255.93Z"/><path class="cls-1" d="M134.55,256.23a26.46,26.46,0,1,1-26-26.76A26.41,26.41,0,0,1,134.55,256.23Z"/><path class="cls-1" d="M23.41,273.41a17.5,17.5,0,1,1,17.81-17.19A17.49,17.49,0,0,1,23.41,273.41Z"/></svg>