<svg id="图层_1" data-name="图层 1" xmlns="http://www.w3.org/2000/svg" viewBox="0 0 512 512"><defs><style>.cls-1{fill:#b5b5b6;}</style></defs><path class="cls-1" d="M506,193.45v-.06c-2.64-52.56-43.49-78.88-86-96.95C375.46,78.33,318.65,68.34,256,68.15c-62.7.19-119.5,10.18-164,28.29C49.55,114.51,8.67,140.83,6,193.39a.76.76,0,0,0,0,.22L6,318.73c2.73,52.5,43.55,78.82,86,96.89,44.51,18.11,101.28,28.17,164,28.23S375.49,433.73,420,415.62c42.56-18.07,83.3-44.39,86.05-96.89V193.45ZM428.33,318.73h-.19c-.46,3.51-18.38,19.7-50.23,29.82-31.52,10.65-74.69,17.73-121.9,17.67-54,.13-102.72-9.28-134.66-22.3-15.9-6.55-27.41-14.07-32.95-19.52a25.68,25.68,0,0,1-4.61-5.67h-.13V286.59c2.78,1.25,5.52,2.63,8.34,3.82,44.51,18.08,101.31,28.1,164,28.14s119.45-10.06,164-28.14c2.8-1.19,5.58-2.57,8.37-3.82Zm-.15-125.28c-.5,3.58-18.42,19.8-50.31,29.86C346.45,234,303.19,241.07,256,240.94c-54,.13-102.81-9.24-134.6-22.39-16-6.42-27.47-13.91-33-19.52a22,22,0,0,1-4.58-5.58l-.15-.06.15-.06c.49-3.51,18.41-19.7,50.32-29.76,31.5-10.65,74.67-17.73,121.9-17.73,53.94-.06,102.72,9.21,134.61,22.36,15.93,6.49,27.43,14,32.94,19.46a25.08,25.08,0,0,1,4.62,5.67l.15.06Z"/></svg>