<svg width="512" height="512" xmlns="http://www.w3.org/2000/svg" data-name="图层 1">
 <g>
  <title>Layer 1</title>
  <path class="cls-1" d="m231,376.21a14.65,14.65 0 1 1 -14.67,14.62a14.64,14.64 0 0 1 14.67,-14.62l0,0m229.67,-90.57a14.65,14.65 0 1 1 14.69,-14.64a14.64,14.64 0 0 1 -14.65,14.63m0,-59.91a45.19,45.19 0 0 0 -42.9,59.69l-149.61,79.65a45.2,45.2 0 0 0 -77.79,5.81l-134.41,-70.87c-14.2,-7.46 -24.83,-30.84 -23.71,-52.13c0.59,-11.1 4.42,-19.73 10.28,-23.06c3.7,-2.08 8.16,-1.92 12.91,0.56l0.88,0.48c35.64,18.75 152.18,80.15 157.09,82.42c7.57,3.52 11.77,4.94 24.69,-1.19l240.92,-125.29c3.54,-1.33 7.67,-4.73 7.67,-9.88c0,-7.12 -7.38,-9.93 -7.4,-9.93c-13.71,-6.57 -34.77,-16.42 -55.31,-26c-43.92,-20.56 -93.69,-43.85 -115.54,-55.31c-18.88,-9.87 -34.07,-1.54 -36.78,0.13l-5.25,2.6c-98.37,48.6 -230.04,113.81 -237.54,118.37c-13.4,8.16 -21.71,24.44 -22.79,44.62c-1.67,32 14.64,65.42 38,77.65l142.12,73.29a45.27,45.27 0 0 0 90.07,-5.79l156.54,-84.85a45.28,45.28 0 1 0 27.86,-81" fill="#b5b5b6" id="svg_1"/>
 </g>

</svg>