<svg id="图层_1" data-name="图层 1" xmlns="http://www.w3.org/2000/svg" viewBox="0 0 512 512"><defs><style>.cls-1{fill:#b5b5b6;}</style></defs><path class="cls-1" d="M256,6C117.94,6,6,117.94,6,256S117.94,506,256,506,506,394.08,506,256,394.06,6,256,6Zm70,440.45c-1.44-19.56-3-43.8-3.14-53.61-.63-7.53-1.44-26.68-19.63-38.92,72.21-6.05,106.57-45.95,109-98.69,2.06-30-9.88-56.43-31.08-77.75a426.33,426.33,0,0,0-2.16-61.68c-16.28-4.69-54.25,15.36-64.86,23.94-22.37-8.69-77.14-11.74-110.42,0-23.59-16.6-50.45-26.85-65.09-24-13.52,30-4.83,58.27-2.19,61.64-17.41,15.91-41.69,35.49-35.09,76.5C112,314,154.3,346.47,222.42,354.41c-14.53,3-17,13.81-18.2,18.51-45.75,18.88-58.83-11.65-64.61-19.61-19.2-23.76-36.44-16.87-37.5-16.5a3,3,0,0,0-1.71,2.6c1,5.12,11.43,10.33,11.94,10.75,14.17,10.56,19.42,29.64,22.66,35.07,20.33,33.43,67.58,19.57,68,19.85,0,2.92-.33,27.51-.61,46.65C116.27,428.2,52.87,349.61,52.87,256,52.87,143.81,143.81,52.88,256,52.88S459.12,143.81,459.12,256C459.12,343.55,403.66,417.9,326,446.45Z"/></svg>