<?xml version="1.0" encoding="utf-8"?>
<!-- Generator: Adobe Illustrator 25.4.1, SVG Export Plug-In . SVG Version: 6.00 Build 0)  -->
<svg version="1.1" id="图层_1" xmlns="http://www.w3.org/2000/svg" xmlns:xlink="http://www.w3.org/1999/xlink" x="0px" y="0px"
	 viewBox="0 0 512 512" style="enable-background:new 0 0 512 512;" xml:space="preserve">
<style type="text/css">
	.st0{fill-rule:evenodd;clip-rule:evenodd;fill:#EB5C20;}
	.st1{fill-rule:evenodd;clip-rule:evenodd;fill:#E29227;}
	.st2{fill:#EB5C20;}
	.st3{fill-rule:evenodd;clip-rule:evenodd;fill:#70BA33;}
	.st4{fill-rule:evenodd;clip-rule:evenodd;fill:#1C9965;}
	.st5{fill-rule:evenodd;clip-rule:evenodd;fill:#1E5D91;}
	.st6{fill-rule:evenodd;clip-rule:evenodd;fill:#C6224E;}
	.st7{fill:#B5B5B6;}
	.st8{fill-rule:evenodd;clip-rule:evenodd;fill:#B5B5B6;}
	.st9{fill:#DF5B23;}
	.st10{fill:#B5B5B6;stroke:#B5B5B6;stroke-width:10;stroke-miterlimit:10;}
	.st11{fill:#B5B5B6;stroke:#B5B5B6;stroke-width:18;stroke-miterlimit:10;}
	.st12{fill:#1E5D91;}
	.st13{fill:#E29227;}
	.st14{fill:#1C9965;}
	.st15{fill:#70BA33;}
	.st16{fill:#C6224E;}
	.st17{fill:#0E0304;}
	.st18{fill:#29292C;}
	.st19{fill:#2E3032;}
	.st20{fill:#1A1A1B;}
	.st21{fill:#757579;}
	.st22{fill:none;stroke:#B5B5B6;stroke-width:30;stroke-linecap:round;stroke-linejoin:round;stroke-miterlimit:10;}
	.st23{fill:#040000;}
	.st24{fill-rule:evenodd;clip-rule:evenodd;fill:#040000;}
	.st25{fill:url(#SVGID_1_);}
	.st26{fill:#EBE7C3;}
	.st27{fill-rule:evenodd;clip-rule:evenodd;fill:#EBE7C3;}
	.st28{fill:#FFFFFF;}
	.st29{fill:none;stroke:#B5B5B6;stroke-width:10;stroke-miterlimit:10;}
	.st30{fill-rule:evenodd;clip-rule:evenodd;fill:url(#SVGID_00000109739475716790799380000014207619899414439055_);}
	.st31{fill:#221F20;}
	.st32{fill:#F1AA43;}
	.st33{fill:#EB9326;}
	.st34{fill:#EE9F38;}
	.st35{fill:#E8891D;}
	.st36{fill:#EF9E36;}
	.st37{fill:#F9C88E;}
	.st38{fill:#CB838E;}
	.st39{fill:#F7BF75;}
	.st40{fill-rule:evenodd;clip-rule:evenodd;fill:#DF5B23;}
	.st41{fill:#2F2833;}
	.st42{fill:#403944;}
	.st43{fill:#DF5924;}
	.st44{fill-rule:evenodd;clip-rule:evenodd;fill:#CCBCB1;}
	.st45{fill-rule:evenodd;clip-rule:evenodd;fill:#393939;}
	.st46{fill-rule:evenodd;clip-rule:evenodd;fill:#EF9839;}
	.st47{fill-rule:evenodd;clip-rule:evenodd;fill:#EF993A;}
	.st48{fill-rule:evenodd;clip-rule:evenodd;fill:#D07A32;}
	.st49{fill-rule:evenodd;clip-rule:evenodd;fill:#E1893D;}
	.st50{fill-rule:evenodd;clip-rule:evenodd;fill:#E28C38;}
	.st51{fill-rule:evenodd;clip-rule:evenodd;fill:#E18B3C;}
	.st52{fill-rule:evenodd;clip-rule:evenodd;fill:#DF7F24;}
	.st53{fill-rule:evenodd;clip-rule:evenodd;fill:#DDCCC2;}
	.st54{fill-rule:evenodd;clip-rule:evenodd;fill:#DF8C38;}
	.st55{fill-rule:evenodd;clip-rule:evenodd;fill:#8B5930;}
	.st56{fill:#1C5AA8;}
	.st57{fill:#2156A6;}
	.st58{fill:#E7B41E;}
	.st59{fill:#298CCD;}
	.st60{fill:#123443;}
	.st61{fill:#B8266A;}
	.st62{fill:#1B4B68;}
	.st63{fill:#1C4157;}
	.st64{fill:#4A6894;}
	.st65{fill:#343535;}
	.st66{fill:#3E5375;}
	.st67{fill:#6CAACE;}
	.st68{fill:#335C85;}
	.st69{fill:#5294B1;}
	.st70{fill-rule:evenodd;clip-rule:evenodd;fill:#5255A3;}
	.st71{fill-rule:evenodd;clip-rule:evenodd;fill:#2B60AC;}
	.st72{fill:#2B60AC;}
	.st73{fill:#E8412E;}
	.st74{fill:#E83F21;}
	.st75{fill:#E33E28;}
	.st76{fill:#E84138;}
	.st77{fill:#E94526;}
	.st78{fill:#E94423;}
	.st79{fill:#E9481F;}
	.st80{fill:#E94522;}
	.st81{fill:#E9461F;}
	.st82{fill:#E84236;}
	.st83{fill:#E9471E;}
	.st84{fill:#E6411D;}
	.st85{fill:#E8412F;}
	.st86{fill:#132533;}
	.st87{fill:url(#SVGID_00000070815363247306966340000018403599160298730393_);}
	.st88{fill:url(#SVGID_00000036970471871150097080000000349169774448127116_);}
	.st89{fill:#CBCFD7;}
	.st90{fill:url(#SVGID_00000120548013724985716350000006765882331873907639_);}
	.st91{fill:url(#SVGID_00000126283332544991712550000010137999658165519800_);}
	.st92{fill:#366FAE;}
	.st93{fill:#FFF100;}
	.st94{fill:url(#SVGID_00000126297690915766173450000006890296559638108550_);}
	.st95{fill:#FFE000;}
	.st96{fill:url(#SVGID_00000149345403833769416780000010926858420481600896_);}
	.st97{fill:#FAC000;}
	.st98{fill:url(#SVGID_00000071530758692536322820000005993104025697066392_);}
	.st99{fill:#F4A000;}
	.st100{fill:url(#SVGID_00000013887102023894694010000012127072057617021868_);}
	.st101{fill:#EE7300;}
	.st102{fill:url(#SVGID_00000167361926732748684200000001737998351404583094_);}
	.st103{fill:#E94709;}
	.st104{fill:url(#SVGID_00000119812502216088649300000018111557717665578657_);}
	.st105{fill:#009E41;}
	.st106{fill:url(#SVGID_00000007408025826592901270000009995927463456858004_);}
	.st107{fill:#40AF36;}
	.st108{fill:url(#SVGID_00000106137909922576460790000007466269918417517464_);}
	.st109{fill:#72BB2B;}
	.st110{fill:url(#SVGID_00000023251548362058984410000015984039508365125774_);}
	.st111{fill:#E3E300;}
	.st112{fill:url(#SVGID_00000167392132373597471130000000883719825966083218_);}
	.st113{fill:#A3CA0F;}
	.st114{fill:url(#SVGID_00000071517886796160699200000014119764784824379070_);}
	.st115{fill:#C4D700;}
	.st116{fill:url(#SVGID_00000125596615974561324350000015378475155096598170_);}
	.st117{fill:#36B8B7;}
	.st118{fill:#3EB4AD;}
	.st119{fill:#3AB8B9;}
	.st120{fill:#56BAB0;}
	.st121{fill:#65BBB2;}
	.st122{fill:#32B7B0;}
	.st123{fill:#2EB6AE;}
	.st124{fill:#48B6BC;}
	.st125{fill:#4DB5BD;}
	.st126{fill:#3EB4AE;}
	.st127{fill:#57BBB1;}
	.st128{fill:#060909;}
	.st129{fill:#061014;}
	.st130{fill:#FAFAFB;}
	.st131{fill:#F6F7F7;}
	.st132{fill:#F7F7F7;}
	.st133{fill:#F6F6F6;}
	.st134{fill:#7CB8BD;}
	.st135{fill:#3FB5B7;}
	.st136{fill:#4DB6B9;}
	.st137{fill:#F4F5F5;}
	.st138{fill:#F5F5F5;}
	.st139{fill:#070505;}
	.st140{fill:#F4F3F3;}
	.st141{fill:#050202;}
	.st142{fill:#71BCBA;}
	.st143{fill:#73BBB8;}
	.st144{fill:#76BEBC;}
	.st145{fill:#83B8B8;}
	.st146{fill:#3DB9B5;}
	.st147{fill:#40BABA;}
	.st148{fill:#36B8B6;}
	.st149{fill:#28B6B2;}
	.st150{fill:#00B5C6;}
	.st151{fill:#00B5C2;}
	.st152{fill:#23B7BB;}
	.st153{fill:#00B5C4;}
	.st154{fill:#14B6BE;}
	.st155{fill:#09B6C0;}
	.st156{fill:#41B9B1;}
	.st157{fill:#00B4D0;}
	.st158{fill:#00B4D3;}
	.st159{fill:#30B8B8;}
	.st160{fill:#00B4CD;}
	.st161{fill:#1CB6BD;}
	.st162{fill:#28B7BA;}
	.st163{fill:#47BAAE;}
	.st164{fill:#34B8B6;}
	.st165{fill:#4CBBAD;}
	.st166{fill:#3BB9B3;}
	.st167{fill:#44BAAF;}
	.st168{fill:#00B3D6;}
	.st169{fill:#00B3D9;}
	.st170{fill:#00B3D7;}
	.st171{fill:#00B3DB;}
	.st172{fill:#00B5CA;}
	.st173{fill:#37B8B5;}
	.st174{fill:#1BB6BD;}
	.st175{fill:#00B5C8;}
	.st176{fill:#231815;stroke:#FFFFFF;stroke-width:0.187;stroke-miterlimit:10;}
	.st177{fill:#023592;}
	.st178{fill-rule:evenodd;clip-rule:evenodd;fill:#60BEA1;}
	.st179{fill:#FFFFFF;stroke:#FFFFFF;stroke-width:0.187;stroke-miterlimit:10;}
	.st180{clip-path:url(#SVGID_00000026873761069536899040000015514936225795081349_);}
	.st181{fill:#7C2B7F;}
	.st182{fill:#752C7F;}
	.st183{fill:#EE8753;}
	.st184{fill:#F09D47;}
	.st185{fill:#EF944D;}
	.st186{fill:#EE8C51;}
	.st187{fill:#EC795A;}
	.st188{fill:#F0984B;}
	.st189{fill:#EB715E;}
	.st190{fill:#9E2F7F;}
	.st191{fill:#AA2E7E;}
	.st192{fill:#EC7C5D;}
	.st193{fill:#C4337F;}
	.st194{fill:#932D7F;}
	.st195{fill:#A42F7E;}
	.st196{fill:#BD317E;}
	.st197{fill:#B8327F;}
	.st198{fill:#B2317E;}
	.st199{fill:#992D7F;}
	.st200{fill:#CA347F;}
	.st201{fill:#8C2D7F;}
	.st202{fill:#D0357F;}
	.st203{fill:#AE307E;}
	.st204{fill:#EC765E;}
	.st205{fill:#DB377F;}
	.st206{fill:#E44676;}
	.st207{fill:#862C7E;}
	.st208{fill:#E96B64;}
	.st209{fill:#D6357F;}
	.st210{fill:#E96B62;}
	.st211{fill:#E13A80;}
	.st212{fill:#E13D7E;}
	.st213{fill:#822B7F;}
	.st214{fill:#E54D75;}
	.st215{fill:#33A2D3;}
	.st216{fill:#E3417B;}
	.st217{fill:#E65371;}
	.st218{fill:#E65B6C;}
	.st219{fill:#E96764;}
	.st220{fill:#E85F68;}
	.st221{fill:#E96366;}
	.st222{fill:#EA6F67;}
	.st223{fill:#E6566D;}
	.st224{fill:#EA6C6C;}
	.st225{fill:#E7606E;}
	.st226{fill:#EB7563;}
	.st227{fill:#EC7C69;}
	.st228{fill:#E8687D;}
	.st229{fill:#E0EDF7;}
	.st230{fill:#E9676E;}
	.st231{fill:#E9B536;}
	.st232{fill:#864690;}
	.st233{fill:#334190;}
	.st234{fill:#6A438D;}
	.st235{fill:#6B438D;}
	.st236{fill:#6B448D;}
	.st237{fill:#3A4291;}
	.st238{fill:#81458F;}
	.st239{fill:#644390;}
	.st240{fill:#9E458E;}
	.st241{fill:#98468F;}
	.st242{fill:#92468F;}
	.st243{fill:#8D458F;}
	.st244{fill:#9B468F;}
	.st245{fill:#90468E;}
	.st246{fill:#9C468F;}
	.st247{fill:#A3458D;}
	.st248{fill:#4E4491;}
	.st249{fill:#434291;}
	.st250{fill:#534290;}
	.st251{fill:#6E4591;}
	.st252{fill:#754490;}
	.st253{fill:#5F4390;}
	.st254{fill:#7B4490;}
	.st255{fill:#584390;}
	.st256{fill:#594390;}
	.st257{fill:#474392;}
	.st258{fill:#B3458C;}
	.st259{fill:#6A4491;}
	.st260{fill:#AE468C;}
	.st261{fill:#97458F;}
	.st262{fill:#B6468C;}
	.st263{fill:#9B458E;}
	.st264{fill:#C4468C;}
	.st265{fill:#BD478C;}
	.st266{fill:#AA468D;}
	.st267{fill:#A7468D;}
	.st268{fill:#B3468D;}
	.st269{fill:#B0458C;}
	.st270{fill:#BC468C;}
	.st271{fill:#AF458C;}
	.st272{fill:#B9468C;}
	.st273{fill:#BD468B;}
	.st274{fill:#BA468C;}
	.st275{fill:url(#Fill_1_00000008834078082852038580000005575064433240756368_);}
	.st276{fill:url(#Fill_3_00000085221124295994169990000011037801306960937857_);}
	.st277{fill:url(#Fill_5_00000080889341497592796990000006583415892885080741_);}
	.st278{fill:#1E201F;}
	.st279{fill:#3AB9B5;}
	.st280{fill:#27B4B0;}
	.st281{fill:#009694;}
	.st282{fill:#554B9D;}
	.st283{clip-path:url(#SVGID_00000023972773382771719530000016739788524730449081_);}
	.st284{fill:#375BD2;}
</style>
<g>
	<defs>
		<rect id="SVGID_00000031175704551098235600000003115247761766369670_" x="6" y="174" width="500" height="163.9"/>
	</defs>
	<clipPath id="SVGID_00000069394068058027858880000004246622258615499661_">
		<use xlink:href="#SVGID_00000031175704551098235600000003115247761766369670_"  style="overflow:visible;"/>
	</clipPath>
	<g style="clip-path:url(#SVGID_00000069394068058027858880000004246622258615499661_);">
		<path class="st284" d="M177.7,253.5c-0.1-3.6,0.5-7.3,1.8-10.7c1.3-3.4,3.3-6.5,5.9-9.1c2.5-2.6,5.6-4.7,9-6.1
			c3.4-1.4,7-2.1,10.7-2.1c13.8,0,22,8.1,24.4,17.5l-8.7,2.9c-0.8-3.5-2.8-6.7-5.7-8.8c-2.9-2.2-6.5-3.2-10.1-3
			c-8.9,0-17.9,6.5-17.9,19.6c0,13.1,8.7,19.3,18,19.3c3.6,0.1,7.2-1,10.1-3.2c2.9-2.2,5-5.2,6-8.7l8.4,2.7
			c-1.4,5.3-4.7,10-9.2,13.3c-4.5,3.2-10,4.9-15.5,4.6c-3.7,0.1-7.4-0.6-10.8-2c-3.4-1.4-6.5-3.5-9.1-6.2c-2.6-2.6-4.5-5.8-5.8-9.2
			C178,260.9,177.4,257.2,177.7,253.5z"/>
		<path class="st284" d="M246.3,280.4h-8.9v-55.1h8.9V247c1.3-1.5,2.9-2.7,4.7-3.5c1.8-0.8,3.8-1.2,5.8-1.1
			c9.2,0,13.6,6.5,13.6,14.7v23.4h-8.6v-21.9c0.2-1.1,0.1-2.2-0.2-3.2c-0.3-1-0.9-2-1.6-2.8c-0.7-0.8-1.6-1.4-2.7-1.8
			c-1-0.4-2.1-0.6-3.2-0.5c-1.1,0-2.1,0.2-3.1,0.7c-1,0.4-1.9,1.1-2.6,1.8c-0.7,0.8-1.3,1.7-1.6,2.7c-0.3,1-0.5,2.1-0.4,3.1
			L246.3,280.4z"/>
		<path class="st284" d="M290.3,259.2l9.5-1.5c2.1-0.3,2.7-1.4,2.7-2.7c0-3.1-2.1-5.6-7-5.6c-1-0.1-1.9,0-2.8,0.3
			c-0.9,0.3-1.7,0.8-2.5,1.4c-0.7,0.6-1.3,1.4-1.7,2.3c-0.4,0.9-0.6,1.8-0.7,2.7l-8.1-1.8c0.7-6.4,6.5-12.1,15.7-12.1
			c11.5,0,15.8,6.5,15.8,14v18.4c0,2,0.1,4,0.5,6h-8.3c-0.3-1.6-0.4-3.1-0.4-4.7c-1.2,1.9-2.9,3.4-5,4.4c-2,1-4.3,1.5-6.5,1.4
			c-1.6,0.1-3.2-0.1-4.7-0.6c-1.5-0.5-2.9-1.3-4.1-2.3c-1.2-1-2.1-2.3-2.8-3.7c-0.7-1.4-1-3-1.1-4.5
			C279,263.8,283.9,260.1,290.3,259.2z M302.6,265.2v-1.7l-9.7,1.4c-1.3,0-2.6,0.6-3.5,1.5c-0.9,0.9-1.4,2.2-1.5,3.5
			c0,0.7,0.2,1.3,0.4,2c0.3,0.6,0.7,1.2,1.2,1.6c0.5,0.5,1.1,0.8,1.8,1c0.6,0.2,1.3,0.3,2,0.2c1.3,0.1,2.6,0,3.8-0.5
			c1.2-0.4,2.3-1.2,3.2-2.1c0.9-0.9,1.6-2,2-3.3C302.7,267.7,302.8,266.4,302.6,265.2z"/>
		<path class="st284" d="M326.4,224.6c0.8,0,1.5,0.1,2.2,0.4c0.7,0.3,1.4,0.7,1.9,1.2c0.5,0.5,1,1.2,1.3,1.9
			c0.3,0.7,0.4,1.5,0.4,2.2c0,1.5-0.6,3-1.7,4.1c-1.1,1.1-2.6,1.7-4.1,1.7c-1.5,0-3-0.6-4.1-1.7c-1.1-1.1-1.7-2.5-1.7-4.1
			c0-1.5,0.6-3,1.7-4C323.4,225.3,324.9,224.6,326.4,224.6z M322.1,280.6v-37.2h8.8v37L322.1,280.6z"/>
		<path class="st284" d="M351.2,280.4h-8.9v-37h8.7v4.9c1.1-1.9,2.7-3.5,4.7-4.5c1.9-1.1,4.1-1.6,6.3-1.5c9.1,0,13.5,6.5,13.5,14.7
			v23.4h-8.9v-21.9c0-4.6-2.1-8.2-7.6-8.2c-1.1,0-2.2,0.2-3.2,0.7c-1,0.5-1.9,1.1-2.6,1.9c-0.7,0.8-1.3,1.8-1.6,2.9
			c-0.3,1.1-0.4,2.2-0.3,3.3V280.4z"/>
		<path class="st284" d="M386.2,280.4v-55.1h8.9v55.1H386.2z"/>
		<path class="st284" d="M411,224.6c1.5,0,3,0.6,4.1,1.7c1.1,1.1,1.7,2.6,1.7,4.1c0,1.1-0.4,2.2-1,3.2c-0.6,0.9-1.5,1.7-2.6,2.1
			c-1.1,0.4-2.2,0.5-3.3,0.3c-1.1-0.2-2.1-0.8-2.9-1.6c-0.8-0.8-1.4-1.8-1.6-2.9c-0.2-1.1-0.1-2.3,0.3-3.3c0.4-1,1.2-1.9,2.1-2.6
			C408.7,224.9,409.8,224.6,411,224.6z M406.6,280.6v-37.2h8.8v37L406.6,280.6z"/>
		<path class="st284" d="M435.8,280.4h-8.9v-37h8.6v4.9c1.1-1.9,2.7-3.4,4.7-4.5c1.9-1.1,4.1-1.6,6.3-1.5c9.1,0,13.5,6.5,13.5,14.7
			v23.4h-8.9v-21.9c0.2-1.1,0.1-2.2-0.2-3.2c-0.3-1-0.9-2-1.6-2.8c-0.7-0.8-1.6-1.4-2.7-1.8c-1-0.4-2.1-0.6-3.2-0.5
			c-1.1,0-2.2,0.2-3.2,0.7c-1,0.5-1.9,1.1-2.6,1.9c-0.7,0.8-1.3,1.8-1.6,2.9c-0.3,1.1-0.4,2.2-0.3,3.3V280.4z"/>
		<path class="st284" d="M490.4,259l15.6,21.4h-10.9l-11-15.3l-4.6,4.8v10.5h-8.8v-55.1h8.8v33l14.3-15h11.8L490.4,259z"/>
		<path class="st284" d="M72.5,210.5l38.4,21.9v44l-38.3,22.1l-38.4-21.9v-44L72.5,210.5z M72.5,178.1l-14.1,8.1l-38.3,22.1L6,216.5
			v16.2v44v16.2l14.1,8.1l38.4,21.9l14.1,8.1l14.1-8.1l38.3-22.1l14.1-8.1v-16.2v-44v-16.2l-14.1-8.1l-38.4-21.9L72.5,178.1
			L72.5,178.1z"/>
	</g>
</g>
</svg>
