<?xml version="1.0" encoding="utf-8"?>
<!-- Generator: Adobe Illustrator 25.4.1, SVG Export Plug-In . SVG Version: 6.00 Build 0)  -->
<svg version="1.1" id="图层_1" xmlns="http://www.w3.org/2000/svg" xmlns:xlink="http://www.w3.org/1999/xlink" x="0px" y="0px"
	 viewBox="0 0 512 512" style="enable-background:new 0 0 512 512;" xml:space="preserve">
<style type="text/css">
	.st0{fill-rule:evenodd;clip-rule:evenodd;fill:#EB5C20;}
	.st1{fill-rule:evenodd;clip-rule:evenodd;fill:#E29227;}
	.st2{fill:#EB5C20;}
	.st3{fill-rule:evenodd;clip-rule:evenodd;fill:#70BA33;}
	.st4{fill-rule:evenodd;clip-rule:evenodd;fill:#1C9965;}
	.st5{fill-rule:evenodd;clip-rule:evenodd;fill:#1E5D91;}
	.st6{fill-rule:evenodd;clip-rule:evenodd;fill:#C6224E;}
	.st7{fill:#B5B5B6;}
	.st8{fill-rule:evenodd;clip-rule:evenodd;fill:#B5B5B6;}
	.st9{fill:#DF5B23;}
	.st10{fill:#B5B5B6;stroke:#B5B5B6;stroke-width:10;stroke-miterlimit:10;}
	.st11{fill:#B5B5B6;stroke:#B5B5B6;stroke-width:18;stroke-miterlimit:10;}
	.st12{fill:#1E5D91;}
	.st13{fill:#E29227;}
	.st14{fill:#1C9965;}
	.st15{fill:#70BA33;}
	.st16{fill:#C6224E;}
	.st17{fill:#0E0304;}
	.st18{fill:#29292C;}
	.st19{fill:#2E3032;}
	.st20{fill:#1A1A1B;}
	.st21{fill:#757579;}
	.st22{fill:none;stroke:#B5B5B6;stroke-width:30;stroke-linecap:round;stroke-linejoin:round;stroke-miterlimit:10;}
	.st23{fill:#040000;}
	.st24{fill-rule:evenodd;clip-rule:evenodd;fill:#040000;}
	.st25{fill:url(#SVGID_1_);}
	.st26{fill:#EBE7C3;}
	.st27{fill-rule:evenodd;clip-rule:evenodd;fill:#EBE7C3;}
	.st28{fill:#FFFFFF;}
	.st29{fill:none;stroke:#B5B5B6;stroke-width:10;stroke-miterlimit:10;}
	.st30{fill-rule:evenodd;clip-rule:evenodd;fill:url(#SVGID_00000085955336591884706000000015186819190606204078_);}
	.st31{fill:#221F20;}
	.st32{fill:#F1AA43;}
	.st33{fill:#EB9326;}
	.st34{fill:#EE9F38;}
	.st35{fill:#E8891D;}
	.st36{fill:#EF9E36;}
	.st37{fill:#F9C88E;}
	.st38{fill:#CB838E;}
	.st39{fill:#F7BF75;}
	.st40{fill-rule:evenodd;clip-rule:evenodd;fill:#DF5B23;}
	.st41{fill:#2F2833;}
	.st42{fill:#403944;}
	.st43{fill:#DF5924;}
	.st44{fill-rule:evenodd;clip-rule:evenodd;fill:#CCBCB1;}
	.st45{fill-rule:evenodd;clip-rule:evenodd;fill:#393939;}
	.st46{fill-rule:evenodd;clip-rule:evenodd;fill:#EF9839;}
	.st47{fill-rule:evenodd;clip-rule:evenodd;fill:#EF993A;}
	.st48{fill-rule:evenodd;clip-rule:evenodd;fill:#D07A32;}
	.st49{fill-rule:evenodd;clip-rule:evenodd;fill:#E1893D;}
	.st50{fill-rule:evenodd;clip-rule:evenodd;fill:#E28C38;}
	.st51{fill-rule:evenodd;clip-rule:evenodd;fill:#E18B3C;}
	.st52{fill-rule:evenodd;clip-rule:evenodd;fill:#DF7F24;}
	.st53{fill-rule:evenodd;clip-rule:evenodd;fill:#DDCCC2;}
	.st54{fill-rule:evenodd;clip-rule:evenodd;fill:#DF8C38;}
	.st55{fill-rule:evenodd;clip-rule:evenodd;fill:#8B5930;}
	.st56{fill:#1C5AA8;}
	.st57{fill:#2156A6;}
	.st58{fill:#E7B41E;}
	.st59{fill:#298CCD;}
	.st60{fill:#123443;}
	.st61{fill:#B8266A;}
	.st62{fill:#1B4B68;}
	.st63{fill:#1C4157;}
	.st64{fill:#4A6894;}
	.st65{fill:#343535;}
	.st66{fill:#3E5375;}
	.st67{fill:#6CAACE;}
	.st68{fill:#335C85;}
	.st69{fill:#5294B1;}
	.st70{fill-rule:evenodd;clip-rule:evenodd;fill:#5255A3;}
	.st71{fill-rule:evenodd;clip-rule:evenodd;fill:#2B60AC;}
	.st72{fill:#2B60AC;}
	.st73{fill:#E8412E;}
	.st74{fill:#E83F21;}
	.st75{fill:#E33E28;}
	.st76{fill:#E84138;}
	.st77{fill:#E94526;}
	.st78{fill:#E94423;}
	.st79{fill:#E9481F;}
	.st80{fill:#E94522;}
	.st81{fill:#E9461F;}
	.st82{fill:#E84236;}
	.st83{fill:#E9471E;}
	.st84{fill:#E6411D;}
	.st85{fill:#E8412F;}
	.st86{fill:#132533;}
	.st87{fill:url(#SVGID_00000096741758977512019640000013577354413276619706_);}
	.st88{fill:url(#SVGID_00000130615503226299724340000000130367309018611895_);}
	.st89{fill:#CBCFD7;}
	.st90{fill:url(#SVGID_00000148640069730239118690000017163904283547712947_);}
	.st91{fill:url(#SVGID_00000075855776300101599330000012798494675735266221_);}
	.st92{fill:#366FAE;}
	.st93{fill:#FFF100;}
	.st94{fill:url(#SVGID_00000054250668156791179930000002969575793650383508_);}
	.st95{fill:#FFE000;}
	.st96{fill:url(#SVGID_00000021082406531301957050000001554625429961080505_);}
	.st97{fill:#FAC000;}
	.st98{fill:url(#SVGID_00000165212355013582482370000016606009913954077585_);}
	.st99{fill:#F4A000;}
	.st100{fill:url(#SVGID_00000077287114420665568660000002643959321036564868_);}
	.st101{fill:#EE7300;}
	.st102{fill:url(#SVGID_00000160175122614738325510000003681986407291573890_);}
	.st103{fill:#E94709;}
	.st104{fill:url(#SVGID_00000032628859367564781410000014863323627597352577_);}
	.st105{fill:#009E41;}
	.st106{fill:url(#SVGID_00000003792951086780999830000017900172936878276784_);}
	.st107{fill:#40AF36;}
	.st108{fill:url(#SVGID_00000143617078393913807430000004326233038054065321_);}
	.st109{fill:#72BB2B;}
	.st110{fill:url(#SVGID_00000051377750992375006050000016113418920758325632_);}
	.st111{fill:#E3E300;}
	.st112{fill:url(#SVGID_00000052070646857826279880000009648588346986393491_);}
	.st113{fill:#A3CA0F;}
	.st114{fill:url(#SVGID_00000158019523241679725720000010446979634910575506_);}
	.st115{fill:#C4D700;}
	.st116{fill:url(#SVGID_00000087396304214655557970000012263594040741983138_);}
	.st117{fill:#36B8B7;}
	.st118{fill:#3EB4AD;}
	.st119{fill:#3AB8B9;}
	.st120{fill:#56BAB0;}
	.st121{fill:#65BBB2;}
	.st122{fill:#32B7B0;}
	.st123{fill:#2EB6AE;}
	.st124{fill:#48B6BC;}
	.st125{fill:#4DB5BD;}
	.st126{fill:#3EB4AE;}
	.st127{fill:#57BBB1;}
	.st128{fill:#060909;}
	.st129{fill:#061014;}
	.st130{fill:#FAFAFB;}
	.st131{fill:#F6F7F7;}
	.st132{fill:#F7F7F7;}
	.st133{fill:#F6F6F6;}
	.st134{fill:#7CB8BD;}
	.st135{fill:#3FB5B7;}
	.st136{fill:#4DB6B9;}
	.st137{fill:#F4F5F5;}
	.st138{fill:#F5F5F5;}
	.st139{fill:#070505;}
	.st140{fill:#F4F3F3;}
	.st141{fill:#050202;}
	.st142{fill:#71BCBA;}
	.st143{fill:#73BBB8;}
	.st144{fill:#76BEBC;}
	.st145{fill:#83B8B8;}
	.st146{fill:#3DB9B5;}
	.st147{fill:#40BABA;}
	.st148{fill:#36B8B6;}
	.st149{fill:#28B6B2;}
	.st150{fill:#00B5C6;}
	.st151{fill:#00B5C2;}
	.st152{fill:#23B7BB;}
	.st153{fill:#00B5C4;}
	.st154{fill:#14B6BE;}
	.st155{fill:#09B6C0;}
	.st156{fill:#41B9B1;}
	.st157{fill:#00B4D0;}
	.st158{fill:#00B4D3;}
	.st159{fill:#30B8B8;}
	.st160{fill:#00B4CD;}
	.st161{fill:#1CB6BD;}
	.st162{fill:#28B7BA;}
	.st163{fill:#47BAAE;}
	.st164{fill:#34B8B6;}
	.st165{fill:#4CBBAD;}
	.st166{fill:#3BB9B3;}
	.st167{fill:#44BAAF;}
	.st168{fill:#00B3D6;}
	.st169{fill:#00B3D9;}
	.st170{fill:#00B3D7;}
	.st171{fill:#00B3DB;}
	.st172{fill:#00B5CA;}
	.st173{fill:#37B8B5;}
	.st174{fill:#1BB6BD;}
	.st175{fill:#00B5C8;}
	.st176{fill:#231815;stroke:#FFFFFF;stroke-width:0.187;stroke-miterlimit:10;}
	.st177{fill:#023592;}
	.st178{fill-rule:evenodd;clip-rule:evenodd;fill:#60BEA1;}
	.st179{fill:#FFFFFF;stroke:#FFFFFF;stroke-width:0.187;stroke-miterlimit:10;}
	.st180{fill:#7C2B7F;}
	.st181{fill:#752C7F;}
	.st182{fill:#EE8753;}
	.st183{fill:#F09D47;}
	.st184{fill:#EF944D;}
	.st185{fill:#EE8C51;}
	.st186{fill:#EC795A;}
	.st187{fill:#F0984B;}
	.st188{fill:#EB715E;}
	.st189{fill:#9E2F7F;}
	.st190{fill:#AA2E7E;}
	.st191{fill:#EC7C5D;}
	.st192{fill:#C4337F;}
	.st193{fill:#932D7F;}
	.st194{fill:#A42F7E;}
	.st195{fill:#BD317E;}
	.st196{fill:#B8327F;}
	.st197{fill:#B2317E;}
	.st198{fill:#992D7F;}
	.st199{fill:#CA347F;}
	.st200{fill:#8C2D7F;}
	.st201{fill:#D0357F;}
	.st202{fill:#AE307E;}
	.st203{fill:#EC765E;}
	.st204{fill:#DB377F;}
	.st205{fill:#E44676;}
	.st206{fill:#862C7E;}
	.st207{fill:#E96B64;}
	.st208{fill:#D6357F;}
	.st209{fill:#E96B62;}
	.st210{fill:#E13A80;}
	.st211{fill:#E13D7E;}
	.st212{fill:#822B7F;}
	.st213{fill:#E54D75;}
	.st214{fill:#33A2D3;}
	.st215{fill:#E3417B;}
	.st216{fill:#E65371;}
	.st217{fill:#E65B6C;}
	.st218{fill:#E96764;}
	.st219{fill:#E85F68;}
	.st220{fill:#E96366;}
	.st221{fill:#EA6F67;}
	.st222{fill:#E6566D;}
	.st223{fill:#EA6C6C;}
	.st224{fill:#E7606E;}
	.st225{fill:#EB7563;}
	.st226{fill:#EC7C69;}
	.st227{fill:#E8687D;}
	.st228{fill:#E0EDF7;}
	.st229{fill:#E9676E;}
	.st230{fill:#E9B536;}
	.st231{fill:#864690;}
	.st232{fill:#334190;}
	.st233{fill:#6A438D;}
	.st234{fill:#6B438D;}
	.st235{fill:#6B448D;}
	.st236{fill:#3A4291;}
	.st237{fill:#81458F;}
	.st238{fill:#644390;}
	.st239{fill:#9E458E;}
	.st240{fill:#98468F;}
	.st241{fill:#92468F;}
	.st242{fill:#8D458F;}
	.st243{fill:#9B468F;}
	.st244{fill:#90468E;}
	.st245{fill:#9C468F;}
	.st246{fill:#A3458D;}
	.st247{fill:#4E4491;}
	.st248{fill:#434291;}
	.st249{fill:#534290;}
	.st250{fill:#6E4591;}
	.st251{fill:#754490;}
	.st252{fill:#5F4390;}
	.st253{fill:#7B4490;}
	.st254{fill:#584390;}
	.st255{fill:#594390;}
	.st256{fill:#474392;}
	.st257{fill:#B3458C;}
	.st258{fill:#6A4491;}
	.st259{fill:#AE468C;}
	.st260{fill:#97458F;}
	.st261{fill:#B6468C;}
	.st262{fill:#9B458E;}
	.st263{fill:#C4468C;}
	.st264{fill:#BD478C;}
	.st265{fill:#AA468D;}
	.st266{fill:#A7468D;}
	.st267{fill:#B3468D;}
	.st268{fill:#B0458C;}
	.st269{fill:#BC468C;}
	.st270{fill:#AF458C;}
	.st271{fill:#B9468C;}
	.st272{fill:#BD468B;}
	.st273{fill:#BA468C;}
	.st274{enable-background:new    ;}
	.st275{fill:#1D1E1D;}
	.st276{fill:url(#Fill_1_00000168096758731686967990000000170190998782136981_);}
	.st277{fill:url(#Fill_3_00000009548874474940898450000005066050324736966063_);}
	.st278{fill:url(#Fill_5_00000038392490845296647110000004317672660528664459_);}
	.st279{fill:#1E201F;}
	.st280{fill:#3AB9B5;}
	.st281{fill:#27B4B0;}
	.st282{fill:#009694;}
	.st283{fill:#554B9D;}
	.st284{clip-path:url(#SVGID_00000162351887213058699420000006634819739325730492_);}
	.st285{fill:#FF761A;}
	.st286{fill:#E06300;}
	.st287{fill:#466007;}
	.st288{fill:#56840D;}
	.st289{fill:#C95100;}
	.st290{fill:#DE111E;}
	.st291{opacity:0.22;fill:#231F20;}
	.st292{fill:#DF3D4B;}
	.st293{fill:#C60E2D;}
	.st294{fill:#90C125;}
	.st295{fill:#F27466;}
	.st296{fill:#A36400;}
	.st297{fill:#DB9200;}
	.st298{fill:#BA7700;}
	.st299{fill:#FFCE00;}
	.st300{fill:#4A6D05;}
	.st301{fill:#76A51C;}
	.st302{fill:#100628;}
	.st303{fill:#4A16AB;}
	.st304{fill:#4A17AC;}
	.st305{fill:#4B17AC;}
	.st306{fill:#4B18AC;}
	.st307{fill:#5321AF;}
	.st308{fill:#F2BB2E;}
	.st309{fill:#F2BA2D;}
	.st310{fill:#101820;}
</style>
<g>
	<path class="st308" d="M85,252.1c2.2,0,4,1.6,4,3.7c0.1,2.3-1.9,4.3-4.1,4.2c-2.1,0-3.8-1.8-3.8-3.9C81,253.7,82.6,252.1,85,252.1z
		"/>
	<g>
		<path class="st309" d="M54.3,214.8c3-0.1,5.4,1,7.6,3c4.7,4.4,10.1,4.5,14.9,0.3c5.7-4.9,10.7-4.8,16.2,0.3
			c3.2,3,8.6,3.3,12.5,0.9c2-1.3,3.6-3.3,6.1-4c4.1-1.1,7.8-0.4,10.9,2.7c3.1,3.2,3.7,7.1,2.5,11.1c-2.3,8-10.9,10.2-17,4.5
			c-5.1-4.8-10-4.8-15.2-0.3c-5,4.4-10.4,4.4-15.3-0.1c-4.3-3.9-9.8-4.3-13.7-0.9c-5,4.3-5.9,9.7-2.3,14.8c2,3,4.5,5.6,4.1,9.6
			c-0.2,2.7-1.1,4.9-2.9,6.8c-4.4,4.6-4.5,10.6-0.3,15.2c4,4.3,10.2,4.8,14.9,0.6c4.3-3.9,9.8-4,13.3-1.9c3.7,2.2,5.2,5.6,5.1,9.7
			c-0.1,4.4-2.4,7.6-6.4,9.4c-3.9,1.7-7.7,1.2-11-1.6c-1.6-1.3-3-3-5.2-3.5c-3.6-1-6.8-0.4-9.6,2.2c-3.4,3.2-7.3,4-11.8,2.9
			c-6.9-1.6-10.2-9.9-6.2-15.7c0.7-1.1,1.5-2.1,2.4-3.1c3.7-4.5,3.6-9.7-0.3-14.2c-3.5-4-4.2-8.3-2.1-13.2c0.5-1.2,1.5-2.1,2.3-3.1
			c3.8-4.7,3.5-10-0.8-14.3c-3-3-4.1-7.6-2.4-11.2C46.5,217.5,49.6,215,54.3,214.8z"/>
		<path class="st310" d="M448.1,256.9c6.6,7.2,13.1,14.2,20.1,21.6c-3.7,0-6.9,0-10.2,0c-0.8,0-1.1-0.6-1.5-1.1
			c-5.1-5.7-10.2-11.5-15.4-17.2c-0.5-0.5-1-1.1-1.9-2.1c0,2.2,0,3.9,0,5.5c0,4.3,0,8.7,0,13c0,1.3-0.2,1.8-1.7,1.9
			c-5.8,0.1-5.8,0.2-5.8-5.6c0-18.3,0-36.5,0-54.8c0-2.1,0.5-2.6,2.6-2.6c4.8,0.1,4.8,0,4.8,4.9c0,11.6,0,23.2,0,35
			c0.9,0.1,1.2-0.6,1.6-1c4.7-4.7,9.4-9.3,14.1-14.1c1-1,1.9-1.5,3.4-1.5c2.6,0.1,5.2,0,7.6,0C459.9,244.9,454.1,250.8,448.1,256.9z
			"/>
		<path class="st310" d="M264.7,245.1c3.4-5.8,10.9-7.6,17-6.4c6.3,1.3,10.7,6.2,10.9,12.8c0.4,8.9,0.5,17.9,0,26.8
			c-0.2,2.9-3.6,0.7-5.5,1.3c-1.1,0.4-1.9,0-1.9-1.6c0.1-7.1,0-14.3,0-21.4c0-1.8-0.1-3.6-0.8-5.3c-1.7-4.3-4.9-6.1-9.5-5.6
			c-4.9,0.5-8.3,3.6-9.3,8.4c-0.7,3.2-0.4,6.4-0.5,9.5c0,4.9-0.1,9.8,0,14.7c0,1.3-0.3,1.6-1.6,1.7c-5.9,0.1-5.9,0.2-5.9-5.5
			c0-10.9,0-21.8,0-32.7c0-1.7,0.2-2.4,2.2-2.4c4.7,0.1,4.7,0,4.8,4.9C264.7,244.5,264.7,244.8,264.7,245.1z"/>
		<path class="st310" d="M407,280.3c-4.6-0.1-9.4-1.3-13.2-5.5c-1-1.1-1.1-1.9,0.2-2.6c0.2-0.1,0.4-0.3,0.6-0.5
			c3.4-2.9,3.4-2.9,6.9-0.4c3.4,2.4,7.1,2.8,10.9,1.2c1.8-0.7,3.3-1.9,3.3-4.1c0.1-2.2-1.3-3.4-3.1-4.3c-2.5-1.3-5.3-1.7-7.9-2.4
			c-1.3-0.4-2.6-0.6-3.7-1.2c-3.5-1.5-6.1-3.9-6.5-7.9c-0.5-4.5,0.7-8.4,4.8-11.1c6.2-4,14.9-3.9,20.8,0.2c0.4,0.3,0.8,0.6,1.1,0.9
			c2.2,2.1,2.2,2.2-0.3,4c-0.2,0.1-0.4,0.3-0.6,0.4c-2,2-3.7,2.2-6.1,0.1c-2.8-2.5-6.3-2.4-9.7-0.7c-2.9,1.5-3.1,4.5-0.6,6.5
			c2.2,1.7,4.8,2.3,7.5,2.8c3.6,0.7,7.3,1.5,9.8,4.4c5.4,6.1,3,15.3-4.9,18.5C413.8,279.8,410.8,280.4,407,280.3z"/>
		<path class="st310" d="M149.9,259.2c0.4-8.2,3.2-15.2,11.2-18.7c8-3.5,15.9-2.9,23.1,2.5c1.4,1,2,1.9,0.1,3
			c-0.1,0-0.1,0.1-0.2,0.2c-1.1,1.1-2.1,2.6-3.5,3c-1.5,0.5-2.4-1.5-3.7-2.2c-7.5-4.2-15.6-1-18.2,7.2c-1.4,4.5-1.2,9,1.4,13
			c4.3,6.7,13.3,7.7,19.1,2.3c1-0.9,1.4-1,2.2,0c0.5,0.6,1.1,1.2,1.7,1.8c2.8,3.1,2.8,3.2-0.6,5.5c-9.6,6.4-27.2,4.4-31.7-10.2
			C150.2,264.2,150,261.7,149.9,259.2z"/>
		<path class="st310" d="M246.7,259.6c0,5.9,0,11.8,0,17.7c0,1.5-0.2,2.1-1.9,2.1c-5.6,0-5.6,0.1-5.6-5.6c0-10.7,0-21.4,0-32.2
			c0-1.7,0.2-2.4,2.2-2.4c5.3,0.1,5.3,0,5.3,5.3C246.7,249.6,246.7,254.6,246.7,259.6z"/>
		<path class="st310" d="M237.4,224.9c0-3.3,2.3-5.8,5.3-5.8c2.9,0,5.2,2.6,5.1,5.9c0,3-2.4,5.6-5.3,5.6
			C239.8,230.6,237.4,227.9,237.4,224.9z"/>
		<path class="st308" d="M114.9,252.1c2.1,0,3.8,1.7,3.8,4c0,2.3-1.6,4-4,4c-2.2,0-4-1.7-4-4C110.7,253.9,112.6,252.1,114.9,252.1z"
			/>
		<path class="st308" d="M118.7,286.5c-0.1,2.2-1.8,3.9-3.9,3.8c-2.3-0.1-4.1-1.9-4-4.1c0.1-2.2,2.1-4.1,4.1-4
			C117.1,282.5,118.8,284.2,118.7,286.5z"/>
		<path class="st310" d="M340.9,220.2c0-6,0-6-6-5.7c-1.3,0.1-1.5,0.5-1.4,1.6c0,4.3,0,8.5,0,12.8c0,5.1,0,10.2,0,15.7
			c-7.6-9.6-21.6-7.8-27.5-2.3c-5.3,5-7.5,11.2-6.9,18.4c0.7,8.2,4.1,14.8,12.2,18c8.2,3.3,16,1.4,22.6-5.5c0,2.2-0.6,4.2,0.2,5.3
			c0.9,1.3,3,0.3,4.6,0.5c1.8,0.3,2.3-0.4,2.3-2.2C340.9,257.9,340.9,239.1,340.9,220.2z M320.5,273c-9,0.1-13.1-6.1-13.1-13.8
			c-0.1-9,4.9-14.7,13.5-14.4c7.8,0.2,12.8,5.6,12.8,14.2C333.6,267.6,328.6,273,320.5,273z"/>
		<path class="st310" d="M357.9,262c8.2,0.1,16.4,0,24.6,0c5.2,0,5.2,0,4.9-5.3c-0.7-11.6-9.1-20.9-23.9-18.1
			c-15.1,2.9-20.1,21-12.4,33.2c7.4,11.7,25.4,10.2,32.8,2.4c1.4-1.5,2.3-2.5-0.1-3.9c-1.3-0.7-2.4-1.9-3.8-2.9
			c-0.8,0.9-1.6,1.7-2.4,2.5c-6.8,6.6-18.6,3.6-21.6-5.4C355.3,262.6,355.6,262,357.9,262z M355.6,254c0.8-5.3,6-9.9,11.7-10.1
			c6-0.3,10.7,3.3,12,9c0.4,1.8,0.2,2.7-2.1,2.6c-3.3-0.2-6.6-0.1-9.8-0.1c-3.4,0-6.9,0-10.3,0C355.9,255.5,355.4,255.3,355.6,254z"
			/>
		<path class="st310" d="M231.4,258c-0.4-12.8-11.7-20.9-21.7-20.2c-12.8,0.9-21.1,10.3-20.3,22.9c0.8,11.9,10.7,20.4,22.8,19.6
			C223.5,279.5,232.2,269.4,231.4,258z M209.9,272.9c-7.4,0-12.8-5.6-12.6-13.6c0.2-8.3,4.4-14,13.3-14c8.3-0.2,12.6,6.1,12.7,13.7
			C223.4,267.5,218.1,272.9,209.9,272.9z"/>
	</g>
</g>
</svg>
