<?xml version="1.0" encoding="utf-8"?>
<!-- Generator: Adobe Illustrator 25.4.1, SVG Export Plug-In . SVG Version: 6.00 Build 0)  -->
<svg version="1.1" id="图层_1" xmlns="http://www.w3.org/2000/svg" xmlns:xlink="http://www.w3.org/1999/xlink" x="0px" y="0px"
	 viewBox="0 0 512 512" style="enable-background:new 0 0 512 512;" xml:space="preserve">
<style type="text/css">
	.st0{fill-rule:evenodd;clip-rule:evenodd;fill:#EB5C20;}
	.st1{fill-rule:evenodd;clip-rule:evenodd;fill:#E29227;}
	.st2{fill:#EB5C20;}
	.st3{fill-rule:evenodd;clip-rule:evenodd;fill:#70BA33;}
	.st4{fill-rule:evenodd;clip-rule:evenodd;fill:#1C9965;}
	.st5{fill-rule:evenodd;clip-rule:evenodd;fill:#1E5D91;}
	.st6{fill-rule:evenodd;clip-rule:evenodd;fill:#C6224E;}
	.st7{fill:#B5B5B6;}
	.st8{fill-rule:evenodd;clip-rule:evenodd;fill:#B5B5B6;}
	.st9{fill:#DF5B23;}
	.st10{fill:#B5B5B6;stroke:#B5B5B6;stroke-width:10;stroke-miterlimit:10;}
	.st11{fill:#B5B5B6;stroke:#B5B5B6;stroke-width:18;stroke-miterlimit:10;}
	.st12{fill:#1E5D91;}
	.st13{fill:#E29227;}
	.st14{fill:#1C9965;}
	.st15{fill:#70BA33;}
	.st16{fill:#C6224E;}
	.st17{fill:#0E0304;}
	.st18{fill:#29292C;}
	.st19{fill:#2E3032;}
	.st20{fill:#1A1A1B;}
	.st21{fill:#757579;}
	.st22{fill:none;stroke:#B5B5B6;stroke-width:30;stroke-linecap:round;stroke-linejoin:round;stroke-miterlimit:10;}
	.st23{fill:#040000;}
	.st24{fill-rule:evenodd;clip-rule:evenodd;fill:#040000;}
	.st25{fill:url(#SVGID_1_);}
	.st26{fill:#EBE7C3;}
	.st27{fill-rule:evenodd;clip-rule:evenodd;fill:#EBE7C3;}
	.st28{fill:#FFFFFF;}
	.st29{fill:none;stroke:#B5B5B6;stroke-width:10;stroke-miterlimit:10;}
	.st30{fill-rule:evenodd;clip-rule:evenodd;fill:url(#SVGID_00000007393953639259125960000011822398744330057862_);}
	.st31{fill:#221F20;}
	.st32{fill:#F1AA43;}
	.st33{fill:#EB9326;}
	.st34{fill:#EE9F38;}
	.st35{fill:#E8891D;}
	.st36{fill:#EF9E36;}
	.st37{fill:#F9C88E;}
	.st38{fill:#CB838E;}
	.st39{fill:#F7BF75;}
	.st40{fill-rule:evenodd;clip-rule:evenodd;fill:#DF5B23;}
	.st41{fill:#2F2833;}
	.st42{fill:#403944;}
	.st43{fill:#DF5924;}
	.st44{fill-rule:evenodd;clip-rule:evenodd;fill:#CCBCB1;}
	.st45{fill-rule:evenodd;clip-rule:evenodd;fill:#393939;}
	.st46{fill-rule:evenodd;clip-rule:evenodd;fill:#EF9839;}
	.st47{fill-rule:evenodd;clip-rule:evenodd;fill:#EF993A;}
	.st48{fill-rule:evenodd;clip-rule:evenodd;fill:#D07A32;}
	.st49{fill-rule:evenodd;clip-rule:evenodd;fill:#E1893D;}
	.st50{fill-rule:evenodd;clip-rule:evenodd;fill:#E28C38;}
	.st51{fill-rule:evenodd;clip-rule:evenodd;fill:#E18B3C;}
	.st52{fill-rule:evenodd;clip-rule:evenodd;fill:#DF7F24;}
	.st53{fill-rule:evenodd;clip-rule:evenodd;fill:#DDCCC2;}
	.st54{fill-rule:evenodd;clip-rule:evenodd;fill:#DF8C38;}
	.st55{fill-rule:evenodd;clip-rule:evenodd;fill:#8B5930;}
	.st56{fill:#1C5AA8;}
	.st57{fill:#2156A6;}
	.st58{fill:#E7B41E;}
	.st59{fill:#298CCD;}
	.st60{fill:#123443;}
	.st61{fill:#B8266A;}
	.st62{fill:#1B4B68;}
	.st63{fill:#1C4157;}
	.st64{fill:#4A6894;}
	.st65{fill:#343535;}
	.st66{fill:#3E5375;}
	.st67{fill:#6CAACE;}
	.st68{fill:#335C85;}
	.st69{fill:#5294B1;}
	.st70{fill-rule:evenodd;clip-rule:evenodd;fill:#5255A3;}
	.st71{fill-rule:evenodd;clip-rule:evenodd;fill:#2B60AC;}
	.st72{fill:#2B60AC;}
	.st73{fill:#E8412E;}
	.st74{fill:#E83F21;}
	.st75{fill:#E33E28;}
	.st76{fill:#E84138;}
	.st77{fill:#E94526;}
	.st78{fill:#E94423;}
	.st79{fill:#E9481F;}
	.st80{fill:#E94522;}
	.st81{fill:#E9461F;}
	.st82{fill:#E84236;}
	.st83{fill:#E9471E;}
	.st84{fill:#E6411D;}
	.st85{fill:#E8412F;}
	.st86{fill:#132533;}
	.st87{fill:url(#SVGID_00000169550815631704673250000007172555774540178855_);}
	.st88{fill:url(#SVGID_00000073720460535651747930000018191795043858114716_);}
	.st89{fill:#CBCFD7;}
	.st90{fill:url(#SVGID_00000159432651528327480460000017898074193868285363_);}
	.st91{fill:url(#SVGID_00000156547669106748041070000002388984963359505842_);}
	.st92{fill:#366FAE;}
	.st93{fill:#FFF100;}
	.st94{fill:url(#SVGID_00000069370874186792616030000018112140179537260463_);}
	.st95{fill:#FFE000;}
	.st96{fill:url(#SVGID_00000109716234744889770850000008279666911514188475_);}
	.st97{fill:#FAC000;}
	.st98{fill:url(#SVGID_00000016066911169421178800000017020513439379185833_);}
	.st99{fill:#F4A000;}
	.st100{fill:url(#SVGID_00000051379312367839478740000007507483424765528242_);}
	.st101{fill:#EE7300;}
	.st102{fill:url(#SVGID_00000145036722417934286320000018356860823765761198_);}
	.st103{fill:#E94709;}
	.st104{fill:url(#SVGID_00000085236545264181047630000015717829060405142685_);}
	.st105{fill:#009E41;}
	.st106{fill:url(#SVGID_00000141430790592030333670000006611302397801828517_);}
	.st107{fill:#40AF36;}
	.st108{fill:url(#SVGID_00000085954208328327284020000014028336669922494609_);}
	.st109{fill:#72BB2B;}
	.st110{fill:url(#SVGID_00000125577601722417474990000014207592187246378408_);}
	.st111{fill:#E3E300;}
	.st112{fill:url(#SVGID_00000098943004194674916990000006106694613957627583_);}
	.st113{fill:#A3CA0F;}
	.st114{fill:url(#SVGID_00000132052996056228213380000002767508623977608853_);}
	.st115{fill:#C4D700;}
	.st116{fill:url(#SVGID_00000122720738139508225080000010353033766442914209_);}
	.st117{fill:#36B8B7;}
	.st118{fill:#3EB4AD;}
	.st119{fill:#3AB8B9;}
	.st120{fill:#56BAB0;}
	.st121{fill:#65BBB2;}
	.st122{fill:#32B7B0;}
	.st123{fill:#2EB6AE;}
	.st124{fill:#48B6BC;}
	.st125{fill:#4DB5BD;}
	.st126{fill:#3EB4AE;}
	.st127{fill:#57BBB1;}
	.st128{fill:#060909;}
	.st129{fill:#061014;}
	.st130{fill:#FAFAFB;}
	.st131{fill:#F6F7F7;}
	.st132{fill:#F7F7F7;}
	.st133{fill:#F6F6F6;}
	.st134{fill:#7CB8BD;}
	.st135{fill:#3FB5B7;}
	.st136{fill:#4DB6B9;}
	.st137{fill:#F4F5F5;}
	.st138{fill:#F5F5F5;}
	.st139{fill:#070505;}
	.st140{fill:#F4F3F3;}
	.st141{fill:#050202;}
	.st142{fill:#71BCBA;}
	.st143{fill:#73BBB8;}
	.st144{fill:#76BEBC;}
	.st145{fill:#83B8B8;}
	.st146{fill:#3DB9B5;}
	.st147{fill:#40BABA;}
	.st148{fill:#36B8B6;}
	.st149{fill:#28B6B2;}
	.st150{fill:#00B5C6;}
	.st151{fill:#00B5C2;}
	.st152{fill:#23B7BB;}
	.st153{fill:#00B5C4;}
	.st154{fill:#14B6BE;}
	.st155{fill:#09B6C0;}
	.st156{fill:#41B9B1;}
	.st157{fill:#00B4D0;}
	.st158{fill:#00B4D3;}
	.st159{fill:#30B8B8;}
	.st160{fill:#00B4CD;}
	.st161{fill:#1CB6BD;}
	.st162{fill:#28B7BA;}
	.st163{fill:#47BAAE;}
	.st164{fill:#34B8B6;}
	.st165{fill:#4CBBAD;}
	.st166{fill:#3BB9B3;}
	.st167{fill:#44BAAF;}
	.st168{fill:#00B3D6;}
	.st169{fill:#00B3D9;}
	.st170{fill:#00B3D7;}
	.st171{fill:#00B3DB;}
	.st172{fill:#00B5CA;}
	.st173{fill:#37B8B5;}
	.st174{fill:#1BB6BD;}
	.st175{fill:#00B5C8;}
	.st176{fill:#231815;stroke:#FFFFFF;stroke-width:0.187;stroke-miterlimit:10;}
	.st177{fill:#023592;}
	.st178{fill-rule:evenodd;clip-rule:evenodd;fill:#60BEA1;}
	.st179{fill:#FFFFFF;stroke:#FFFFFF;stroke-width:0.187;stroke-miterlimit:10;}
	.st180{fill:#7C2B7F;}
	.st181{fill:#752C7F;}
	.st182{fill:#EE8753;}
	.st183{fill:#F09D47;}
	.st184{fill:#EF944D;}
	.st185{fill:#EE8C51;}
	.st186{fill:#EC795A;}
	.st187{fill:#F0984B;}
	.st188{fill:#EB715E;}
	.st189{fill:#9E2F7F;}
	.st190{fill:#AA2E7E;}
	.st191{fill:#EC7C5D;}
	.st192{fill:#C4337F;}
	.st193{fill:#932D7F;}
	.st194{fill:#A42F7E;}
	.st195{fill:#BD317E;}
	.st196{fill:#B8327F;}
	.st197{fill:#B2317E;}
	.st198{fill:#992D7F;}
	.st199{fill:#CA347F;}
	.st200{fill:#8C2D7F;}
	.st201{fill:#D0357F;}
	.st202{fill:#AE307E;}
	.st203{fill:#EC765E;}
	.st204{fill:#DB377F;}
	.st205{fill:#E44676;}
	.st206{fill:#862C7E;}
	.st207{fill:#E96B64;}
	.st208{fill:#D6357F;}
	.st209{fill:#E96B62;}
	.st210{fill:#E13A80;}
	.st211{fill:#E13D7E;}
	.st212{fill:#822B7F;}
	.st213{fill:#E54D75;}
	.st214{fill:#33A2D3;}
	.st215{fill:#E3417B;}
	.st216{fill:#E65371;}
	.st217{fill:#E65B6C;}
	.st218{fill:#E96764;}
	.st219{fill:#E85F68;}
	.st220{fill:#E96366;}
	.st221{fill:#EA6F67;}
	.st222{fill:#E6566D;}
	.st223{fill:#EA6C6C;}
	.st224{fill:#E7606E;}
	.st225{fill:#EB7563;}
	.st226{fill:#EC7C69;}
	.st227{fill:#E8687D;}
	.st228{fill:#E0EDF7;}
	.st229{fill:#E9676E;}
	.st230{fill:#E9B536;}
	.st231{fill:#864690;}
	.st232{fill:#334190;}
	.st233{fill:#6A438D;}
	.st234{fill:#6B438D;}
	.st235{fill:#6B448D;}
	.st236{fill:#3A4291;}
	.st237{fill:#81458F;}
	.st238{fill:#644390;}
	.st239{fill:#9E458E;}
	.st240{fill:#98468F;}
	.st241{fill:#92468F;}
	.st242{fill:#8D458F;}
	.st243{fill:#9B468F;}
	.st244{fill:#90468E;}
	.st245{fill:#9C468F;}
	.st246{fill:#A3458D;}
	.st247{fill:#4E4491;}
	.st248{fill:#434291;}
	.st249{fill:#534290;}
	.st250{fill:#6E4591;}
	.st251{fill:#754490;}
	.st252{fill:#5F4390;}
	.st253{fill:#7B4490;}
	.st254{fill:#584390;}
	.st255{fill:#594390;}
	.st256{fill:#474392;}
	.st257{fill:#B3458C;}
	.st258{fill:#6A4491;}
	.st259{fill:#AE468C;}
	.st260{fill:#97458F;}
	.st261{fill:#B6468C;}
	.st262{fill:#9B458E;}
	.st263{fill:#C4468C;}
	.st264{fill:#BD478C;}
	.st265{fill:#AA468D;}
	.st266{fill:#A7468D;}
	.st267{fill:#B3468D;}
	.st268{fill:#B0458C;}
	.st269{fill:#BC468C;}
	.st270{fill:#AF458C;}
	.st271{fill:#B9468C;}
	.st272{fill:#BD468B;}
	.st273{fill:#BA468C;}
	.st274{enable-background:new    ;}
	.st275{fill:#1D1E1D;}
	.st276{fill:url(#Fill_1_00000001635244952352385510000017451362382824307358_);}
	.st277{fill:url(#Fill_3_00000173141247940818942400000007744957317042452398_);}
	.st278{fill:url(#Fill_5_00000119095659618641204780000003401374797038301852_);}
	.st279{fill:#1E201F;}
	.st280{fill:#3AB9B5;}
	.st281{fill:#27B4B0;}
	.st282{fill:#009694;}
	.st283{fill:#554B9D;}
	.st284{clip-path:url(#SVGID_00000078732732621539213160000001107990991949408162_);}
	.st285{fill:#FF761A;}
	.st286{fill:#E06300;}
	.st287{fill:#466007;}
	.st288{fill:#56840D;}
	.st289{fill:#C95100;}
	.st290{fill:#DE111E;}
	.st291{opacity:0.22;fill:#231F20;}
	.st292{fill:#DF3D4B;}
	.st293{fill:#C60E2D;}
	.st294{fill:#90C125;}
	.st295{fill:#F27466;}
	.st296{fill:#A36400;}
	.st297{fill:#DB9200;}
	.st298{fill:#BA7700;}
	.st299{fill:#FFCE00;}
	.st300{fill:#4A6D05;}
	.st301{fill:#76A51C;}
	.st302{fill:#100628;}
</style>
<g>
	<rect x="-1.6" y="0.4" class="st302" width="515.2" height="511.2"/>
	<g>
		<path class="st28" d="M30.3,246.2c0.5-0.2,0.8-0.7,1.2-1.1c7.9-7.9,15.7-15.8,23.5-23.7c5-5,9.9-10,14.9-15c0.5-0.5,0.7-0.4,1.1,0
			c10.9,11,21.8,22.1,32.8,33.1c2.2,2.2,4.5,4.5,6.7,6.7c0,1.1,0,2.2,0,3.3c-0.2,1.4,0,2.7-0.1,4.1c0,0.7,0,1.4,0,2.2
			c0,2.1,0,4.3,0,6.4c0,1.1,0.1,2.1-0.1,3.2c-2.1-2.1-4.3-4.2-6.4-6.3c-5-5-10-10.1-14.9-15.1c-6.1-6.1-12.1-12.2-18.2-18.4
			c-0.5-0.5-0.7-0.4-1.1,0c-9.8,9.9-19.6,19.8-29.5,29.7c-3.2,3.3-6.5,6.5-9.7,9.8c-0.2-0.3-0.1-0.7-0.1-1.1c0-1.1,0-2.2,0-3.2
			c0-1.1,0-2.2,0-3.3c0-1,0-2.1,0-3.1c0-1,0-2.1,0-3.1c-0.1-1.1,0.1-2.2-0.1-3.3C30.3,247.3,30.3,246.7,30.3,246.2z"/>
		<path class="st28" d="M70.2,306c-2.2-2.2-4.4-4.5-6.6-6.7c-7.8-7.9-15.6-15.8-23.5-23.7c-0.4-0.4-0.4-0.7,0-1.1
			c3.5-3.5,7-7.1,10.5-10.6c6.4-6.4,12.7-12.8,19.1-19.2c0.5-0.5,0.8-0.5,1.3,0c2.7,2.8,5.5,5.6,8.3,8.3c0.4,0.4,0.4,0.7,0,1.1
			c-5.4,5.5-10.9,10.9-16.3,16.4c-1.3,1.3-2.6,2.7-3.9,4c-0.3,0.3-0.4,0.5,0,0.9c3.7,3.7,7.4,7.4,11,11.1c0.5,0.5,0.6,0,0.8-0.2
			c3.3-3.3,6.6-6.7,9.9-10c3.4-3.5,6.9-7,10.3-10.5c0.3-0.3,0.5-0.3,0.8,0c2.9,2.9,5.7,5.8,8.6,8.7c0.5,0.5,0.1,0.7-0.2,0.9
			c-2.8,2.9-5.7,5.7-8.5,8.6c-7,7.1-14.1,14.2-21.1,21.3c-0.2,0.2-0.4,0.3-0.4,0.5C70.3,306,70.3,306,70.2,306z"/>
		<path class="st28" d="M110.3,262.2c0-2.1,0-4.3,0-6.4c0.1-0.1,0.1-0.1,0.2,0c0,2.1,0,4.3,0,6.4
			C110.4,262.2,110.4,262.2,110.3,262.2z"/>
		<path class="st28" d="M110.5,255.7L110.5,255.7c-0.1,0-0.2,0-0.2,0c0-1.8,0-3.6,0-5.5c0-0.3-0.1-0.6,0.2-0.8
			C110.5,251.6,110.5,253.6,110.5,255.7z"/>
		<path class="st28" d="M110.3,262.2c0.1,0,0.1,0,0.2,0c0,1.1,0,2.2,0,3.3c-0.1-0.1-0.1-0.1-0.2-0.2
			C110.3,264.3,110.3,263.2,110.3,262.2z"/>
	</g>
	<g>
		<path class="st28" d="M183.4,284.9c-2.8,1.2-7.4,2.1-13.7,2.1c-16.4,0-24.8-11.2-24.8-24.2c0-14.9,6.2-25.4,14.8-31.5
			c6-4.3,13.1-6.2,20.9-6.2c5.5,0,10,1.2,11.5,2l-3.9,12.1c-1.4-0.6-4.6-1.5-9-1.5c-4.1,0-8.1,1.5-11,4.1
			c-4.4,3.9-7.4,10.4-7.4,18.9c0,8.4,4.5,13.5,12.7,13.5c3.5,0,7-0.5,9.4-1.5L183.4,284.9z"/>
		<path class="st28" d="M244.4,248.4c0,11.8-3.9,23.6-11.1,30.7c-5.2,5.1-12.1,7.9-20.3,7.9c-15.1,0-22.4-11.6-22.4-23.7
			c0-11.5,4-23.3,11.4-30.5c5.2-4.9,12-7.9,20.1-7.9C237.4,225,244.4,235.8,244.4,248.4z M213.2,240.5c-4.6,4.6-7.2,15.6-7.2,23
			c0,6.3,2.7,11.2,9,11.2c2.5,0,4.9-1.1,6.8-3c4.7-4.7,7-17,7-23.4c0-5.7-2-11-8.5-11C217.7,237.3,215.2,238.5,213.2,240.5z"/>
		<path class="st28" d="M246.5,286.1l11.4-60.3h16.3l5,18.8c2.2,8.2,3.7,14.8,4.8,21.3h0.2c0.4-6.6,1.4-15.2,3.2-24.9l2.9-15.2h13.3
			l-11.4,60.3h-14.5l-5.5-19.3c-2.4-8.8-3.8-14-5.1-22h-0.3c-0.7,6-2.2,16-4.2,26.6l-2.8,14.7H246.5z"/>
		<path class="st28" d="M316.5,225.9h29.4c1.5,0,2.6,1.3,2.3,2.8l-1.5,7.9c-0.2,1.1-1.2,1.9-2.3,1.9h-15.5c-1.1,0-2.1,0.8-2.3,1.9
			l-1.5,7.5c-0.3,1.4,0.8,2.8,2.3,2.8h12.7c1.5,0,2.6,1.3,2.3,2.8l-1.5,7.6c-0.2,1.1-1.2,1.9-2.3,1.9h-14.4c-1.1,0-2.1,0.8-2.3,1.9
			l-3.7,19.5c-0.2,1.1-1.2,1.9-2.3,1.9H306c-1.5,0-2.6-1.3-2.3-2.8l10.6-55.6C314.4,226.7,315.4,225.9,316.5,225.9z"/>
		<path class="st28" d="M358.7,225.9h14.6l-9,47.5h20.1l-2.4,12.8h-34.7L358.7,225.9z"/>
		<path class="st28" d="M411.9,225.9l-6.8,35.5c-0.4,2.2-0.7,4.5-0.7,6.8c0,3.4,2.1,6.4,6.5,6.4c5.1,0,8.3-3.3,10.2-13l6.8-35.7
			h14.6l-6.5,34.6c-3.3,17.2-10.3,26.6-26.8,26.6c-12.7,0-19.3-6.5-19.3-18.3c0-2.6,0.4-5.8,1-9l6.4-33.9H411.9z"/>
		<path class="st28" d="M468.3,286.1l-2.7-11.4c-0.9-3.6-1.5-6.1-2.3-9.8h-0.2c-1.9,3.7-3,6.3-5.2,10.5l-5.3,10.6h-16.8l20.4-30.9
			l-8.4-29.3h15.3l2.2,9.9c0.8,4.1,1.4,6.6,2.1,10.5h0.2c2.1-4.4,3.4-7.1,5.1-10.7l4.8-9.6h16.7l-19.9,29.9l9.5,30.4H468.3z"/>
	</g>
</g>
</svg>
