<?xml version="1.0" encoding="utf-8"?>
<!-- Generator: Adobe Illustrator 25.4.0, SVG Export Plug-In . SVG Version: 6.00 Build 0)  -->
<svg version="1.1" id="图层_1" xmlns="http://www.w3.org/2000/svg" xmlns:xlink="http://www.w3.org/1999/xlink" x="0px" y="0px"
	 viewBox="0 0 512 512" style="enable-background:new 0 0 512 512;" xml:space="preserve">
<style type="text/css">
	.st0{fill-rule:evenodd;clip-rule:evenodd;fill:#EB5C20;}
	.st1{fill-rule:evenodd;clip-rule:evenodd;fill:#E29227;}
	.st2{fill:#EB5C20;}
	.st3{fill-rule:evenodd;clip-rule:evenodd;fill:#70BA33;}
	.st4{fill-rule:evenodd;clip-rule:evenodd;fill:#1C9965;}
	.st5{fill-rule:evenodd;clip-rule:evenodd;fill:#1E5D91;}
	.st6{fill-rule:evenodd;clip-rule:evenodd;fill:#C6224E;}
	.st7{fill:#B5B5B6;}
	.st8{fill-rule:evenodd;clip-rule:evenodd;fill:#B5B5B6;}
	.st9{fill:#DF5B23;}
	.st10{fill:#B5B5B6;stroke:#B5B5B6;stroke-width:10;stroke-miterlimit:10;}
	.st11{fill:#B5B5B6;stroke:#B5B5B6;stroke-width:18;stroke-miterlimit:10;}
	.st12{fill:#1E5D91;}
	.st13{fill:#E29227;}
	.st14{fill:#1C9965;}
	.st15{fill:#70BA33;}
	.st16{fill:#C6224E;}
	.st17{fill:#0E0304;}
	.st18{fill:#29292C;}
	.st19{fill:#2E3032;}
	.st20{fill:#1A1A1B;}
	.st21{fill:#757579;}
	.st22{fill:none;stroke:#B5B5B6;stroke-width:30;stroke-linecap:round;stroke-linejoin:round;stroke-miterlimit:10;}
	.st23{fill:#040000;}
	.st24{fill-rule:evenodd;clip-rule:evenodd;fill:#040000;}
	.st25{fill:url(#SVGID_1_);}
	.st26{fill:#EBE7C3;}
	.st27{fill-rule:evenodd;clip-rule:evenodd;fill:#EBE7C3;}
	.st28{fill:#FFFFFF;}
	.st29{fill:none;stroke:#B5B5B6;stroke-width:10;stroke-miterlimit:10;}
	.st30{fill-rule:evenodd;clip-rule:evenodd;fill:url(#SVGID_00000090296153784125812700000013576759612398903702_);}
	.st31{fill:#221F20;}
	.st32{fill:#F1AA43;}
	.st33{fill:#EB9326;}
	.st34{fill:#EE9F38;}
	.st35{fill:#E8891D;}
	.st36{fill:#EF9E36;}
	.st37{fill:#F9C88E;}
	.st38{fill:#CB838E;}
	.st39{fill:#F7BF75;}
	.st40{fill-rule:evenodd;clip-rule:evenodd;fill:#DF5B23;}
	.st41{fill:#2F2833;}
	.st42{fill:#403944;}
	.st43{fill:#DF5924;}
	.st44{fill-rule:evenodd;clip-rule:evenodd;fill:#CCBCB1;}
	.st45{fill-rule:evenodd;clip-rule:evenodd;fill:#393939;}
	.st46{fill-rule:evenodd;clip-rule:evenodd;fill:#EF9839;}
	.st47{fill-rule:evenodd;clip-rule:evenodd;fill:#EF993A;}
	.st48{fill-rule:evenodd;clip-rule:evenodd;fill:#D07A32;}
	.st49{fill-rule:evenodd;clip-rule:evenodd;fill:#E1893D;}
	.st50{fill-rule:evenodd;clip-rule:evenodd;fill:#E28C38;}
	.st51{fill-rule:evenodd;clip-rule:evenodd;fill:#E18B3C;}
	.st52{fill-rule:evenodd;clip-rule:evenodd;fill:#DF7F24;}
	.st53{fill-rule:evenodd;clip-rule:evenodd;fill:#DDCCC2;}
	.st54{fill-rule:evenodd;clip-rule:evenodd;fill:#DF8C38;}
	.st55{fill-rule:evenodd;clip-rule:evenodd;fill:#8B5930;}
	.st56{fill:#1C5AA8;}
	.st57{fill:#2156A6;}
	.st58{fill:#E7B41E;}
	.st59{fill:#298CCD;}
	.st60{fill:#123443;}
	.st61{fill:#B8266A;}
	.st62{fill:#1B4B68;}
	.st63{fill:#1C4157;}
	.st64{fill:#4A6894;}
	.st65{fill:#343535;}
	.st66{fill:#3E5375;}
	.st67{fill:#6CAACE;}
	.st68{fill:#335C85;}
	.st69{fill:#5294B1;}
	.st70{fill-rule:evenodd;clip-rule:evenodd;fill:#5255A3;}
	.st71{fill-rule:evenodd;clip-rule:evenodd;fill:#2B60AC;}
	.st72{fill:#2B60AC;}
	.st73{fill:#E8412E;}
	.st74{fill:#E83F21;}
	.st75{fill:#E33E28;}
	.st76{fill:#E84138;}
	.st77{fill:#E94526;}
	.st78{fill:#E94423;}
	.st79{fill:#E9481F;}
	.st80{fill:#E94522;}
	.st81{fill:#E9461F;}
	.st82{fill:#E84236;}
	.st83{fill:#E9471E;}
	.st84{fill:#E6411D;}
	.st85{fill:#E8412F;}
	.st86{fill:#132533;}
	.st87{fill:url(#SVGID_00000129928466425061856870000011948035043847319173_);}
	.st88{fill:url(#SVGID_00000016772295234271915910000016169606856562547105_);}
	.st89{fill:#CBCFD7;}
	.st90{fill:url(#SVGID_00000143579955826049305970000005821500413859226265_);}
	.st91{fill:url(#SVGID_00000083778042645602626350000016471056860519932313_);}
	.st92{fill:#366FAE;}
	.st93{fill:#FFF100;}
	.st94{fill:url(#SVGID_00000117676160739689363250000006442490122257155518_);}
	.st95{fill:#FFE000;}
	.st96{fill:url(#SVGID_00000072970207815749953130000016624552850926140819_);}
	.st97{fill:#FAC000;}
	.st98{fill:url(#SVGID_00000142137903793266993550000007507472805212146049_);}
	.st99{fill:#F4A000;}
	.st100{fill:url(#SVGID_00000032610881224142223650000010637345374423820686_);}
	.st101{fill:#EE7300;}
	.st102{fill:url(#SVGID_00000119075755515165165210000010963095959762497167_);}
	.st103{fill:#E94709;}
	.st104{fill:url(#SVGID_00000025420603499978929800000011190738089867657909_);}
	.st105{fill:#009E41;}
	.st106{fill:url(#SVGID_00000013154363595826041930000014843371126962931342_);}
	.st107{fill:#40AF36;}
	.st108{fill:url(#SVGID_00000117678706695959622790000004578049268148655540_);}
	.st109{fill:#72BB2B;}
	.st110{fill:url(#SVGID_00000109030385993944229570000016873092069796897940_);}
	.st111{fill:#E3E300;}
	.st112{fill:url(#SVGID_00000165953160838115191130000009148302743389287319_);}
	.st113{fill:#A3CA0F;}
	.st114{fill:url(#SVGID_00000036227906380050420540000002845132329585130919_);}
	.st115{fill:#C4D700;}
	.st116{fill:url(#SVGID_00000154395215671421887620000014568211626763216035_);}
	.st117{fill:#36B8B7;}
	.st118{fill:#3EB4AD;}
	.st119{fill:#3AB8B9;}
	.st120{fill:#56BAB0;}
	.st121{fill:#65BBB2;}
	.st122{fill:#32B7B0;}
	.st123{fill:#2EB6AE;}
	.st124{fill:#48B6BC;}
	.st125{fill:#4DB5BD;}
	.st126{fill:#3EB4AE;}
	.st127{fill:#57BBB1;}
	.st128{fill:#060909;}
	.st129{fill:#061014;}
	.st130{fill:#FAFAFB;}
	.st131{fill:#F6F7F7;}
	.st132{fill:#F7F7F7;}
	.st133{fill:#F6F6F6;}
	.st134{fill:#7CB8BD;}
	.st135{fill:#3FB5B7;}
	.st136{fill:#4DB6B9;}
	.st137{fill:#F4F5F5;}
	.st138{fill:#F5F5F5;}
	.st139{fill:#070505;}
	.st140{fill:#F4F3F3;}
	.st141{fill:#050202;}
	.st142{fill:#71BCBA;}
	.st143{fill:#73BBB8;}
	.st144{fill:#76BEBC;}
	.st145{fill:#83B8B8;}
	.st146{fill:#3DB9B5;}
	.st147{fill:#40BABA;}
	.st148{fill:#36B8B6;}
	.st149{fill:#28B6B2;}
	.st150{fill:#00B5C6;}
	.st151{fill:#00B5C2;}
	.st152{fill:#23B7BB;}
	.st153{fill:#00B5C4;}
	.st154{fill:#14B6BE;}
	.st155{fill:#09B6C0;}
	.st156{fill:#41B9B1;}
	.st157{fill:#00B4D0;}
	.st158{fill:#00B4D3;}
	.st159{fill:#30B8B8;}
	.st160{fill:#00B4CD;}
	.st161{fill:#1CB6BD;}
	.st162{fill:#28B7BA;}
	.st163{fill:#47BAAE;}
	.st164{fill:#34B8B6;}
	.st165{fill:#4CBBAD;}
	.st166{fill:#3BB9B3;}
	.st167{fill:#44BAAF;}
	.st168{fill:#00B3D6;}
	.st169{fill:#00B3D9;}
	.st170{fill:#00B3D7;}
	.st171{fill:#00B3DB;}
	.st172{fill:#00B5CA;}
	.st173{fill:#37B8B5;}
	.st174{fill:#1BB6BD;}
	.st175{fill:#00B5C8;}
	.st176{fill:#231815;stroke:#FFFFFF;stroke-width:0.187;stroke-miterlimit:10;}
	.st177{fill:#023592;}
	.st178{fill-rule:evenodd;clip-rule:evenodd;fill:#60BEA1;}
	.st179{fill:#FFFFFF;stroke:#FFFFFF;stroke-width:0.187;stroke-miterlimit:10;}
	.st180{fill:#7C2B7F;}
	.st181{fill:#752C7F;}
	.st182{fill:#EE8753;}
	.st183{fill:#F09D47;}
	.st184{fill:#EF944D;}
	.st185{fill:#EE8C51;}
	.st186{fill:#EC795A;}
	.st187{fill:#F0984B;}
	.st188{fill:#EB715E;}
	.st189{fill:#9E2F7F;}
	.st190{fill:#AA2E7E;}
	.st191{fill:#EC7C5D;}
	.st192{fill:#C4337F;}
	.st193{fill:#932D7F;}
	.st194{fill:#A42F7E;}
	.st195{fill:#BD317E;}
	.st196{fill:#B8327F;}
	.st197{fill:#B2317E;}
	.st198{fill:#992D7F;}
	.st199{fill:#CA347F;}
	.st200{fill:#8C2D7F;}
	.st201{fill:#D0357F;}
	.st202{fill:#AE307E;}
	.st203{fill:#EC765E;}
	.st204{fill:#DB377F;}
	.st205{fill:#E44676;}
	.st206{fill:#862C7E;}
	.st207{fill:#E96B64;}
	.st208{fill:#D6357F;}
	.st209{fill:#E96B62;}
	.st210{fill:#E13A80;}
	.st211{fill:#E13D7E;}
	.st212{fill:#822B7F;}
	.st213{fill:#E54D75;}
	.st214{fill:#33A2D3;}
	.st215{fill:#E3417B;}
	.st216{fill:#E65371;}
	.st217{fill:#E65B6C;}
	.st218{fill:#E96764;}
	.st219{fill:#E85F68;}
	.st220{fill:#E96366;}
	.st221{fill:#EA6F67;}
	.st222{fill:#E6566D;}
	.st223{fill:#EA6C6C;}
	.st224{fill:#E7606E;}
	.st225{fill:#EB7563;}
	.st226{fill:#EC7C69;}
	.st227{fill:#E8687D;}
	.st228{fill:#E0EDF7;}
	.st229{fill:#E9676E;}
	.st230{fill:#E9B536;}
	.st231{fill:#864690;}
	.st232{fill:#334190;}
	.st233{fill:#6A438D;}
	.st234{fill:#6B438D;}
	.st235{fill:#6B448D;}
	.st236{fill:#3A4291;}
	.st237{fill:#81458F;}
	.st238{fill:#644390;}
	.st239{fill:#9E458E;}
	.st240{fill:#98468F;}
	.st241{fill:#92468F;}
	.st242{fill:#8D458F;}
	.st243{fill:#9B468F;}
	.st244{fill:#90468E;}
	.st245{fill:#9C468F;}
	.st246{fill:#A3458D;}
	.st247{fill:#4E4491;}
	.st248{fill:#434291;}
	.st249{fill:#534290;}
	.st250{fill:#6E4591;}
	.st251{fill:#754490;}
	.st252{fill:#5F4390;}
	.st253{fill:#7B4490;}
	.st254{fill:#584390;}
	.st255{fill:#594390;}
	.st256{fill:#474392;}
	.st257{fill:#B3458C;}
	.st258{fill:#6A4491;}
	.st259{fill:#AE468C;}
	.st260{fill:#97458F;}
	.st261{fill:#B6468C;}
	.st262{fill:#9B458E;}
	.st263{fill:#C4468C;}
	.st264{fill:#BD478C;}
	.st265{fill:#AA468D;}
	.st266{fill:#A7468D;}
	.st267{fill:#B3468D;}
	.st268{fill:#B0458C;}
	.st269{fill:#BC468C;}
	.st270{fill:#AF458C;}
	.st271{fill:#B9468C;}
	.st272{fill:#BD468B;}
	.st273{fill:#BA468C;}
	.st274{enable-background:new    ;}
	.st275{fill:#1D1E1D;}
	.st276{fill:url(#Fill_1_00000176753725184513839690000011041796728733419195_);}
	.st277{fill:url(#Fill_3_00000036228755250069661160000009319739463064830109_);}
	.st278{fill:url(#Fill_5_00000002380011359028054710000001501805712585755781_);}
	.st279{fill:#1E201F;}
	.st280{fill:#3AB9B5;}
	.st281{fill:#27B4B0;}
	.st282{fill:#009694;}
	.st283{fill:#554B9D;}
	.st284{clip-path:url(#SVGID_00000078034772222302893030000007441457947923876281_);}
</style>
<g>
	<g class="st274">
		<path class="st275" d="M95.7,225.1h20.1c4.5,0,8,0.3,10.4,1c3.2,0.9,5.9,2.6,8.2,5c2.3,2.4,4,5.4,5.2,8.8
			c1.2,3.5,1.8,7.8,1.8,12.9c0,4.5-0.6,8.4-1.7,11.6c-1.4,4-3.3,7.2-5.8,9.6c-1.9,1.9-4.5,3.3-7.7,4.4c-2.4,0.8-5.7,1.2-9.7,1.2
			H95.7V225.1z M106.7,234.3v36.1h8.2c3.1,0,5.3-0.2,6.7-0.5c1.8-0.4,3.3-1.2,4.4-2.3c1.2-1.1,2.1-2.8,2.9-5.3
			c0.7-2.4,1.1-5.8,1.1-10c0-4.2-0.4-7.5-1.1-9.7c-0.7-2.3-1.8-4-3.1-5.3c-1.3-1.3-3-2.1-5.1-2.6c-1.5-0.3-4.6-0.5-9-0.5H106.7z"/>
		<path class="st275" d="M199.9,279.6h-12l-4.8-12.4h-21.8l-4.5,12.4h-11.7l21.2-54.5h11.6L199.9,279.6z M179.7,258.1l-7.5-20.2
			l-7.4,20.2H179.7z"/>
		<path class="st275" d="M203.5,252.7c0-5.6,0.8-10.2,2.5-14c1.2-2.8,2.9-5.3,5.1-7.5c2.1-2.2,4.5-3.8,7-4.9
			c3.4-1.4,7.3-2.2,11.8-2.2c8,0,14.5,2.5,19.3,7.5c4.8,5,7.2,11.9,7.2,20.8c0,8.8-2.4,15.7-7.2,20.7s-11.2,7.5-19.2,7.5
			c-8.1,0-14.6-2.5-19.3-7.4C205.9,268.2,203.5,261.4,203.5,252.7z M214.9,252.3c0,6.2,1.4,10.9,4.3,14c2.9,3.2,6.5,4.8,10.9,4.8
			c4.4,0,8-1.6,10.8-4.7c2.8-3.2,4.2-7.9,4.2-14.2c0-6.2-1.4-10.9-4.1-14s-6.4-4.6-10.9-4.6c-4.5,0-8.2,1.6-11,4.7
			C216.3,241.4,214.9,246.1,214.9,252.3z"/>
		<path class="st275" d="M262.2,261.9l10.7-1c0.6,3.6,2,6.2,3.9,7.9c2,1.7,4.6,2.5,8,2.5c3.5,0,6.2-0.7,8-2.3
			c1.8-1.5,2.7-3.3,2.7-5.3c0-1.3-0.4-2.4-1.1-3.3c-0.8-0.9-2.1-1.7-4-2.4c-1.3-0.4-4.2-1.2-8.8-2.4c-5.9-1.5-10-3.3-12.4-5.4
			c-3.3-3-5-6.7-5-11c0-2.8,0.8-5.4,2.4-7.8c1.6-2.4,3.8-4.3,6.8-5.5c3-1.3,6.5-1.9,10.7-1.9c6.8,0,12,1.5,15.5,4.5
			c3.5,3,5.3,7,5.4,12l-11,0.5c-0.5-2.8-1.5-4.8-3-6c-1.5-1.2-3.9-1.8-7-1.8c-3.2,0-5.7,0.7-7.5,2c-1.2,0.8-1.7,2-1.7,3.4
			c0,1.3,0.5,2.4,1.6,3.3c1.4,1.2,4.8,2.4,10.1,3.6s9.3,2.6,11.9,3.9c2.6,1.4,4.6,3.2,6,5.5c1.5,2.3,2.2,5.2,2.2,8.7
			c0,3.1-0.9,6.1-2.6,8.8c-1.7,2.7-4.2,4.8-7.4,6.1c-3.2,1.3-7.1,2-11.9,2c-6.9,0-12.2-1.6-15.9-4.8
			C265.1,272.7,262.9,268,262.2,261.9z"/>
		<path class="st275" d="M333.9,240.1v8.3h-7.1v15.9c0,3.2,0.1,5.1,0.2,5.6c0.1,0.5,0.4,1,0.9,1.3s1.1,0.5,1.8,0.5
			c1,0,2.4-0.3,4.2-1l0.9,8.1c-2.4,1-5.2,1.6-8.3,1.6c-1.9,0-3.6-0.3-5.1-0.9c-1.5-0.6-2.6-1.4-3.3-2.5c-0.7-1-1.2-2.4-1.5-4.1
			c-0.2-1.2-0.3-3.7-0.3-7.4v-17.2h-4.8v-8.3h4.8v-7.8l10.5-6.1v13.9H333.9z"/>
		<path class="st275" d="M348.9,252.2l-9.5-1.7c1.1-3.8,2.9-6.6,5.5-8.5c2.6-1.8,6.5-2.8,11.6-2.8c4.7,0,8.1,0.6,10.4,1.7
			c2.3,1.1,3.9,2.5,4.8,4.2c0.9,1.7,1.4,4.8,1.4,9.4l-0.1,12.2c0,3.5,0.2,6,0.5,7.7c0.3,1.6,1,3.4,1.9,5.3h-10.3
			c-0.3-0.7-0.6-1.7-1-3.1c-0.2-0.6-0.3-1-0.4-1.2c-1.8,1.7-3.7,3-5.7,3.9c-2,0.9-4.2,1.3-6.5,1.3c-4.1,0-7.3-1.1-9.6-3.3
			c-2.3-2.2-3.5-5-3.5-8.4c0-2.2,0.5-4.2,1.6-6c1.1-1.7,2.6-3.1,4.5-4c1.9-0.9,4.7-1.7,8.3-2.4c4.9-0.9,8.3-1.8,10.2-2.6v-1
			c0-2-0.5-3.4-1.5-4.3c-1-0.9-2.9-1.3-5.6-1.3c-1.9,0-3.3,0.4-4.4,1.1C350.4,249.1,349.6,250.4,348.9,252.2z M362.9,260.7
			c-1.3,0.4-3.5,1-6.4,1.6c-2.9,0.6-4.8,1.2-5.7,1.8c-1.4,1-2,2.2-2,3.7c0,1.5,0.5,2.7,1.6,3.8c1.1,1.1,2.5,1.6,4.2,1.6
			c1.9,0,3.7-0.6,5.4-1.9c1.3-0.9,2.1-2.1,2.5-3.5c0.3-0.9,0.4-2.6,0.4-5.1V260.7z"/>
		<path class="st275" d="M393.5,279.6H383v-39.5h9.7v5.6c1.7-2.7,3.2-4.4,4.5-5.2c1.3-0.8,2.8-1.3,4.5-1.3c2.4,0,4.7,0.7,6.9,2
			l-3.2,9.1c-1.8-1.1-3.4-1.7-4.9-1.7c-1.5,0-2.7,0.4-3.7,1.2c-1,0.8-1.8,2.3-2.4,4.4c-0.6,2.1-0.9,6.5-0.9,13.2V279.6z"/>
		<path class="st275" d="M431.2,240.1v8.3h-7.1v15.9c0,3.2,0.1,5.1,0.2,5.6c0.1,0.5,0.4,1,0.9,1.3s1.1,0.5,1.8,0.5
			c1,0,2.4-0.3,4.2-1l0.9,8.1c-2.4,1-5.2,1.6-8.3,1.6c-1.9,0-3.6-0.3-5.1-0.9c-1.5-0.6-2.6-1.4-3.3-2.5c-0.7-1-1.2-2.4-1.5-4.1
			c-0.2-1.2-0.3-3.7-0.3-7.4v-17.2h-4.8v-8.3h4.8v-7.8l10.5-6.1v13.9H431.2z"/>
		<path class="st275" d="M461.4,267.1l10.4,1.7c-1.3,3.8-3.5,6.7-6.3,8.7c-2.9,2-6.5,3-10.8,3c-6.9,0-12-2.2-15.2-6.7
			c-2.6-3.6-3.9-8.1-3.9-13.6c0-6.5,1.7-11.7,5.1-15.4s7.7-5.6,13-5.6c5.9,0,10.5,1.9,13.9,5.8c3.4,3.9,5,9.8,4.9,17.8h-26.2
			c0.1,3.1,0.9,5.5,2.5,7.2c1.6,1.7,3.6,2.6,6,2.6c1.6,0,3-0.4,4.1-1.3C460,270.5,460.8,269.1,461.4,267.1z M462,256.5
			c-0.1-3-0.9-5.3-2.3-6.9c-1.5-1.6-3.3-2.4-5.4-2.4c-2.3,0-4.2,0.8-5.7,2.5c-1.5,1.7-2.2,3.9-2.2,6.8H462z"/>
		<path class="st275" d="M490.9,279.6h-10.5v-39.5h9.7v5.6c1.7-2.7,3.2-4.4,4.5-5.2c1.3-0.8,2.8-1.3,4.5-1.3c2.4,0,4.7,0.7,6.9,2
			l-3.2,9.1c-1.8-1.1-3.4-1.7-4.9-1.7c-1.5,0-2.7,0.4-3.7,1.2c-1,0.8-1.8,2.3-2.4,4.4c-0.6,2.1-0.9,6.5-0.9,13.2V279.6z"/>
	</g>
	<g id="编组" transform="translate(0 -0.001)">
		
			<linearGradient id="Fill_1_00000104704039014168498170000000967888962881203630_" gradientUnits="userSpaceOnUse" x1="-502.3806" y1="198.6784" x2="-502.2003" y2="198.5" gradientTransform="matrix(191.429 0 0 -364.2449 96176.5078 72588.9062)">
			<stop  offset="0" style="stop-color:#2F3390"/>
			<stop  offset="1" style="stop-color:#AA6FAC"/>
		</linearGradient>
		<path id="Fill_1_1_" style="fill:url(#Fill_1_00000104704039014168498170000000967888962881203630_);" d="M7.7,218.6v64.4
			c9.5-1.5,15.4-1.3,18.2,0v-41c0,0-0.2-17.1,15.6-13.1C41.5,228.8,37.8,218.4,7.7,218.6"/>
		
			<linearGradient id="Fill_3_00000155838359822113263790000017860426037429673902_" gradientUnits="userSpaceOnUse" x1="-502.8665" y1="198.3942" x2="-502.6862" y2="198.2156" gradientTransform="matrix(240.784 0 0 -134.4856 121090.9219 26954.2676)">
			<stop  offset="0" style="stop-color:#2F3390"/>
			<stop  offset="1" style="stop-color:#AA6FAC"/>
		</linearGradient>
		<path id="Fill_3_1_" style="fill:url(#Fill_3_00000155838359822113263790000017860426037429673902_);" d="M6.1,292.2
			C6.1,292.2,6,292.1,6.1,292.2c1.9-4.6,6.1-7.3,10.4-8.1c8.7-1.7,27.6,5.2,32.1-9.4c-0.8,7.3-1.8,10.9-5.8,15.8
			c-3.8,4.7-9.6,8.1-15.2,8C20.2,298.2,13.1,295.5,6.1,292.2"/>
		
			<linearGradient id="Fill_5_00000137817550092503191830000014241626897701987220_" gradientUnits="userSpaceOnUse" x1="-503.6643" y1="198.9801" x2="-503.4841" y2="198.8017" gradientTransform="matrix(376.9271 0 0 -498.7544 189853.0469 99453.375)">
			<stop  offset="0" style="stop-color:#2F3390"/>
			<stop  offset="1" style="stop-color:#AA6FAC"/>
		</linearGradient>
		<path id="Fill_5_1_" style="fill:url(#Fill_5_00000137817550092503191830000014241626897701987220_);" d="M7.7,216.7
			c0,0,48.1-8.7,46.7,41.4c0,0,0.3,40.3-23.4,41.1c2.7-0.1,5.6,0.8,8.4,0.8c6,0,12.2-1,17.5-3.8c22.2-11.5,20.4-49.4,9-67.5
			c-9.4-14.9-27.3-18.7-43.7-16.1C17.3,213.5,12.6,215.9,7.7,216.7"/>
	</g>
</g>
</svg>
