<svg width="512" height="512" xmlns="http://www.w3.org/2000/svg" data-name="图层 1">
 <g>
  <title>Layer 1</title>
  <path class="cls-1" d="m256,6c-138.06,0 -250,111.94 -250,250s111.94,250 250,250s250,-111.92 250,-250s-111.94,-250 -250,-250zm70,440.45c-1.44,-19.56 -3,-43.8 -3.14,-53.61c-0.63,-7.53 -1.44,-26.68 -19.63,-38.92c72.21,-6.05 106.57,-45.95 109,-98.69c2.06,-30 -9.88,-56.43 -31.08,-77.75a426.33,426.33 0 0 0 -2.16,-61.68c-16.28,-4.69 -54.25,15.36 -64.86,23.94c-22.37,-8.69 -77.14,-11.74 -110.42,0c-23.59,-16.6 -50.45,-26.85 -65.09,-24c-13.52,30 -4.83,58.27 -2.19,61.64c-17.41,15.91 -41.69,35.49 -35.09,76.5c10.66,60.12 52.96,92.59 121.08,100.53c-14.53,3 -17,13.81 -18.2,18.51c-45.75,18.88 -58.83,-11.65 -64.61,-19.61c-19.2,-23.76 -36.44,-16.87 -37.5,-16.5a3,3 0 0 0 -1.71,2.6c1,5.12 11.43,10.33 11.94,10.75c14.17,10.56 19.42,29.64 22.66,35.07c20.33,33.43 67.58,19.57 68,19.85c0,2.92 -0.33,27.51 -0.61,46.65c-86.12,-23.53 -149.52,-102.12 -149.52,-195.73c0,-112.19 90.94,-203.12 203.13,-203.12s203.12,90.93 203.12,203.12c0,87.55 -55.46,161.9 -133.12,190.45z" fill="#b5b5b6" id="svg_1"/>
 </g>

</svg>