<svg id="图层_1" data-name="图层 1" xmlns="http://www.w3.org/2000/svg" viewBox="0 0 512 512"><defs><style>.cls-1{fill:#b5b5b6;}</style></defs><path class="cls-1" d="M422,68.38H220A28,28,0,0,0,192.1,96.29v33.39a7.21,7.21,0,0,1-7.21,7.21H90.26c-11.39,0-17,9.32-12.44,20.71l24.73,61.88a7.2,7.2,0,0,1-6.69,9.88H25.8c-27.49,0-26.19,22.5,2.86,50L187.36,429.4l.71.78a36.37,36.37,0,0,0,18.37,12.55,16.69,16.69,0,0,0,4.83.89H478.08A28,28,0,0,0,506,415.7V152.39a7.2,7.2,0,0,0-2.11-5.1l-76.8-76.8A7.22,7.22,0,0,0,422,68.38ZM86.79,266.32h29.59a7.21,7.21,0,0,1,6.69,4.53l18,45c2.87,7.17-6,13.22-11.64,7.91l-47.56-45A7.21,7.21,0,0,1,86.79,266.32Zm91.41,42.92L128.05,183.72a7.2,7.2,0,0,1,6.69-9.88h50.15a7.2,7.2,0,0,1,7.21,7.2V306.56C192.1,314.5,181.15,316.61,178.2,309.24Zm283.65,97.43H236.25a7.2,7.2,0,0,1-7.2-7.21V112.53a7.2,7.2,0,0,1,7.2-7.21H391.41a7.21,7.21,0,0,1,7.21,7.21v56a7.2,7.2,0,0,0,7.21,7.2h56a7.21,7.21,0,0,1,7.21,7.21v216.5A7.21,7.21,0,0,1,461.85,406.67Z"/><path class="cls-1" d="M416.9,331.43H281.62a14.91,14.91,0,0,0-14.94,12.87,14.66,14.66,0,0,0,14.52,16.38H416.49a14.89,14.89,0,0,0,14.93-12.87A14.66,14.66,0,0,0,416.9,331.43Z"/><path class="cls-1" d="M416.9,266H281.63a14.91,14.91,0,0,0-14.95,12.89,14.64,14.64,0,0,0,14.52,16.36H416.45c7.87,0,14.68-6,15.06-13.89A14.67,14.67,0,0,0,416.9,266Z"/><path class="cls-1" d="M266.68,217.05a14.91,14.91,0,0,0,14.94,12.87H416.48a14.91,14.91,0,0,0,14.94-12.87,14.66,14.66,0,0,0-14.52-16.38H281.2A14.66,14.66,0,0,0,266.68,217.05Z"/></svg>