<svg id="图层_1" data-name="图层 1" xmlns="http://www.w3.org/2000/svg" viewBox="0 0 512 512"><defs><style>.cls-1{fill:#df5b23;}</style></defs><path class="cls-1" d="M256,6C117.93,6,6,117.93,6,256S117.93,506,256,506,506,394.07,506,256,394.07,6,256,6ZM189.48,341c-46.59-.09-84.4-38.09-84.48-84.92A84.72,84.72,0,0,1,189.68,171c46.58,0,84.06,38,84,85.06S235.92,341.09,189.48,341Zm178.21-88.31c-.1,23.48-3.5,42.59-12.63,60.44a52.71,52.71,0,0,1-13.79,17c-10.07,8.22-23.3,7.52-33.2-1.39C296.66,318.45,291,305,287.57,290.6c-7.42-31.29-6-61.94,8.17-91.37A51.62,51.62,0,0,1,309,182.42c10.22-8.77,23.89-8.27,34,.79,11.56,10.39,17,24,20.71,38.54C366.56,233.06,367.92,244.61,367.69,252.69Zm33.41,60.38a36.09,36.09,0,0,1-4.37,11c-3,4.65-6.27,4.73-9.15,0-3.82-6.2-5.38-13.25-6.53-20.31a286.72,286.72,0,0,1,.81-99.89,56.56,56.56,0,0,1,4.89-14.89c1.13-2.26,2.44-4.72,5.55-4.57,2.78.14,4,2.35,5.13,4.5,3.71,7.17,5.21,15,6.4,22.86,2.23,14.68,3.54,29.44,3.09,42.53C407.12,275.35,405.65,294.37,401.1,313.07Z"/></svg>