<?xml version="1.0" encoding="utf-8"?>
<!-- Generator: Adobe Illustrator 25.4.1, SVG Export Plug-In . SVG Version: 6.00 Build 0)  -->
<svg version="1.1" id="图层_1" xmlns="http://www.w3.org/2000/svg" xmlns:xlink="http://www.w3.org/1999/xlink" x="0px" y="0px"
	 viewBox="0 0 512 512" style="enable-background:new 0 0 512 512;" xml:space="preserve">
<style type="text/css">
	.st0{fill-rule:evenodd;clip-rule:evenodd;fill:#EB5C20;}
	.st1{fill-rule:evenodd;clip-rule:evenodd;fill:#E29227;}
	.st2{fill:#EB5C20;}
	.st3{fill-rule:evenodd;clip-rule:evenodd;fill:#70BA33;}
	.st4{fill-rule:evenodd;clip-rule:evenodd;fill:#1C9965;}
	.st5{fill-rule:evenodd;clip-rule:evenodd;fill:#1E5D91;}
	.st6{fill-rule:evenodd;clip-rule:evenodd;fill:#C6224E;}
	.st7{fill:#B5B5B6;}
	.st8{fill-rule:evenodd;clip-rule:evenodd;fill:#B5B5B6;}
	.st9{fill:#DF5B23;}
	.st10{fill:#B5B5B6;stroke:#B5B5B6;stroke-width:10;stroke-miterlimit:10;}
	.st11{fill:#B5B5B6;stroke:#B5B5B6;stroke-width:18;stroke-miterlimit:10;}
	.st12{fill:#1E5D91;}
	.st13{fill:#E29227;}
	.st14{fill:#1C9965;}
	.st15{fill:#70BA33;}
	.st16{fill:#C6224E;}
	.st17{fill:#0E0304;}
	.st18{fill:#29292C;}
	.st19{fill:#2E3032;}
	.st20{fill:#1A1A1B;}
	.st21{fill:#757579;}
	.st22{fill:none;stroke:#B5B5B6;stroke-width:30;stroke-linecap:round;stroke-linejoin:round;stroke-miterlimit:10;}
	.st23{fill:#040000;}
	.st24{fill-rule:evenodd;clip-rule:evenodd;fill:#040000;}
	.st25{fill:url(#SVGID_1_);}
	.st26{fill:#EBE7C3;}
	.st27{fill-rule:evenodd;clip-rule:evenodd;fill:#EBE7C3;}
	.st28{fill:#FFFFFF;}
	.st29{fill:none;stroke:#B5B5B6;stroke-width:10;stroke-miterlimit:10;}
	.st30{fill-rule:evenodd;clip-rule:evenodd;fill:url(#SVGID_00000080886560508686074860000009493193974009649816_);}
	.st31{fill:#221F20;}
	.st32{fill:#F1AA43;}
	.st33{fill:#EB9326;}
	.st34{fill:#EE9F38;}
	.st35{fill:#E8891D;}
	.st36{fill:#EF9E36;}
	.st37{fill:#F9C88E;}
	.st38{fill:#CB838E;}
	.st39{fill:#F7BF75;}
	.st40{fill-rule:evenodd;clip-rule:evenodd;fill:#DF5B23;}
	.st41{fill:#2F2833;}
	.st42{fill:#403944;}
	.st43{fill:#DF5924;}
	.st44{fill-rule:evenodd;clip-rule:evenodd;fill:#CCBCB1;}
	.st45{fill-rule:evenodd;clip-rule:evenodd;fill:#393939;}
	.st46{fill-rule:evenodd;clip-rule:evenodd;fill:#EF9839;}
	.st47{fill-rule:evenodd;clip-rule:evenodd;fill:#EF993A;}
	.st48{fill-rule:evenodd;clip-rule:evenodd;fill:#D07A32;}
	.st49{fill-rule:evenodd;clip-rule:evenodd;fill:#E1893D;}
	.st50{fill-rule:evenodd;clip-rule:evenodd;fill:#E28C38;}
	.st51{fill-rule:evenodd;clip-rule:evenodd;fill:#E18B3C;}
	.st52{fill-rule:evenodd;clip-rule:evenodd;fill:#DF7F24;}
	.st53{fill-rule:evenodd;clip-rule:evenodd;fill:#DDCCC2;}
	.st54{fill-rule:evenodd;clip-rule:evenodd;fill:#DF8C38;}
	.st55{fill-rule:evenodd;clip-rule:evenodd;fill:#8B5930;}
	.st56{fill:#1C5AA8;}
	.st57{fill:#2156A6;}
	.st58{fill:#E7B41E;}
	.st59{fill:#298CCD;}
	.st60{fill:#123443;}
	.st61{fill:#B8266A;}
	.st62{fill:#1B4B68;}
	.st63{fill:#1C4157;}
	.st64{fill:#4A6894;}
	.st65{fill:#343535;}
	.st66{fill:#3E5375;}
	.st67{fill:#6CAACE;}
	.st68{fill:#335C85;}
	.st69{fill:#5294B1;}
	.st70{fill-rule:evenodd;clip-rule:evenodd;fill:#5255A3;}
	.st71{fill-rule:evenodd;clip-rule:evenodd;fill:#2B60AC;}
	.st72{fill:#2B60AC;}
	.st73{fill:#E8412E;}
	.st74{fill:#E83F21;}
	.st75{fill:#E33E28;}
	.st76{fill:#E84138;}
	.st77{fill:#E94526;}
	.st78{fill:#E94423;}
	.st79{fill:#E9481F;}
	.st80{fill:#E94522;}
	.st81{fill:#E9461F;}
	.st82{fill:#E84236;}
	.st83{fill:#E9471E;}
	.st84{fill:#E6411D;}
	.st85{fill:#E8412F;}
	.st86{fill:#132533;}
	.st87{fill:url(#SVGID_00000070832185021611933530000015150142918162927244_);}
	.st88{fill:url(#SVGID_00000182508654528807206550000008652244444112523437_);}
	.st89{fill:#CBCFD7;}
	.st90{fill:url(#SVGID_00000016033078202602165090000006746187513448874630_);}
	.st91{fill:url(#SVGID_00000134934334223763560690000017793969760846435979_);}
	.st92{fill:#366FAE;}
	.st93{fill:#FFF100;}
	.st94{fill:url(#SVGID_00000181769811166693491520000018342607314143283369_);}
	.st95{fill:#FFE000;}
	.st96{fill:url(#SVGID_00000120519697392295875080000005412947350746013600_);}
	.st97{fill:#FAC000;}
	.st98{fill:url(#SVGID_00000021103667123449409980000005011773103532832185_);}
	.st99{fill:#F4A000;}
	.st100{fill:url(#SVGID_00000035489317032789618800000000871961902240081558_);}
	.st101{fill:#EE7300;}
	.st102{fill:url(#SVGID_00000145041471887943333290000003468676417976897192_);}
	.st103{fill:#E94709;}
	.st104{fill:url(#SVGID_00000165192601369943082120000003536009364732688513_);}
	.st105{fill:#009E41;}
	.st106{fill:url(#SVGID_00000057149725757318115540000011591802813083770265_);}
	.st107{fill:#40AF36;}
	.st108{fill:url(#SVGID_00000055703800425643498920000016328216145388749755_);}
	.st109{fill:#72BB2B;}
	.st110{fill:url(#SVGID_00000027580424227231117830000001333560909985692092_);}
	.st111{fill:#E3E300;}
	.st112{fill:url(#SVGID_00000026149309390652774170000007024948200533116317_);}
	.st113{fill:#A3CA0F;}
	.st114{fill:url(#SVGID_00000094597154704156173350000006076922878174126271_);}
	.st115{fill:#C4D700;}
	.st116{fill:url(#SVGID_00000031888573054566436780000005782634987571279551_);}
	.st117{fill:#36B8B7;}
	.st118{fill:#3EB4AD;}
	.st119{fill:#3AB8B9;}
	.st120{fill:#56BAB0;}
	.st121{fill:#65BBB2;}
	.st122{fill:#32B7B0;}
	.st123{fill:#2EB6AE;}
	.st124{fill:#48B6BC;}
	.st125{fill:#4DB5BD;}
	.st126{fill:#3EB4AE;}
	.st127{fill:#57BBB1;}
	.st128{fill:#060909;}
	.st129{fill:#061014;}
	.st130{fill:#FAFAFB;}
	.st131{fill:#F6F7F7;}
	.st132{fill:#F7F7F7;}
	.st133{fill:#F6F6F6;}
	.st134{fill:#7CB8BD;}
	.st135{fill:#3FB5B7;}
	.st136{fill:#4DB6B9;}
	.st137{fill:#F4F5F5;}
	.st138{fill:#F5F5F5;}
	.st139{fill:#070505;}
	.st140{fill:#F4F3F3;}
	.st141{fill:#050202;}
	.st142{fill:#71BCBA;}
	.st143{fill:#73BBB8;}
	.st144{fill:#76BEBC;}
	.st145{fill:#83B8B8;}
	.st146{fill:#3DB9B5;}
	.st147{fill:#40BABA;}
	.st148{fill:#36B8B6;}
	.st149{fill:#28B6B2;}
	.st150{fill:#00B5C6;}
	.st151{fill:#00B5C2;}
	.st152{fill:#23B7BB;}
	.st153{fill:#00B5C4;}
	.st154{fill:#14B6BE;}
	.st155{fill:#09B6C0;}
	.st156{fill:#41B9B1;}
	.st157{fill:#00B4D0;}
	.st158{fill:#00B4D3;}
	.st159{fill:#30B8B8;}
	.st160{fill:#00B4CD;}
	.st161{fill:#1CB6BD;}
	.st162{fill:#28B7BA;}
	.st163{fill:#47BAAE;}
	.st164{fill:#34B8B6;}
	.st165{fill:#4CBBAD;}
	.st166{fill:#3BB9B3;}
	.st167{fill:#44BAAF;}
	.st168{fill:#00B3D6;}
	.st169{fill:#00B3D9;}
	.st170{fill:#00B3D7;}
	.st171{fill:#00B3DB;}
	.st172{fill:#00B5CA;}
	.st173{fill:#37B8B5;}
	.st174{fill:#1BB6BD;}
	.st175{fill:#00B5C8;}
	.st176{fill:#231815;stroke:#FFFFFF;stroke-width:0.187;stroke-miterlimit:10;}
	.st177{fill:#023592;}
	.st178{fill-rule:evenodd;clip-rule:evenodd;fill:#60BEA1;}
	.st179{fill:#FFFFFF;stroke:#FFFFFF;stroke-width:0.187;stroke-miterlimit:10;}
	.st180{fill:#7C2B7F;}
	.st181{fill:#752C7F;}
	.st182{fill:#EE8753;}
	.st183{fill:#F09D47;}
	.st184{fill:#EF944D;}
	.st185{fill:#EE8C51;}
	.st186{fill:#EC795A;}
	.st187{fill:#F0984B;}
	.st188{fill:#EB715E;}
	.st189{fill:#9E2F7F;}
	.st190{fill:#AA2E7E;}
	.st191{fill:#EC7C5D;}
	.st192{fill:#C4337F;}
	.st193{fill:#932D7F;}
	.st194{fill:#A42F7E;}
	.st195{fill:#BD317E;}
	.st196{fill:#B8327F;}
	.st197{fill:#B2317E;}
	.st198{fill:#992D7F;}
	.st199{fill:#CA347F;}
	.st200{fill:#8C2D7F;}
	.st201{fill:#D0357F;}
	.st202{fill:#AE307E;}
	.st203{fill:#EC765E;}
	.st204{fill:#DB377F;}
	.st205{fill:#E44676;}
	.st206{fill:#862C7E;}
	.st207{fill:#E96B64;}
	.st208{fill:#D6357F;}
	.st209{fill:#E96B62;}
	.st210{fill:#E13A80;}
	.st211{fill:#E13D7E;}
	.st212{fill:#822B7F;}
	.st213{fill:#E54D75;}
	.st214{fill:#33A2D3;}
	.st215{fill:#E3417B;}
	.st216{fill:#E65371;}
	.st217{fill:#E65B6C;}
	.st218{fill:#E96764;}
	.st219{fill:#E85F68;}
	.st220{fill:#E96366;}
	.st221{fill:#EA6F67;}
	.st222{fill:#E6566D;}
	.st223{fill:#EA6C6C;}
	.st224{fill:#E7606E;}
	.st225{fill:#EB7563;}
	.st226{fill:#EC7C69;}
	.st227{fill:#E8687D;}
	.st228{fill:#E0EDF7;}
	.st229{fill:#E9676E;}
	.st230{fill:#E9B536;}
	.st231{fill:#864690;}
	.st232{fill:#334190;}
	.st233{fill:#6A438D;}
	.st234{fill:#6B438D;}
	.st235{fill:#6B448D;}
	.st236{fill:#3A4291;}
	.st237{fill:#81458F;}
	.st238{fill:#644390;}
	.st239{fill:#9E458E;}
	.st240{fill:#98468F;}
	.st241{fill:#92468F;}
	.st242{fill:#8D458F;}
	.st243{fill:#9B468F;}
	.st244{fill:#90468E;}
	.st245{fill:#9C468F;}
	.st246{fill:#A3458D;}
	.st247{fill:#4E4491;}
	.st248{fill:#434291;}
	.st249{fill:#534290;}
	.st250{fill:#6E4591;}
	.st251{fill:#754490;}
	.st252{fill:#5F4390;}
	.st253{fill:#7B4490;}
	.st254{fill:#584390;}
	.st255{fill:#594390;}
	.st256{fill:#474392;}
	.st257{fill:#B3458C;}
	.st258{fill:#6A4491;}
	.st259{fill:#AE468C;}
	.st260{fill:#97458F;}
	.st261{fill:#B6468C;}
	.st262{fill:#9B458E;}
	.st263{fill:#C4468C;}
	.st264{fill:#BD478C;}
	.st265{fill:#AA468D;}
	.st266{fill:#A7468D;}
	.st267{fill:#B3468D;}
	.st268{fill:#B0458C;}
	.st269{fill:#BC468C;}
	.st270{fill:#AF458C;}
	.st271{fill:#B9468C;}
	.st272{fill:#BD468B;}
	.st273{fill:#BA468C;}
	.st274{enable-background:new    ;}
	.st275{fill:#1D1E1D;}
	.st276{fill:url(#Fill_1_00000105411794961882160030000014395633447615150731_);}
	.st277{fill:url(#Fill_3_00000119085354637849616400000016576113613884295833_);}
	.st278{fill:url(#Fill_5_00000033351567249881432720000006471940282480426938_);}
	.st279{fill:#1E201F;}
	.st280{fill:#3AB9B5;}
	.st281{fill:#27B4B0;}
	.st282{fill:#009694;}
	.st283{fill:#554B9D;}
	.st284{clip-path:url(#SVGID_00000000901171981726564510000011052829054984071308_);}
	.st285{fill:#FF761A;}
	.st286{fill:#E06300;}
	.st287{fill:#466007;}
	.st288{fill:#56840D;}
	.st289{fill:#C95100;}
	.st290{fill:#DE111E;}
	.st291{opacity:0.22;fill:#231F20;}
	.st292{fill:#DF3D4B;}
	.st293{fill:#C60E2D;}
	.st294{fill:#90C125;}
	.st295{fill:#F27466;}
	.st296{fill:#A36400;}
	.st297{fill:#DB9200;}
	.st298{fill:#BA7700;}
	.st299{fill:#FFCE00;}
	.st300{fill:#4A6D05;}
	.st301{fill:#76A51C;}
	.st302{fill:url(#SVGID_00000097465829293839108130000017464098483387506817_);}
	.st303{fill:url(#SVGID_00000110441751457245217300000010154104679065136570_);}
	.st304{fill:url(#SVGID_00000176018075467187529500000013434777478420021162_);}
	.st305{fill:url(#SVGID_00000074428497938552288190000001578858130875400359_);}
	.st306{fill:url(#SVGID_00000102537311148568747840000004227266526790727083_);}
	.st307{fill:url(#SVGID_00000139273906445955135530000012601549029589524662_);}
	.st308{fill:url(#SVGID_00000088096095847522763590000009699547664645615805_);}
	.st309{fill:url(#SVGID_00000146500858681852910680000016468466045239656633_);}
	.st310{fill:url(#SVGID_00000020386813955263688530000016370622856836066201_);}
	.st311{fill:url(#SVGID_00000121990437132250223510000006663565884618774198_);}
	.st312{fill:url(#SVGID_00000181089184964220193400000000137296486344266671_);}
	.st313{fill:url(#SVGID_00000118390112098725621100000001675898109184029339_);}
	.st314{fill:url(#SVGID_00000088123524772447313550000017844151931955196832_);}
	.st315{fill:url(#SVGID_00000121993938522246820160000000424800804183634105_);}
	.st316{fill:url(#SVGID_00000088840934645570821130000016762177182874303655_);}
	.st317{fill:url(#SVGID_00000083080620237739726600000014276399089509220795_);}
	.st318{fill:url(#SVGID_00000170240490154052858870000000289257049642661545_);}
	.st319{fill:url(#SVGID_00000008856891947898305730000013784284949933452451_);}
	.st320{fill:url(#SVGID_00000145768428241383895300000014247366892787253381_);}
	.st321{fill:#070181;}
	.st322{fill:#FEC701;}
	.st323{fill:#231F8F;}
	.st324{fill:#20282A;}
	.st325{fill:#060081;}
	.st326{fill:#FE8A01;}
	.st327{fill:#FE9301;}
	.st328{fill:#FE8E02;}
	.st329{fill:#FE9800;}
	.st330{fill:#FDC303;}
	.st331{fill:#FE9106;}
	.st332{fill:#FEBD01;}
	.st333{fill:#FDB700;}
	.st334{fill:#FEC202;}
	.st335{fill:#FEB200;}
	.st336{fill:#E6FBF8;}
	.st337{fill:#94AED1;}
	.st338{fill:#C4E6E7;}
	.st339{fill:#B6D9E6;}
	.st340{fill:#D2F8F4;}
	.st341{fill:#AFD0E2;}
	.st342{fill:#FED005;}
	.st343{fill:#0241A9;}
	.st344{fill:#052C9B;}
	.st345{fill:#CFF7F4;}
	.st346{fill:#93ADD1;}
	.st347{fill:#D0F8F4;}
	.st348{fill:#E6FBF9;}
	.st349{fill:#FDC802;}
	.st350{fill:#B0D1E2;}
	.st351{fill:#AFD1E2;}
	.st352{fill:#ADCEE9;}
	.st353{fill:#CDF3FC;}
	.st354{fill:#AECFE9;}
	.st355{fill:#CDF4F2;}
	.st356{fill:#CBF2F1;}
	.st357{fill:#FBB61F;}
	.st358{fill:#FAAE29;}
	.st359{fill:#A3C2DB;}
	.st360{fill:#B1D3E3;}
	.st361{fill:#C6E0D9;}
	.st362{fill:#C5D7E8;}
	.st363{fill:#C1E6EC;}
	.st364{fill:#A7C8DE;}
	.st365{fill:#A7B8D8;}
	.st366{fill:#C4DEE9;}
	.st367{fill:#9FBDD9;}
	.st368{fill:#FE9D01;}
	.st369{fill:#FEAF02;}
	.st370{fill:#CFF5F1;}
	.st371{fill:#0D0884;}
	.st372{fill:#CFF6F3;}
	.st373{fill:#FEA500;}
	.st374{fill:#FEA000;}
	.st375{fill:#FEAB01;}
	.st376{fill:#738ECF;}
	.st377{fill:#062D9C;}
	.st378{fill:#728DCF;}
	.st379{fill:#FABD15;}
	.st380{fill:#FDBF08;}
	.st381{fill:#FAB91A;}
	.st382{fill:#F9C107;}
	.st383{fill:#FEFEFE;}
	.st384{fill:#E5D2FE;}
	.st385{fill:#C090FE;}
	.st386{fill:#9647FE;}
	.st387{fill:#9648FE;}
	.st388{fill:#FCFAFE;}
	.st389{fill:#FCFBFE;}
	.st390{fill:#F8F3FE;}
	.st391{fill:#FBF9FE;}
	.st392{fill:#FBF8FE;}
	.st393{fill:#FDFCFE;}
	.st394{fill:#F9F5FE;}
	.st395{fill:#F7F1FE;}
	.st396{fill:#F5EFFE;}
	.st397{fill:#F6F0FE;}
	.st398{fill:#DAC0FE;}
	.st399{fill:#D2B2FE;}
	.st400{fill:#D6B8FE;}
	.st401{fill:#DCC3FE;}
	.st402{fill:#F4ECFE;}
	.st403{fill:#D1AEFE;}
	.st404{fill:#DABFFE;}
	.st405{fill:#CCA7FE;}
	.st406{fill:#E5D1FE;}
	.st407{fill:#D5B6FE;}
	.st408{fill:#D0AEFE;}
	.st409{fill:#D3B3FE;}
	.st410{fill:#EADBFE;}
	.st411{fill:#D2B0FE;}
	.st412{fill:#E4D1FE;}
	.st413{fill:#E1CBFE;}
	.st414{fill:#FAF7FE;}
	.st415{fill:#F2E9FE;}
	.st416{fill:#CDA9FE;}
	.st417{fill:#C79EFE;}
	.st418{fill:#DABEFE;}
	.st419{fill:#EEE2FE;}
	.st420{fill:#BC8BFE;}
	.st421{fill:#C396FE;}
	.st422{fill:#CFACFE;}
	.st423{fill:#C49AFE;}
	.st424{fill:#DBC0FE;}
	.st425{fill:#CCA6FE;}
	.st426{fill:#D8BCFE;}
	.st427{fill:#DDC4FE;}
	.st428{fill:#EFE5FE;}
	.st429{fill:#CFADFE;}
	.st430{fill:#FCFCFE;}
	.st431{fill:#C091FE;}
	.st432{fill:#D9BEFE;}
	.st433{fill:#CAA2FE;}
	.st434{fill:#D1AFFE;}
	.st435{fill:#CAA3FE;}
	.st436{fill:#C497FE;}
	.st437{fill:#C9A1FE;}
	.st438{fill:#C092FE;}
	.st439{fill:#B680FE;}
	.st440{fill:#D1B0FE;}
	.st441{fill:#C194FE;}
	.st442{fill:#A868FE;}
	.st443{fill:#D2B1FE;}
	.st444{fill:#F3EBFE;}
	.st445{fill:#C498FE;}
	.st446{fill:#DBC2FE;}
	.st447{fill:#CBA5FE;}
	.st448{fill:#BA87FE;}
	.st449{fill:#DEC5FE;}
	.st450{fill:#BC89FE;}
	.st451{fill:#DCC1FE;}
	.st452{fill:#D3B4FE;}
	.st453{fill:#DFC9FE;}
	.st454{fill:#FAF8FE;}
	.st455{fill:#DCC2FE;}
	.st456{fill:#CDAAFE;}
	.st457{fill:#E9DAFE;}
	.st458{fill:#F9F6FE;}
	.st459{fill:#DFC8FE;}
	.st460{fill:#C89FFE;}
	.st461{fill:#D4B6FE;}
	.st462{fill:#F5EEFE;}
	.st463{fill:#DDC5FE;}
	.st464{fill:#E8D8FE;}
	.st465{fill:#CBA6FE;}
	.st466{fill:#D4B3FE;}
	.st467{fill:#FAF6FE;}
	.st468{fill:#E0C9FE;}
	.st469{fill:#CEAAFE;}
	.st470{fill:#B57DFE;}
	.st471{fill:#FEFDFE;}
	.st472{fill:#E4D0FE;}
	.st473{fill:#DBC1FE;}
	.st474{fill:#E0CAFE;}
	.st475{fill:#CFABFE;}
	.st476{fill:#8AD7C5;}
	.st477{fill:#3BBC9D;}
	.st478{fill:#81D4C0;}
	.st479{fill:#1EB28E;}
	.st480{fill:#7DD2BE;}
</style>
<g transform="translate(0.000000,400.000000) scale(0.100000,-0.100000)">
	<path d="M2253.8,3805.2c-159.8-28-296.6-74.1-446.5-149.9c-148.3-74.1-207.6-115.3-207.6-146.7c0-47.8,46.1-41.2,140.1,18.1
		c112,72.5,273.5,140.1,430.1,182.9c89,24.7,169.7,31.3,377.3,29.7c237.3,0,278.5-4.9,408.6-44.5
		c143.4-44.5,341.1-135.1,428.4-196.1c47.8-34.6,93.9-29.7,93.9,8.2c0,44.5-222.4,169.7-420.2,237.3
		C2807.5,3829.9,2512.5,3851.3,2253.8,3805.2z"/>
	<path d="M1275.1,3567.9c-158.2-79.1-298.2-217.5-362.5-357.6c-57.7-123.6-70.9-334.5-31.3-469.6
		c34.6-118.6,130.2-227.4,243.9-276.8c70.9-31.3,125.2-39.5,290-46.1l201-6.6v-400.4V1612l141.7-69.2
		c146.7-72.5,295-201,344.4-299.9c29.7-56,19.8-107.1-52.7-250.5c-21.4-42.8-34.6-84-31.3-92.3c21.4-33,510.8-421.8,528.9-420.2
		c11.5,1.6,136.8,97.2,276.8,212.6L3081,903.4l-33,62.6c-16.5,34.6-46.1,98.9-62.6,143.4l-33,82.4l46.1,72.5
		c77.4,123.6,252.1,258.7,402.1,311.4l61,21.4v407v407l210.9,6.6c189.5,4.9,219.2,9.9,304.8,51.1
		c107.1,54.4,181.3,135.1,217.5,240.6c100.5,293.3,1.6,593.2-257.1,784.3c-89,65.9-271.9,153.2-286.7,136.8
		c-4.9-3.3,14.8-59.3,41.2-123.6c89-209.3,82.4-375.7-13.2-415.2c-31.3-13.2-372.4-18.1-1160-14.8l-1115.5,4.9l-36.3,36.3
		c-64.3,62.6-39.5,268.6,54.4,454.8C1461.3,3653.6,1443.1,3651.9,1275.1,3567.9z M1237.2,3361.9c-37.9-161.5-4.9-281.8,97.2-349.3
		c51.1-34.6,74.1-37.9,299.9-37.9c135.1,0,245.5-3.3,245.5-8.2c0-37.9-97.2-252.1-153.2-334.5l-69.2-103.8l-234,4.9
		c-229,4.9-234,6.6-304.8,54.4c-143.4,100.5-194.4,304.8-130.2,519c31.3,103.8,51.1,133.5,141.7,227.4
		c59.3,59.3,110.4,105.5,113.7,100.5C1248.7,3431.1,1245.4,3398.2,1237.2,3361.9z M4025.2,3259.7c65.9-95.6,95.6-199.4,95.6-324.6
		c0-135.1-24.7-212.6-87.3-285.1c-87.3-98.9-153.2-120.3-392.2-120.3H3432l-46.1,61c-56,74.1-151.6,266.9-164.8,332.9l-9.9,51.1
		h232.3c265.3,0,327.9,16.5,380.6,102.2c31.3,47.8,34.6,72.5,28,206l-6.6,151.6l64.3-49.4C3944.5,3357,3995.5,3300.9,4025.2,3259.7z
		 M3122.2,2880.8c31.3-98.9,98.9-237.3,158.2-329.6l34.6-52.7l-54.4-28c-164.8-85.7-468-341.1-519-440
		c-54.4-107.1,13.2-581.7,130.2-914.5l67.6-191.1l-42.8-33c-21.4-19.8-112-92.3-197.7-163.1l-158.2-130.2l-194.4,161.5
		C2239,849,2150,923.2,2146.7,924.8c-1.6,0,19.8,59.3,47.8,130.2c98.9,250.5,163.1,568.5,163.1,820.6c0,118.6-4.9,140.1-44.5,197.7
		c-77.4,110.4-403.7,370.7-520.7,411.9c-28,9.9-26.4,14.8,11.5,65.9c42.8,56,158.2,291.7,158.2,323c0,8.2,6.6,34.6,16.5,57.7
		l16.5,42.8h548.7h548.7L3122.2,2880.8z M1939.1,2272.7c115.3-89,270.2-225.7,270.2-240.6c0-21.4-135.1-13.2-202.7,9.9
		c-34.6,13.2-77.4,36.3-93.9,51.1c-31.3,28-120.3,189.5-140.1,252.1c-11.5,37.9-9.9,37.9,37.9,13.2
		C1837,2345.2,1894.6,2305.7,1939.1,2272.7z M3296.9,2348.5c0-36.3-98.9-207.6-143.4-250.5c-65.9-61-268.6-108.8-268.6-64.3
		c0,31.3,360.9,329.6,400.4,331.2C3291.9,2365,3296.9,2356.8,3296.9,2348.5z M3362.8,1941.5v-260.3l-112-57.7
		c-65.9-33-156.5-102.2-224.1-168.1c-64.3-61-117-108.8-118.6-107.1c-14.8,14.8-61,295-67.6,420.2l-9.9,151.6h97.2
		c52.7,0,125.2,8.2,161.5,18.1c74.1,19.8,187.8,120.3,234,204.3c16.5,31.3,33,57.7,34.6,57.7
		C3361.1,2200.2,3362.8,2083.2,3362.8,1941.5z M1789.2,2079.9c75.8-105.5,168.1-148.3,332.9-156.5l136.8-8.2v-59.3
		c0-74.1-42.8-360.9-67.6-451.5l-18.1-65.9l-64.3,75.8c-61,70.9-225.7,191.1-332.9,243.9l-46.1,23.1l-3.3,235.6
		c-1.6,128.5,0,234,4.9,232.3C1736.4,2149.1,1762.8,2117.8,1789.2,2079.9z"/>
	<path d="M929,2089.8c16.5-265.3,113.7-548.7,266.9-781c125.2-187.8,435-472.9,492.7-454.8c44.5,14.8,23.1,61-51.1,112
		c-174.7,120.3-367.5,347.7-474.6,558.6c-85.7,168.1-156.5,423.5-156.5,558.6c0,113.7-18.1,166.4-54.4,166.4
		C920.8,2249.7,919.1,2243.1,929,2089.8z"/>
	<path d="M4081.2,2229.9c-3.3-11.5-11.5-84-16.5-161.5c-21.4-339.4-179.6-677.2-438.3-935.9c-62.6-62.6-149.9-138.4-196.1-169.7
		c-46.1-31.3-84-69.2-84-84c-1.6-125.2,377.3,192.8,550.4,461.4c148.3,229,242.2,519,245.5,769.5c3.3,112,0,131.8-26.4,136.8
		C4101,2249.7,4084.5,2243.1,4081.2,2229.9z"/>
	<path d="M62.3,96C59,87.8,59-25.9,63.9-159.4l6.6-243.9h64.3h64.3l-11.5,173c-6.6,107.1-3.3,173,6.6,173c8.2,0,51.1-41.2,93.9-90.6
		s87.3-90.6,100.5-90.6c11.5,0,59.3,41.2,103.8,90.6c46.1,49.4,87.3,90.6,92.3,90.6c4.9,0,9.9-77.4,9.9-173v-173h65.9h65.9v169.7
		c0,92.3-4.9,207.6-9.9,255.4l-11.5,85.7H639c-59.3,0-74.1-9.9-158.2-100.5L386.9-95.1L296.3,7c-84,92.3-97.2,100.5-159.8,100.5
		C100.2,107.5,65.6,102.6,62.3,96z"/>
	<path d="M886.2,96c-3.3-8.2-3.3-121.9,1.6-255.4l8.2-243.9h64.3h65.9l-9.9,62.6c-4.9,33-8.2,148.3-9.9,255.4v192.8h-56
		C919.1,107.5,889.5,102.6,886.2,96z"/>
	<path d="M1171.2-60.5c0-93.9,4.9-209.3,9.9-255.4l11.5-87.3h210.9h212.6v49.4v49.4h-156.5h-156.5v206v206h-65.9h-65.9V-60.5z"/>
	<path d="M1715-85.2c0-107.1,4.9-222.4,9.9-255.4c9.9-57.7,14.8-62.6,65.9-62.6h56v108.8v108.8l121.9-108.8
		c112-98.9,128.5-108.8,196.1-108.8h72.5l-133.5,131.8l-133.5,130.2L2094-16l121.9,123.6h-80.7c-80.7,0-84-3.3-184.6-110.4
		l-102.2-112l-1.6,112v110.4h-65.9H1715V-85.2z"/>
	<path d="M2290.1,63.1c18.1-26.4,74.1-97.2,123.6-161.5c87.3-108.8,92.3-120.3,92.3-209.3v-95.6h57.7h57.7v97.2
		c0,95.6,1.6,100.5,115.3,243.9C2799.3,16.9,2852,87.8,2852,96c0,6.6-29.7,11.5-64.3,11.5c-61,0-70.9-8.2-141.7-98.9
		c-41.2-54.4-80.7-98.9-87.3-98.9s-42.8,44.5-80.7,98.9c-69.2,95.6-72.5,98.9-146.7,98.9h-74.1L2290.1,63.1z"/>
	<path d="M2901.4,97.7c0-6.6,49.4-121.9,112-255.4c108.8-243.9,110.4-245.5,164.8-245.5c49.4,0,56,6.6,93.9,95.6
		c23.1,51.1,51.1,117,64.3,143.4l23.1,49.4l65.9-143.4c65.9-140.1,69.2-145,123.6-145h54.4l95.6,235.6
		c52.7,128.5,100.5,243.9,103.8,255.4c6.6,13.2-13.2,19.8-62.6,19.8h-72.5l-36.3-93.9c-19.8-52.7-44.5-126.9-56-164.8
		c-11.5-39.5-24.7-70.9-29.7-70.9c-6.6,0-42.8,74.1-82.4,166.4c-65.9,151.6-75.8,164.8-113.7,159.8c-37.9-4.9-49.4-24.7-100.5-164.8
		c-33-89-64.3-161.5-70.9-161.5c-4.9,0-19.8,28-31.3,62.6c-11.5,33-41.2,107.1-65.9,164.8c-46.1,100.5-47.8,102.2-113.7,102.2
		C2931.1,107.5,2901.4,102.6,2901.4,97.7z"/>
	<path d="M3949.4-138c-69.2-135.1-125.2-250.5-125.2-255.4s28-9.9,62.6-9.9c52.7,0,67.6,8.2,82.4,41.2
		c18.1,39.5,24.7,41.2,184.6,41.2c159.8,0,166.4-1.6,184.6-41.2c14.8-34.6,29.7-41.2,89-41.2h69.2l-140.1,255.4l-140.1,255.4h-70.9
		h-70.9L3949.4-138z M4203.2-106.7c26.4-54.4,49.4-102.2,49.4-107.1c0-4.9-44.5-8.2-98.9-8.2c-54.4,0-98.9,6.6-98.9,16.5
		c0,16.5,85.7,197.7,93.9,197.7C4150.4-7.8,4175.1-52.3,4203.2-106.7z"/>
	<path d="M4461.9,87.8c9.9-11.5,65.9-84,126.9-161.5c105.5-135.1,108.8-141.7,108.8-234v-95.6h62.6h61l-4.9,95.6
		c-6.6,95.6-4.9,97.2,97.2,227.4c56,70.9,113.7,143.4,126.9,159.8c23.1,26.4,19.8,28-51.1,28c-72.5,0-77.4-3.3-151.6-98.9
		c-41.2-54.4-80.7-98.9-87.3-97.2c-6.6,0-42.8,44.5-80.7,98.9c-69.2,93.9-72.5,97.2-146.7,97.2
		C4463.5,107.5,4450.3,102.6,4461.9,87.8z"/>
	<path d="M4222.9-633.9c-105.5-24.7-151.6-105.5-118.6-207.6c23.1-69.2,87.3-105.5,184.6-105.5c100.5,0,145,34.6,145,117v64.3h-74.1
		c-54.4,0-74.1-6.6-74.1-24.7c0-14.8,14.8-24.7,41.2-24.7c52.7,0,57.7-59.3,6.6-74.1c-79.1-24.7-163.1,29.7-163.1,105.5
		c0,70.9,51.1,107.1,136.8,95.6c82.4-11.5,133.5,8.2,84,34.6C4339.9-627.4,4280.6-620.8,4222.9-633.9z"/>
	<path d="M72.2-744.4c6.6-62.6,11.5-131.8,11.5-156.5V-947h131.8c120.3,0,131.8,3.3,131.8,33s-11.5,33-98.9,33s-98.9,3.3-98.9,33
		s11.5,33,90.6,33c69.2,0,90.6,4.9,90.6,24.7c0,19.8-21.4,24.7-90.6,24.7c-85.7,0-90.6,1.6-90.6,41.2c0,39.5,4.9,41.2,98.9,41.2
		c77.4,0,98.9,4.9,98.9,24.7s-26.4,24.7-141.7,24.7H62.3L72.2-744.4z"/>
	<path d="M734.6-708.1c67.6-82.4,69.2-70.9-24.7-192.8L673.6-947h42.8c28,0,56,18.1,85.7,59.3l46.1,59.3l51.1-61
		c36.3-42.8,61-59.3,87.3-54.4c34.6,4.9,33,8.2-28,80.7l-64.3,74.1l57.7,74.1c56,69.2,56,72.5,21.4,77.4
		c-24.7,4.9-51.1-11.5-84-49.4l-46.1-54.4l-42.8,54.4c-28,34.6-57.7,52.7-85.7,52.7h-41.2L734.6-708.1z"/>
	<path d="M1398.6-658.7c-54.4-29.7-85.7-118.6-64.3-176.3c26.4-69.2,95.6-112,181.3-112c87.3,0,158.2,37.9,118.6,64.3
		c-14.8,9.9-39.5,9.9-65.9,0c-120.3-46.1-219.2,80.7-131.8,168.1c29.7,29.7,47.8,33,113.7,24.7c85.7-11.5,121.9,9.9,67.6,37.9
		C1571.7-627.4,1451.4-630.7,1398.6-658.7z"/>
	<path d="M1995.1-714.7c0-151.6,18.1-232.3,51.1-232.3c24.7,0,31.3,13.2,31.3,65.9v65.9h90.6h90.6v-65.9c0-54.4,4.9-65.9,33-65.9
		c31.3,0,33,11.5,33,156.5c0,154.9,0,156.5-41.2,156.5c-36.3,0-39.5-6.6-36.3-61l3.3-62.6l-85.7-4.9l-87.3-4.9v65.9
		c0,61-3.3,67.6-41.2,67.6S1995.1-638.9,1995.1-714.7z"/>
	<path d="M2744.9-782.2c-41.2-80.7-74.1-151.6-74.1-156.5c0-23.1,67.6-3.3,82.4,24.7c14.8,28,34.6,33,115.3,33s100.5-4.9,115.3-33
		c16.5-29.7,82.4-47.8,82.4-23.1c0,4.9-34.6,75.8-77.4,156.5c-69.2,128.5-84,146.7-123.6,146.7
		C2824-633.9,2810.8-648.8,2744.9-782.2z M2901.4-765.8l33-65.9h-65.9c-36.3,0-65.9,3.3-65.9,8.2c0,11.5,54.4,123.6,61,123.6
		C2865.2-699.9,2883.3-729.5,2901.4-765.8z"/>
	<path d="M3412.2-790.5c0-145,1.6-156.5,33-156.5c29.7,0,33,11.5,33,98.9c0,54.4,3.3,98.9,6.6,98.9c4.9,0,49.4-44.5,102.2-98.9
		C3638-902.5,3694-947,3712.1-947c26.4,0,29.7,14.8,29.7,156.5c0,156.5,0,156.5-41.2,156.5c-39.5,0-41.2-4.9-41.2-102.2v-100.5
		l-92.3,100.5c-51.1,57.7-105.5,102.2-123.6,102.2C3415.5-633.9,3412.2-647.1,3412.2-790.5z"/>
	<path d="M4796.4-790.5V-947h131.8c120.3,0,131.8,3.3,131.8,33s-11.5,33-98.9,33s-98.9,3.3-98.9,33s11.5,33,90.6,33
		c67.6,0,90.6,6.6,90.6,23.1c0,18.1-24.7,26.4-85.7,29.7c-74.1,4.9-87.3,9.9-87.3,37.9c0,28,13.2,33,95.6,37.9
		c69.2,3.3,93.9,11.5,93.9,28c0,19.8-28,24.7-131.8,24.7h-131.8V-790.5z"/>
</g>
</svg>
