<?xml version="1.0" encoding="utf-8"?>
<!-- Generator: Adobe Illustrator 25.4.1, SVG Export Plug-In . SVG Version: 6.00 Build 0)  -->
<svg version="1.1" id="图层_1" xmlns="http://www.w3.org/2000/svg" xmlns:xlink="http://www.w3.org/1999/xlink" x="0px" y="0px"
	 viewBox="0 0 512 512" style="enable-background:new 0 0 512 512;" xml:space="preserve">
<style type="text/css">
	.st0{fill-rule:evenodd;clip-rule:evenodd;fill:#EB5C20;}
	.st1{fill-rule:evenodd;clip-rule:evenodd;fill:#E29227;}
	.st2{fill:#EB5C20;}
	.st3{fill-rule:evenodd;clip-rule:evenodd;fill:#70BA33;}
	.st4{fill-rule:evenodd;clip-rule:evenodd;fill:#1C9965;}
	.st5{fill-rule:evenodd;clip-rule:evenodd;fill:#1E5D91;}
	.st6{fill-rule:evenodd;clip-rule:evenodd;fill:#C6224E;}
	.st7{fill:#B5B5B6;}
	.st8{fill-rule:evenodd;clip-rule:evenodd;fill:#B5B5B6;}
	.st9{fill:#DF5B23;}
	.st10{fill:#B5B5B6;stroke:#B5B5B6;stroke-width:10;stroke-miterlimit:10;}
	.st11{fill:#B5B5B6;stroke:#B5B5B6;stroke-width:18;stroke-miterlimit:10;}
	.st12{fill:#1E5D91;}
	.st13{fill:#E29227;}
	.st14{fill:#1C9965;}
	.st15{fill:#70BA33;}
	.st16{fill:#C6224E;}
	.st17{fill:#0E0304;}
	.st18{fill:#29292C;}
	.st19{fill:#2E3032;}
	.st20{fill:#1A1A1B;}
	.st21{fill:#757579;}
	.st22{fill:none;stroke:#B5B5B6;stroke-width:30;stroke-linecap:round;stroke-linejoin:round;stroke-miterlimit:10;}
	.st23{fill:#040000;}
	.st24{fill-rule:evenodd;clip-rule:evenodd;fill:#040000;}
	.st25{fill:url(#SVGID_1_);}
	.st26{fill:#EBE7C3;}
	.st27{fill-rule:evenodd;clip-rule:evenodd;fill:#EBE7C3;}
	.st28{fill:#FFFFFF;}
	.st29{fill:none;stroke:#B5B5B6;stroke-width:10;stroke-miterlimit:10;}
	.st30{fill-rule:evenodd;clip-rule:evenodd;fill:url(#SVGID_00000035506882431743479320000008685075622105008014_);}
	.st31{fill:#221F20;}
	.st32{fill:#F1AA43;}
	.st33{fill:#EB9326;}
	.st34{fill:#EE9F38;}
	.st35{fill:#E8891D;}
	.st36{fill:#EF9E36;}
	.st37{fill:#F9C88E;}
	.st38{fill:#CB838E;}
	.st39{fill:#F7BF75;}
	.st40{fill-rule:evenodd;clip-rule:evenodd;fill:#DF5B23;}
	.st41{fill:#2F2833;}
	.st42{fill:#403944;}
	.st43{fill:#DF5924;}
	.st44{fill-rule:evenodd;clip-rule:evenodd;fill:#CCBCB1;}
	.st45{fill-rule:evenodd;clip-rule:evenodd;fill:#393939;}
	.st46{fill-rule:evenodd;clip-rule:evenodd;fill:#EF9839;}
	.st47{fill-rule:evenodd;clip-rule:evenodd;fill:#EF993A;}
	.st48{fill-rule:evenodd;clip-rule:evenodd;fill:#D07A32;}
	.st49{fill-rule:evenodd;clip-rule:evenodd;fill:#E1893D;}
	.st50{fill-rule:evenodd;clip-rule:evenodd;fill:#E28C38;}
	.st51{fill-rule:evenodd;clip-rule:evenodd;fill:#E18B3C;}
	.st52{fill-rule:evenodd;clip-rule:evenodd;fill:#DF7F24;}
	.st53{fill-rule:evenodd;clip-rule:evenodd;fill:#DDCCC2;}
	.st54{fill-rule:evenodd;clip-rule:evenodd;fill:#DF8C38;}
	.st55{fill-rule:evenodd;clip-rule:evenodd;fill:#8B5930;}
	.st56{fill:#1C5AA8;}
	.st57{fill:#2156A6;}
	.st58{fill:#E7B41E;}
	.st59{fill:#298CCD;}
	.st60{fill:#123443;}
	.st61{fill:#B8266A;}
	.st62{fill:#1B4B68;}
	.st63{fill:#1C4157;}
	.st64{fill:#4A6894;}
	.st65{fill:#343535;}
	.st66{fill:#3E5375;}
	.st67{fill:#6CAACE;}
	.st68{fill:#335C85;}
	.st69{fill:#5294B1;}
	.st70{fill-rule:evenodd;clip-rule:evenodd;fill:#5255A3;}
	.st71{fill-rule:evenodd;clip-rule:evenodd;fill:#2B60AC;}
	.st72{fill:#2B60AC;}
	.st73{fill:#E8412E;}
	.st74{fill:#E83F21;}
	.st75{fill:#E33E28;}
	.st76{fill:#E84138;}
	.st77{fill:#E94526;}
	.st78{fill:#E94423;}
	.st79{fill:#E9481F;}
	.st80{fill:#E94522;}
	.st81{fill:#E9461F;}
	.st82{fill:#E84236;}
	.st83{fill:#E9471E;}
	.st84{fill:#E6411D;}
	.st85{fill:#E8412F;}
	.st86{fill:#132533;}
	.st87{fill:url(#SVGID_00000047025562398951727280000004977530208125250441_);}
	.st88{fill:url(#SVGID_00000142872283076142747290000014590036401784066693_);}
	.st89{fill:#CBCFD7;}
	.st90{fill:url(#SVGID_00000029024005667413088420000005988704497223719836_);}
	.st91{fill:url(#SVGID_00000084508338522068406200000006000219791459911857_);}
	.st92{fill:#366FAE;}
	.st93{fill:#FFF100;}
	.st94{fill:url(#SVGID_00000031898037269930365140000003950114993285415828_);}
	.st95{fill:#FFE000;}
	.st96{fill:url(#SVGID_00000083809282340302622930000004181573331078592698_);}
	.st97{fill:#FAC000;}
	.st98{fill:url(#SVGID_00000042706839263632537020000010106207596068518031_);}
	.st99{fill:#F4A000;}
	.st100{fill:url(#SVGID_00000001645638219169356530000017837693835643525766_);}
	.st101{fill:#EE7300;}
	.st102{fill:url(#SVGID_00000030482577419093241030000009636668563487595665_);}
	.st103{fill:#E94709;}
	.st104{fill:url(#SVGID_00000039110576343200279920000015127871491173381807_);}
	.st105{fill:#009E41;}
	.st106{fill:url(#SVGID_00000000181806115255155090000013390328284578936471_);}
	.st107{fill:#40AF36;}
	.st108{fill:url(#SVGID_00000091699031414526764600000016086970195261246866_);}
	.st109{fill:#72BB2B;}
	.st110{fill:url(#SVGID_00000059300589035190875790000017866988875497099918_);}
	.st111{fill:#E3E300;}
	.st112{fill:url(#SVGID_00000021096188142485111890000014828910862554732165_);}
	.st113{fill:#A3CA0F;}
	.st114{fill:url(#SVGID_00000128484569708544776400000004774591373287275680_);}
	.st115{fill:#C4D700;}
	.st116{fill:url(#SVGID_00000147912034978001652470000012471365089267244212_);}
	.st117{fill:#36B8B7;}
	.st118{fill:#3EB4AD;}
	.st119{fill:#3AB8B9;}
	.st120{fill:#56BAB0;}
	.st121{fill:#65BBB2;}
	.st122{fill:#32B7B0;}
	.st123{fill:#2EB6AE;}
	.st124{fill:#48B6BC;}
	.st125{fill:#4DB5BD;}
	.st126{fill:#3EB4AE;}
	.st127{fill:#57BBB1;}
	.st128{fill:#060909;}
	.st129{fill:#061014;}
	.st130{fill:#FAFAFB;}
	.st131{fill:#F6F7F7;}
	.st132{fill:#F7F7F7;}
	.st133{fill:#F6F6F6;}
	.st134{fill:#7CB8BD;}
	.st135{fill:#3FB5B7;}
	.st136{fill:#4DB6B9;}
	.st137{fill:#F4F5F5;}
	.st138{fill:#F5F5F5;}
	.st139{fill:#070505;}
	.st140{fill:#F4F3F3;}
	.st141{fill:#050202;}
	.st142{fill:#71BCBA;}
	.st143{fill:#73BBB8;}
	.st144{fill:#76BEBC;}
	.st145{fill:#83B8B8;}
	.st146{fill:#3DB9B5;}
	.st147{fill:#40BABA;}
	.st148{fill:#36B8B6;}
	.st149{fill:#28B6B2;}
	.st150{fill:#00B5C6;}
	.st151{fill:#00B5C2;}
	.st152{fill:#23B7BB;}
	.st153{fill:#00B5C4;}
	.st154{fill:#14B6BE;}
	.st155{fill:#09B6C0;}
	.st156{fill:#41B9B1;}
	.st157{fill:#00B4D0;}
	.st158{fill:#00B4D3;}
	.st159{fill:#30B8B8;}
	.st160{fill:#00B4CD;}
	.st161{fill:#1CB6BD;}
	.st162{fill:#28B7BA;}
	.st163{fill:#47BAAE;}
	.st164{fill:#34B8B6;}
	.st165{fill:#4CBBAD;}
	.st166{fill:#3BB9B3;}
	.st167{fill:#44BAAF;}
	.st168{fill:#00B3D6;}
	.st169{fill:#00B3D9;}
	.st170{fill:#00B3D7;}
	.st171{fill:#00B3DB;}
	.st172{fill:#00B5CA;}
	.st173{fill:#37B8B5;}
	.st174{fill:#1BB6BD;}
	.st175{fill:#00B5C8;}
	.st176{fill:#231815;stroke:#FFFFFF;stroke-width:0.187;stroke-miterlimit:10;}
	.st177{fill:#023592;}
	.st178{fill-rule:evenodd;clip-rule:evenodd;fill:#60BEA1;}
	.st179{fill:#FFFFFF;stroke:#FFFFFF;stroke-width:0.187;stroke-miterlimit:10;}
	.st180{fill:#7C2B7F;}
	.st181{fill:#752C7F;}
	.st182{fill:#EE8753;}
	.st183{fill:#F09D47;}
	.st184{fill:#EF944D;}
	.st185{fill:#EE8C51;}
	.st186{fill:#EC795A;}
	.st187{fill:#F0984B;}
	.st188{fill:#EB715E;}
	.st189{fill:#9E2F7F;}
	.st190{fill:#AA2E7E;}
	.st191{fill:#EC7C5D;}
	.st192{fill:#C4337F;}
	.st193{fill:#932D7F;}
	.st194{fill:#A42F7E;}
	.st195{fill:#BD317E;}
	.st196{fill:#B8327F;}
	.st197{fill:#B2317E;}
	.st198{fill:#992D7F;}
	.st199{fill:#CA347F;}
	.st200{fill:#8C2D7F;}
	.st201{fill:#D0357F;}
	.st202{fill:#AE307E;}
	.st203{fill:#EC765E;}
	.st204{fill:#DB377F;}
	.st205{fill:#E44676;}
	.st206{fill:#862C7E;}
	.st207{fill:#E96B64;}
	.st208{fill:#D6357F;}
	.st209{fill:#E96B62;}
	.st210{fill:#E13A80;}
	.st211{fill:#E13D7E;}
	.st212{fill:#822B7F;}
	.st213{fill:#E54D75;}
	.st214{fill:#33A2D3;}
	.st215{fill:#E3417B;}
	.st216{fill:#E65371;}
	.st217{fill:#E65B6C;}
	.st218{fill:#E96764;}
	.st219{fill:#E85F68;}
	.st220{fill:#E96366;}
	.st221{fill:#EA6F67;}
	.st222{fill:#E6566D;}
	.st223{fill:#EA6C6C;}
	.st224{fill:#E7606E;}
	.st225{fill:#EB7563;}
	.st226{fill:#EC7C69;}
	.st227{fill:#E8687D;}
	.st228{fill:#E0EDF7;}
	.st229{fill:#E9676E;}
	.st230{fill:#E9B536;}
	.st231{fill:#864690;}
	.st232{fill:#334190;}
	.st233{fill:#6A438D;}
	.st234{fill:#6B438D;}
	.st235{fill:#6B448D;}
	.st236{fill:#3A4291;}
	.st237{fill:#81458F;}
	.st238{fill:#644390;}
	.st239{fill:#9E458E;}
	.st240{fill:#98468F;}
	.st241{fill:#92468F;}
	.st242{fill:#8D458F;}
	.st243{fill:#9B468F;}
	.st244{fill:#90468E;}
	.st245{fill:#9C468F;}
	.st246{fill:#A3458D;}
	.st247{fill:#4E4491;}
	.st248{fill:#434291;}
	.st249{fill:#534290;}
	.st250{fill:#6E4591;}
	.st251{fill:#754490;}
	.st252{fill:#5F4390;}
	.st253{fill:#7B4490;}
	.st254{fill:#584390;}
	.st255{fill:#594390;}
	.st256{fill:#474392;}
	.st257{fill:#B3458C;}
	.st258{fill:#6A4491;}
	.st259{fill:#AE468C;}
	.st260{fill:#97458F;}
	.st261{fill:#B6468C;}
	.st262{fill:#9B458E;}
	.st263{fill:#C4468C;}
	.st264{fill:#BD478C;}
	.st265{fill:#AA468D;}
	.st266{fill:#A7468D;}
	.st267{fill:#B3468D;}
	.st268{fill:#B0458C;}
	.st269{fill:#BC468C;}
	.st270{fill:#AF458C;}
	.st271{fill:#B9468C;}
	.st272{fill:#BD468B;}
	.st273{fill:#BA468C;}
	.st274{enable-background:new    ;}
	.st275{fill:#1D1E1D;}
	.st276{fill:url(#Fill_1_00000034774708934811543140000012864931979442600894_);}
	.st277{fill:url(#Fill_3_00000008843593353832370780000007815981869258545843_);}
	.st278{fill:url(#Fill_5_00000080182623655473150010000006958013677970146450_);}
	.st279{fill:#1E201F;}
	.st280{fill:#3AB9B5;}
	.st281{fill:#27B4B0;}
	.st282{fill:#009694;}
	.st283{fill:#554B9D;}
	.st284{clip-path:url(#SVGID_00000114072632712077596830000001915350668985356187_);}
	.st285{fill:#FF761A;}
	.st286{fill:#E06300;}
	.st287{fill:#466007;}
	.st288{fill:#56840D;}
	.st289{fill:#C95100;}
	.st290{fill:#DE111E;}
	.st291{opacity:0.22;fill:#231F20;}
	.st292{fill:#DF3D4B;}
	.st293{fill:#C60E2D;}
	.st294{fill:#90C125;}
	.st295{fill:#F27466;}
	.st296{fill:#A36400;}
	.st297{fill:#DB9200;}
	.st298{fill:#BA7700;}
	.st299{fill:#FFCE00;}
	.st300{fill:#4A6D05;}
	.st301{fill:#76A51C;}
	.st302{fill:#100628;}
	.st303{fill:#4A16AB;}
	.st304{fill:#4A17AC;}
	.st305{fill:#4B17AC;}
	.st306{fill:#4B18AC;}
	.st307{fill:#5321AF;}
	.st308{fill:#F2BB2E;}
	.st309{fill:#F2BA2D;}
	.st310{fill:#101820;}
	.st311{fill:#F89BEE;}
	.st312{fill:#A19FF3;}
	.st313{fill:#9AA0F3;}
	.st314{fill:#FE9AEC;}
	.st315{fill:#87A0F4;}
	.st316{fill:#8AA0F4;}
	.st317{fill:#85A0F4;}
	.st318{fill:#FE9BEC;}
	.st319{fill:#84A0F4;}
	.st320{fill:#91A0F4;}
	.st321{fill:#8CA0F4;}
	.st322{fill:#F79CEE;}
	.st323{fill:#D39EF0;}
	.st324{fill:#DA9DEF;}
	.st325{fill:#CC9EF0;}
	.st326{fill:#F09DEE;}
	.st327{fill:#F89CEE;}
	.st328{fill:#96A0F3;}
	.st329{fill:#8EA0F4;}
	.st330{fill:#8FA0F4;}
	.st331{fill:#9BA0F3;}
	.st332{fill:#92A0F4;}
	.st333{fill:#81A1F4;}
	.st334{fill:#E79CEF;}
	.st335{fill:#81A0F4;}
	.st336{fill:#A1A0F3;}
	.st337{fill:#EF9DEE;}
	.st338{fill:#F19DEE;}
	.st339{fill:#E99DEF;}
	.st340{fill:#B59FF2;}
	.st341{fill:#AF9FF2;}
	.st342{fill:#ACA0F2;}
	.st343{fill:#A49FF3;}
	.st344{fill:#DA9EEF;}
	.st345{fill:#AAA0F3;}
	.st346{fill:#E39EEF;}
	.st347{fill:#BA9FF2;}
	.st348{fill:#A6A0F3;}
	.st349{fill:#E49DEF;}
	.st350{fill:#DF9DEF;}
	.st351{fill:#DD9EEF;}
	.st352{fill:#96A1F3;}
	.st353{fill:#C09FF2;}
	.st354{fill:#CD9FF0;}
	.st355{fill:#C99EF0;}
	.st356{fill:#C49FF0;}
	.st357{fill:#A3A0F3;}
	.st358{fill:#9FA0F3;}
	.st359{fill:#EB9DEF;}
	.st360{fill:#F09CEE;}
	.st361{fill:#ABA0F3;}
	.st362{fill:#A69FF3;}
	.st363{fill:#B79FF2;}
	.st364{fill:#E79DEF;}
	.st365{fill:#BF9EF2;}
	.st366{fill:#B09FF2;}
	.st367{fill:#DF9EEF;}
	.st368{fill:#B4A0F2;}
	.st369{fill:#BCA0F2;}
	.st370{fill:#FEFEFE;}
	.st371{fill:#C59EF0;}
	.st372{fill:#96A1F4;}
	.st373{fill:#88A0F4;}
	.st374{fill:#8DA0F4;}
	.st375{fill:#E59DEF;}
	.st376{fill:#A0A0F3;}
	.st377{fill:#C09EF2;}
	.st378{fill:#91A1F4;}
	.st379{fill:#94A0F4;}
	.st380{fill:#AEA0F2;}
	.st381{fill:#A9A0F3;}
	.st382{fill:#C69FF0;}
	.st383{fill:#E89DEF;}
	.st384{fill:#D29EF0;}
	.st385{fill:#CB9FF0;}
	.st386{fill:#D89DEF;}
	.st387{fill:#CB9EF0;}
	.st388{fill:#85A1F4;}
	.st389{fill:#E09DEF;}
	.st390{fill:#BE9FF2;}
	.st391{fill:#92A1F4;}
	.st392{fill:#D49EF0;}
	.st393{fill:#DE9EEF;}
	.st394{fill:#EB9CEF;}
	.st395{fill:#E29EEF;}
	.st396{fill:#B3A0F2;}
	.st397{fill:#AB9FF3;}
	.st398{fill:#9AA1F3;}
	.st399{fill:#B1A0F2;}
	.st400{fill:#89A0F4;}
	.st401{fill:#86A1F4;}
	.st402{fill:#8CA1F4;}
	.st403{fill:#B89FF2;}
	.st404{fill:#B19FF2;}
	.st405{fill:#BBA0F2;}
	.st406{fill:#D49DF0;}
	.st407{fill:#DB9DEF;}
	.st408{fill:#CE9EF0;}
	.st409{fill:#ED9CEE;}
	.st410{fill:#F19CEE;}
	.st411{fill:#A59FF3;}
	.st412{fill:#BB9FF2;}
	.st413{fill:#95A0F4;}
	.st414{fill:#F49CEE;}
	.st415{fill:#8DA1F4;}
	.st416{fill:#82A0F4;}
	.st417{fill:#7CA1F5;}
	.st418{fill:#C49EF0;}
</style>
<g>
	<g>
		<path class="st311" d="M181.8,265.9c0.2,0.9,1.1,1.4,1.6,2.1c0.8,0.9,1.3,2.1,2.5,2.5c-0.5,2.2-1.3,4.4-2.1,6.5
			c-0.3,0.2-0.6,0.1-0.7-0.1c-1.1-1.3-2.4-2.5-3.4-4c-0.1-0.7,0.3-1.3,0.4-1.9c0.4-1.4,0.8-2.7,1-4.1
			C181.3,266.5,181.3,266,181.8,265.9z"/>
		<g>
			<path class="st312" d="M134.1,313.9c-0.3,0.1-0.6-0.1-0.9,0.3c-0.2,0-0.4,0-0.6,0c-0.4-0.2-0.9-0.1-1.3-0.1c-0.6,0-1.2,0-1.8,0
				c-1.1-0.5-1.6-1.6-2.4-2.4c-0.9-0.8-1.4-2.1-2.6-2.6c-0.3-0.2-0.2-0.4,0.1-0.5c2.1,0.1,4.3,0,6.4,0.2c1.1,0.7,1.6,1.8,2.5,2.7
				c0.4,0.4,0.7,0.9,1.2,1.3c0.2,0.2,0.6,0.5,0.4,0.9C134.9,314,134.4,313.7,134.1,313.9z"/>
			<path class="st313" d="M124.3,308.8c1.4,0.2,1.8,1.5,2.6,2.3c0.9,0.9,1.6,1.9,2.4,2.9c-0.7,0.2-1.4,0-2.2,0.1
				c-0.5,0.1-0.9-0.1-1.4,0.1c-0.2,0-0.4,0-0.6,0c-0.6-0.5-1.3,0-1.9-0.4c0-0.5-0.3-0.8-0.6-1.2c-1.1-1.1-2-2.3-3-3.5
				c-0.3-0.3-0.8-0.7-0.1-1.2C121.1,308,122.8,308,124.3,308.8z"/>
			<path class="st314" d="M187.7,258.8c0,0.3,0,0.7,0,1c-0.2,3.6-0.8,7.2-1.7,10.7c-0.3,0.3-0.6,0-0.8-0.2c-1.2-1.3-2.3-2.6-3.4-3.9
				c-0.1-0.2-0.2-0.4-0.2-0.6c0.1-1.9,0.5-3.7,0.6-5.6c0.2-2.6,0.2-5.1,0-7.7c-0.2-3.1-0.7-6.2-1.4-9.2c-2.1-8.3-5.9-15.6-11.5-22
				c-6.5-7.3-14.4-12.4-23.6-15.5c-4.3-1.4-8.7-2.2-13.2-2.5c-1.2-0.1-2.4-0.2-3.6-0.2c-1.3,0.2-2.3-0.3-3-1.4
				c-0.6-0.8-1.4-1.6-2-2.4c-0.3-0.3-0.7-0.7-0.4-1.3c3.4-0.4,6.8-0.4,10.2-0.2c6.1,0.4,12.1,1.8,17.8,4.1
				c8.2,3.3,15.3,8.2,21.3,14.7c6.3,6.9,10.8,14.8,13.2,23.8c1.1,3.8,1.7,7.7,1.9,11.7c0,0.3,0,0.7,0,1c0,0.5,0,1,0,1.5
				c0,0.8,0,1.7,0,2.5C187.7,257.8,187.7,258.3,187.7,258.8z"/>
			<path class="st315" d="M107.1,309.8c-2.4-0.8-4.7-2-6.9-3.3c-4.7-5.5-9.4-10.9-14.1-16.3c-3.6-4.1-7.1-8.3-10.7-12.4
				c-0.2-0.3-0.4-0.6-0.9-0.5c-0.6-0.9-0.9-1.9-1.2-2.9c-0.5-1.4-1-2.8-1.1-4.3c0.2-1,0.7-0.6,1-0.1c0.9,1,1.7,1.9,2.5,2.9
				c1.4,1.7,2.9,3.3,4.3,5c0.3,0.3,0.6,0.5,0.9,0.7c1,1.2,1.6,2.7,2.4,4c1.6,2.8,3.5,5.4,5.6,7.9c1.3,1.5,2.8,2.8,4.2,4.3
				c1.6,1.5,3.3,2.8,5.1,4.1c0.4,0.3,0.9,0.6,1.2,1.1c0.5,1.1,1.5,1.9,2.2,2.9c1.8,2.1,3.6,4.2,5.4,6.3c0.2,0.2,0.5,0.4,0.3,0.8
				C107.3,309.8,107.3,309.8,107.1,309.8C107.2,309.8,107.2,309.8,107.1,309.8z"/>
			<path class="st316" d="M36.7,269.4c-0.6-1.5-1.1-3.1-1.3-4.8c-0.2-0.6,0.2-0.6,0.5-0.3c0.4,0.3,0.8,0.7,1.1,1.1
				c1.7,2.1,3.6,4.1,5.4,6.2c0.3,0.4,0.7,0.6,1,0.8c0.6,0.5,0.8,1.3,1.2,1.9c2.7,4.5,6,8.4,10.2,11.4c0.4,0.3,0.8,0.5,1,0.9
				c0.6,1.4,1.8,2.4,2.7,3.5c1.2,1.4,2.5,2.9,3.8,4.3c0.3,0.3,0.5,0.6,0.6,0.9c0.1,0.4-0.1,0.5-0.4,0.3c-1.5-0.3-2.8-1-4.2-1.7
				c-0.9-1.6-2.3-2.8-3.4-4.2c-3.4-3.9-6.8-7.7-10.2-11.6c-2.5-2.8-4.9-5.6-7.4-8.4C37.2,269.7,37,269.4,36.7,269.4z"/>
			<path class="st317" d="M36.7,269.4c0.4-0.7,0.7-0.1,0.8,0.1c2.6,3,5.3,6.1,7.9,9.1c1.6,1.9,3.3,3.7,4.9,5.5
				c2.4,2.7,4.7,5.4,7,8.1c0.3,0.3,0.6,0.6,0.9,0.9c0.2,0.3,0.6,0.5,0.3,1c-2.4-1-4.6-2.4-6.7-4c-0.3-0.9-1.1-1.6-1.8-2.3
				c-3.1-3.5-6.1-6.9-9.1-10.4c-0.3-0.3-0.7-0.6-1-0.9C38.5,274.3,37.3,272,36.7,269.4z"/>
			<path class="st318" d="M72.2,214.1c5.1-0.6,10.1,0,15.1,1.3c0,0.6-0.5,0.8-0.7,1.2c-0.7,1-1.6,1.8-2.4,2.7
				c-0.3,0.4-0.6,0.6-1.1,0.7c-2.5-0.3-5.1-0.6-7.6-0.7c-1-0.5-1.4-1.6-2.2-2.3c-0.5-0.5-0.9-1.1-1.4-1.6c-0.3-0.3-0.6-0.6-0.4-1
				C71.5,214,72,214.2,72.2,214.1z"/>
			<path class="st319" d="M74.7,277.2c0.2-0.7,0.4-0.1,0.5,0c1.1,1.3,2.3,2.5,3.4,3.8c1.5,1.8,3.1,3.6,4.6,5.4c2,2.4,4,4.7,6.1,7.1
				c2,2.3,4,4.5,5.9,6.8c1.7,1.9,3.3,3.8,4.9,5.8c0.1,0.1,0.3,0.2,0.1,0.4c-1.2-0.5-2.3-1.3-3.4-2.1c-1.4-1.9-3-3.6-4.5-5.3
				c-2.4-2.8-4.9-5.6-7.3-8.4c-2.8-3.2-5.6-6.4-8.4-9.7c-0.3-0.3-0.6-0.5-0.9-0.7C75.3,279.2,74.5,278.4,74.7,277.2z"/>
			<path class="st319" d="M76,280.1c1.2,0.4,1.6,1.6,2.4,2.4c1.7,1.8,3.2,3.7,4.8,5.5c2.5,2.9,4.9,5.7,7.4,8.6
				c1.9,2.3,3.9,4.5,5.9,6.7c0.3,0.3,0.8,0.5,0.5,1.1c-1.6-0.9-3-1.9-4.4-3.1c-1.1-1.5-2.4-2.8-3.6-4.3c-2.9-3.4-5.9-6.8-8.8-10.2
				c-0.3-0.4-0.6-1-1.3-1c-1.3-1.6-2-3.4-2.9-5.2C75.8,280.4,75.9,280.2,76,280.1z"/>
			<path class="st320" d="M118.8,313.1c-2.2-0.2-4.2-0.7-6.3-1.5c-1.5-1.9-3.2-3.7-4.8-5.6c-0.3-0.4-0.7-0.8-1-1.2
				c-0.2-0.3-0.4-0.5,0-0.8c1,0,1.8,0.5,2.6,0.9c1.6,0.6,3.3,1.1,4.8,1.8c1.7,1.9,3.3,3.9,5,5.8c0.2,0.2,0.4,0.4,0.2,0.6
				C119.3,313.3,119.1,313.2,118.8,313.1z"/>
			<path class="st321" d="M106.7,304.1c0.4,1.3,1.5,2,2.3,3c1,1.3,2.2,2.5,3.3,3.7c0.2,0.2,0.5,0.4,0.2,0.8c-1.9-0.5-3.7-1-5.4-1.9
				c0-0.7-0.7-1.1-1-1.5c-2-2.4-4-4.7-6.1-7c-0.4-0.4-0.8-0.8-0.8-1.4c0.4-0.2,0.7,0.1,1,0.3c1.9,1.2,3.8,2.3,5.8,3.2
				C106.4,303.6,106.8,303.6,106.7,304.1z"/>
			<path class="st322" d="M123.3,198.2c0.4,1.1,1.4,1.8,2,2.7c0.2,0.3,0.6,0.5,0.7,0.8c0.6,1.2,1.5,1.5,2.7,1.3
				c-0.1,0.5-0.6,0.5-0.9,0.5c-2.2-0.1-4.4,0.3-6.6,0.4c-0.8,0-1.4-0.3-1.9-1c-0.7-0.8-1.4-1.6-2-2.4c-0.3-0.4-0.8-0.7-0.7-1.3
				C118.8,198.7,121,198.4,123.3,198.2z"/>
			<path class="st323" d="M90.2,212.8c1.3-1.3,2.8-2.6,4.4-3.6c0.2-0.1,0.4,0,0.5,0.1c1.1,1.2,2.3,2.2,3,3.7
				c-1.2,1.5-2.8,2.6-4.4,3.6C92.3,215.4,91.2,214.1,90.2,212.8z"/>
			<path class="st324" d="M98,213c-1.1-1.2-2-2.7-3.4-3.8c1.5-1.3,3.1-2.3,4.8-3.2c1.1,1.3,2.5,2.5,3.3,4c-0.3,0.6-0.9,0.8-1.4,1.1
				c-0.8,0.5-1.5,1-2.2,1.5C98.7,212.9,98.4,213.2,98,213z"/>
			<path class="st325" d="M90.2,212.8c1.4,1,2.3,2.4,3.4,3.7c0,0.5-0.4,0.8-0.7,1c-0.7,0.6-1.4,1.3-2.1,2c-0.3,0.3-0.5,0.6-1,0.7
				c-1.3-1.1-2.5-2.3-3.3-3.9c0.3-0.3,0.5-0.7,0.8-1C88.3,214.5,89.1,213.4,90.2,212.8z"/>
			<path class="st326" d="M61.6,216.5c1.6-0.6,3.1-1.2,4.8-1.5c1.1,0.5,1.5,1.6,2.3,2.3c0.5,0.4,0.8,1,1.2,1.4
				c0.2,0.2,0.4,0.5,0.2,0.8c-1.6,0.6-3.3,1-5.1,1.2c-1.2-1-2.2-2.4-3.3-3.6C61.6,217.1,61.5,216.9,61.6,216.5z"/>
			<path class="st327" d="M70.1,219.5c-1.3-1.5-2.5-2.9-3.8-4.4c1.9-0.6,3.9-0.9,5.8-1c-0.9,0.2-0.7,0.6-0.2,1.1
				c1.1,1.2,2.3,2.3,3.1,3.8c-0.9,0.5-2,0.5-3,0.6C71.5,219.6,70.8,220,70.1,219.5z"/>
			<path class="st328" d="M118.8,313.1c0.4,0,0.7,0,0.3-0.5c-1.4-1.6-2.8-3.2-4.3-4.9c-0.2-0.3-0.4-0.6-0.6-0.8
				c0.1-0.1,0.3-0.2,0.5-0.2c1.4,0.3,2.8,0.6,4.1,1c0.2,0.1,0.4,0.2,0.4,0.4c0.4,1,1.3,1.6,1.9,2.4c0.7,0.9,1.5,1.7,2.2,2.6
				c0.2,0.3,0.4,0.5-0.1,0.6C121.7,313.7,120.3,313.5,118.8,313.1z"/>
			<path class="st329" d="M62.6,295.8c0.4,0,0.3-0.2,0.1-0.5c-0.7-0.8-1.4-1.7-2.1-2.5c-1.4-1.7-2.9-3.3-4.4-5
				c-0.3-0.3-0.5-0.7-0.5-1.1c0.1,0,0.2-0.1,0.3-0.1c1.7,0.9,3.5,1.8,5.1,3c0.8,1.6,2.2,2.8,3.3,4.1c0.6,0.7,1.2,1.4,1.8,2.1
				c0.3,0.3,0.6,0.7-0.1,1C64.9,296.6,63.7,296.3,62.6,295.8z"/>
			<path class="st330" d="M43.4,272.5c-1.3-0.6-2-1.9-2.9-2.9c-1.6-1.6-3-3.3-4.5-5c-0.1-0.1-0.4-0.7-0.6,0
				c-0.4-1.2-0.7-2.5-0.6-3.8c0.4-0.4,0.4-0.4,0.9,0c0.9,0.8,1.6,1.7,2.4,2.6c1.1,1.2,2.1,2.6,3.4,3.6c0.7,1.6,1.3,3.3,2,4.9
				C43.5,272.1,43.5,272.4,43.4,272.5z"/>
			<path class="st331" d="M34.6,258.4c-0.4-1.4-0.2-2.8-0.1-4.2c0-1.2,0.3-2.5,0.4-3.7c0.4-0.3,0.7,0,0.9,0.3
				c1.3,1.6,2.8,3.1,4.1,4.7c0.1,1.4,0.3,2.8,0.2,4.2c-0.5,0.6-0.8,0.1-1.1-0.3c-1.4-1.4-2.6-3-4-4.5c0,0.9,0,1.8,0,2.7
				C34.8,257.9,34.8,258.2,34.6,258.4z"/>
			<path class="st332" d="M66.1,296.8c0.4-0.3,0.1-0.6-0.1-0.9c-1.6-1.8-3.1-3.5-4.7-5.3c-0.3-0.3-0.5-0.6-0.4-1
				c0.2-0.2,0.5-0.1,0.7,0c1.3,0.6,2.7,0.9,3.9,1.6c1,1.9,2.6,3.2,3.9,4.8c0.4,0.5,1,0.8,0.7,1.6C68.8,297.5,67.4,297.3,66.1,296.8z
				"/>
			<path class="st313" d="M76.6,298c-1.5,0-3,0.2-4.4-0.2c0.2-0.4-0.1-0.7-0.3-0.9c-1.2-1.3-2.4-2.7-3.6-4c-0.2-0.3-0.9-0.5-0.3-1.1
				c1.5,0.1,2.9,0.4,4.4,0.7c1.4,1.4,2.6,2.9,3.8,4.4C76.5,297.2,76.8,297.6,76.6,298z"/>
			<path class="st333" d="M39.8,276.5c0.5-0.1,0.8,0.3,1.1,0.6c2.2,2.5,4.4,5.1,6.6,7.6c1.2,1.4,2.5,2.8,3.8,4.2
				c0.3,0.3,0.8,0.6,0.5,1.2c-4-2.8-7.2-6.2-9.9-10.2C41.1,278.8,40.2,277.8,39.8,276.5z"/>
			<path class="st334" d="M104,203.6c1.3-0.7,2.6-1.4,4-1.7c1.4,1,2.4,2.4,3.4,3.8c0.1,0.1,0.1,0.3,0,0.5c-1.2,0.7-2.4,1.2-3.7,1.5
				C106.4,206.3,105.4,204.8,104,203.6z"/>
			<path class="st335" d="M78.9,285.7c0.2-0.7,0.4-0.1,0.5,0c1.2,1.3,2.4,2.7,3.6,4c1.5,1.7,2.9,3.5,4.4,5.2
				c1.5,1.8,3.1,3.5,4.7,5.3c0.2,0.3,0.4,0.6,0.4,0.9c-1.9-1.3-3.5-3.1-5.2-4.6c-1.5-0.9-2.4-2.3-3.5-3.5c-0.2-0.3-0.4-0.5-0.7-0.8
				c-1.4-1.8-2.8-3.6-3.9-5.6C79,286.4,78.7,286.1,78.9,285.7z"/>
			<path class="st336" d="M39.6,255.2c-1-0.5-1.5-1.6-2.3-2.3c-0.9-0.8-1.4-2-2.5-2.5c0.1-1.1,0.2-2.3,0.6-3.3
				c0.2-0.2,0.5-0.1,0.6,0.1c1.3,1.5,2.8,2.9,4,4.6C40.2,252.9,40.1,254.1,39.6,255.2z"/>
			<path class="st337" d="M109.7,201.3c1.1-0.5,2.2-0.9,3.3-1c0.4-0.2,0.6,0,0.8,0.2c0.9,0.9,1.7,1.9,2.5,2.9
				c0.3,0.3,0.5,0.7,0.3,1.1c-1,0.8-2.1,0.9-3.3,1.1C112.1,204.2,110.8,202.7,109.7,201.3z"/>
			<path class="st338" d="M116.6,204.4c-0.2-1.2-1.3-1.8-2-2.7c-0.4-0.5-0.8-1.3-1.6-1.5c1.1-0.6,2.4-0.7,3.6-1c1,1.5,2.3,2.6,3.3,4
				c0.3,0.4,0.7,0.3,1,0.3c0,0,0,0.1,0,0.1C119.6,204.4,118.1,204.8,116.6,204.4z"/>
			<path class="st339" d="M61.6,216.5c0.8,1.2,1.8,2.1,2.7,3.2c0.3,0.3,0.7,0.5,0.7,1c-0.9,0.9-2,1.2-3.3,1.4
				c-1.2-1.3-2.5-2.6-3.4-4.1C59.3,217.4,60.4,216.9,61.6,216.5z"/>
			<path class="st340" d="M38.4,238.3c0.4-1,0.8-2,1.5-2.9c0.2-0.2,0.4-0.1,0.6,0c1.2,1.1,2.4,2.3,3.3,3.8c-0.3,1.1-0.7,2.3-1.5,3.2
				c-1.1-0.4-1.6-1.6-2.4-2.3C39.3,239.5,38.8,238.8,38.4,238.3z"/>
			<path class="st323" d="M48.4,224.7c0.7-0.8,1.5-1.5,2.5-2.1c0.4-0.1,0.5,0.2,0.7,0.4c0.8,0.8,1.5,1.7,2.3,2.6
				c0.3,0.3,0.5,0.6,0.3,1c-0.7,0.9-1.5,1.7-2.7,2.2c-1-1.1-2-2.2-2.9-3.3C48.5,225.2,48.2,225,48.4,224.7z"/>
			<path class="st332" d="M34.6,258.4c0-0.3,0-0.6,0-0.8c0.7,0,1,0.5,1.4,1c1,1.1,1.9,2.2,2.9,3.3c0.5,0.6,1.1,1,1.6,1.4
				c0.4,1.3,1,2.5,0.8,4c-1.9-1.4-3.2-3.4-4.8-5.1c-0.5-0.5-0.7-1.4-1.6-1.2C34.4,260,34.6,259.2,34.6,258.4z"/>
			<path class="st341" d="M38.4,238.3c1.2,0.4,1.5,1.6,2.3,2.3c0.6,0.5,1,1.1,1.4,1.7c0.2,1.1-0.3,2.1-0.9,3
				c-0.5,0.1-0.8-0.3-1.1-0.6c-1-1.1-2.1-2.2-3-3.4C37.4,240.2,37.8,239.2,38.4,238.3z"/>
			<path class="st342" d="M83.3,292.2c1.3,1.5,2.6,2.9,4,4.4c-1.2,0.4-2.3,0.7-3.5,0.8c-1-1.6-2.4-2.8-3.5-4.3
				c-0.1-0.2-0.4-0.2-0.2-0.5C81.1,292.3,82.2,291.9,83.3,292.2z"/>
			<path class="st343" d="M39.8,251.4c-1.4-1.1-2.3-2.5-3.5-3.7c-0.3-0.3-0.4-0.6-0.9-0.7c0.1-0.9,0.4-1.8,0.6-2.7
				c0.3-0.5,0.6-0.3,0.9,0c1.1,1.1,2.1,2.4,3.2,3.5c0.3,0.3,0.3,0.7,0.3,1.1C40.3,249.7,40.6,250.7,39.8,251.4z"/>
			<path class="st344" d="M54,226.5c-0.2-1.2-1.4-1.7-1.9-2.6c-0.3-0.5-0.8-0.9-1.2-1.4c0.7-0.7,1.4-1.3,2.3-1.7
				c0.2-0.1,0.4-0.2,0.6,0c1.1,1.2,2.4,2.2,3.1,3.8C56,225.5,55.2,226.3,54,226.5z"/>
			<path class="st345" d="M40.2,248.7c0-0.3-0.1-0.6-0.3-0.8c-1-1.2-2.1-2.3-3.1-3.5c-0.3-0.3-0.5-0.2-0.7-0.1
				c0.3-1.1,0.6-2.1,1-3.1c1,0.5,1.5,1.5,2.3,2.3c0.5,0.6,1,1.2,1.7,1.6C41.4,246.2,40.9,248.2,40.2,248.7z"/>
			<path class="st346" d="M104,203.6c0.8-0.1,1,0.6,1.3,1c0.8,0.9,1.9,1.7,2.3,2.9c-0.7,0.8-1.6,1.2-2.7,1.4
				c-1.1-1.4-2.4-2.6-3.4-4.1C102.3,204.3,103.1,203.9,104,203.6z"/>
			<path class="st347" d="M43.6,239.1c-1-1.1-2-2.2-3-3.3c-0.2-0.2-0.4-0.5-0.8-0.5c0.5-1,1-1.9,1.7-2.7c0.3-0.1,0.5,0,0.6,0.2
				c1,1.2,2.1,2.3,3,3.6C44.9,237.5,44.5,238.5,43.6,239.1z"/>
			<path class="st348" d="M80,292.8c0.2,0,0.5,0,0.6,0.2c0.9,1.3,2,2.3,3,3.5c0.2,0.2,0.4,0.5,0.2,0.8c-0.9,0.2-1.8,0.4-2.7,0.4
				c-1-1.6-2.4-2.8-3.5-4.2c-0.4-0.5-1-0.3-1.5-0.3c-0.4,0-0.9,0-1.3,0c-0.3,0-0.7,0-1-0.2c-0.2-0.1-0.4-0.2-0.1-0.5
				c1.6-0.4,3.3-0.1,4.9-0.2C79,292.5,79.5,292.4,80,292.8z"/>
			<path class="st349" d="M58.2,218c1.2,1.2,2.5,2.4,3.3,4c-0.6,1-1.7,1.3-2.7,1.5c-0.7-1.2-1.7-2.1-2.6-3.2
				c-0.2-0.3-0.7-0.6-0.4-1.1C56.6,218.6,57.4,218.3,58.2,218z"/>
			<path class="st350" d="M101.5,204.8c1.3,1.1,2.5,2.4,3.3,3.9c-0.5,0.9-1.3,1.2-2.3,1.3c-0.9-1.1-1.9-2.2-2.9-3.4
				c-0.2-0.2-0.3-0.4-0.3-0.6C100,205.4,100.8,205.2,101.5,204.8z"/>
			<path class="st351" d="M55.9,219.2c0.4,1,1.2,1.7,1.9,2.5c0.5,0.5,1,1,1,1.7c-0.6,0.7-1.1,1.2-2.1,1.2c-0.9-1.1-1.8-2.1-2.7-3.2
				c-0.2-0.3-0.5-0.5-0.8-0.5C54,220.2,54.9,219.6,55.9,219.2z"/>
			<path class="st352" d="M67.8,292c1.4,1.5,2.8,3.1,4.1,4.6c0.2,0.3,0.4,0.5,0.6,0.8c0.4,0.6-0.2,0.3-0.4,0.4c-0.7,0-1.4,0-2.1-0.2
				c-0.4-1.2-1.5-1.9-2.2-2.9c-0.6-0.8-1.4-1.6-2.1-2.3c-0.3-0.3-0.4-0.7-0.3-1C66.4,291.1,67.2,291.4,67.8,292z"/>
			<path class="st353" d="M45.1,236.4c-1.1-0.8-1.8-2-2.7-2.9c-0.3-0.3-0.5-0.7-0.9-0.9c0.4-0.8,0.9-1.5,1.5-2.1
				c0.3-0.2,0.6-0.1,0.7,0.1c1,1.2,2.3,2.2,2.9,3.6C46.3,235.1,46.1,236,45.1,236.4z"/>
			<path class="st354" d="M48.4,224.7c0.9,1.1,1.9,2.2,2.8,3.3c0.2,0.2,0.3,0.4,0.3,0.6c-0.3,0.9-1,1.5-1.9,2
				c-1.1-1.3-2.4-2.5-3.4-4C46.9,225.8,47.6,225.2,48.4,224.7z"/>
			<path class="st355" d="M46.3,226.6c1.2,1.2,2.5,2.4,3.3,3.9c-0.1,1-0.9,1.5-1.6,2c-1.2-1.3-2.5-2.5-3.4-4
				C45.2,227.8,45.7,227.2,46.3,226.6z"/>
			<path class="st356" d="M44.6,228.4c1.2,1.3,2.4,2.5,3.4,4c-0.2,0.9-0.6,1.5-1.5,1.9c-0.9-1-1.7-2.1-2.6-3.1
				c-0.3-0.3-0.5-0.7-1-0.7C43.4,229.8,44,229.1,44.6,228.4z"/>
			<path class="st357" d="M74.9,293.1c2.3-0.7,3.4,1,4.6,2.4c0.4,0.5,0.8,1,1.3,1.5c0.3,0.3,0.5,0.5,0.2,0.9
				c-0.8,0.1-1.5,0.3-2.3,0.2c-1-1.3-2.2-2.5-3.2-3.8C75.2,293.9,74.8,293.6,74.9,293.1z"/>
			<path class="st358" d="M74.9,293.1c0.9,1.5,2.3,2.7,3.4,4.1c0.2,0.3,0.6,0.4,0.4,0.8c-0.7,0-1.4,0-2.1,0
				c-0.6-1.3-1.7-2.2-2.5-3.2c-0.5-0.7-1.1-1.3-1.6-2c0.4-0.3,0.7-0.3,1,0C73.9,293.2,74.5,293,74.9,293.1z"/>
			<path class="st359" d="M109.7,201.3c0.7,0.1,0.9,0.8,1.2,1.2c0.8,1,1.9,1.8,2.3,3c-0.5,0.5-1.1,0.8-1.9,0.6
				c-0.9-1.6-2.3-2.8-3.4-4.2C108.5,201.6,109,201.3,109.7,201.3z"/>
			<path class="st360" d="M179.9,273c1.2,0.9,2,2.1,2.9,3.2c0.3,0.3,0.5,0.7,1,0.8c-0.8,2-1.5,4-2.7,5.8c-1-0.8-1.7-1.8-2.5-2.7
				c-0.4-0.5-0.9-0.9-1.3-1.3c0.5-2,1.5-3.8,2.2-5.6C179.6,273,179.8,273,179.9,273z"/>
			<path class="st323" d="M170.5,297.2c-1.3,1.3-2.7,2.7-4.2,3.8c-1.3-1.2-2.5-2.3-3.3-3.9c0-0.3,0.1-0.5,0.3-0.6
				c1.1-0.9,2-2,3.2-2.8c0.2-0.2,0.5-0.4,0.8-0.4c1.2,1,2.2,2.3,3.2,3.5C170.7,296.9,170.7,297,170.5,297.2z"/>
			<path class="st324" d="M170.5,297.2c-0.7-1.4-1.9-2.3-2.8-3.5c-0.1-0.2-0.2-0.3-0.4-0.5c-0.1-0.2,0-0.4,0.1-0.6
				c1.2-1.2,2.1-2.6,3.5-3.6c1.4,0.9,2.2,2.3,3.3,3.5c0.1,0.2,0.2,0.4,0.1,0.6C173.2,294.6,171.9,295.9,170.5,297.2z"/>
			<path class="st325" d="M163.2,297c0.4,1,1.3,1.6,1.9,2.4c0.4,0.5,0.9,1,1.2,1.5c-1.3,1.1-2.7,2.2-4.2,3.1c-1.3-1.2-2.5-2.4-3.4-4
				c0.8-1.1,2.1-1.6,3.1-2.5C162.2,297.3,162.5,296.7,163.2,297z"/>
			<path class="st356" d="M158.8,300.2c1.1,1.3,2.4,2.5,3.3,3.9c-1.3,1-2.7,1.8-4.2,2.5c-1.1-1.3-2.4-2.6-3.4-4
				C155.8,301.5,157.2,300.6,158.8,300.2z"/>
			<path class="st361" d="M143.5,312.3c-1.4,0.5-2.9,0.8-4.4,1c-1.5-1.3-2.6-3-3.9-4.4c-0.1-0.1-0.1-0.3,0-0.4
				c1.7-0.4,3.3-0.8,5-0.8c1.1,1.2,2.1,2.4,3.1,3.7C143.6,311.6,143.8,311.9,143.5,312.3z"/>
			<path class="st362" d="M135.2,308.7c1.2,0.8,2,2,2.9,3.1c0.4,0.4,1,0.8,1.1,1.4c-1.7,0.3-3.3,0.5-5,0.6c0.8-0.2,0.9-0.4,0.3-1.1
				c-1.2-1.2-2.3-2.4-3.2-3.9C132.5,308.4,133.8,308.1,135.2,308.7z"/>
			<path class="st363" d="M153,309.1c-1.3,0.6-2.6,1.2-4,1.5c-0.9-1-1.7-2-2.6-3c-0.3-0.4-0.6-0.8-0.6-1.3c1.2-0.8,2.6-1.2,4-1.5
				c1.2,1.1,2.2,2.4,3.2,3.7C153.1,308.6,153.2,308.9,153,309.1z"/>
			<path class="st364" d="M180,284.9c-0.6,1.4-1.5,2.6-2.3,3.8c-1.1-0.5-1.6-1.6-2.4-2.4c-0.4-0.4-0.8-0.9-1.2-1.4
				c0.4-1.4,1.2-2.5,2.1-3.6c0.7-0.1,1,0.4,1.3,0.8C178.3,283,179.2,283.9,180,284.9z"/>
			<path class="st365" d="M154.6,302.7c1.3,1.1,2.6,2.4,3.3,4c-1,0.7-2.1,1.2-3.1,1.7c-0.9-1-1.7-2-2.6-3c-0.3-0.3-0.5-0.7-0.6-1.2
				C152.5,303.2,153.4,302.7,154.6,302.7z"/>
			<path class="st366" d="M143.5,312.3c-0.4-1.3-1.7-2.1-2.5-3.2c-0.3-0.4-0.6-0.7-0.7-1.2c0.7-0.9,1.7-0.7,2.6-0.9
				c0.1,0,0.3,0,0.4,0.1c1.3,1.2,2.4,2.5,3.4,3.9c0.1,0.1,0,0.3-0.1,0.4C145.7,311.8,144.7,312.2,143.5,312.3z"/>
			<path class="st359" d="M180,284.9c-1.1-0.4-1.5-1.6-2.3-2.3c-0.5-0.4-0.8-1.1-1.4-1.2c0-1,0.5-1.9,1.3-2.5
				c0.9-0.1,1.1,0.8,1.5,1.3c0.8,0.9,1.7,1.6,2.2,2.7C180.8,283.5,180.6,284.3,180,284.9z"/>
			<path class="st367" d="M174.3,293.1c-0.6-1.1-1.6-1.9-2.3-2.8c-0.3-0.4-0.7-0.8-1-1.1c0.2-1,0.9-1.6,1.6-2.2
				c0.6,0.1,0.8,0.5,1.1,0.9c0.6,0.7,1.2,1.5,1.9,2.2c0.3,0.3,0.7,0.5,0.4,1C175.5,291.8,175,292.5,174.3,293.1z"/>
			<path class="st346" d="M176,291c-0.1-0.8-0.9-1.1-1.3-1.7c-0.6-0.8-1.2-1.7-2.1-2.3c0.1-1,0.6-1.7,1.5-2.1c0.9,0.1,1,0.9,1.5,1.4
				c0.7,0.7,1.4,1.5,2,2.3C177.2,289.5,176.6,290.3,176,291z"/>
			<path class="st368" d="M146.7,311.4c-1-1.6-2.1-3-3.6-4.2c0.7-0.8,1.7-1,2.7-0.8c0.7,1.1,1.6,2.1,2.5,3c0.3,0.3,0.6,0.7,0.6,1.2
				C148.2,311,147.5,311.4,146.7,311.4z"/>
			<path class="st369" d="M151.7,304.1c0.8,1.1,1.6,2.1,2.6,3.1c0.3,0.3,0.5,0.6,0.6,1.1c-0.6,0.3-1.2,0.7-1.9,0.8
				c-0.2-1-1-1.5-1.6-2.2c-0.5-0.7-1.1-1.2-1.6-1.9C150.2,304.2,150.9,304,151.7,304.1z"/>
			<path class="st370" d="M151.7,304.1c-0.6,0.3-1.3,0.6-1.9,0.8c-1.3,0.5-2.6,1-4,1.5c-0.9,0.2-1.9,0.4-2.7,0.8
				c-0.9,0.1-1.8,0.3-2.7,0.6c-1.7,0.3-3.5,0.6-5.2,0.8c-1.3-0.1-2.6,0.2-4,0.2c-2.3,0-4.6,0-6.9-0.2c-1.7-0.2-3.3-0.4-5-0.7
				c-1.7-0.4-3.3-0.8-5-1.2c-2.6-0.8-5-1.8-7.5-2.8c-2.5-1.3-5.1-2.7-7.5-4.2c-1.8-1.5-3.7-2.9-5.5-4.4c-0.3-0.2-0.5-0.5-0.8-0.8
				c0.3-0.8,1.2-0.8,1.8-1.3c1.1-0.4,2-1.1,2.9-1.7c0.9-0.4,1.6-0.9,2.3-1.5c0.9-0.5,1.5-1.4,2.6-1.6c1.6,0.9,3.1,2.2,4.7,3.1
				c0.5,0.3,1.1,0.6,1.6,0.9c1,0.7,2.2,1.2,3.3,1.6c0.4,0.2,0.7,0.3,1.1,0.5c1.3,0.5,2.6,0.9,4,1.4c0.8,0.3,1.7,0.4,2.5,0.6
				c0.7,0.2,1.4,0.3,2.1,0.4c1,0.2,2,0.3,3,0.4c1.4,0.3,2.9,0.1,4.3,0.2c0.9,0,1.8,0,2.6,0c1.3,0.1,2.6-0.3,3.9-0.4
				c0.8-0.1,1.5-0.3,2.3-0.4c1-0.2,2-0.6,3-0.8c0.6-0.1,1.1-0.3,1.7-0.4c1.1-0.3,2-0.9,3.1-1c0.4,0.1,0.8,0.3,1.1,0.4
				c0.3,0.2,0.7,0.3,1.1,0.4c0.5,0.2,0.9,0.3,1.4,0.3c0.1,0,0.2,0,0.3,0.1c0.7,0.2,1.4,0.1,2.1,0c0.3-0.1,0.6-0.1,0.9-0.2
				c0.1,0,0.3-0.1,0.4-0.1c0.3-0.1,0.6-0.2,0.9-0.3c0.2-0.1,0.4-0.2,0.6-0.3c0.2-0.1,0.5-0.2,0.7-0.4c0.2-0.1,0.4-0.3,0.6-0.4
				c0.2-0.2,0.4-0.4,0.6-0.6c0.2-0.2,0.3-0.3,0.5-0.5c0.2-0.2,0.4-0.5,0.6-0.7c0.2-0.2,0.3-0.4,0.4-0.7c0.2-0.3,0.3-0.6,0.4-0.9
				c0.2-0.4,0.3-0.8,0.4-1.3c0.3-1.1,0.2-2.3,0.2-3.5c0.3-1,1.3-1.6,2-2.3c1-0.9,1.7-2.1,2.5-3.2c0.9-1,1.6-2.2,2.3-3.3
				c0.5-0.7,0.8-1.6,1.3-2.3c0.7-1.3,1.3-2.6,1.8-4c0.6-1.6,1.1-3.2,1.5-4.8c1.1-4.3,1.5-8.7,1.2-13.2c-0.4-6.1-2.1-11.8-5-17.1
				c-2-3.7-4.5-7-7.5-9.9c-6.7-6.4-14.6-10.3-23.8-11.6c-3.3-0.5-6.7-0.5-10-0.2c-1.6,0.2-3.3,0.4-4.9,0.8c-1.5,0.3-3,0.7-4.4,1.2
				c-0.6,0.2-1.2,0.4-1.7,0.6c-1.1,0.4-2,0.8-3.1,1.3c-0.7,0.3-1.4,0.6-2.1,1c-0.6,0.4-1.2,0.6-1.7,1c-0.9,0.5-1.8,1.1-2.7,1.7
				c-0.7,0.4-1.3,1.1-2.1,1.4c-0.4,0-0.7-0.3-1-0.5c-2.4-1.9-5-3.5-7.8-4.8c-0.3-0.2-0.7-0.3-0.9-0.7c0.3-0.3,0.5-0.6,0.8-0.8
				c1.5-1.2,2.9-2.4,4.4-3.5c1.5-1,3.1-1.9,4.6-2.9c0.8-0.4,1.6-0.7,2.3-1.3c1-0.3,1.8-0.8,2.7-1.2c1.3-0.5,2.5-1,3.8-1.5
				c0.6-0.2,1.3-0.4,1.9-0.6c1.1-0.3,2.2-0.7,3.3-1c1.5-0.1,3-0.5,4.4-0.8c2.6-0.2,5.2-0.4,7.7-0.6c9.6,0.1,18.6,2.3,26.9,7
				c8.2,4.6,14.7,11,19.6,19.1c3.4,5.7,5.7,11.9,6.8,18.5c0.6,3.8,0.9,7.6,0.6,11.4c-0.1,2.3-0.5,4.6-0.8,6.9
				c-0.6,2.4-1.3,4.7-1.9,7.1c-0.8,2-1.6,3.9-2.5,5.9c-0.4,0.8-0.8,1.7-1.3,2.5c-0.7,1.2-1.4,2.4-2.1,3.6c-0.5,0.7-1,1.4-1.5,2.1
				c-0.5,0.7-1.1,1.4-1.6,2.1c-1.2,1.4-2.4,2.8-3.6,4.1c-1.4,1.3-2.8,2.5-4.2,3.8c-1.5,1.1-2.9,2.1-4.4,3.2
				c-1.4,0.8-2.8,1.7-4.2,2.5C153.6,303.1,152.6,303.5,151.7,304.1z"/>
			<path class="st370" d="M73.5,292.9c-0.3,0-0.7,0-1,0c-1.5-0.3-3.1-0.5-4.6-0.8c-0.8-0.2-1.5-0.4-2.3-0.6
				c-1.5-0.6-3.1-1.2-4.6-1.7c-1.7-1-3.5-2-5.2-3c-3.6-2.7-6.9-5.7-9.5-9.5c-1-1.5-1.9-3.1-2.9-4.7c-0.7-1.8-1.4-3.6-2.1-5.4
				c-0.3-1.3-0.7-2.6-1-4c-0.5-1.1-0.8-2.2-0.5-3.3c-0.1-1.5-0.1-3.1-0.2-4.6c0.1-1.3,0.2-2.5,0.2-3.8c0.3-0.9,0.4-1.8,0.4-2.7
				c0.3-1.2,0.6-2.4,0.9-3.6c0.3-1,0.7-1.9,1-2.9c0.5-1.1,1-2.1,1.5-3.2c0.5-0.9,1-1.8,1.5-2.7c0.6-0.6,1-1.4,1.4-2.1
				c0.5-0.6,1-1.3,1.5-1.9c0.6-0.6,1.1-1.3,1.7-1.9c0.6-0.6,1.3-1.3,1.9-1.9c0.8-0.7,1.7-1.4,2.5-2.1c0.9-0.6,1.8-1.3,2.7-1.9
				c0.7-0.4,1.4-0.8,2.1-1.2c0.9-0.5,1.9-0.8,2.7-1.4c1.2-0.2,2.3-0.8,3.3-1.2c1.7-0.4,3.5-0.8,5.2-1.3c1.7-0.1,3.3-0.3,5-0.4
				c2.7-0.1,5.5,0.2,8.2,0.7c0.1,0.1,0.1,0.2,0.1,0.3c-0.6,1.1-1.5,2.1-2.2,3.2c-0.4,0.5-0.8,1.1-1.1,1.7c-0.9,1.4-1.8,2.7-2.4,4.2
				c-0.8,1.2-1.4,2.6-1.9,3.9c-0.7,1.5-1.3,3.1-1.8,4.7c-0.5,1.4-0.9,2.7-1.2,4.2c-0.4,1.7-0.8,3.4-1.1,5.2
				c-0.3,1.8-0.5,3.6-0.6,5.4c0.1,1.4-0.3,2.8-0.2,4.2c0,0.3,0,0.7,0.1,1c0.1,1.9,0.1,3.8,0.4,5.7c0.1,1.3,0.3,2.6,0.6,3.9
				c0.2,0.9,0.4,1.8,0.4,2.7c0.5,2.5,1.3,4.9,2.3,7.3c0.3,1,0.7,2,1.2,2.9c0.8,2,1.8,3.8,2.9,5.6c1.2,2.3,2.9,4.3,4.4,6.5
				c-1.1,0.2-2.2,0.4-3.4,0.6C77.8,292.8,75.6,292.9,73.5,292.9z"/>
			<path class="st370" d="M88.8,290.5c-3.2-3.6-5.7-7.7-7.9-11.9c-1-1.3-1.4-2.8-2-4.3c-0.5-1.2-0.8-2.4-1.2-3.6
				c-0.8-2.6-1.2-5.3-1.7-8c-0.2-1.7-0.2-3.3-0.4-5c-0.2-2,0.1-4,0.2-5.9c0.2-1.7,0.3-3.5,0.7-5.2c0.4-1.5,0.6-3.1,1.1-4.6
				c0.5-1.7,1-3.4,1.7-5.1c0.6-1.3,1-2.6,1.7-3.8c0.8-1.6,1.6-3.1,2.5-4.6c0.4-0.6,0.7-1.1,1.1-1.7c0.7-1.1,1.5-2.1,2.3-3.2
				c0.8-0.7,1.2-1.8,2.3-2.3c2.2,0.6,4.1,1.7,6,2.8c1,0.6,1.9,1.2,2.8,1.8c0.9,0.7,1,1.1,0.2,1.9c-1.2,1.4-2.4,2.8-3.5,4.3
				c-0.9,1.2-1.6,2.6-2.4,3.9c-0.4,0.6-0.8,1.2-1.1,1.9c-0.1,0.3-0.2,0.6-0.4,0.9c-0.2,0.5-0.5,0.9-0.6,1.4
				c-0.2,0.4-0.3,0.8-0.5,1.2c-0.2,0.6-0.4,1.2-0.6,1.9c-0.3,0.7-0.5,1.4-0.6,2.1c-0.2,0.8-0.4,1.5-0.5,2.3
				c-0.1,0.8-0.3,1.5-0.4,2.3c0,0.6-0.2,1.1-0.2,1.7c0,1.1-0.3,2.1-0.2,3.2c0,0.5,0,1,0,1.4c0,0.2,0,0.5,0,0.7c0,0.7-0.1,1.3,0.1,2
				c0.1,0.2,0.1,0.4,0.1,0.7c0,0.2,0,0.3,0,0.5c0,0.4,0,0.7,0.1,1.1c0.1,0.5,0,1,0.2,1.4c0.1,0.5,0.2,0.9,0.3,1.4
				c0.1,0.6,0.3,1.2,0.4,1.9c0.2,0.9,0.4,1.8,0.7,2.7c0.3,1,0.7,1.9,1,2.9c0.2,0.4,0.4,0.8,0.5,1.2c0.4,1,0.9,1.8,1.3,2.8
				c0.3,0.7,0.8,1.4,1.2,2.1c0.1,0.2,0.2,0.3,0.3,0.5c0.4,0.7,0.9,1.4,1.4,2.1c0.8,1.1,1.7,2.2,2.5,3.3c0.4,0.6,1.3,0.9,1.4,1.8
				c-0.4,0.6-1.1,0.9-1.7,1.4c-0.8,0.5-1.6,1-2.3,1.5c-1,0.6-2.1,1.2-3.2,1.7c-0.5,0.2-1.1,0.5-1.6,0.7
				C89.5,290.7,89.1,290.8,88.8,290.5z"/>
			<path class="st321" d="M77.9,270.7c0.8,2.7,1.9,5.3,3,7.9c-0.4-0.1-0.7-0.3-1-0.7c-2-2.4-4.1-4.8-6.1-7.1
				c-0.3-0.4-0.6-0.8-0.9-1.1c-0.3-0.3-0.3,0-0.4,0.2c-0.7-2.1-1.1-4.3-1.2-6.5c0.9,0.2,1.3,1.1,1.9,1.7
				C74.6,266.9,76.3,268.8,77.9,270.7z"/>
			<path class="st347" d="M88.8,290.5c1,0,1.7-0.8,2.7-0.9c0.7-0.1,0.8,0.6,1.1,0.9c0.7,0.6,1.2,1.4,1.9,2.1c0.3,0.3,0.5,0.6,0.4,1
				c-0.6,0.4-1.3,0.7-1.9,1.1C91.5,293.4,90,292,88.8,290.5z"/>
			<path class="st371" d="M89,221.3c-0.7,0.8-1.4,1.5-2.1,2.3c-1.2-0.6-1.8-1.8-2.7-2.7c-0.3-0.3-0.6-0.7-0.8-1c0-0.1,0-0.1,0-0.2
				c1-1.1,2.1-2.2,3.1-3.4c1.1,1.3,2.2,2.5,3.3,3.8C89.9,220.8,89.5,221.1,89,221.3z"/>
			<path class="st314" d="M89,221.3c0.3-0.4,0.6-0.8,0.9-1.2c1-0.9,2-1.8,3-2.7c3.1,1.3,6,3.1,8.8,5.2c0.3,0.3,0.7,0.5,1,0.7
				c1.1,0.4,1.8,1.4,2.6,2.1c0.5,0.4,0.9,0.9,1.4,1.4c6,6.3,9.6,13.7,11.1,22.2c0.1,0.4,0.1,0.8-0.1,1.2c-0.7,0.3-1.2-0.2-1.7-0.5
				c-3.6-2-7.1-3.9-10.7-5.9c-4.1-2.3-8.3-4.5-12.4-6.8c-0.4-0.2-1-0.3-0.8-1c1-2.3,2.5-4.2,4-6.2c0.6-0.8,1.3-1.5,2-2.3
				c0.5-0.6,0.5-0.9-0.2-1.4C95,224.2,92.1,222.5,89,221.3z"/>
			<path class="st372" d="M39.8,259.8c0.2,1.1,0.3,2.2,0.5,3.3c-0.6-0.1-1-0.6-1.4-1c-1.5-1.5-2.6-3.3-4.3-4.6c0-1,0-2,0-3.1
				c1.3,1,2.1,2.3,3.1,3.3C38.4,258.4,38.9,259.3,39.8,259.8z"/>
			<path class="st314" d="M125.1,214.1c7-0.7,13.7,0.3,20.2,2.9c4.5,1.8,8.5,4.4,12.2,7.5c4.4,3.9,7.8,8.5,10.3,13.7
				c2,4.3,3.3,8.8,3.7,13.5c0.5,5,0.1,9.9-1.1,14.8c-0.5,0.3-0.7-0.1-1-0.3c-1.1-1.1-2.1-2.4-3.1-3.6c-0.3-0.4-0.3-0.9-0.3-1.4
				c0.2-2.1,0.2-4.2,0.2-6.4c0-4.7-1.1-9.2-3-13.5c-1.9-4.4-4.6-8.3-8.1-11.6c-6.3-5.9-13.8-9.5-22.5-10.3c-1.2-0.1-2.5-0.1-3.7-0.3
				c-1.3-1.4-2.5-2.8-3.7-4.3C125.1,214.7,124.9,214.4,125.1,214.1z"/>
			<path class="st314" d="M159,286.1c0,1.3,0.3,2.5-0.2,3.8c-0.6,0.1-0.8-0.3-1.1-0.7c-2.4-2.9-4.9-5.7-7.4-8.6
				c-0.3-0.3-0.7-0.6-0.3-1.1c2-0.5,3.7,0.3,5.4,1.3c0.3,0.2,0.5,0.4,0.8,0.5c1,0.8,1.7,1.9,2.4,3.1
				C158.9,285,159.1,285.5,159,286.1z"/>
			<path class="st373" d="M94.6,280.3c-0.6-0.6-1.1-1.3-1.4-2.1c-0.1-0.4,0.3-0.4,0.5-0.4c0.4,0.1,0.7,0.3,1,0.4
				c0.5,0.3,1,0.6,1.5,0.8c0.2,0.1,0.3,0.2,0.5,0.3c0.6,0.4,1.2,0.7,1.8,1c0.2,0.1,0.3,0.2,0.5,0.3c0.4,0.3,0.9,0.6,1.4,0.8
				c0.3,0.2,0.6,0.3,0.9,0.4c0.4,0.3,0.9,0.6,1.4,0.8c0.3,0.2,0.6,0.3,0.9,0.4c0.4,0.3,0.9,0.6,1.4,0.8c0.2,0.1,0.3,0.2,0.5,0.3
				c0.4,0.3,0.9,0.5,0.9,1.1c0,0.2-0.1,0.4-0.2,0.6c-0.2,0.5,0,0.9,0.3,1.2c1.7,2,3.4,3.9,5.1,5.9c0.4,0.4,0.8,0.9,0.6,1.5
				c-1.2-0.4-2.4-0.9-3.4-1.7c-1-1.7-2.5-3.1-3.7-4.6c-0.3-0.4-0.6-0.6-0.7-1.1c0-0.2,0.1-0.3,0.2-0.5c0.5-0.6,0.3-1-0.4-1.3
				c-2.4-1.3-4.8-2.6-7.3-3.9C96.2,281,95.5,280.4,94.6,280.3z"/>
			<path class="st327" d="M166.3,261.3c-0.2,1,0.5,1.4,1,2c1,1.1,1.7,2.5,3.1,3.2c-0.5,1.6-0.9,3.3-1.6,4.8
				c-0.4,0.1-0.6-0.1-0.8-0.4c-1-1.2-2.1-2.4-3.2-3.6c-0.1-0.1-0.1-0.2-0.1-0.4c0.3-1.8,0.9-3.4,1.1-5.2
				C165.9,261.5,166,261.2,166.3,261.3z"/>
			<path class="st327" d="M125.1,214.1c0.6,1.3,1.7,2.1,2.5,3.2c0.4,0.6,1,1,1.2,1.7c-1,0.6-2.1,0.2-3.1,0.5
				c-0.5,0.1-1.1,0.1-1.6,0.1c-0.3,0-0.4-0.2-0.6-0.4c-1.1-1.2-2.1-2.4-3.2-3.7c-0.2-0.2-0.4-0.4-0.3-0.7
				C121.8,214.4,123.5,214.2,125.1,214.1z"/>
			<path class="st374" d="M105.9,285.7c0.1-0.1,0.1-0.3,0.2-0.4c0.1-0.1,0.2-0.1,0.3-0.1c1.7,0.8,3.2,1.9,4.7,3
				c0.4,1.2,1.4,2,2.2,2.9c1.2,1.5,2.5,2.8,3.7,4.3c0.2,0.3,0.6,0.5,0.3,1c-1.4-0.4-2.7-0.7-4-1.4c-0.4-1.1-1.4-1.9-2.1-2.8
				c-1.6-1.9-3.2-3.7-4.7-5.6C106.1,286.4,105.8,286.1,105.9,285.7z"/>
			<path class="st313" d="M129.1,298.1c-1.5,0-2.9,0.1-4.4-0.2c-1.2-1.2-2.2-2.5-3.3-3.8c-0.4-0.5-0.9-1-1.3-1.5
				c-0.1-0.3-0.6-0.5-0.1-0.9c1.4,0.1,2.8,0.4,4.2,0.7c0.7,0.2,1.1,0.6,1.6,1.1c1,1.2,2,2.3,3,3.5
				C129,297.4,129.4,297.6,129.1,298.1z"/>
			<path class="st360" d="M164.9,267.1c1.2,1,2.1,2.2,3,3.3c0.3,0.3,0.6,0.6,0.9,0.8c-0.4,1.4-1.1,2.7-1.9,4
				c-0.3,0.2-0.5,0.1-0.7-0.2c-1-1.2-2.2-2.4-3.1-3.7C163.5,269.9,164,268.4,164.9,267.1z"/>
			<path class="st326" d="M120.1,214.9c1.1,1.3,2.2,2.6,3.3,3.8c0.2,0.2,0.4,0.4,0.4,0.7c-1.4,0.7-2.9,0.8-4.4,1.1
				c-1.4-1.3-2.6-2.8-3.8-4.4C117.1,215.4,118.6,215.2,120.1,214.9z"/>
			<path class="st375" d="M165.7,277.6c-0.6,1.2-1.3,2.4-2.3,3.4c-0.7,0.1-0.9-0.5-1.3-0.9c-0.8-0.9-1.5-1.8-2.4-2.7
				c0.5-1.4,1.2-2.7,2.3-3.7c0.3,0,0.5,0.1,0.6,0.3C163.8,275.1,164.9,276.2,165.7,277.6z"/>
			<path class="st376" d="M129.1,298.1c-0.8-1.4-2-2.5-3-3.7c-0.5-0.6-0.9-1.4-1.8-1.7c0.7-0.6,1.4-0.1,2.1,0c0.8,0.3,1.6,0,2.4,0.2
				c1.5,1.3,2.7,2.8,3.9,4.4c0.7,0.9-0.4,0.6-0.8,0.8C130.9,298,130,298,129.1,298.1z"/>
			<path class="st351" d="M159.8,277.4c1.1,0.4,1.5,1.5,2.3,2.3c0.4,0.4,0.8,0.9,1.3,1.3c-0.8,1.1-1.5,2.3-2.5,3.1
				c-1.1-1.3-2.3-2.5-3.3-4C158.1,278.9,158.7,278,159.8,277.4z"/>
			<path class="st377" d="M94.8,293.7c-0.9-1.5-2.2-2.7-3.4-4c1.1-0.6,2.1-1.1,3.2-1.7c1.2,1,2.2,2.3,3.2,3.5c0.1,0.1,0.1,0.3,0,0.5
				C96.8,292.6,95.9,293.2,94.8,293.7z"/>
			<path class="st378" d="M117.2,296.4c-0.6-1.3-1.7-2.2-2.5-3.2c-1-1.3-2.2-2.5-3.3-3.7c-0.3-0.3-0.5-0.7-0.4-1.1
				c1.3,0.1,2.3,0.9,3.4,1.5c1.5,2.1,3.3,4,5,6c0.3,0.4,0.8,0.7,0.4,1.2C118.8,296.9,118,296.7,117.2,296.4z"/>
			<path class="st379" d="M119.9,291.8c1.5,2.1,3.5,3.8,4.8,6c-1,0-2-0.2-2.9-0.4c-1.1-1.2-2.1-2.4-3.2-3.6
				c-0.7-0.8-1.3-1.5-1.9-2.3c-0.2-0.2-0.6-0.5-0.2-0.9C117.7,290.8,118.9,291.1,119.9,291.8z"/>
			<path class="st364" d="M110.9,218c1-0.5,2-1,3.1-1.3c1.1,1.1,2,2.3,3,3.5c0.2,0.2,0.3,0.5,0.2,0.8c-0.8,0.8-1.9,1-2.9,1.3
				c-1.2-1.1-2.2-2.4-3.2-3.7C111,218.4,110.9,218.2,110.9,218z"/>
			<path class="st344" d="M104.4,221.8c0.8-0.6,1.7-1.3,2.7-1.7c0.2-0.1,0.3,0,0.5,0.1c0.9,0.9,1.7,1.9,2.5,2.9
				c0.2,0.3,0.4,0.6,0.3,1c-0.7,0.8-1.6,1.4-2.6,1.7C106.6,224.5,105.3,223.3,104.4,221.8z"/>
			<path class="st343" d="M131.8,298c0.7-0.2,0.9-0.4,0.3-1.1c-1.1-1.3-2.4-2.4-3.2-3.9c1.5-0.7,3.2-0.4,4.2,0.8
				c0.8,0.9,1.5,1.8,2.3,2.7c0.3,0.3,0.6,0.6,0.4,1.1C134.5,297.8,133.2,298.1,131.8,298z"/>
			<path class="st380" d="M141,296.4c-0.9,0.4-1.9,0.6-2.9,0.8c-0.9-1.2-1.9-2.4-2.9-3.5c-0.3-0.4-0.5-0.7-0.3-1.2
				c0.9-0.5,1.9-0.6,2.9-0.6c1,1.2,2,2.3,3,3.5C141,295.7,141.3,295.9,141,296.4z"/>
			<path class="st357" d="M151.9,296.2c-0.8,0.3-1.5,0.3-2.3,0c0.4-0.3,0.3-0.6,0-0.9c-1.8-1.9-3.4-3.9-5.1-5.9
				c-0.8-0.9-1.6-1.7-2.4-2.6c-0.1-0.4,0-0.7,0.2-1c0.6-0.6,1,0,1.3,0.3c1,1.1,2,2.3,3,3.4c1.6,1.9,3.3,3.8,4.9,5.7
				C151.8,295.4,152.2,295.7,151.9,296.2z"/>
			<path class="st381" d="M135,292.6c0.2,1.2,1.3,1.7,1.9,2.6c0.4,0.6,1.1,1.1,1.2,2c-0.8,0.1-1.5,0.3-2.3,0.4
				c-1-1.6-2.4-2.9-3.6-4.4c-0.3-0.3-0.7-0.2-1.1-0.2c-0.7,0-1.5,0-2.2,0c-0.8-0.1-1.7,0.2-2.5-0.2c0.3-0.4,0.8-0.3,1.3-0.4
				c2.1-0.1,4.2,0.1,6.2-0.2C134.3,292.3,134.7,292.3,135,292.6z"/>
			<path class="st382" d="M97.7,292c-0.4-0.9-1.1-1.5-1.7-2.2c-0.5-0.6-1-1.1-1.4-1.8c0.7-0.6,1.5-1,2.3-1.5c1.3,1,2.3,2.3,3.2,3.6
				c0.1,0.1,0,0.3-0.1,0.4C99.3,291.1,98.6,291.6,97.7,292z"/>
			<path class="st324" d="M156.9,293.5c-0.1,0.1-0.3,0.3-0.4,0.4c-0.6-0.2-0.9-0.7-1.3-1.1c-2.9-3.4-5.8-6.7-8.6-10
				c-0.4-0.4-0.8-0.9-1-1.4c0.1-0.4,0.3-0.5,0.7-0.6c0.4,0,0.6,0.3,0.9,0.5c3.3,3.7,6.4,7.5,9.7,11.2
				C157,292.8,157.2,293.1,156.9,293.5z"/>
			<path class="st360" d="M158.4,291.2c0,0.3-0.2,0.6-0.4,0.8c-1.2-0.9-2-2.1-2.9-3.2c-2.1-2.4-4.1-4.8-6.2-7.2
				c-0.4-0.5-1-0.9-1-1.6c0.2-0.3,0.5-0.4,0.8-0.3c0.4,0.1,0.6,0.3,0.8,0.6c2.8,3.3,5.7,6.6,8.5,9.9
				C158.3,290.5,158.6,290.7,158.4,291.2z"/>
			<path class="st363" d="M145.8,294.9c-1,0.4-2.1,0.7-3.1,1.1c-0.4-0.9-1.1-1.6-1.7-2.3c-0.5-0.7-1.3-1.2-1.3-2.2
				c0.8-0.8,1.9-0.7,2.7-1.2c0.1,0,0.2,0,0.3,0c0.6,1.6,1.5,3,2.9,4.1C145.8,294.5,145.9,294.7,145.8,294.9z"/>
			<path class="st383" d="M147.9,280.1c2.2,2.6,4.5,5.2,6.7,7.8c1.1,1.4,2.4,2.6,3.4,4.1c0,0.3-0.2,0.5-0.4,0.6
				c-0.5,0.1-0.6-0.3-0.8-0.5c-2.5-2.8-4.9-5.7-7.4-8.5c-0.7-0.8-1.4-1.5-2-2.3c-0.2-0.3-0.5-0.5-0.4-0.9
				C147.2,280,147.5,279.8,147.9,280.1z"/>
			<path class="st384" d="M145.6,281.3c1,1.2,2.1,2.3,3.1,3.5c1.6,1.8,3.1,3.6,4.6,5.4c1.1,1.2,2.1,2.5,3.2,3.7
				c-0.2,0.3-0.4,0.5-0.6,0.6c-1.2-0.8-2-2.1-2.9-3.2c-2.4-2.8-4.9-5.7-7.3-8.5c-0.3-0.3-0.6-0.6-0.7-1
				C145,281.4,145.2,281.2,145.6,281.3z"/>
			<path class="st359" d="M165.7,277.6c-1-0.7-1.6-1.7-2.3-2.6c-0.4-0.4-0.7-0.9-1.3-1.2c-0.1-1,0.4-1.7,1.1-2.3
				c1.2,0.9,2,2.2,3.1,3.3c0.2,0.2,0.4,0.5,0.7,0.5C166.6,276.1,166.4,276.9,165.7,277.6z"/>
			<path class="st385" d="M100,290.5c-0.6-1.4-1.9-2.3-2.8-3.5c-0.1-0.2-0.2-0.3-0.4-0.5c0.5-0.4,1.1-0.8,1.6-1.2
				c0.4-0.2,0.6,0.1,0.8,0.3c1,1.1,2.2,1.9,3.2,2.9c0.1,0.1,0.1,0.2,0,0.3C101.6,289.2,100.9,290.1,100,290.5z"/>
			<path class="st327" d="M158.4,291.2c-0.6-1.3-1.8-2.3-2.7-3.4c-2.1-2.5-4.2-4.9-6.3-7.4c-0.2-0.2-0.4-0.4-0.6-0.5
				c0.3-0.7,0.8-0.5,1.3-0.2c0.2,0.9,1,1.2,1.5,1.8c2.2,2.7,4.5,5.4,6.8,8c0.1,0.2,0.3,0.3,0.5,0.4
				C158.8,290.4,158.7,290.8,158.4,291.2z"/>
			<path class="st386" d="M157.7,280c0.8,1,1.7,1.9,2.5,2.9c0.3,0.3,0.6,0.7,0.6,1.2c-0.6,0.7-1.3,1.4-1.9,2.1
				c-0.5-1.8-1.5-3.3-2.7-4.6C156.4,280.7,157,280.3,157.7,280z"/>
			<path class="st387" d="M145,281.8c2,2.4,4.1,4.7,6.1,7.1c1.6,1.9,3.3,3.6,4.7,5.7c-0.1,0.2-0.4,0.3-0.6,0.4
				c-1.3-1.1-2.3-2.5-3.4-3.8c-2.5-2.9-5.1-5.8-7.5-8.8C144.4,282,144.5,281.7,145,281.8z"/>
			<path class="st388" d="M102.5,288.8c0-0.1,0-0.1,0-0.2c0.3-0.7,0.8-1,1.4-1.4c0.2-0.1,0.4-0.2,0.6,0c1.4,1.6,2.7,3.2,4.1,4.8
				c0.2,0.2,0.6,0.5,0.3,0.9C106.5,291.8,104.5,290.3,102.5,288.8z"/>
			<path class="st371" d="M144.4,282.4c0.8,0.2,1.1,1,1.5,1.5c3.1,3.5,6.1,7,9.1,10.5c0.1,0.2,0.2,0.3,0.2,0.6
				c-0.2,0.2-0.4,0.3-0.6,0.4c-1.4-1.2-2.4-2.7-3.6-4c-2-2.4-4-4.7-6.1-7.1c-0.4-0.4-0.8-0.9-0.9-1.5
				C144.1,282.5,144.1,282.3,144.4,282.4z"/>
			<path class="st389" d="M147.1,280.5c1.8,2.1,3.6,4.3,5.4,6.4c1.7,1.9,3.4,3.9,5,5.8c-0.1,0.4-0.3,0.6-0.6,0.8
				c-0.1-1.1-1.1-1.7-1.8-2.5c-2.4-2.9-4.9-5.8-7.4-8.6c-0.5-0.5-0.9-1.2-1.5-1.5C146.3,280.4,146.6,280.3,147.1,280.5z"/>
			<path class="st390" d="M144.1,282.8c1.1,1.8,2.7,3.2,4,4.8c2.1,2.5,4.2,4.9,6.3,7.4c0.1,0.1,0.1,0.3,0.1,0.4
				c-0.2,0.1-0.4,0.2-0.6,0.3c-0.7-0.2-1-0.9-1.4-1.4c-3-3.4-5.9-6.8-8.8-10.2c-0.1-0.2-0.3-0.3-0.3-0.5
				C143.5,283,143.7,282.8,144.1,282.8z"/>
			<path class="st391" d="M116.4,290.8c1.5,1.8,3.1,3.6,4.6,5.3c0.4,0.4,0.5,0.9,0.8,1.3c-0.7,0-1.4-0.2-2.1-0.4
				c-0.2-1.1-1.1-1.6-1.7-2.4c-1.2-1.6-2.8-2.9-3.7-4.7C115.2,289.7,115.8,290.1,116.4,290.8z"/>
			<path class="st363" d="M143.6,283.4c1.5,1.7,3,3.4,4.5,5.1c1.5,1.8,3,3.6,4.6,5.3c0.5,0.6,0.9,1.1,1.4,1.7
				c-0.2,0.2-0.6,0.3-0.8,0.4c-2.2-2.5-4.4-5.1-6.6-7.7c-1.2-1.3-2.3-2.7-3.5-4C142.9,283.8,143.1,283.5,143.6,283.4z"/>
			<path class="st392" d="M104.4,221.8c1.2,1.3,2.4,2.5,3.3,3.9c-0.4,0.5-0.7,1.1-1.5,1.1c-1.3-1.2-2.5-2.4-3.8-3.6
				C103.1,222.6,103.8,222.2,104.4,221.8z"/>
			<path class="st393" d="M110.3,224.1c-0.1-0.8-0.7-1.2-1.2-1.7c-0.7-0.7-1.3-1.5-1.9-2.2c0.5-0.5,1.1-0.7,1.7-1
				c0.2-0.2,0.5-0.1,0.6,0.1c1,1,1.9,2.1,2.8,3.2c0.2,0.2,0.2,0.4,0.2,0.7C111.9,223.6,111.2,224.1,110.3,224.1z"/>
			<path class="st394" d="M117.2,220.9c-0.7-1.3-1.8-2.2-2.7-3.4c-0.2-0.3-0.5-0.4-0.4-0.8c0.5-0.4,1.1-0.5,1.7-0.6
				c1.2,0.7,1.8,1.9,2.7,2.9c0.3,0.4,0.8,0.7,0.9,1.2C118.7,220.9,118,221.2,117.2,220.9z"/>
			<path class="st395" d="M112.4,223c-1.1-1.4-2.1-2.8-3.5-3.9c0.6-0.5,1.3-0.8,2.1-1c1.1,1.4,2.4,2.6,3.3,4.1
				C113.8,222.7,113.2,223.1,112.4,223z"/>
			<path class="st396" d="M139.8,291.6c0.7,1.3,1.8,2.3,2.7,3.4c0.2,0.3,0.6,0.5,0.3,1c-0.5,0.2-1.1,0.4-1.7,0.4
				c-0.6-1.3-1.7-2.1-2.5-3.2c-0.3-0.4-0.7-0.6-0.6-1.1C138.4,291.4,139,291.2,139.8,291.6z"/>
			<path class="st397" d="M151.9,296.2c-0.2-0.9-1-1.3-1.5-1.9c-2.1-2.6-4.4-5.2-6.6-7.7c-0.3-0.4-0.5-1.1-1.3-0.8
				c-0.3-0.5,0-0.8,0.3-1.1c0.5-0.1,0.7,0.3,1,0.6c2.8,3.3,5.7,6.6,8.5,9.9c0.2,0.3,0.6,0.4,0.4,0.9
				C152.5,296.1,152.2,296.2,151.9,296.2z"/>
			<path class="st398" d="M142.3,286.8c1.1,0.9,1.9,2,2.8,3c0.7,0.7,1.2,1.5,1.9,2.2c0.6,0.6,1.4,1.3,1.8,2.2
				c0.3,0.6,0.9,0.7,1.2,1.2c0.4,0.6,0.3,0.9-0.5,0.8c0,0-0.1,0-0.1,0l-0.1,0c-1.6-1.7-3.1-3.4-4.6-5.2c-0.5-0.6-1-1.2-1.6-1.8
				c-0.5-0.5-0.9-1-1.2-1.7C142.1,287.2,142.1,287,142.3,286.8z"/>
			<path class="st391" d="M142.2,287.6c0.9,1.3,2.1,2.5,3.2,3.8c1,1.3,2,2.6,3.3,3.7c0.4,0.3,0.4,0.8,0.7,1.2c-0.5,0-1-0.1-1.5-0.4
				c-1.7-1.8-3.3-3.8-4.9-5.6c-0.2-0.2-0.4-0.5-0.7-0.5C142,289,141.5,288.3,142.2,287.6z"/>
			<path class="st399" d="M152.7,296c-2-2.3-4-4.6-6-7c-1-1.2-2-2.4-3.1-3.6c-0.2-0.3-0.5-0.5-0.7-0.7c-0.1-0.2-0.2-0.4,0.2-0.4
				c1,0.3,1.3,1.3,1.9,1.9c2.1,2.3,4.1,4.7,6.1,7.1c0.7,0.8,1.7,1.5,2,2.6C153,295.9,152.9,296,152.7,296z"/>
			<path class="st400" d="M105.9,285.7c2.3,2.7,4.6,5.4,6.9,8c0.3,0.3,0.8,0.6,0.4,1.2c-0.4,0-0.7-0.1-1-0.4
				c-0.2-1.1-1.1-1.7-1.7-2.4c-1.4-1.7-2.9-3.4-4.3-5C105.7,286.7,105.5,286.3,105.9,285.7z"/>
			<path class="st401" d="M145.8,294.9c-1.5-1.2-2.9-2.5-3.1-4.5c0.3-0.1,0.5,0,0.6,0.2c1.2,1.4,2.5,2.7,3.6,4.2
				c0.1,0.2,0.3,0.4,0.1,0.6c0,0-0.1,0-0.1,0c0,0-0.1,0-0.1,0C146.4,295.3,146.2,295,145.8,294.9z"/>
			<path class="st402" d="M146.9,295.4c0.3-0.4-0.2-0.5-0.3-0.7c-1.2-1.5-2.3-3.1-3.8-4.3c-0.1,0-0.1,0-0.2,0
				c-0.2-0.2-0.2-0.4-0.1-0.6c0-0.1,0.1-0.5,0.3-0.3c1.8,2,3.5,4.1,5.3,6.2c0,0-0.1,0.1-0.1,0.1
				C147.5,295.8,147.1,295.6,146.9,295.4z"/>
			<path class="st320" d="M77.9,270.7c-0.5,0-0.7-0.5-1-0.9c-1.9-2.2-3.8-4.3-5.7-6.5c-0.4-1.9-0.5-3.9-0.4-5.8
				c-0.1-0.2-0.2-0.5,0.1-0.6c0.3-0.1,0.6,0.2,0.8,0.4c1,1.2,2.1,2.4,3.1,3.6c0.5,0.6,1.2,1.1,1.5,1.8
				C76.7,265.4,77.2,268.1,77.9,270.7z"/>
			<path class="st336" d="M76.6,246.4c-0.2,1.7-0.4,3.5-0.7,5.2c-0.2,0.2-0.5,0.1-0.6-0.1c-1.4-1.5-2.9-2.9-3.9-4.7
				c0.2-1.8,0.6-3.5,1.1-5.2c0.5-0.3,0.8,0.1,1,0.4c1,1.1,2,2.2,2.9,3.4C76.7,245.7,76.8,246,76.6,246.4z"/>
			<path class="st313" d="M71.4,246.8c1.1,1.3,2.2,2.5,3.3,3.8c0.4,0.4,0.6,0.9,1.3,1c-0.1,2-0.1,4-0.2,6.1c-0.3,0.1-0.5,0-0.6-0.2
				c-1.5-1.7-3.1-3.3-4.3-5.2C70.9,250.5,71,248.6,71.4,246.8z"/>
			<path class="st397" d="M79.4,236.8c-0.6,1.7-1.1,3.4-1.7,5c-1.6-1.2-2.8-2.8-3.9-4.4c0.5-1.6,1-3.2,1.8-4.6
				c0.3-0.1,0.5,0,0.6,0.2C77.3,234.2,78.5,235.4,79.4,236.8z"/>
			<path class="st403" d="M83.5,228.5c-0.8,1.5-1.7,3.1-2.5,4.6c-1.3-1.3-2.5-2.7-3.5-4.2c0.7-1.5,1.5-2.9,2.5-4.2
				c0.3-0.1,0.5,0,0.6,0.2C81.6,226,82.8,227.1,83.5,228.5z"/>
			<path class="st352" d="M70.8,252.3c1.2,1.3,2.4,2.6,3.5,4c0.5,0.5,0.9,1.1,1.5,1.5c0.3,1.7,0.3,3.3,0.4,5
				c-1.7-1.4-2.9-3.3-4.4-4.8c-0.2-0.2-0.4-0.6-0.7-0.8c-0.6-0.4-0.3,0.2-0.4,0.4c-0.3-1.2-0.1-2.5,0-3.7
				C70.8,253.3,70.8,252.8,70.8,252.3z"/>
			<path class="st404" d="M77.5,228.9c1.3,1.3,2.6,2.6,3.5,4.2c-0.6,1.3-1.1,2.5-1.7,3.8c-0.9-0.8-1.6-1.8-2.4-2.7
				c-0.4-0.5-0.9-0.9-1.4-1.3C76,231.4,76.7,230.1,77.5,228.9z"/>
			<path class="st362" d="M73.7,237.4c1.4,1.4,2.6,2.9,3.9,4.4c-0.4,1.5-0.7,3.1-1.1,4.6c0.1-0.8-0.7-1.2-1.1-1.7
				c-1-1.1-1.7-2.4-3.1-3.1C72.8,240.2,73.2,238.8,73.7,237.4z"/>
			<path class="st365" d="M83.3,219.9c0.8,0.1,1,1,1.5,1.5c0.7,0.7,1.4,1.5,2,2.3c-0.7,1.1-1.5,2.2-2.3,3.2c-0.7,0-1-0.7-1.4-1.1
				c-0.8-0.9-1.6-1.6-2.2-2.6C81.7,221.9,82.5,220.9,83.3,219.9z"/>
			<path class="st405" d="M81,223c1.1,0.7,1.7,1.9,2.6,2.8c0.3,0.3,0.7,0.7,1,1c-0.2,0.6-0.6,1.1-1,1.7c-0.9-0.7-1.6-1.7-2.3-2.6
				c-0.4-0.4-0.9-0.8-1.3-1.2C80.2,224.1,80.6,223.5,81,223z"/>
			<path class="st406" d="M87.1,250c0.1-0.8,0.3-1.5,0.4-2.3c0.3-0.6,0.7-0.3,1.1-0.1c3.5,1.9,6.9,3.8,10.4,5.7
				c4.1,2.3,8.3,4.5,12.4,6.8c2,1.1,4.1,2.1,6,3.4c0,0.8,0.1,1.5-0.4,2.2c-0.4,0.3-0.8,0.1-1.2-0.1c-3.6-1.9-7.2-3.9-10.8-5.9
				c-4.7-2.6-9.5-5.2-14.2-7.8C89.6,251.3,88.4,250.6,87.1,250z"/>
			<path class="st389" d="M88.1,245.4c0.1-0.7,0.3-1.4,0.6-2.1c0.5-0.2,0.8,0.2,1.1,0.4c5.7,3.1,11.4,6.2,17,9.3
				c3.3,1.8,6.5,3.6,9.8,5.4c0.8,0.4,1.3,1,1.2,2c0,0.5,0.1,1.1-0.3,1.6c-6.1-3.6-12.3-6.8-18.5-10.2c-3.4-1.9-6.9-3.8-10.3-5.7
				C88.5,245.8,88.2,245.7,88.1,245.4z"/>
			<path class="st407" d="M88.1,245.4c5.7,3.1,11.4,6.2,17.1,9.4c3.2,1.8,6.5,3.5,9.7,5.3c0.7,0.4,1.4,0.8,2.1,1.1
				c0.3,0.2,0.5,0.4,0.4,0.8c0.4,0.6,0.4,1-0.2,1.5c-1.1-0.2-1.9-0.8-2.8-1.3c-4.1-2.2-8.2-4.5-12.2-6.7c-4.6-2.5-9.1-5-13.7-7.5
				c-0.3-0.2-0.6-0.4-0.9-0.1C87.6,246.9,87.8,246.1,88.1,245.4z"/>
			<path class="st364" d="M117.6,260.2c0.1-0.7-0.1-1.1-0.8-1.5c-3.6-1.9-7.1-3.8-10.6-5.8c-5.8-3.2-11.7-6.5-17.5-9.7
				c0.1-0.7,0.3-1.3,0.6-1.9c0.3-0.1,0.5,0,0.8,0.1c5.2,2.8,10.4,5.7,15.5,8.5c3.8,2.1,7.6,4.2,11.4,6.3c0.4,0.2,0.8,0.3,0.9,0.8
				c0.2,0.7,0.1,1.5,0.1,2.2C118.1,259.7,118.1,260.2,117.6,260.2z"/>
			<path class="st363" d="M86.9,259.8c0-0.2,0-0.4,0-0.6c-0.2-0.4-0.1-0.9-0.1-1.3c0.4-0.6,0.9-0.2,1.4,0c2,1,3.9,2.1,5.8,3.1
				c4.1,2.2,8.2,4.5,12.3,6.8c2.8,1.5,5.6,3,8.3,4.6c0.2,0.9-0.2,1.6-0.8,2.2c-0.6,0-1-0.4-1.5-0.7c-6.3-3.4-12.5-6.9-18.8-10.3
				c-2-1.1-4-2.2-6-3.3C87.2,260.1,87.1,260,86.9,259.8z"/>
			<path class="st311" d="M91.9,235.9c0.5,1,1.5,1.1,2.3,1.6c6.9,3.8,13.9,7.6,20.8,11.4c0.8,0.4,1.6,0.9,2.4,1.3
				c0.8,0.3,0.4,1,0.5,1.5c-0.3,1-0.4,1.1-1.3,0.6c-5.8-3.2-11.7-6.4-17.6-9.7c-2.5-1.4-4.9-2.7-7.4-4.1c-0.3-0.2-0.8-0.2-0.7-0.7
				C91,237.1,91.4,236.5,91.9,235.9z"/>
			<path class="st366" d="M86.9,259.8c2,0.8,3.8,2,5.7,3c2.6,1.4,5.2,2.9,7.8,4.3c4.4,2.4,8.8,4.9,13.2,7.3c0.1,0.7-0.1,1.4-0.8,1.8
				c-2.3-1-4.5-2.4-6.7-3.6c-4.7-2.6-9.4-5.2-14.2-7.8c-1.1-0.6-2.3-1.2-3.4-1.9c-0.4-0.2-0.8-0.5-1.4-0.2c-0.3-0.5-0.2-1-0.2-1.5
				c-0.2-0.3,0-0.7-0.2-1C86.9,260.1,86.9,259.9,86.9,259.8z"/>
			<path class="st408" d="M87.1,250c1-0.1,1.6,0.5,2.4,0.9c3.4,1.8,6.8,3.7,10.1,5.6c4.8,2.6,9.5,5.3,14.3,7.9
				c0.9,0.5,1.8,1.1,2.8,1.3c0.2,0.8,0.1,1.5-0.5,2.1c-8.4-4.8-16.9-9.3-25.3-13.9c-1.3-0.7-2.7-1.5-4-2.2
				C87,251.1,87,250.5,87.1,250z"/>
			<path class="st355" d="M86.9,251.6c0.6-0.2,1.1,0.2,1.5,0.5c3.3,1.8,6.6,3.6,9.9,5.5c4.7,2.6,9.4,5.2,14.1,7.8
				c1,0.5,2,1.1,2.9,1.6c0.3,0.2,0.7,0.3,0.7,0.8c0.3,0.6,0.1,1.1-0.3,1.5c-2.7-1.4-5.4-2.9-8-4.4c-4.8-2.6-9.6-5.2-14.4-7.9
				c-1.7-1-3.5-1.9-5.2-2.8c-1-0.5-1-0.5-1.2,0.6c-0.1,0.1-0.2,0.3-0.4,0.2C86.6,253.9,86.8,252.8,86.9,251.6z"/>
			<path class="st397" d="M87.3,262.7c0-0.7,0.3-0.6,0.8-0.4c1.7,0.9,3.4,1.8,5,2.7c2.6,1.4,5.1,2.8,7.6,4.2
				c3.9,2.1,7.8,4.2,11.7,6.4c0.1,0.1,0.3,0.2,0.4,0.3c0,0.7-0.1,1.3-0.8,1.6c-1.9-0.7-3.5-1.8-5.2-2.8c-4.8-2.6-9.5-5.2-14.3-7.8
				c-1.7-0.9-3.4-1.7-5-2.9C87.4,263.7,87.2,263.2,87.3,262.7z"/>
			<path class="st409" d="M117.8,256.9c-1.9-0.8-3.7-1.9-5.5-2.9c-2.5-1.3-4.9-2.7-7.3-4c-5.2-2.9-10.4-5.7-15.6-8.6
				c0-0.5,0.3-0.8,0.5-1.2c0.6-0.4,1.1,0,1.5,0.3c2.9,1.6,5.8,3.2,8.7,4.8c4.9,2.7,9.8,5.4,14.7,8.1c1.1,0.6,2.3,1,3.2,1.8
				C118.1,255.8,118.3,256.3,117.8,256.9z"/>
			<path class="st336" d="M88.7,268.8c-0.5-0.8-0.6-1.8-0.8-2.7c0.4-0.3,0.7,0,1.1,0.2c3.8,2.1,7.5,4.1,11.3,6.2
				c3.3,1.8,6.7,3.6,10,5.5c0.4,0.2,0.9,0.4,1.1,0.9c-0.1,0.8-0.5,1.4-1.2,1.8c-4.8-2.7-9.6-5.3-14.4-7.9
				C93.4,271.4,91,270.1,88.7,268.8z"/>
			<path class="st410" d="M117.8,255c-1.6-0.3-2.8-1.3-4.1-2c-2.6-1.3-5-2.8-7.6-4.2c-4.9-2.7-9.7-5.4-14.6-8
				c-0.5-0.3-1.1-0.7-1.7-0.7c0.1-0.5,0.4-1,0.6-1.5c0.4-0.3,0.7,0,1.1,0.2c3.7,2.1,7.5,4.1,11.2,6.2c4.1,2.3,8.3,4.5,12.4,6.8
				c1,0.6,2.1,0.9,2.8,1.8C118.1,254.1,118.2,254.6,117.8,255z"/>
			<path class="st365" d="M86.7,255c0.1-0.1,0.1-0.1,0.2-0.2c1.1,0,1.9,0.8,2.8,1.2c6.5,3.6,13.1,7.2,19.6,10.7
				c2.1,1.1,4.2,2.1,6.2,3.5c0.2,0.7,0,1.3-0.6,1.7c-2.2-1.1-4.3-2.4-6.5-3.5c-4.2-2.3-8.3-4.5-12.4-6.8c-2.9-1.6-5.7-3.1-8.6-4.7
				c-0.2-0.1-0.4-0.3-0.6-0.5C86.7,256,86.7,255.5,86.7,255z"/>
			<path class="st411" d="M111.1,278.9c-0.6-0.8-1.5-1-2.3-1.5c-4.8-2.7-9.6-5.2-14.3-7.8c-1.8-1-3.6-2-5.5-3
				c-0.3-0.2-0.7-0.3-1.1-0.4c-0.2-0.6-0.4-1.2-0.4-1.9c2.2,0.9,4.1,2.2,6.2,3.2c3.3,1.7,6.5,3.6,9.8,5.4c2.8,1.6,5.8,3,8.5,4.8
				C112,278.2,111.9,278.7,111.1,278.9z"/>
			<path class="st313" d="M88.7,268.8c1.4,0.1,2.5,1.1,3.7,1.8c2.7,1.4,5.3,2.9,7.9,4.3c3.1,1.7,6.2,3.4,9.3,5.1
				c0.2,0.1,0.4,0.2,0.4,0.5c0,0.7-0.3,1.2-1,1.4c-3.5-1.9-7-3.8-10.5-5.8c-2.5-1.3-5-2.7-7.4-4.1c-0.4-0.2-0.8-0.4-1.3-0.3
				C89.3,270.8,88.9,269.8,88.7,268.8z"/>
			<path class="st320" d="M91.7,275.7c-0.6-0.8-1-1.8-1.4-2.7c0.5-0.4,0.9,0,1.3,0.2c2.6,1.4,5.2,2.8,7.8,4.2c2.7,1.5,5.4,3,8.2,4.5
				c0.3,0.2,0.7,0.3,0.9,0.7c0,0.9-0.5,1.4-1.3,1.6c-3.4-1.8-6.7-3.6-10-5.5C95.3,277.7,93.5,276.7,91.7,275.7z"/>
			<path class="st412" d="M86.7,256.5c2.1,0.9,4,2.1,6.1,3.2c2.5,1.3,4.9,2.7,7.4,4.1c4.6,2.5,9.2,5,13.8,7.5
				c0.3,0.2,0.6,0.4,0.7,0.7c0.1,0.2,0,0.3-0.2,0.4c-0.6,0.1-1-0.4-1.5-0.7c-5.7-3.1-11.4-6.2-17.1-9.3c-2.6-1.4-5.2-2.8-7.9-4.2
				c-0.4-0.2-0.7-0.4-1.2-0.4c-0.2-0.2,0-0.4-0.2-0.6C86.7,256.9,86.7,256.7,86.7,256.5z"/>
			<path class="st413" d="M108.4,282.6c-5.2-2.8-10.4-5.7-15.6-8.5c-0.8-0.4-1.6-1-2.6-1.1c-0.1-0.4-0.3-0.8-0.4-1.3
				c0.1-0.4,0.2-0.6,0.7-0.3c2.6,1.5,5.3,2.9,8,4.3c2.7,1.5,5.5,3,8.2,4.5c0.8,0.5,1.8,0.8,2.4,1.5
				C109.2,282.3,108.9,282.6,108.4,282.6z"/>
			<path class="st414" d="M117.8,253.5c-6.5-3.6-12.9-7.1-19.5-10.7c-2.6-1.4-5.2-3-7.9-4.2c0.1-0.3,0.3-0.6,0.4-0.8
				c2.4,1.4,4.8,2.7,7.3,4c5.6,3.1,11.3,6.2,16.9,9.3c0.6,0.4,1.3,0.7,1.9,1.1c0.5,0.3,0.7,0.1,0.7-0.4
				C118.4,252.3,118.2,252.9,117.8,253.5z"/>
			<path class="st415" d="M91.7,275.7c0.3-0.4,0.5-0.1,0.7,0c4.7,2.6,9.4,5.2,14.1,7.8c0.3,0.1,0.6,0.3,0.7,0.6c0,0.5-0.2,1-0.8,1.1
				c-0.2-0.5-0.7-0.6-1.1-0.9c-0.2,0-0.3,0-0.4-0.2c-0.4-0.4-1-0.5-1.5-0.8c-0.3,0-0.6-0.1-0.8-0.4c-0.4-0.4-1-0.5-1.5-0.8
				c-0.3,0-0.6-0.1-0.8-0.4c-0.4-0.4-1-0.5-1.5-0.8c-0.2,0-0.3,0-0.4-0.2c-0.6-0.4-1.3-0.6-1.9-1c-0.2,0-0.3,0-0.4-0.2
				c-0.4-0.4-1-0.5-1.5-0.8c-0.3,0-0.6-0.1-0.8-0.4c-0.3-0.2-0.6-0.2-0.9-0.2C92.4,277.2,91.9,276.5,91.7,275.7z"/>
			<path class="st416" d="M104.4,287.2c-0.1,0.1-0.3,0.1-0.4,0.2c-2.2-1.5-4.5-2.8-6.9-3.8c-0.9-1-1.8-2.1-2.5-3.3
				c0.3-0.5,0.7-0.1,1,0c3,1.6,6,3.3,9.1,4.9C105.9,286,104.7,286.6,104.4,287.2z"/>
			<path class="st417" d="M97.1,283.6c0.3-0.3,0.6-0.1,0.8,0c1.8,1,3.7,2,5.5,3c0.3,0.2,0.6,0.4,0.6,0.8c-0.5,0.4-1,0.8-1.5,1.3
				c-1.2-0.6-2.1-1.6-3-2.5c-0.3-0.3-0.7-0.6-1-0.9C98.1,284.7,97.6,284.2,97.1,283.6z"/>
			<path class="st365" d="M86.7,257.1c0.2,0.2,0.2,0.4,0.2,0.6c0,0.5,0,1,0,1.5C86.5,258.5,86.7,257.8,86.7,257.1z"/>
			<path class="st400" d="M92.9,277.8c0.4-0.5,0.6-0.2,0.9,0.2c-0.2,0-0.5,0-0.6,0.2C93,278.1,92.9,278,92.9,277.8z"/>
			<path class="st363" d="M86.9,260.2c0.3,0.3,0.1,0.7,0.2,1C86.8,261,86.9,260.6,86.9,260.2z"/>
			<path class="st370" d="M106.3,285.1c0.3-0.3,0.6-0.7,0.8-1c0.5-0.4,1-0.9,1.3-1.5c0.3-0.2,0.5-0.4,0.6-0.8c0.5-0.4,0.7-0.8,1-1.3
				c0.4-0.5,0.8-1,1.1-1.6c0.4-0.3,0.6-0.8,0.8-1.3c0.5-0.4,0.5-1,0.8-1.5c0.5-0.4,0.5-1.1,0.8-1.7c0.5-0.6,0.8-1.3,0.8-2
				c0.1-0.1,0.2-0.3,0.2-0.4c0.4-0.5,0.5-1.1,0.7-1.7c0-0.4,0.1-0.8,0.4-1c0.3-0.4,0.4-0.9,0.4-1.4c0.4-0.6,0.3-1.4,0.6-2.1
				c0.1-0.8,0.3-1.5,0.4-2.3c0.3-0.5,0.2-1,0.2-1.5c0.4-0.5,0.1-1.1,0.2-1.7c0.4-1.1,0.1-2.2,0.2-3.3c0-0.6,0-1.3,0-1.9
				c0-0.5,0-1,0-1.5c0-0.6,0.2-1.2-0.2-1.7c-0.1-0.6,0.2-1.1-0.2-1.7c-0.3-3.6-1.4-7.1-2.7-10.4c-1.9-4.7-4.6-8.9-8-12.6
				c-0.1-0.1-0.2-0.3-0.3-0.4c0.6-0.3,0.8-1,1.5-1.1c0.8-0.5,1.7-1.1,2.5-1.6c0.7-0.4,1.4-0.7,2.1-1.1c0.6-0.3,1.3-0.6,1.9-0.9
				c1-0.4,2-0.8,2.9-1.2c0.7-0.2,1.4-0.4,2.1-0.6c1.5-0.3,3.1-0.6,4.6-0.9c1.7-0.2,3.3-0.4,5-0.4c6.5,0,12.6,1.5,18.3,4.6
				c8.1,4.5,13.8,11.1,17.2,19.7c1.9,5.1,2.4,10.3,2.2,15.7c0,0.8-0.3,1.5-0.2,2.3c-0.5,2-0.8,3.9-1.4,5.9c-0.6,1.5-1.1,2.9-1.7,4.4
				c-0.4,0.8-0.7,1.5-1.1,2.3c-0.8,1.2-1.5,2.4-2.3,3.6c-0.7,0.9-1.4,1.8-2.1,2.7c-0.5,0.4-1,0.9-1.5,1.5c-0.6-0.1-0.9-0.6-1.4-0.8
				c-1.5-0.8-3.1-1.2-4.9-1c-0.4,0-0.9-0.1-1.3,0.2c-0.3,0-0.6,0.1-0.8,0.2c-0.3,0-0.6,0.1-0.8,0.4c-0.3,0.1-0.6,0.2-0.9,0.4
				c-0.3,0-0.5,0.2-0.6,0.4c-0.2,0.1-0.4,0.3-0.6,0.4c-0.3,0.1-0.5,0.3-0.6,0.6c-0.2,0.1-0.2,0.2-0.3,0.4c-0.2,0.2-0.5,0.4-0.6,0.7
				c-0.2,0.3-0.4,0.5-0.4,0.8c-0.2,0.1-0.2,0.2-0.2,0.4c-0.2,0.3-0.4,0.7-0.4,1c-0.1,0.3-0.3,0.7-0.2,1c0,0.3,0,0.5-0.1,0.8
				c-0.2,0.7,0,1.4,0.2,2.1c0,0.2,0,0.4,0.1,0.6c-0.7,0.8-1.9,0.7-2.8,1.2c-0.7,0.1-1.3,0.2-1.9,0.5c-1,0.2-2,0.4-2.9,0.6
				c-2.8,0.4-5.7,0.2-8.6,0.3c-0.7-0.1-1.4-0.1-2.1-0.2c-1.5-0.3-2.9-0.6-4.4-0.8c-1.2-0.4-2.4-0.7-3.6-1.1
				c-0.7-0.3-1.4-0.6-2.1-0.8c-1.1-0.6-2.2-1.1-3.3-1.7c-1.5-1-3-2-4.6-3C106.3,285.3,106.2,285.2,106.3,285.1
				C106.3,285.1,106.3,285.1,106.3,285.1z"/>
			<path class="st400" d="M96.5,279.5c0.7,0.2,1.4,0.4,1.9,1C97.7,280.3,97,280.1,96.5,279.5z"/>
			<path class="st400" d="M103.4,283.2c0.6,0.2,1.1,0.3,1.5,0.8C104.3,283.9,103.7,283.7,103.4,283.2z"/>
			<path class="st400" d="M101.1,282c0.6,0.2,1.1,0.3,1.5,0.8C102,282.6,101.4,282.5,101.1,282z"/>
			<path class="st400" d="M98.8,280.7c0.6,0.2,1.1,0.3,1.5,0.8C99.7,281.4,99.1,281.2,98.8,280.7z"/>
			<path class="st400" d="M94.6,278.4c0.6,0.2,1.1,0.3,1.5,0.8C95.5,279.1,94.9,278.9,94.6,278.4z"/>
			<path class="st400" d="M106.3,285.1c0,0.1,0,0.1,0,0.2c-0.1,0-0.2,0-0.2,0c0-0.6-0.7-0.6-0.8-1
				C105.8,284.4,106.3,284.5,106.3,285.1z"/>
			<path class="st418" d="M115.7,269.2c0,0.4-0.1,0.7-0.4,1c-1.8-0.7-3.4-1.8-5.1-2.7c-2.6-1.4-5.2-2.8-7.7-4.3
				c-5.2-2.8-10.4-5.7-15.6-8.5c0-0.2,0-0.4,0-0.6c-0.1-0.9,0.3-0.9,1-0.6c4.3,2.4,8.6,4.7,13,7.1c4.8,2.6,9.6,5.3,14.4,7.9
				C115.5,268.8,115.7,268.9,115.7,269.2z"/>
		</g>
	</g>
	<g>
		<path d="M230.1,280l-15-42.2h-0.2V280h-7v-48h12l13.6,40.1h0.2l13.1-40.1h12.2v48h-7.3v-42.2h-0.2c-0.9,3.6-5.7,17.7-14.3,42.2
			H230.1z"/>
		<path d="M292.2,231.3c14.5,0.9,22.3,9.3,23.4,25.1c-0.8,15.5-8.7,23.6-23.7,24.4c-15-0.8-22.8-8.9-23.4-24.4
			C269.3,240.4,277.2,232.1,292.2,231.3z M291.7,274.9c10-0.5,15.2-6.6,15.7-18.5c-0.5-11.7-5.6-18-15.5-18.8
			c-9.8,0.8-15.1,7-15.7,18.8C276.7,267.9,281.8,274.1,291.7,274.9z"/>
		<path d="M345.6,280h-21.8v-48h20.6c10.2,0.3,15.5,4.1,16.2,11.5c-0.2,6.1-3.4,9.8-9.8,11.2v0.2c7.3,1.3,11.3,5.1,12,11.5
			C362.7,275.5,357,280,345.6,280z M343,237.6h-12v14.8h12c6.4-0.2,9.7-2.7,9.8-7.7C352.7,239.9,349.4,237.6,343,237.6z M344,258.2
			h-12.9v16.4h13.4c6.9,0,10.3-2.9,10.3-8.7C354.4,261,350.8,258.4,344,258.2z"/>
		<path d="M371.8,280v-48h7.3v48H371.8z"/>
		<path d="M389.9,259.9V232h7.5v27.9c0,10.2,4.3,15.2,12.9,15c8.6,0,12.9-5.1,12.9-15.2V232h7.5v27.7c0,14.1-6.9,21.1-20.6,21.1
			C396.6,280.7,389.9,273.8,389.9,259.9z"/>
		<path d="M438.6,265.5l7.5-1.6c1.1,7.7,5.5,11.5,13.4,11.5c6.9-0.2,10.5-2.9,10.8-8.2c0.5-3.6-2.7-6.3-9.6-8.2
			c-0.6-0.3-2-0.7-4-1.2c-0.6-0.2-1.1-0.2-1.4-0.2c-10.5-2.2-15.4-6.6-14.8-13.4c0.6-8.1,6.3-12.4,17.1-12.9
			c10.9-0.2,17.3,4.2,19.2,13.1l-7.3,1.6c-1.1-5.8-4.9-8.7-11.5-8.7c-6.1,0.2-9.4,2.4-9.8,6.8c-0.5,3.6,3.3,6.2,11.2,7.7
			c3.1,0.8,5.5,1.4,7,1.9c8,2.5,11.9,6.9,11.7,13.1c-0.3,8.9-6.5,13.5-18.5,13.8C447.7,281,440.7,276,438.6,265.5z"/>
	</g>
	<path d="M288.2,226.6h-5.1c-0.8,0-1.5-0.7-1.5-1.5V220c0-0.8,0.7-1.5,1.5-1.5h5.1c0.8,0,1.5,0.7,1.5,1.5v5.1
		C289.7,225.9,289.1,226.6,288.2,226.6z"/>
	<path d="M300.5,226.6h-5.1c-0.8,0-1.5-0.7-1.5-1.5V220c0-0.8,0.7-1.5,1.5-1.5h5.1c0.8,0,1.5,0.7,1.5,1.5v5.1
		C302,225.9,301.4,226.6,300.5,226.6z"/>
</g>
</svg>
