<?xml version="1.0" encoding="utf-8"?>
<!-- Generator: Adobe Illustrator 25.4.1, SVG Export Plug-In . SVG Version: 6.00 Build 0)  -->
<svg version="1.1" id="图层_1" xmlns="http://www.w3.org/2000/svg" xmlns:xlink="http://www.w3.org/1999/xlink" x="0px" y="0px"
	 viewBox="0 0 512 512" style="enable-background:new 0 0 512 512;" xml:space="preserve">
<style type="text/css">
	.st0{fill-rule:evenodd;clip-rule:evenodd;fill:#EB5C20;}
	.st1{fill-rule:evenodd;clip-rule:evenodd;fill:#E29227;}
	.st2{fill:#EB5C20;}
	.st3{fill-rule:evenodd;clip-rule:evenodd;fill:#70BA33;}
	.st4{fill-rule:evenodd;clip-rule:evenodd;fill:#1C9965;}
	.st5{fill-rule:evenodd;clip-rule:evenodd;fill:#1E5D91;}
	.st6{fill-rule:evenodd;clip-rule:evenodd;fill:#C6224E;}
	.st7{fill:#B5B5B6;}
	.st8{fill-rule:evenodd;clip-rule:evenodd;fill:#B5B5B6;}
	.st9{fill:#DF5B23;}
	.st10{fill:#B5B5B6;stroke:#B5B5B6;stroke-width:10;stroke-miterlimit:10;}
	.st11{fill:#B5B5B6;stroke:#B5B5B6;stroke-width:18;stroke-miterlimit:10;}
	.st12{fill:#1E5D91;}
	.st13{fill:#E29227;}
	.st14{fill:#1C9965;}
	.st15{fill:#70BA33;}
	.st16{fill:#C6224E;}
	.st17{fill:#0E0304;}
	.st18{fill:#29292C;}
	.st19{fill:#2E3032;}
	.st20{fill:#1A1A1B;}
	.st21{fill:#757579;}
	.st22{fill:none;stroke:#B5B5B6;stroke-width:30;stroke-linecap:round;stroke-linejoin:round;stroke-miterlimit:10;}
	.st23{fill:#040000;}
	.st24{fill-rule:evenodd;clip-rule:evenodd;fill:#040000;}
	.st25{fill:url(#SVGID_1_);}
	.st26{fill:#EBE7C3;}
	.st27{fill-rule:evenodd;clip-rule:evenodd;fill:#EBE7C3;}
	.st28{fill:#FFFFFF;}
	.st29{fill:none;stroke:#B5B5B6;stroke-width:10;stroke-miterlimit:10;}
	.st30{fill-rule:evenodd;clip-rule:evenodd;fill:url(#SVGID_00000026886339346987997360000000449277884610751116_);}
	.st31{fill:#221F20;}
	.st32{fill:#F1AA43;}
	.st33{fill:#EB9326;}
	.st34{fill:#EE9F38;}
	.st35{fill:#E8891D;}
	.st36{fill:#EF9E36;}
	.st37{fill:#F9C88E;}
	.st38{fill:#CB838E;}
	.st39{fill:#F7BF75;}
	.st40{fill-rule:evenodd;clip-rule:evenodd;fill:#DF5B23;}
	.st41{fill:#2F2833;}
	.st42{fill:#403944;}
	.st43{fill:#DF5924;}
	.st44{fill-rule:evenodd;clip-rule:evenodd;fill:#CCBCB1;}
	.st45{fill-rule:evenodd;clip-rule:evenodd;fill:#393939;}
	.st46{fill-rule:evenodd;clip-rule:evenodd;fill:#EF9839;}
	.st47{fill-rule:evenodd;clip-rule:evenodd;fill:#EF993A;}
	.st48{fill-rule:evenodd;clip-rule:evenodd;fill:#D07A32;}
	.st49{fill-rule:evenodd;clip-rule:evenodd;fill:#E1893D;}
	.st50{fill-rule:evenodd;clip-rule:evenodd;fill:#E28C38;}
	.st51{fill-rule:evenodd;clip-rule:evenodd;fill:#E18B3C;}
	.st52{fill-rule:evenodd;clip-rule:evenodd;fill:#DF7F24;}
	.st53{fill-rule:evenodd;clip-rule:evenodd;fill:#DDCCC2;}
	.st54{fill-rule:evenodd;clip-rule:evenodd;fill:#DF8C38;}
	.st55{fill-rule:evenodd;clip-rule:evenodd;fill:#8B5930;}
	.st56{fill:#1C5AA8;}
	.st57{fill:#2156A6;}
	.st58{fill:#E7B41E;}
	.st59{fill:#298CCD;}
	.st60{fill:#123443;}
	.st61{fill:#B8266A;}
	.st62{fill:#1B4B68;}
	.st63{fill:#1C4157;}
	.st64{fill:#4A6894;}
	.st65{fill:#343535;}
	.st66{fill:#3E5375;}
	.st67{fill:#6CAACE;}
	.st68{fill:#335C85;}
	.st69{fill:#5294B1;}
	.st70{fill-rule:evenodd;clip-rule:evenodd;fill:#5255A3;}
	.st71{fill-rule:evenodd;clip-rule:evenodd;fill:#2B60AC;}
	.st72{fill:#2B60AC;}
	.st73{fill:#E8412E;}
	.st74{fill:#E83F21;}
	.st75{fill:#E33E28;}
	.st76{fill:#E84138;}
	.st77{fill:#E94526;}
	.st78{fill:#E94423;}
	.st79{fill:#E9481F;}
	.st80{fill:#E94522;}
	.st81{fill:#E9461F;}
	.st82{fill:#E84236;}
	.st83{fill:#E9471E;}
	.st84{fill:#E6411D;}
	.st85{fill:#E8412F;}
	.st86{fill:#132533;}
	.st87{fill:url(#SVGID_00000067927153018966304310000013376240657134352054_);}
	.st88{fill:url(#SVGID_00000150783638269019233320000013938793243635681716_);}
	.st89{fill:#CBCFD7;}
	.st90{fill:url(#SVGID_00000152252141625606834000000016044614992434856121_);}
	.st91{fill:url(#SVGID_00000029043991038512744600000004185528750534071728_);}
	.st92{fill:#366FAE;}
	.st93{fill:#FFF100;}
	.st94{fill:url(#SVGID_00000040549997527682387890000005546564891590245774_);}
	.st95{fill:#FFE000;}
	.st96{fill:url(#SVGID_00000132064223722048092690000012535390025719388311_);}
	.st97{fill:#FAC000;}
	.st98{fill:url(#SVGID_00000024706204439989027040000012068270647635056013_);}
	.st99{fill:#F4A000;}
	.st100{fill:url(#SVGID_00000132805197764255008970000015706635342107113104_);}
	.st101{fill:#EE7300;}
	.st102{fill:url(#SVGID_00000125564102971545557460000001631908264928286609_);}
	.st103{fill:#E94709;}
	.st104{fill:url(#SVGID_00000072960731509098726930000003232745286404845721_);}
	.st105{fill:#009E41;}
	.st106{fill:url(#SVGID_00000166649733322079511160000010362152562712460951_);}
	.st107{fill:#40AF36;}
	.st108{fill:url(#SVGID_00000179622628113096642410000000176797983985012133_);}
	.st109{fill:#72BB2B;}
	.st110{fill:url(#SVGID_00000093877117046299409790000013285415032371093649_);}
	.st111{fill:#E3E300;}
	.st112{fill:url(#SVGID_00000139987992982217272040000016543070273571296138_);}
	.st113{fill:#A3CA0F;}
	.st114{fill:url(#SVGID_00000041292247446597582090000012358893931753283490_);}
	.st115{fill:#C4D700;}
	.st116{fill:url(#SVGID_00000103244776221785412230000000609246890316970929_);}
	.st117{fill:#36B8B7;}
	.st118{fill:#3EB4AD;}
	.st119{fill:#3AB8B9;}
	.st120{fill:#56BAB0;}
	.st121{fill:#65BBB2;}
	.st122{fill:#32B7B0;}
	.st123{fill:#2EB6AE;}
	.st124{fill:#48B6BC;}
	.st125{fill:#4DB5BD;}
	.st126{fill:#3EB4AE;}
	.st127{fill:#57BBB1;}
	.st128{fill:#060909;}
	.st129{fill:#061014;}
	.st130{fill:#FAFAFB;}
	.st131{fill:#F6F7F7;}
	.st132{fill:#F7F7F7;}
	.st133{fill:#F6F6F6;}
	.st134{fill:#7CB8BD;}
	.st135{fill:#3FB5B7;}
	.st136{fill:#4DB6B9;}
	.st137{fill:#F4F5F5;}
	.st138{fill:#F5F5F5;}
	.st139{fill:#070505;}
	.st140{fill:#F4F3F3;}
	.st141{fill:#050202;}
	.st142{fill:#71BCBA;}
	.st143{fill:#73BBB8;}
	.st144{fill:#76BEBC;}
	.st145{fill:#83B8B8;}
	.st146{fill:#3DB9B5;}
	.st147{fill:#40BABA;}
	.st148{fill:#36B8B6;}
	.st149{fill:#28B6B2;}
	.st150{fill:#00B5C6;}
	.st151{fill:#00B5C2;}
	.st152{fill:#23B7BB;}
	.st153{fill:#00B5C4;}
	.st154{fill:#14B6BE;}
	.st155{fill:#09B6C0;}
	.st156{fill:#41B9B1;}
	.st157{fill:#00B4D0;}
	.st158{fill:#00B4D3;}
	.st159{fill:#30B8B8;}
	.st160{fill:#00B4CD;}
	.st161{fill:#1CB6BD;}
	.st162{fill:#28B7BA;}
	.st163{fill:#47BAAE;}
	.st164{fill:#34B8B6;}
	.st165{fill:#4CBBAD;}
	.st166{fill:#3BB9B3;}
	.st167{fill:#44BAAF;}
	.st168{fill:#00B3D6;}
	.st169{fill:#00B3D9;}
	.st170{fill:#00B3D7;}
	.st171{fill:#00B3DB;}
	.st172{fill:#00B5CA;}
	.st173{fill:#37B8B5;}
	.st174{fill:#1BB6BD;}
	.st175{fill:#00B5C8;}
	.st176{fill:#231815;stroke:#FFFFFF;stroke-width:0.187;stroke-miterlimit:10;}
	.st177{fill:#023592;}
	.st178{fill-rule:evenodd;clip-rule:evenodd;fill:#60BEA1;}
	.st179{fill:#FFFFFF;stroke:#FFFFFF;stroke-width:0.187;stroke-miterlimit:10;}
	.st180{clip-path:url(#SVGID_00000167377527413291868200000007504491250968691859_);}
	.st181{fill:#7C2B7F;}
	.st182{fill:#752C7F;}
	.st183{fill:#EE8753;}
	.st184{fill:#F09D47;}
	.st185{fill:#EF944D;}
	.st186{fill:#EE8C51;}
	.st187{fill:#EC795A;}
	.st188{fill:#F0984B;}
	.st189{fill:#EB715E;}
	.st190{fill:#9E2F7F;}
	.st191{fill:#AA2E7E;}
	.st192{fill:#EC7C5D;}
	.st193{fill:#C4337F;}
	.st194{fill:#932D7F;}
	.st195{fill:#A42F7E;}
	.st196{fill:#BD317E;}
	.st197{fill:#B8327F;}
	.st198{fill:#B2317E;}
	.st199{fill:#992D7F;}
	.st200{fill:#CA347F;}
	.st201{fill:#8C2D7F;}
	.st202{fill:#D0357F;}
	.st203{fill:#AE307E;}
	.st204{fill:#EC765E;}
	.st205{fill:#DB377F;}
	.st206{fill:#E44676;}
	.st207{fill:#862C7E;}
	.st208{fill:#E96B64;}
	.st209{fill:#D6357F;}
	.st210{fill:#E96B62;}
	.st211{fill:#E13A80;}
	.st212{fill:#E13D7E;}
	.st213{fill:#822B7F;}
	.st214{fill:#E54D75;}
	.st215{fill:#33A2D3;}
	.st216{fill:#E3417B;}
	.st217{fill:#E65371;}
	.st218{fill:#E65B6C;}
	.st219{fill:#E96764;}
	.st220{fill:#E85F68;}
	.st221{fill:#E96366;}
	.st222{fill:#EA6F67;}
	.st223{fill:#E6566D;}
	.st224{fill:#EA6C6C;}
	.st225{fill:#E7606E;}
	.st226{fill:#EB7563;}
	.st227{fill:#EC7C69;}
	.st228{fill:#E8687D;}
	.st229{fill:#E0EDF7;}
	.st230{fill:#E9676E;}
	.st231{fill:#E9B536;}
	.st232{fill:#334190;}
	.st233{fill:#6A438D;}
	.st234{fill:#6B438D;}
	.st235{fill:#6B448D;}
	.st236{fill:#3A4291;}
	.st237{fill:#81458F;}
	.st238{fill:#644390;}
	.st239{fill:#9E458E;}
	.st240{fill:#864690;}
	.st241{fill:#98468F;}
	.st242{fill:#92468F;}
	.st243{fill:#8D458F;}
	.st244{fill:#9B468F;}
	.st245{fill:#90468E;}
	.st246{fill:#9C468F;}
	.st247{fill:#A3458D;}
	.st248{fill:#4E4491;}
	.st249{fill:#434291;}
	.st250{fill:#534290;}
	.st251{fill:#6E4591;}
	.st252{fill:#754490;}
	.st253{fill:#5F4390;}
	.st254{fill:#7B4490;}
	.st255{fill:#584390;}
	.st256{fill:#594390;}
	.st257{fill:#474392;}
	.st258{fill:#B3458C;}
	.st259{fill:#6A4491;}
	.st260{fill:#AE468C;}
	.st261{fill:#97458F;}
	.st262{fill:#B6468C;}
	.st263{fill:#9B458E;}
	.st264{fill:#C4468C;}
	.st265{fill:#BD478C;}
	.st266{fill:#AA468D;}
	.st267{fill:#A7468D;}
	.st268{fill:#B3468D;}
	.st269{fill:#B0458C;}
	.st270{fill:#BC468C;}
	.st271{fill:#AF458C;}
	.st272{fill:#B9468C;}
	.st273{fill:#BD468B;}
	.st274{fill:#BA468C;}
	.st275{fill:url(#Fill_1_00000098920264221738607440000013734021367869264279_);}
	.st276{fill:url(#Fill_3_00000143602154691897009970000000156115957969873837_);}
	.st277{fill:url(#Fill_5_00000044879239800580509220000003123218337793370010_);}
	.st278{fill:#1E201F;}
	.st279{fill:#3AB9B5;}
	.st280{fill:#27B4B0;}
	.st281{fill:#009694;}
	.st282{fill:#554B9D;}
</style>
<g>
	<path class="st179" d="M494.9,243.5c-3-6.8-6.6-13.4-9.8-20c21.4-18.9,24.8-48.3,6.8-68.1c0,4.2,0.1,7,0,9.8
		c-0.7,21-10.4,33.6-30.3,39.7c-8.7,2.7-17.7,4.9-26.1,8.3c-10.1,4.1-17.8,0.9-23.4-7c-3.9-5.4-5.9-12.1-8.6-18.4
		c-0.9-2.1-1.2-4.4-1.8-6.6c-7,15.5-8.1,30.5,1.4,45.7c-10,2.7-18.9,5.5-28,7.4c-6.1,1.3-6.9,4.7-6.1,9.8
		c2.1,12.4,11.8,20.3,25.9,20.8c21.9,0.9,42.6,6.2,60.6,19.1c6.2,4.5,11.3,10.6,16.9,16c-0.6,0.6-1.1,1.3-1.6,1.9
		c-9.4-10.6-19.8-19.7-35.3-22.3c3.6,14.2,1.5,25.8-9.3,34.7c-10.9,9-23,7.9-35.9,3.6c4.9,7.2,10,13.9,15.7,19.9
		c16.6,17.1,36.6,23.6,59.4,15.5c23.8-8.5,37.5-26.3,40.2-51.7C507.7,281.3,503.1,262,494.9,243.5z M443.3,226.9
		c-0.2-0.6-0.5-1.2-0.7-1.8c6-2.2,12-4.4,18-6.6C456.8,226.2,450.6,227.9,443.3,226.9z"/>
	<g>
		<path class="st28" d="M282.4,256c0,8.7,0,17.5,0,26.2c0,1.1-0.3,1.3-1.3,1.3c-4.5-0.1-8.9-0.1-13.4,0c-0.8,0-1.1-0.2-1.1-1
			c0.1-1.7,0-3.3,0-5c0-0.3,0.3-0.9-0.3-1c-0.6-0.1-0.9,0.2-1.2,0.6c-1.1,1.6-2.3,2.9-3.8,4.1c-2.8,2.2-6,3.4-9.5,3.8
			c-4.3,0.5-8.6,0.2-12.5-1.6c-5.5-2.5-8.3-7.2-9.9-12.8c-0.9-3-1.1-6.2-1.1-9.3c0-10.5,0-21.1,0-31.6c0-1,0.2-1.4,1.3-1.4
			c4.8,0.1,9.6,0.1,14.3,0c1,0,1.2,0.3,1.2,1.3c0,9.9,0,19.7,0,29.6c0,2.9,0.6,5.7,2.6,8c2.3,2.7,7.7,2.8,10.6,1.5
			c4.3-1.9,5.9-5.7,6.8-9.9c0.5-2.2,0.6-4.6,0.6-6.8c0-7.5,0-15,0-22.4c0-0.9,0.2-1.2,1.2-1.2c4.8,0.1,9.6,0.1,14.5,0
			c1.1,0,1.2,0.4,1.2,1.3C282.4,238.5,282.4,247.3,282.4,256z"/>
		<path class="st28" d="M152.9,283.5c-6.5,0-12.8,0-19.1,0c-0.6,0-0.9-0.2-1.3-0.7c-2.5-4-5.1-7.9-7.7-11.9c-0.8-1.2-1.4-1.2-2.2,0
			c-2.4,3.8-4.8,7.6-7.1,11.4c-0.5,0.8-1,1.2-2,1.2c-6.2-0.1-12.3,0-18.7,0c0.9-1.3,1.8-2.5,2.6-3.7c5.2-7.7,10.5-15.4,15.7-23.1
			c0.6-0.8,0.6-1.4,0-2.2c-5.9-8.4-11.8-16.8-17.6-25.2c-0.1-0.2-0.3-0.4-0.5-0.8c1.1,0,2.1,0,3.1,0c5.3,0,10.6,0,15.9,0
			c0.8,0,1.3,0.2,1.7,0.9c2.4,3.9,4.8,7.7,7.2,11.5c0.8,1.2,1.4,1.2,2.2-0.1c2.2-3.9,4.5-7.7,6.8-11.6c0.2-0.4,0.4-0.8,1-0.7
			c6.7,0,13.4,0,20.3,0c-1.6,2.2-3.1,4.3-4.5,6.4c-4.7,6.6-9.4,13.2-14.1,19.7c-0.6,0.8-0.5,1.3,0.1,2.2
			c6.1,8.8,12.1,17.6,18.1,26.4C152.7,283.2,152.8,283.3,152.9,283.5z"/>
		<path class="st28" d="M311.8,243.3c0,13,0,25.9,0,38.9c0,1.1-0.2,1.4-1.4,1.4c-4.8-0.1-9.6-0.1-14.3,0c-0.9,0-1.2-0.2-1.2-1.2
			c0-26.1,0-52.1,0-78.2c0-1.1,0.4-1.2,1.3-1.2c4.8,0,9.6,0.1,14.3,0c1,0,1.3,0.2,1.2,1.2C311.8,217.3,311.8,230.3,311.8,243.3z"/>
		<path class="st28" d="M324.5,243.2c0-13,0-25.9,0-38.9c0-1,0.2-1.3,1.3-1.3c4.8,0.1,9.6,0.1,14.3,0c0.9,0,1.2,0.1,1.2,1.1
			c0,26.1,0,52.2,0,78.3c0,0.9-0.2,1.1-1.1,1.1c-4.9-0.1-9.7-0.1-14.6,0c-1,0-1.2-0.3-1.2-1.2C324.5,269.3,324.5,256.3,324.5,243.2z
			"/>
		<path class="st28" d="M89.4,232.1c-1.9-7.3-5.4-13.7-10.9-18.9c-8.4-8-18.4-12-30.6-11.9c-2.5-0.2-5.5,0.2-8.4,0.8
			c-6.5,1.3-12.3,4-17.6,8.1c-8.4,6.5-13.3,15.2-15.2,25.5c-1.1,5.7-0.8,11.4,0.4,17c1.5,7.1,4.7,13.4,9.5,18.8
			c6.9,7.6,15.5,12.1,25.7,13.4c5.1,0.7,10.2,0.6,15.2-0.4c6.5-1.3,12.4-4,17.7-8.1c9.6-7.7,14.6-17.8,15.6-29.9
			C91.1,241.6,90.6,236.8,89.4,232.1z M64.7,262.9c-3.7,3.2-8,5-12.9,5.6c-8.7,1-16.2-1.4-22.1-8c-3.4-3.8-5.2-8.4-5.8-13.5
			c-0.6-5.3-0.1-10.4,2.1-15.3c3.1-6.9,8.5-11.2,15.7-13c8.7-2.2,16.8-0.5,23.7,5.5c3.8,3.3,5.9,7.6,7.1,12.4
			c0.6,2.2,0.5,4.4,0.7,6.3C73.2,251,70.8,257.7,64.7,262.9z"/>
		<path class="st28" d="M219.2,249.9c-1.7-10.7-9.4-20.1-20.5-22.7c-4.3-1-8.7-0.9-12.9,0.6c-3.3,1.1-6,3-8,5.9
			c-0.3,0.4-0.6,1-1.3,0.7c-0.6-0.3-0.2-0.8-0.2-1.2c0.3-2.5,0.8-5,0.9-7.5c0.1-7.1,0-14.1,0.1-21.2c0-1.3-0.5-1.6-1.7-1.6
			c-4.5,0.1-9,0-13.5,0c-1.8,0-1.8,0-1.8,1.8c0,12.8,0,25.7,0,38.5c0,7.9,0,15.9,0,23.8c0,5,0,10.1,0,15.1c0,1,0.2,1.3,1.3,1.3
			c4.5-0.1,8.9-0.1,13.4,0c0.9,0,1.2-0.3,1.1-1.2c-0.1-1.2-0.1-2.3,0-3.5c0-0.5-0.3-1.1,0.4-1.4c0.8-0.2,1,0.4,1.4,0.9
			c2,2.7,4.6,4.7,7.8,5.8c5,1.7,10.1,1.6,15.1,0c9.4-3,15-9.7,17.8-18.9C220,260.2,220,255.1,219.2,249.9z M189.4,269.5
			c-6.9,0.1-13.4-5.3-13.3-13.6c0.1-8.3,6.3-13.5,13.6-13.5c7.5,0.1,13.2,6,13.1,13.7C202.8,263.9,197.1,269.6,189.4,269.5z"/>
	</g>
</g>
</svg>
