<?xml version="1.0" encoding="utf-8"?>
<!-- Generator: Adobe Illustrator 25.4.0, SVG Export Plug-In . SVG Version: 6.00 Build 0)  -->
<svg version="1.1" id="图层_1" xmlns="http://www.w3.org/2000/svg" xmlns:xlink="http://www.w3.org/1999/xlink" x="0px" y="0px"
	 viewBox="0 0 512 512" style="enable-background:new 0 0 512 512;" xml:space="preserve">
<style type="text/css">
	.st0{fill-rule:evenodd;clip-rule:evenodd;fill:#EB5C20;}
	.st1{fill-rule:evenodd;clip-rule:evenodd;fill:#E29227;}
	.st2{fill:#EB5C20;}
	.st3{fill-rule:evenodd;clip-rule:evenodd;fill:#70BA33;}
	.st4{fill-rule:evenodd;clip-rule:evenodd;fill:#1C9965;}
	.st5{fill-rule:evenodd;clip-rule:evenodd;fill:#1E5D91;}
	.st6{fill-rule:evenodd;clip-rule:evenodd;fill:#C6224E;}
	.st7{fill:#B5B5B6;}
	.st8{fill-rule:evenodd;clip-rule:evenodd;fill:#B5B5B6;}
	.st9{fill:#DF5B23;}
	.st10{fill:#B5B5B6;stroke:#B5B5B6;stroke-width:10;stroke-miterlimit:10;}
	.st11{fill:#B5B5B6;stroke:#B5B5B6;stroke-width:18;stroke-miterlimit:10;}
	.st12{fill:#1E5D91;}
	.st13{fill:#E29227;}
	.st14{fill:#1C9965;}
	.st15{fill:#70BA33;}
	.st16{fill:#C6224E;}
	.st17{fill:#0E0304;}
	.st18{fill:#29292C;}
	.st19{fill:#2E3032;}
	.st20{fill:#1A1A1B;}
	.st21{fill:#757579;}
	.st22{fill:none;stroke:#B5B5B6;stroke-width:30;stroke-linecap:round;stroke-linejoin:round;stroke-miterlimit:10;}
	.st23{fill:#040000;}
	.st24{fill-rule:evenodd;clip-rule:evenodd;fill:#040000;}
	.st25{fill:url(#SVGID_1_);}
	.st26{fill:#EBE7C3;}
	.st27{fill-rule:evenodd;clip-rule:evenodd;fill:#EBE7C3;}
	.st28{fill:#FFFFFF;}
	.st29{fill:none;stroke:#B5B5B6;stroke-width:10;stroke-miterlimit:10;}
	.st30{fill-rule:evenodd;clip-rule:evenodd;fill:url(#SVGID_00000101817227442238490680000008248624279233283500_);}
	.st31{fill:#221F20;}
	.st32{fill:#F1AA43;}
	.st33{fill:#EB9326;}
	.st34{fill:#EE9F38;}
	.st35{fill:#E8891D;}
	.st36{fill:#EF9E36;}
	.st37{fill:#F9C88E;}
	.st38{fill:#CB838E;}
	.st39{fill:#F7BF75;}
	.st40{fill-rule:evenodd;clip-rule:evenodd;fill:#DF5B23;}
	.st41{fill:#2F2833;}
	.st42{fill:#403944;}
	.st43{fill:#DF5924;}
	.st44{fill-rule:evenodd;clip-rule:evenodd;fill:#CCBCB1;}
	.st45{fill-rule:evenodd;clip-rule:evenodd;fill:#393939;}
	.st46{fill-rule:evenodd;clip-rule:evenodd;fill:#EF9839;}
	.st47{fill-rule:evenodd;clip-rule:evenodd;fill:#EF993A;}
	.st48{fill-rule:evenodd;clip-rule:evenodd;fill:#D07A32;}
	.st49{fill-rule:evenodd;clip-rule:evenodd;fill:#E1893D;}
	.st50{fill-rule:evenodd;clip-rule:evenodd;fill:#E28C38;}
	.st51{fill-rule:evenodd;clip-rule:evenodd;fill:#E18B3C;}
	.st52{fill-rule:evenodd;clip-rule:evenodd;fill:#DF7F24;}
	.st53{fill-rule:evenodd;clip-rule:evenodd;fill:#DDCCC2;}
	.st54{fill-rule:evenodd;clip-rule:evenodd;fill:#DF8C38;}
	.st55{fill-rule:evenodd;clip-rule:evenodd;fill:#8B5930;}
	.st56{fill:#1C5AA8;}
	.st57{fill:#2156A6;}
	.st58{fill:#E7B41E;}
	.st59{fill:#298CCD;}
	.st60{fill:#123443;}
	.st61{fill:#B8266A;}
	.st62{fill:#1B4B68;}
	.st63{fill:#1C4157;}
	.st64{fill:#4A6894;}
	.st65{fill:#343535;}
	.st66{fill:#3E5375;}
	.st67{fill:#6CAACE;}
	.st68{fill:#335C85;}
	.st69{fill:#5294B1;}
	.st70{fill-rule:evenodd;clip-rule:evenodd;fill:#5255A3;}
	.st71{fill-rule:evenodd;clip-rule:evenodd;fill:#2B60AC;}
	.st72{fill:#2B60AC;}
	.st73{fill:#E8412E;}
	.st74{fill:#E83F21;}
	.st75{fill:#E33E28;}
	.st76{fill:#E84138;}
	.st77{fill:#E94526;}
	.st78{fill:#E94423;}
	.st79{fill:#E9481F;}
	.st80{fill:#E94522;}
	.st81{fill:#E9461F;}
	.st82{fill:#E84236;}
	.st83{fill:#E9471E;}
	.st84{fill:#E6411D;}
	.st85{fill:#E8412F;}
	.st86{fill:#132533;}
	.st87{fill-rule:evenodd;clip-rule:evenodd;fill:#FFFFFF;filter:url(#Adobe_OpacityMaskFilter);}
	.st88{mask:url(#mask0_00000132083055698256665120000006893257704987244173_);}
	.st89{fill:url(#SVGID_00000068642156912964490090000009076144363867816611_);}
	
		.st90{fill-rule:evenodd;clip-rule:evenodd;fill:#FFFFFF;filter:url(#Adobe_OpacityMaskFilter_00000135678897823501500030000013014402304451509633_);}
	.st91{mask:url(#mask1_00000072256638231251966880000016508265481841631141_);}
	.st92{fill:url(#SVGID_00000114066483743110145200000003622691972286718387_);}
	.st93{fill:#CBCFD7;}
	
		.st94{fill-rule:evenodd;clip-rule:evenodd;fill:#FFFFFF;filter:url(#Adobe_OpacityMaskFilter_00000039131757716293678100000002634445596845915008_);}
	.st95{mask:url(#mask0_1_);}
	.st96{fill:url(#SVGID_00000065757849416159227070000007213350907210588578_);}
	
		.st97{fill-rule:evenodd;clip-rule:evenodd;fill:#FFFFFF;filter:url(#Adobe_OpacityMaskFilter_00000127034425492587421150000007355673414988539312_);}
	.st98{mask:url(#mask1_1_);}
	.st99{fill:url(#SVGID_00000123408197960825043090000014951682362584136851_);}
	.st100{fill:#366FAE;}
	.st101{fill:#FFF100;}
	.st102{fill:url(#SVGID_00000170969255006727357500000013703410302933597841_);}
	.st103{fill:#FFE000;}
	.st104{fill:url(#SVGID_00000076568077863487856320000008413579941003560587_);}
	.st105{fill:#FAC000;}
	.st106{fill:url(#SVGID_00000166658888692952995810000009836940056434868400_);}
	.st107{fill:#F4A000;}
	.st108{fill:url(#SVGID_00000037681396280531286220000012380399695266327949_);}
	.st109{fill:#EE7300;}
	.st110{fill:url(#SVGID_00000039114448331530967580000005183230995278621622_);}
	.st111{fill:#E94709;}
	.st112{fill:url(#SVGID_00000019658010174568859430000014097393377802510464_);}
	.st113{fill:#009E41;}
	.st114{fill:url(#SVGID_00000139980337890930345010000006014801401141846718_);}
	.st115{fill:#40AF36;}
	.st116{fill:url(#SVGID_00000060725319796501185530000017545355434409430915_);}
	.st117{fill:#72BB2B;}
	.st118{fill:url(#SVGID_00000003106586380514580730000000851288687023914424_);}
	.st119{fill:#E3E300;}
	.st120{fill:url(#SVGID_00000175301034385215204820000012631548678140175497_);}
	.st121{fill:#A3CA0F;}
	.st122{fill:url(#SVGID_00000018945118054922596640000013313313556579810731_);}
	.st123{fill:#C4D700;}
	.st124{fill:url(#SVGID_00000139271649021375490110000017520073809489313469_);}
	.st125{clip-path:url(#SVGID_00000032610538829654198660000014113256635008176276_);}
	.st126{fill:#36B8B7;}
	.st127{fill:#3EB4AD;}
	.st128{fill:#3AB8B9;}
	.st129{fill:#56BAB0;}
	.st130{fill:#65BBB2;}
	.st131{fill:#32B7B0;}
	.st132{fill:#2EB6AE;}
	.st133{fill:#48B6BC;}
	.st134{fill:#4DB5BD;}
	.st135{fill:#3EB4AE;}
	.st136{fill:#57BBB1;}
	.st137{fill:#060909;}
	.st138{fill:#061014;}
	.st139{fill:#FAFAFB;}
	.st140{fill:#F6F7F7;}
	.st141{fill:#F7F7F7;}
	.st142{fill:#F6F6F6;}
	.st143{fill:#7CB8BD;}
	.st144{fill:#3FB5B7;}
	.st145{fill:#4DB6B9;}
	.st146{fill:#F4F5F5;}
	.st147{fill:#F5F5F5;}
	.st148{fill:#070505;}
	.st149{fill:#F4F3F3;}
	.st150{fill:#050202;}
	.st151{fill:#71BCBA;}
	.st152{fill:#73BBB8;}
	.st153{fill:#76BEBC;}
	.st154{fill:#83B8B8;}
	.st155{fill:#3DB9B5;}
	.st156{fill:#40BABA;}
	.st157{fill:#36B8B6;}
	.st158{fill:#28B6B2;}
	.st159{fill:#00B5C6;}
	.st160{fill:#00B5C2;}
	.st161{fill:#23B7BB;}
	.st162{fill:#00B5C4;}
	.st163{fill:#14B6BE;}
	.st164{fill:#09B6C0;}
	.st165{fill:#41B9B1;}
	.st166{fill:#00B4D0;}
	.st167{fill:#00B4D3;}
	.st168{fill:#30B8B8;}
	.st169{fill:#00B4CD;}
	.st170{fill:#1CB6BD;}
	.st171{fill:#28B7BA;}
	.st172{fill:#47BAAE;}
	.st173{fill:#34B8B6;}
	.st174{fill:#4CBBAD;}
	.st175{fill:#3BB9B3;}
	.st176{fill:#44BAAF;}
	.st177{fill:#00B3D6;}
	.st178{fill:#00B3D9;}
	.st179{fill:#00B3D7;}
	.st180{fill:#00B3DB;}
	.st181{fill:#00B5CA;}
	.st182{fill:#37B8B5;}
	.st183{fill:#1BB6BD;}
	.st184{fill:#00B5C8;}
	.st185{fill:#231815;stroke:#FFFFFF;stroke-width:0.187;stroke-miterlimit:10;}
	.st186{fill:#023592;}
	.st187{fill:none;}
</style>
<g>
	<g>
		<path class="st185" d="M36.1,392.69c-3.1-2.36-7.84-3.74-14.55-3.74c-7.27,0-11.85,0.2-15.55,0.57v45.5h10.74v-15.8
			c1.71,0.02,2-0.01,4.11-0.03c6.86-0.08,12.37-1.59,16.14-5c2.85-2.52,4.29-6.44,4.29-10.75C41.28,398.75,39.11,394.91,36.1,392.69
			z M20.77,410.46c-1.83,0-2.37,0.02-4.03-0.13v-12.97c0.82-0.16,2.46-0.34,4.91-0.34c5.59,0,8.9,2.28,8.9,6.56
			C30.54,408.32,26.61,410.46,20.77,410.46z"/>
		<path class="st185" d="M361.15,392.69c-3.1-2.36-7.84-3.74-14.55-3.74c-7.27,0-11.85,0.2-15.55,0.57v45.5h10.74v-15.8
			c1.71,0.02,2-0.01,4.12-0.03c6.86-0.08,12.37-1.59,16.14-5c2.85-2.52,4.29-6.44,4.29-10.75
			C366.32,398.75,364.16,394.91,361.15,392.69z M345.81,410.46c-1.83,0-2.37,0.02-4.03-0.13v-12.97c0.82-0.16,2.46-0.34,4.91-0.34
			c5.59,0,8.9,2.28,8.9,6.56C355.59,408.32,351.65,410.46,345.81,410.46z"/>
		<polygon class="st185" points="58.48,389.35 47.63,389.35 47.63,435.02 78.34,435.02 78.34,425.99 58.48,425.99 		"/>
		<path class="st185" d="M112.62,414.48c0,8.48-3.37,12.97-9.78,12.97c-6.22,0-9.62-4.68-9.62-12.97v-25.13H82.37v24.61
			c0,15.55,7.76,21.87,19.99,21.87c13.05,0,21.1-6.81,21.1-21.68v-24.8h-10.84V414.48z"/>
		<polygon class="st185" points="128.53,398.17 142.33,398.17 142.33,435.02 153.17,435.02 153.17,398.17 167.19,398.17 
			167.19,389.35 128.53,389.35 		"/>
		<rect x="372.4" y="389.35" class="st185" width="10.84" height="45.67"/>
		<polygon class="st185" points="426.98,389.35 388.32,389.35 388.32,398.17 402.12,398.17 402.12,435.02 412.96,435.02 
			412.96,398.17 426.98,398.17 		"/>
		<polygon class="st185" points="485.59,425.99 485.59,389.35 474.74,389.35 474.74,435.02 506,435.02 506,425.99 		"/>
		<path class="st185" d="M194.95,388.25c-13.08,0-23.69,10.9-23.69,24.34c0,13.44,10.61,24.34,23.69,24.34
			c13.08,0,23.69-10.9,23.69-24.34C218.64,399.15,208.04,388.25,194.95,388.25z M194.95,426.05c-7.23,0-13.1-6.02-13.1-13.46
			c0-7.43,5.86-13.46,13.1-13.46c7.23,0,13.1,6.02,13.1,13.46C208.05,420.02,202.19,426.05,194.95,426.05z"/>
		<path class="st185" d="M261.23,397.11c0.06,0,0.13,0,0.19-0.01c0.18-0.01,0.57-0.02,0.59-0.02c0.31-0.01,0.62-0.03,0.94-0.03
			c4.29,0,7.83,0.95,10.23,1.98l2.32-8.39c-2.1-1.12-6.84-2.3-12.97-2.3c-15.49,0-27.23,9.25-27.23,24.28
			c0,13.04,9.05,23.02,26.31,23.02c6.33,0,11.29-1.25,13.33-2.27l-1.77-8.31c-3.7,1.81-10.52,1.84-11.23,1.84
			c-8.98,0-16.26-6.67-16.26-14.91C245.68,403.97,252.58,397.45,261.23,397.11z"/>
		<path class="st185" d="M308.23,389.35h-13.54h-0.31l-15.34,45.67h11.41l3.64-12.16h14.83l4.05,12.16h12l-16.06-45.67H308.23z
			 M295.78,414.9l3.1-9.74c0.67-2.19,1.26-4.62,1.86-6.86h0.95c0.67,2.22,1.4,4.65,2.14,6.85l3.3,9.75H295.78z"/>
		<path class="st185" d="M452.2,389.35h-13.54h-0.31l-15.34,45.67h11.41l3.64-12.16h14.83l4.05,12.16h12l-16.06-45.67H452.2z
			 M439.76,414.9l3.1-9.74c0.67-2.19,1.27-4.62,1.86-6.86h0.95c0.67,2.22,1.4,4.65,2.14,6.85l3.3,9.75H439.76z"/>
	</g>
	<path class="st186" d="M362.41,120.51c-28.92-30.2-69.65-46.76-111.54-45.36c-75.37,2.56-137.72,63.5-141.94,138.74
		c-2.2,39.27,10.91,77.01,36.94,106.29l1.69,1.9l2.07-9.09c4.78-20.97,16.67-39.14,33.5-51.16c9.75-6.96,20.88-12.59,33.06-16.72
		c10.75-3.58,21.88-5.39,33.1-5.39h27.26c9.31,0,17.71-5.81,20.4-14.13c2.16-6.67,1.11-13.65-2.89-19.14
		c-3.96-5.44-10.3-8.69-16.97-8.69h-50.99l-8.51,38.06l-0.31,0.07c-18.6,4.44-44.23,18.32-57.21,36.25l-1.45,2l27.64-122.09h93.23
		c36.12,0,66.59,28.61,67.92,63.78c0.68,18.2-5.89,35.44-18.52,48.55c-12.64,13.13-29.61,20.36-47.78,20.36h-38.05
		c-21.65,0-40.16,14.74-45.01,35.84l-7.7,33.66l0.93,0.46c19.98,9.79,42.67,14.92,65.3,14.92c5.47,0,10.94-0.3,16.36-0.91
		c69.82-7.83,124.45-64.44,129.89-134.59C406.11,192.16,391.37,150.75,362.41,120.51z"/>
</g>
<rect x="6" y="153.85" class="st187" width="500" height="204.3"/>
</svg>
