<?xml version="1.0" encoding="utf-8"?>
<!-- Generator: Adobe Illustrator 25.4.1, SVG Export Plug-In . SVG Version: 6.00 Build 0)  -->
<svg version="1.1" id="图层_1" xmlns="http://www.w3.org/2000/svg" xmlns:xlink="http://www.w3.org/1999/xlink" x="0px" y="0px"
	 viewBox="0 0 512 512" style="enable-background:new 0 0 512 512;" xml:space="preserve">
<style type="text/css">
	.st0{fill-rule:evenodd;clip-rule:evenodd;fill:#EB5C20;}
	.st1{fill-rule:evenodd;clip-rule:evenodd;fill:#E29227;}
	.st2{fill:#EB5C20;}
	.st3{fill-rule:evenodd;clip-rule:evenodd;fill:#70BA33;}
	.st4{fill-rule:evenodd;clip-rule:evenodd;fill:#1C9965;}
	.st5{fill-rule:evenodd;clip-rule:evenodd;fill:#1E5D91;}
	.st6{fill-rule:evenodd;clip-rule:evenodd;fill:#C6224E;}
	.st7{fill:#B5B5B6;}
	.st8{fill-rule:evenodd;clip-rule:evenodd;fill:#B5B5B6;}
	.st9{fill:#DF5B23;}
	.st10{fill:#B5B5B6;stroke:#B5B5B6;stroke-width:10;stroke-miterlimit:10;}
	.st11{fill:#B5B5B6;stroke:#B5B5B6;stroke-width:18;stroke-miterlimit:10;}
	.st12{fill:#1E5D91;}
	.st13{fill:#E29227;}
	.st14{fill:#1C9965;}
	.st15{fill:#70BA33;}
	.st16{fill:#C6224E;}
	.st17{fill:#0E0304;}
	.st18{fill:#29292C;}
	.st19{fill:#2E3032;}
	.st20{fill:#1A1A1B;}
	.st21{fill:#757579;}
	.st22{fill:none;stroke:#B5B5B6;stroke-width:30;stroke-linecap:round;stroke-linejoin:round;stroke-miterlimit:10;}
	.st23{fill:#040000;}
	.st24{fill-rule:evenodd;clip-rule:evenodd;fill:#040000;}
	.st25{fill:url(#SVGID_1_);}
	.st26{fill:#EBE7C3;}
	.st27{fill-rule:evenodd;clip-rule:evenodd;fill:#EBE7C3;}
	.st28{fill:#FFFFFF;}
	.st29{fill:none;stroke:#B5B5B6;stroke-width:10;stroke-miterlimit:10;}
	.st30{fill-rule:evenodd;clip-rule:evenodd;fill:url(#SVGID_00000110450888489356129770000000153329676980495494_);}
	.st31{fill:#221F20;}
	.st32{fill:#F1AA43;}
	.st33{fill:#EB9326;}
	.st34{fill:#EE9F38;}
	.st35{fill:#E8891D;}
	.st36{fill:#EF9E36;}
	.st37{fill:#F9C88E;}
	.st38{fill:#CB838E;}
	.st39{fill:#F7BF75;}
	.st40{fill-rule:evenodd;clip-rule:evenodd;fill:#DF5B23;}
	.st41{fill:#2F2833;}
	.st42{fill:#403944;}
	.st43{fill:#DF5924;}
	.st44{fill-rule:evenodd;clip-rule:evenodd;fill:#CCBCB1;}
	.st45{fill-rule:evenodd;clip-rule:evenodd;fill:#393939;}
	.st46{fill-rule:evenodd;clip-rule:evenodd;fill:#EF9839;}
	.st47{fill-rule:evenodd;clip-rule:evenodd;fill:#EF993A;}
	.st48{fill-rule:evenodd;clip-rule:evenodd;fill:#D07A32;}
	.st49{fill-rule:evenodd;clip-rule:evenodd;fill:#E1893D;}
	.st50{fill-rule:evenodd;clip-rule:evenodd;fill:#E28C38;}
	.st51{fill-rule:evenodd;clip-rule:evenodd;fill:#E18B3C;}
	.st52{fill-rule:evenodd;clip-rule:evenodd;fill:#DF7F24;}
	.st53{fill-rule:evenodd;clip-rule:evenodd;fill:#DDCCC2;}
	.st54{fill-rule:evenodd;clip-rule:evenodd;fill:#DF8C38;}
	.st55{fill-rule:evenodd;clip-rule:evenodd;fill:#8B5930;}
	.st56{fill:#1C5AA8;}
	.st57{fill:#2156A6;}
	.st58{fill:#E7B41E;}
	.st59{fill:#298CCD;}
	.st60{fill:#123443;}
	.st61{fill:#B8266A;}
	.st62{fill:#1B4B68;}
	.st63{fill:#1C4157;}
	.st64{fill:#4A6894;}
	.st65{fill:#343535;}
	.st66{fill:#3E5375;}
	.st67{fill:#6CAACE;}
	.st68{fill:#335C85;}
	.st69{fill:#5294B1;}
	.st70{fill-rule:evenodd;clip-rule:evenodd;fill:#5255A3;}
	.st71{fill-rule:evenodd;clip-rule:evenodd;fill:#2B60AC;}
	.st72{fill:#2B60AC;}
	.st73{fill:#E8412E;}
	.st74{fill:#E83F21;}
	.st75{fill:#E33E28;}
	.st76{fill:#E84138;}
	.st77{fill:#E94526;}
	.st78{fill:#E94423;}
	.st79{fill:#E9481F;}
	.st80{fill:#E94522;}
	.st81{fill:#E9461F;}
	.st82{fill:#E84236;}
	.st83{fill:#E9471E;}
	.st84{fill:#E6411D;}
	.st85{fill:#E8412F;}
	.st86{fill:#132533;}
	.st87{fill:url(#SVGID_00000049907162457813647930000009900103972417501348_);}
	.st88{fill:url(#SVGID_00000168837832131062247380000014381398190989314439_);}
	.st89{fill:#CBCFD7;}
	.st90{fill:url(#SVGID_00000044139821471459618570000002674153631442103683_);}
	.st91{fill:url(#SVGID_00000163771137310229856640000004434214328681675441_);}
	.st92{fill:#366FAE;}
	.st93{fill:#FFF100;}
	.st94{fill:url(#SVGID_00000005977173057677497960000015726584584095662489_);}
	.st95{fill:#FFE000;}
	.st96{fill:url(#SVGID_00000053538284889222379790000009295751393312077446_);}
	.st97{fill:#FAC000;}
	.st98{fill:url(#SVGID_00000029768303989021874340000007558098032952988336_);}
	.st99{fill:#F4A000;}
	.st100{fill:url(#SVGID_00000013882182167189468270000014647388848051622831_);}
	.st101{fill:#EE7300;}
	.st102{fill:url(#SVGID_00000129179802479878092880000015179519750548498604_);}
	.st103{fill:#E94709;}
	.st104{fill:url(#SVGID_00000110438174753213568530000010986229588807035550_);}
	.st105{fill:#009E41;}
	.st106{fill:url(#SVGID_00000152230643370726668740000007771217026069027761_);}
	.st107{fill:#40AF36;}
	.st108{fill:url(#SVGID_00000064354568403267134240000005155911069954475920_);}
	.st109{fill:#72BB2B;}
	.st110{fill:url(#SVGID_00000062905952666850430400000015606335051977440415_);}
	.st111{fill:#E3E300;}
	.st112{fill:url(#SVGID_00000036956452534856001700000007105584186245410710_);}
	.st113{fill:#A3CA0F;}
	.st114{fill:url(#SVGID_00000047055112866180556060000009859322743601026200_);}
	.st115{fill:#C4D700;}
	.st116{fill:url(#SVGID_00000007389964015342147280000016290192954189907125_);}
	.st117{fill:#36B8B7;}
	.st118{fill:#3EB4AD;}
	.st119{fill:#3AB8B9;}
	.st120{fill:#56BAB0;}
	.st121{fill:#65BBB2;}
	.st122{fill:#32B7B0;}
	.st123{fill:#2EB6AE;}
	.st124{fill:#48B6BC;}
	.st125{fill:#4DB5BD;}
	.st126{fill:#3EB4AE;}
	.st127{fill:#57BBB1;}
	.st128{fill:#060909;}
	.st129{fill:#061014;}
	.st130{fill:#FAFAFB;}
	.st131{fill:#F6F7F7;}
	.st132{fill:#F7F7F7;}
	.st133{fill:#F6F6F6;}
	.st134{fill:#7CB8BD;}
	.st135{fill:#3FB5B7;}
	.st136{fill:#4DB6B9;}
	.st137{fill:#F4F5F5;}
	.st138{fill:#F5F5F5;}
	.st139{fill:#070505;}
	.st140{fill:#F4F3F3;}
	.st141{fill:#050202;}
	.st142{fill:#71BCBA;}
	.st143{fill:#73BBB8;}
	.st144{fill:#76BEBC;}
	.st145{fill:#83B8B8;}
	.st146{fill:#3DB9B5;}
	.st147{fill:#40BABA;}
	.st148{fill:#36B8B6;}
	.st149{fill:#28B6B2;}
	.st150{fill:#00B5C6;}
	.st151{fill:#00B5C2;}
	.st152{fill:#23B7BB;}
	.st153{fill:#00B5C4;}
	.st154{fill:#14B6BE;}
	.st155{fill:#09B6C0;}
	.st156{fill:#41B9B1;}
	.st157{fill:#00B4D0;}
	.st158{fill:#00B4D3;}
	.st159{fill:#30B8B8;}
	.st160{fill:#00B4CD;}
	.st161{fill:#1CB6BD;}
	.st162{fill:#28B7BA;}
	.st163{fill:#47BAAE;}
	.st164{fill:#34B8B6;}
	.st165{fill:#4CBBAD;}
	.st166{fill:#3BB9B3;}
	.st167{fill:#44BAAF;}
	.st168{fill:#00B3D6;}
	.st169{fill:#00B3D9;}
	.st170{fill:#00B3D7;}
	.st171{fill:#00B3DB;}
	.st172{fill:#00B5CA;}
	.st173{fill:#37B8B5;}
	.st174{fill:#1BB6BD;}
	.st175{fill:#00B5C8;}
	.st176{fill:#231815;stroke:#FFFFFF;stroke-width:0.187;stroke-miterlimit:10;}
	.st177{fill:#023592;}
	.st178{fill-rule:evenodd;clip-rule:evenodd;fill:#60BEA1;}
	.st179{fill:#FFFFFF;stroke:#FFFFFF;stroke-width:0.187;stroke-miterlimit:10;}
	.st180{clip-path:url(#SVGID_00000088838105578354522170000017727791650184632962_);}
	.st181{fill:#7C2B7F;}
	.st182{fill:#752C7F;}
	.st183{fill:#EE8753;}
	.st184{fill:#F09D47;}
	.st185{fill:#EF944D;}
	.st186{fill:#EE8C51;}
	.st187{fill:#EC795A;}
	.st188{fill:#F0984B;}
	.st189{fill:#EB715E;}
	.st190{fill:#9E2F7F;}
	.st191{fill:#AA2E7E;}
	.st192{fill:#EC7C5D;}
	.st193{fill:#C4337F;}
	.st194{fill:#932D7F;}
	.st195{fill:#A42F7E;}
	.st196{fill:#BD317E;}
	.st197{fill:#B8327F;}
	.st198{fill:#B2317E;}
	.st199{fill:#992D7F;}
	.st200{fill:#CA347F;}
	.st201{fill:#8C2D7F;}
	.st202{fill:#D0357F;}
	.st203{fill:#AE307E;}
	.st204{fill:#EC765E;}
	.st205{fill:#DB377F;}
	.st206{fill:#E44676;}
	.st207{fill:#862C7E;}
	.st208{fill:#E96B64;}
	.st209{fill:#D6357F;}
	.st210{fill:#E96B62;}
	.st211{fill:#E13A80;}
	.st212{fill:#E13D7E;}
	.st213{fill:#822B7F;}
	.st214{fill:#E54D75;}
	.st215{fill:#33A2D3;}
	.st216{fill:#E3417B;}
	.st217{fill:#E65371;}
	.st218{fill:#E65B6C;}
	.st219{fill:#E96764;}
	.st220{fill:#E85F68;}
	.st221{fill:#E96366;}
	.st222{fill:#EA6F67;}
	.st223{fill:#E6566D;}
	.st224{fill:#EA6C6C;}
	.st225{fill:#E7606E;}
	.st226{fill:#EB7563;}
	.st227{fill:#EC7C69;}
	.st228{fill:#E8687D;}
	.st229{fill:#E0EDF7;}
	.st230{fill:#E9676E;}
	.st231{fill:#E9B536;}
	.st232{fill:#864690;}
	.st233{fill:#334190;}
	.st234{fill:#6A438D;}
	.st235{fill:#6B438D;}
	.st236{fill:#6B448D;}
	.st237{fill:#3A4291;}
	.st238{fill:#81458F;}
	.st239{fill:#644390;}
	.st240{fill:#9E458E;}
	.st241{fill:#98468F;}
	.st242{fill:#92468F;}
	.st243{fill:#8D458F;}
	.st244{fill:#9B468F;}
	.st245{fill:#90468E;}
	.st246{fill:#9C468F;}
	.st247{fill:#A3458D;}
	.st248{fill:#4E4491;}
	.st249{fill:#434291;}
	.st250{fill:#534290;}
	.st251{fill:#6E4591;}
	.st252{fill:#754490;}
	.st253{fill:#5F4390;}
	.st254{fill:#7B4490;}
	.st255{fill:#584390;}
	.st256{fill:#594390;}
	.st257{fill:#474392;}
	.st258{fill:#B3458C;}
	.st259{fill:#6A4491;}
	.st260{fill:#AE468C;}
	.st261{fill:#97458F;}
	.st262{fill:#B6468C;}
	.st263{fill:#9B458E;}
	.st264{fill:#C4468C;}
	.st265{fill:#BD478C;}
	.st266{fill:#AA468D;}
	.st267{fill:#A7468D;}
	.st268{fill:#B3468D;}
	.st269{fill:#B0458C;}
	.st270{fill:#BC468C;}
	.st271{fill:#AF458C;}
	.st272{fill:#B9468C;}
	.st273{fill:#BD468B;}
	.st274{fill:#BA468C;}
	.st275{fill:url(#Fill_1_00000052821983289368692950000006043937545261575319_);}
	.st276{fill:url(#Fill_3_00000136369866348387680670000008160441097853827205_);}
	.st277{fill:url(#Fill_5_00000034060946243795628640000008727970535632030123_);}
	.st278{fill:#1E201F;}
	.st279{fill:#3AB9B5;}
	.st280{fill:#27B4B0;}
	.st281{fill:#009694;}
	.st282{fill:#554B9D;}
</style>
<g>
	<path class="st233" d="M40.2,358.1c-16.8-0.8-31.4-14.1-33.7-30.8c-0.2-1.1-0.3-2.2-0.3-3.3c-0.2-3.2,0-6.4-0.1-9.6
		c0-0.7,0.4-0.7,0.9-0.5c0.7,0.3,1.4,0.8,2.1,1.2c10.1,6.7,20.3,13.1,30.4,19.7c0.3,0.2,0.6,0.5,1.2,0.5c-0.3-1-0.7-1.9-0.9-2.9
		c-0.1-0.5-0.6-1.2,0.4-1.4c0.7,0.8,0.8,1.8,1.2,2.8c0.5,1.2,0.9,2.5,1.6,3.7c1.1,2.4,2.5,4.7,4.1,6.8c2.2,2.8,4.8,5.3,7.8,7.3
		c2.1,1.5,4.4,2.6,6.7,3.6c2.1,0.9,4.3,1.5,6.5,1.9c0.4,0.1,0.7,0.2,1.1,0.2c0.2,0,0.5,0.1,0.7,0.2c0.5,0.1,1.2,0,1.6,0.6
		c-0.2,0.4-0.5,0.3-0.7,0.3c-10,0-19.9,0-29.9,0C40.6,358.2,40.4,358.2,40.2,358.1z"/>
	<path class="st233" d="M6.2,188.3c0.8-13.6,7.5-23.6,19.3-30.2c4.3-2.4,9-3.7,14-3.9c3.4-0.2,6.8,0,10.2-0.1
		c1.1,0.1,0.7,0.8,0.4,1.3c-0.8,1.5-1.8,3-2.7,4.4c-6.1,9.2-11.9,18.5-18,27.7c-0.2,0.3-0.5,0.7-0.6,1.1c1-0.2,1.9-0.6,2.8-0.9
		c0.5-0.1,1.1-0.4,1.4,0.4c-0.6,0.9-1.6,0.7-2.4,1.1c-1,0.3-1.9,0.6-2.8,1.1c-2.9,1.3-5.6,3-8.1,4.9c-2.2,1.8-4.2,3.9-5.9,6.2
		c-2,2.6-3.6,5.4-4.8,8.4c-0.9,2.4-1.6,4.9-2.1,7.5c-0.1,0.4,0.1,1-0.7,0.9c-0.1-0.3-0.1-0.5-0.1-0.8c0-9.4,0-18.8,0-28.2
		C6.1,188.8,6.1,188.6,6.2,188.3z"/>
	<path class="st233" d="M210,324.5c-1.1,13.2-7.6,22.9-19,29.3c-4.1,2.3-8.6,3.7-13.4,4c-3.6,0.5-7.2,0.2-10.7,0.2
		c-1.1,0-1.3-0.5-0.6-1.7c1.5-2.6,3.2-5,4.8-7.5c5.2-7.9,10.3-16,15.5-23.8c0.2-0.3,0.5-0.7,0.5-1.2c-0.8,0-1.4,0.4-2.1,0.5
		c-0.5,0.1-1.1,0.5-1.4-0.3c0.2-0.7,0.9-0.7,1.4-0.9c1.4-0.5,2.9-1,4.2-1.7c3-1.3,5.6-3.2,8.2-5.2c2.1-1.7,3.8-3.7,5.4-5.8
		c1.7-2.3,3-4.7,4.2-7.3c1.1-2.5,1.8-5.1,2.3-7.7c0.1-0.5,0-1.1,0.6-1.3c0.4,0.2,0.2,0.6,0.2,0.9c0,9.7,0,19.4,0,29
		C210.1,324.1,210.1,324.3,210,324.5z"/>
	<path class="st233" d="M177,154.2c7.9,0.5,14.8,3.5,20.7,8.7c7.5,6.6,11.7,14.9,12.3,24.9c0.2,3.3,0,6.6,0.1,9.9
		c-0.2,1.3-1,0.7-1.5,0.3c-1.8-1.1-3.5-2.2-5.3-3.4c-8.7-5.7-17.5-11.2-26.1-16.9c-0.2-0.1-0.4-0.3-0.8-0.3c0,0.9,0.5,1.6,0.6,2.3
		c0.1,0.5,0.5,1.2-0.4,1.4c-0.7-0.7-0.8-1.7-1.1-2.5c-0.4-1-0.8-2-1.3-3c-0.1-0.2-0.2-0.4-0.2-0.6c-1.3-3.2-3.2-6-5.6-8.6
		c-0.4-0.4-0.7-0.7-1-1.1c-1.5-1.8-3.3-3.2-5.3-4.5c-2-1.5-4.2-2.7-6.5-3.6c-2.3-1-4.6-1.6-7-2.1c-1.1-0.2-1.1-0.2-1.3-0.9
		c4.1-0.1,8.2,0,12.3-0.1c5.3,0,10.5,0,15.8,0C176,154.1,176.5,154,177,154.2z"/>
	<path class="st234" d="M229,310c0,13.6,6.2,22.1,16.2,24.6c9.1,2.2,17.1,0.2,23.1-7.5c0.5-0.7,0.8-0.6,1.4-0.2
		c1.4,1.1,2.8,2.1,4.3,3.1c0.8,0.5,0.7,0.9,0.2,1.5c-4.1,5.4-9.5,8.7-16,10c-9.7,2-18.7,0.4-26.5-5.9c-6-4.8-9.2-11.3-10.1-18.8
		c-0.9-7.7,0.4-15,4.8-21.5c4.9-7.2,11.9-11.1,20.4-12.3c7.4-1,14.5,0.3,20.9,4.4c2.7,1.7,4.9,3.9,6.7,6.5c0.5,0.7,0.4,1-0.3,1.5
		c-1.5,0.9-2.9,1.8-4.3,2.9c-0.8,0.6-1.1,0.4-1.6-0.3c-7.8-10-23.5-11-32.6-2.1C230.9,300.5,229,306.3,229,310z"/>
	<path class="st235" d="M420.4,319.3c0,3.1-0.1,6.2,0,9.2c0.3,5.7,4,8.4,9.6,7.3c1.7-0.4,3.3-0.9,4.8-1.9c0.8-0.5,1.2-0.3,1.6,0.4
		c0.7,1.2,1.4,2.3,2.1,3.4c0.3,0.5,0.4,0.7-0.2,1.1c-5.5,3.5-11.4,4.7-17.6,2.3c-4.6-1.8-6.6-5.7-7-10.4c-0.6-6.1-0.1-12.2-0.2-18.3
		c0-1.3,0.6-2.9-0.3-3.8c-0.8-0.7-2.4-0.2-3.7-0.2c-1.2,0-2.3,0-3.5,0c-0.7,0-1-0.2-1-0.9c0.1-1.4,0.1-2.8,0-4.2c0-0.8,0.2-1.1,1-1
		c2.1,0,4.2,0,6.3,0c0.9,0,1.1-0.3,1.1-1.1c0-3.3,0-6.7,0-10.1c0-0.9,0.2-1.2,1.2-1.2c1.5,0.1,3,0.1,4.5,0c1-0.1,1.2,0.4,1.2,1.3
		c0,3.3,0,6.5,0,9.8c0,1.1,0.3,1.3,1.3,1.3c4.6,0,9.2,0,13.8,0c1,0,1.4,0.3,1.3,1.3c-0.1,1.2-0.1,2.4,0,3.6c0.1,1-0.3,1.3-1.2,1.2
		c-4.6,0-9.1,0-13.7,0c-1.1,0-1.6,0.1-1.5,1.5C420.4,313,420.3,316.2,420.4,319.3C420.3,319.3,420.3,319.3,420.4,319.3z"/>
	<path class="st236" d="M499.1,311.8c0-9.4,0-18.8,0-28.2c0-1.3,0.4-1.7,1.6-1.6c1.4,0.1,2.8,0.1,4.2,0c0.8,0,1.1,0.2,1.1,1.1
		c0,19.1,0,38.2,0,57.3c0,0.8-0.2,1.2-1.1,1.1c-1.4-0.1-2.9-0.1-4.3,0c-1.2,0.1-1.6-0.2-1.6-1.5
		C499.1,330.7,499.1,321.2,499.1,311.8z"/>
	<path class="st237" d="M183.7,323.9c1,0.5,1.8-0.4,2.7-0.5c0.4,0,0.9-0.6,1.3-0.2c0.4,0.5-0.1,0.9-0.4,1.3
		c-3.3,5.1-6.7,10.2-10,15.3c-3.6,5.6-7.2,11.1-10.8,16.7c-0.5,0.8-0.5,1.2,0.6,1.2c3.5,0,7,0,10.5,0c-0.5,0.3-1,0.3-1.6,0.3
		c-0.5,0.2-1,0.1-1.5,0.1c-6.1,0-12.3,0-18.4,0c-1.2-0.2-0.7-1-0.4-1.6c0.5-0.9,1.1-1.8,1.7-2.7c5.7-8.6,11.2-17.3,16.8-25.8
		c0.4-0.6,1.1-1.2,0.8-1.8c-0.4-0.6-1.3-0.3-2-0.3c-2.3,0-4.6,0-6.8,0c-3,0.1-6,0-9,0c-0.7-0.1-1.4,0.1-2.1-0.4
		c-0.1-0.2,0-0.3,0.1-0.5c0.6-0.4,1.3-0.2,1.9-0.2c5.6,0,11.3,0,16.9,0c0.7,0,1.3,0,1.9-0.1c0.2-0.1,0.3-0.1,0.5-0.1
		c0.6-0.1,1.2,0,1.8-0.2c0.3-0.1,0.6-0.1,0.9-0.1c1-0.1,2-0.3,3-0.5C182.7,323.7,183.2,323.5,183.7,323.9z"/>
	<path class="st238" d="M155.7,358c6.3,0,12.7,0,19,0.1c0.5,0,0.9,0,1.4,0c-0.6,0.3-1.2,0.2-1.8,0.2c-44.1,0-88.2,0-132.4,0
		c-0.6,0-1.2,0.1-1.8-0.2c9.6,0,19.1,0,28.7,0c0.8,0,1.6,0,2.5,0c-0.7-0.5-1.4,0-1.9-0.5c0.3-0.2,0.5-0.3,0.7-0.1
		c-0.3,0-0.7-0.2-1.2,0.1c-0.3,0-0.6,0-0.9-0.2c-0.2-0.6,0.1-1.1,0.4-1.7c4.1-6.3,8.2-12.6,12.3-18.9c2.3-3.5,4.6-7.1,6.8-10.7
		c0.2-0.2,0.3-0.5,0.6-0.6c0.5-0.2,1.1-0.1,1.6-0.2c2.5,0.1,5.1-0.1,7.6,0.1c1,0.5,0.5,1.2,0.1,1.7c-1,1.6-2.1,3.2-3.1,4.8
		c-5.2,7.9-10.3,15.9-15.6,23.9c-0.1,0.2-0.2,0.3-0.3,0.5c-0.2,0.3-0.5,0.6-0.4,1c0.2,0.4,0.7,0.2,1,0.2c2,0,4,0,6,0
		c3-0.3,6.1,0.3,9.1,0.2c9.6,0,19.2,0.1,28.8,0c1.2-0.1,2.5,0.1,3.7,0c1.8,0,3.5,0,5.3,0c1.6-0.1,3.2,0,4.8,0c3.1,0,6.1,0,9.2,0
		c2.7-0.1,5.4,0,8.1,0C154.8,357.6,155.3,357.6,155.7,358z"/>
	<path class="st238" d="M6.2,188.3c0,5.3,0,10.5,0.1,15.8c0,4.2,0,8.4,0,12.6c0,0.5-0.2,1.1,0.3,1.6c0.1,0.1,0.2,0.2,0.1,0.2
		c-0.1,0.2,0,0.3,0,0.1c0-0.6,0.1-1.2,0.2-1.8c0.2-1.1,0.5-1.2,1.4-0.6c1.8,1.2,3.5,2.3,5.3,3.4c7.7,5.1,15.5,10.1,23.3,15
		c1.1,0.7,1.2,0.6,1.3-0.7c0-0.4,0-0.8,0.2-1.1c0.3-0.5,0.7-0.7,1,0c0.2,3,0.2,6,0,9c-0.8,0.7-0.5,1.6-0.5,2.4
		c0,0.5,0.1,1.1-0.4,1.4c-0.6,0.3-1.1-0.1-1.5-0.4c-7.2-4.7-14.4-9.4-21.7-14.1c-2.5-1.6-4.9-3.2-7.4-4.7c-1-0.7-1.2-0.6-1.2,0.6
		c0,2-0.1,4.1,0,6.1c0,2.7,0.1,5.4,0,8c0.1,4.5,0,9.1,0,13.6c0,3.2,0,6.3,0,9.5c0,2.8,0.1,5.6,0,8.4c0,2.2,0,4.5,0,6.7
		c0,1.5,0,3,0,4.5c0,2.7,0,5.4,0,8.1c0,2.1,0.1,4.1,0,6.2c0,1.8,0.1,3.6,0,5.4c0.1,2.9,0,5.8,0,8.7c0,0.6,0,1.1-0.4,1.6
		c0,3.3-0.1,6.7-0.1,10.1c-0.3-0.8-0.2-1.6-0.2-2.3c0-43.7,0-87.4,0-131.1C6,189.8,5.9,189,6.2,188.3z"/>
	<path class="st238" d="M210,198.1c0-3.5,0.1-6.9,0.1-10.4c0.3,0.8,0.2,1.6,0.2,2.3c0,43.9,0,87.8,0,131.8c0,0.9,0.1,1.8-0.2,2.6
		c0-5.8,0-11.5,0-17.3c0-4.3,0-8.6,0-13c-0.5,0.5-0.1,1.2-0.5,1.5c-0.7,0.7-1.3,0.2-1.8-0.1c-2.8-1.8-5.5-3.5-8.2-5.3
		c-6.4-4.2-12.8-8.3-19.2-12.4c-0.4-0.2-0.7-0.6-1.3-0.6c-0.4,1.8,0.2,3.8-0.4,5.6c-0.8-0.8-1.1-5.4-0.6-9.2
		c0.4-1.7,0.1-3.4,0.2-5.1c0-0.6-0.2-1.3,0.5-1.7c0.6-0.4,1.2,0.1,1.6,0.4c5.9,3.8,11.7,7.7,17.6,11.4c3.6,2.3,7.1,4.6,10.7,6.9
		c0.3,0.2,0.6,0.6,1.2,0.5c0-2.3,0-4.6,0-7c-0.1-2.8-0.1-5.5,0-8.3c-0.1-3.1-0.1-6.1,0-9.2c0-1.9,0-3.8,0-5.6c0-2.8-0.1-5.6,0-8.4
		c0-2.7-0.1-5.4,0-8.1c0-2.3-0.1-4.7,0-7c0-1.5,0-3,0-4.5c0-2.7,0-5.4,0-8.1c0-2.1-0.1-4.1,0-6.2c0-1.8-0.1-3.6,0-5.4
		c-0.1-2.9,0-5.8,0-8.7C209.6,199.1,209.6,198.6,210,198.1z"/>
	<path class="st238" d="M75.1,154c0.4,0,0.7-0.1,1.1-0.1c22.7,0,45.3,0,68,0c0.3,0,0.6,0,0.8,0c0.4,0.2,0.9-0.1,1.2,0.3
		c2.5,0.6,2.5,0.7,1.1,2.9c-5.8,9.2-11.8,18.4-17.8,27.5c-0.2,0.3-0.6,0.6-0.4,1c0.2,0.5,0.7,0.3,1.1,0.3c2,0,4.1,0,6.1,0
		c0.4,0,0.9,0,1.2,0.2c0.5,0.3,0.2,0.5-0.1,0.7c-3,0.2-6.1,0.1-9.1,0.1c-2.4-0.5-4.8-0.1-7.2-0.3c-0.7,0-1.3,0-1.9-0.1
		c-0.8-0.1-1.1-0.6-0.6-1.3c0.6-0.9,1.2-1.9,1.8-2.8c5.9-8.9,11.7-17.9,17.5-26.9c0.2-0.3,0.4-0.5,0.4-1.1c-2.3,0-4.7,0-7,0
		c-2.8,0.1-5.6,0.1-8.4,0c-4.6,0.1-9.1,0.1-13.6,0c-3.2,0-6.3,0.1-9.5,0c-2.8,0-5.6,0.1-8.4,0c-2.2,0-4.5,0-6.7,0c-1.5,0-3,0-4.5,0
		c-1.6-0.1-3.3,0.2-4.9-0.2C75.2,154.3,75.1,154.2,75.1,154z"/>
	<path class="st235" d="M389.1,322c0-6.1,0-12.3,0-18.4c0-1,0.3-1.3,1.2-1.2c1.5,0.1,3,0.1,4.5,0c0.8,0,1.1,0.2,1.1,1
		c0,12.4,0,24.9,0,37.3c0,0.7-0.2,1-1,0.9c-1.6,0-3.2-0.1-4.7,0c-0.9,0-1.1-0.4-1.1-1.1C389.1,334.3,389.1,328.1,389.1,322z"/>
	<path class="st236" d="M397.2,288.5c0,2.7-2.1,4.7-4.9,4.7c-2.7,0-4.7-2-4.7-4.7c0-2.7,2.1-4.8,4.7-4.9
		C395.1,283.7,397.2,285.8,397.2,288.5z"/>
	<path class="st239" d="M75.1,154c0,0.1,0,0.1,0,0.2c-1,0.7-2.1,0.4-3.1,0.4c-2,0-4.1,0.1-6.1,0c-1.8,0-3.6,0.1-5.4,0
		c-2.9,0.1-5.8,0-8.8,0c-0.6,0-1.1,0-1.6-0.4c-3.6,0-7.1,0-10.7-0.1c0.4-0.1,0.7-0.2,1.1-0.2C52.1,154,63.6,154,75.1,154z"/>
	<path class="st239" d="M146.2,154.5c-0.3-0.4-0.8-0.1-1.1-0.5c9.8,0,19.5,0,29.3,0c0.9,0,1.8-0.1,2.6,0.2c-9.4,0-18.7,0-28.1,0
		c-0.5,0-1.1-0.2-1.6,0.3C146.9,154.7,146.6,154.7,146.2,154.5z"/>
	<path class="st234" d="M325.6,165.2c-7.7-6.3-16.8-8.8-26.5-9c-17-0.2-34-0.1-50.9-0.1c-0.9,0-1.1,0.3-1.2,1.1
		c-0.4,2.1-0.9,4.1-1.3,6.1c-8,37.5-16,75.1-24,112.6c-0.2,1-0.1,1.3,1,1.3c10.4,0,20.8,0,31.2,0c1,0,1.3-0.3,1.4-1.2
		c1.1-5.5,2.3-10.9,3.5-16.4c1.7-8.1,3.5-16.3,5.2-24.4c0.1-0.4,0-0.9,0.6-0.9c0.5,0,1.1-0.2,1.5,0.5c0.2,0.3,0.4,0.6,0.6,1
		c8,13.4,16,26.9,23.9,40.3c0.5,0.8,1,1.2,2,1.2c11.7,0,23.4,0,35.1,0c0.3,0,0.7,0.1,1.1-0.2c-9.5-14.6-19-29.2-28.6-43.9
		c3.6-0.6,6.9-1.4,10.1-2.4c8.7-2.9,16.1-7.5,21.4-15.1c4.2-6.1,6.2-12.9,6.7-20.3C339.1,183.2,335.1,173,325.6,165.2z M301,203.8
		c-2.6,2.1-5.7,2.9-8.9,3.2c-3.8,0.4-7.6,0.1-10.8,0.2c-3.9,0-7.1,0-10.3,0c-1,0-1.1-0.2-0.9-1.2c1.4-6.4,2.7-12.7,4-19.1
		c0.2-1,0.6-1.3,1.6-1.3c5.6,0.1,11.2,0,16.8,0c1.7,0,3.4,0.2,5,0.6c3.6,1,6.6,2.9,7.3,6.9C305.6,197.4,304.4,201.1,301,203.8z"/>
	<path class="st234" d="M435.7,206.3c8.3-9.2,10.7-19.8,6.2-31.4c-3-7.9-9.1-13.1-16.7-16.2c-17.6-7.2-35.2-6.7-52.1,2
		c-12.8,6.6-20.1,17.4-21,31.9c-0.6,9,2.6,16.3,10,21.6c0.6,0.5,1.3,0.9,2.1,1.4c-0.6,0.2-0.9,0.4-1.3,0.5
		c-7.9,3.2-14.9,7.6-20,14.7c-7.4,10.4-7.5,23.8-0.3,33.4c4.2,5.5,9.8,9.2,16.2,11.4c16.2,5.6,32.4,5,48.4-0.5
		c9.1-3.1,16.7-8.4,22-16.6c4.6-7.1,6.6-14.9,5.2-23.3c-1.3-7.9-6.3-13.3-13-17.3c-0.6-0.4-1.2-0.7-2-1.2
		C425.8,214.5,431.3,211.2,435.7,206.3z M393.6,250.2c-3.8,2-7.8,2.6-12.1,1.6c-9.1-2.1-10.3-9.9-7.4-15.8c2.7-5.4,7.5-7.5,13.2-8
		c2.5-0.2,4.9,0.2,7.2,1.3c4,1.9,6,5,6,9.5C400.5,243.9,398.2,247.8,393.6,250.2z M409.4,193.9c-1.5,6.2-7.9,10.3-14.7,9.4
		c-2.2-0.3-4.3-0.9-6-2.4c-2.9-2.5-3.8-6.9-2.1-11.1c1.9-4.7,5.6-7,10.5-7.7c0.7-0.1,1.5-0.1,2.2-0.2c0.9,0.1,1.9,0.1,2.8,0.3
		C408,183.4,410.9,187.9,409.4,193.9z"/>
	<path class="st240" d="M42.6,337.6c-1.1-2.1-1.8-4.4-2.6-6.7c-1.1-1.6-1.1-3.3-1.1-5.1c0.4-1.9,0-3.8,0.2-5.7
		c0.9-2.2,2.4-4,3.7-5.9c8.1-12.6,16.2-25.2,24.5-37.8c0.3-0.5,0.6-1.1,1.1-1.5c0.4-0.4,0.8-0.5,1.1,0.2c0.2,4.2,0.2,8.3,0,12.5
		c-0.7,1.7-1.9,3.2-2.9,4.7c-6.4,9.8-12.6,19.6-19.1,29.4c-2,3-3.9,6-5.9,9c-0.4,0.6-0.5,1.2-0.3,1.8c0.4,1.1,0.7,2.2,1.2,3.3
		C43.1,337.2,43.1,337.2,42.6,337.6z"/>
	<path class="st237" d="M39.3,325.9c0,1.7,0.5,3.4,0.8,5.1c-0.5,0.5-0.1,1.1,0,1.6c0.3,1.1,0.7,2.2,1.1,3.3
		c-0.7,0.1-1.2-0.3-1.6-0.6c-8-5.1-15.9-10.3-23.9-15.4c-3.1-2-6.1-4.2-9.4-5.9c0-3.5,0-6.9,0-10.3c0.7-0.4,1.1,0.2,1.6,0.5
		c7.1,4.6,14.2,9.2,21.3,13.8c2.5,1.6,4.9,3.2,7.4,4.8c1.2,0.8,1.2,0.8,1.6-0.6c0.1-0.2,0.1-0.4,0.4-0.6c0.6,0.3,0.4,1,0.7,1.6
		c0.1,0.7-0.1,1.4,0.1,2.1C39.4,325.3,39.5,325.6,39.3,325.9z"/>
	<path class="st232" d="M88,325.6c0.1,0.5-0.2,0.9-0.5,1.3c-4,6.2-8.1,12.5-12.1,18.7c-2.3,3.5-4.6,7.1-7,10.5
		c-0.3,0.4,0.5,1-0.3,1.1c-2.3-0.3-4.6-0.9-6.7-2c-0.5-0.5-1.1-0.7-1.7-0.9c-1.1-0.4-1.1-1-0.5-1.9c2.6-3.9,5.2-7.9,7.7-11.8
		c3.1-4.9,6.4-9.6,9.4-14.5c0.2-0.4,0.4-0.7,0.9-0.8c2.2-0.2,4.4,0,6.6-0.1C85.2,325.4,86.6,324.8,88,325.6z"/>
	<path class="st241" d="M42.6,337.6c0.5-0.7-0.4-1.1-0.3-1.7c8.4-12.8,16.7-25.7,25.1-38.6c0.4-0.5,0.7-1.1,0.8-1.8
		c0.1-0.3,0.1-0.7,0.5-0.8c0.5-0.1,0.6,0.3,0.7,0.7c0.2,3,0.1,5.9,0,8.9c-0.5,0.5-0.6,1.1-0.5,1.8c0.4,2.5-0.6,4.5-2,6.6
		c-6.2,9.4-12.3,18.8-18.4,28.2c-0.2,0.4-0.4,0.7-0.7,1c-0.5,0.6-1.1,1.1-0.7,1.9c0.1,0.2-0.1,0.4-0.4,0.4
		C45.1,342.3,43.7,340,42.6,337.6z"/>
	<path class="st242" d="M46.8,344.4c0,0,0.1-0.1,0.1-0.1c-0.9-1.3,0.4-1.9,0.9-2.7c3.4-5.2,6.7-10.3,10.1-15.5
		c3.4-5.2,6.8-10.5,10.3-15.7c1-1.5,0.2-3.1,0.5-4.6c0-0.3-0.5-1.1,0.5-0.9c0.4,0.3,0.4,0.7,0.4,1.1c0,5.4,0.1,10.9-0.1,16.3
		c-0.1,0.2-0.2,0.5-0.4,0.5c-0.3,0-0.3-0.3-0.3-0.5c0-1,0-2,0-2.6c0.1,1-0.1,2.3,0.2,3.7c0.2,1.2,0,2.4-0.7,3.6
		c-4.6,6.8-9,13.8-13.5,20.7c-0.5,0.7-0.9,1.4-1.8,1.7c0.6,0.8,1.8,1,2,2.1c0,0,0,0.1-0.1,0.1c-0.1,0.1-0.1,0.1-0.2,0
		C51.6,349.7,49,347.2,46.8,344.4z"/>
	<path class="st243" d="M54.7,351.6c0.2-0.9-0.7-0.8-1-1.2c-0.4-0.4-0.9-0.7-1.5-1.2c1.4-0.1,1.9-1,2.4-1.8
		c4.5-6.9,9-13.8,13.5-20.8c0.5-0.7,0.7-1.5,0.7-2.3c0-1.9,0-3.8,0.1-5.7c0.5,1.4-0.2,2.8,0.5,4.2c0.5,0.5,0.3,1.1,0.4,1.6
		c0,0.1,0,0.3,0,0.4c0,0.1,0.1,0.2,0.2,0.3c1.3,0.2,2.6,0,4,0.1c1,0.1,2-0.3,2.9,0.4c-0.1,0.7-0.4,1.2-0.8,1.8
		c-4.4,6.7-8.8,13.4-13.1,20.1c-1.1,1.8-2.2,3.5-3.4,5.2c-0.6,0.8-0.4,1.2,0.4,1.5c0.6,0.3,1.2,0.6,1.8,0.9c0,0,0,0.1-0.1,0.1
		c-0.1,0-0.2,0-0.3,0.1C59,354.3,56.7,353.2,54.7,351.6z"/>
	<path class="st237" d="M50.2,154.2c3.5,0,6.9,0,10.4,0c0.4,0.7-0.1,1.2-0.4,1.6c-3.3,5.1-6.6,10.2-9.9,15.2
		c-3,4.6-5.8,9.2-8.9,13.7c-0.2,0.3-0.6,0.6-0.4,1c0.2,0.4,0.7,0.2,1,0.2c1.3,0,2.5,0,3.8,0c1.3,0,2.6-0.1,3.9,0
		c0.5,0,1.2-0.1,1.4,0.7c-0.5,0.5-1.1,0.4-1.7,0.4c-2.9,0.1-5.8-0.2-8.7,0.1c-0.6,0.2-1.3,0.1-1.9,0.3c-0.9,0.1-1.8,0.4-2.8,0.4
		c-1.1,0-2.1,0.7-3.1,0.2c-0.2-0.3-0.5-0.2-0.9-0.1c-0.8,0.3-1.6,0.5-2.4,0.8c-0.4,0.1-0.8,0.5-1.1,0.1c-0.3-0.4,0.1-0.8,0.3-1.1
		c1.3-2,2.6-4,3.9-6.1c5.7-8.8,11.3-17.5,17-26.3C49.9,155,50.2,154.6,50.2,154.2z"/>
	<path class="st232" d="M39,232.5c-0.9,0.5-0.5,1.4-0.5,2.2c0,1-0.3,1.3-1.2,0.7c-5.8-3.7-11.5-7.4-17.3-11.1
		c-4-2.6-7.9-5.1-11.9-7.7c-0.6-0.4-1-0.6-1,0.4c0,0.8-0.4,1.6-0.3,2.6c-0.5-0.4-0.2-0.9-0.3-1.2c0.2-3,1-5.9,2.2-8.7
		c0.5-0.5,0.7-1.2,1-1.8c0.6-1.2,0.8-1.3,2-0.5c2,1.3,4,2.6,6,3.9c6.2,4,12.4,8.1,18.6,12.1c0.2,0.2,0.5,0.3,0.7,0.5
		c0.7,0.5,1.1,0.4,1.1-0.5c0-0.4,0-0.9,0.5-1.1c0.4-0.1,0.6,0.2,0.7,0.5c0.2,2.9,0,5.8,0.1,8.8C39.4,231.8,39.3,232.2,39,232.5z"/>
	<path class="st241" d="M19.4,195c2.5-2,5.2-3.7,8.1-5c1.7,0.6,2.9,1.8,4.3,2.7c8.5,5.5,16.9,11,25.4,16.5c3.1,2,6.2,4,9.3,6
		c0.8,0.5,1.5,1.1,2.5,1.3c0.3,0,0.8,0.2,0.3,0.7c-0.1,0.1-0.3,0.1-0.4,0.2c-2.3,0-4.6,0.1-6.9,0c-1.7-0.4-3.4-0.1-5.1-0.2
		c-0.5,0-1,0-1.5-0.1c-2.6-1.7-5.2-3.4-7.8-5.1c-7.4-4.8-14.8-9.6-22.2-14.5c-1.4-0.9-3-1.6-4.1-3.1c-0.5,0.2-0.7,0.6-1.2,0.8
		C19.8,195.4,19.4,195.7,19.4,195z"/>
	<path class="st242" d="M19.4,195c0.8,0.6,0.9-0.4,1.3-0.5c0.4-0.2,0.6-0.5,1.1,0.2c0.9,1.3,2.5,1.9,3.8,2.8
		c5.8,3.8,11.6,7.5,17.4,11.3c3.6,2.3,7.1,4.7,10.7,7c0.5,0.3,1,0.7,1.3,1.2c-0.4,0.4-0.9,0.4-1.4,0.4c-4.1,0-8.1,0-12.2,0
		c-0.9,0-1.6-0.2-2.4-0.7c-7.6-4.9-15.1-9.9-22.8-14.7c-0.2-0.1-0.4-0.2-0.5-0.4c-0.4-0.6-0.9-0.8-1.4-0.1c-0.1,0.2-0.6,0.7-0.7-0.1
		C15.2,198.8,17.2,196.8,19.4,195z"/>
	<path class="st243" d="M13.5,201.2c1,0.2,0.7-1.1,1.5-1.1c1.5,2.1,4,3,6.1,4.5c4.5,3.1,9.1,5.9,13.7,8.9c0.8,0.5,1.6,1,2.3,1.6
		c1.9,1.4,3.9,2.1,6.3,2c3.9-0.2,7.7-0.1,11.6-0.1c1.9,0,3.8,0,5.7,0c0.4,0,0.9-0.2,1.3,0.3c-0.6,0.6-1.3,0.4-2,0.4
		c-6.2,0-12.4,0-18.6,0c-0.5,0-1.1-0.1-1.6,0.2c-0.1,0.1-0.2,0.2-0.3,0.4c-0.2,0.9,0,1.8-0.1,2.6c0,0.5,0,1-0.4,1.4
		c-0.7,0.1-0.5,0.7-0.5,1.1c-0.1,1.5-0.2,1.6-1.5,0.8c-1.4-0.9-2.8-1.8-4.2-2.7c-7.1-4.6-14.1-9.2-21.2-13.8
		c-0.8-0.6-1.3-0.7-1.7,0.4c-0.2,0.7-0.6,1.3-0.9,2c0,0-0.1,0-0.1-0.1c0-0.1,0-0.2-0.1-0.3C9.9,206.5,11.5,203.7,13.5,201.2z"/>
	<path class="st244" d="M69.5,217.1c-3.5-1.2-6.3-3.7-9.3-5.6c-8.7-5.5-17.3-11.2-25.9-16.8c-2.3-1.5-4.7-2.8-6.7-4.7
		c0.9-0.5,1.9-0.8,2.8-1.1c1,0.3,1.8-0.7,2.8-0.4c3.2,2.6,6.8,4.6,10.2,6.8c5.2,3.4,10.4,6.8,15.6,10.2c5.3,3.4,10.6,6.9,16,10.3
		c0.4,0.2,0.7,0.4,1,0.8c0.3,0.4,0.2,0.7-0.3,0.8C73.5,217.5,71.5,217.9,69.5,217.1z"/>
	<path class="st240" d="M33.1,188.6c-1-0.2-1.8,1-2.8,0.3c0.8-0.3,1.7-0.6,2.5-0.9c1-0.2,2.1-0.4,3.1-0.5c0.2,0.1,0.4,0.2,0.3,0.5
		C35.3,188.6,34.2,188.7,33.1,188.6z"/>
	<path class="st240" d="M183.7,323.9c-1.5,0.2-2.9,0.8-4.5,0.8c-1.9-0.1-3.9,0.2-5.8,0.1c-1.1,0-2-0.3-2.9-0.9
		c-9.4-6-18.7-12.1-28-18.2c-4.8-3.2-9.7-6.3-14.5-9.5c-0.4-0.3-0.8-0.5-1.1-0.8c-0.3-0.4-0.4-0.7,0.2-0.9c4.3-0.3,8.5-0.2,12.8-0.1
		c0.6,0.1,1.1,0.5,1.6,0.8c9.5,6.3,19.2,12.5,28.8,18.8c4.2,2.7,8.4,5.5,12.6,8.2c0.5,0.3,1,0.7,1.7,0.5c1.3-0.4,2.6-0.8,3.9-1.4
		c0.5-0.1,1-0.5,1.2,0.3C187.7,322.6,185.6,323.2,183.7,323.9z"/>
	<path class="st232" d="M178.1,273.6c0,3,0,5.9,0,8.9c0.1,0,0.2,0,0.2,0c0-1.9,0-3.9,0-5.9c1.2,0.2,2,0.9,2.8,1.4
		c6.5,4.2,12.9,8.4,19.3,12.6c2.5,1.6,5.1,3.3,7.6,4.9c0.4,0.3,0.9,1,1.1-0.2c0-0.3,0.2,0,0.2,0.1c0,0.1,0,0.3,0,0.4
		c-0.3,2.6-1.1,5.1-2.3,7.5c-0.4,0.2-0.4,0.7-0.6,1.1c-0.7,1.3-0.9,1.3-2.1,0.5c-8-5.3-16.1-10.5-24.1-15.7
		c-0.3-0.2-0.6-0.3-0.8-0.5c-0.6-0.3-0.8-0.2-0.8,0.5c0,1,0.3,2-0.4,3c-0.7-0.5-0.5-1.2-0.6-1.8c-0.1-2,0.2-4-0.3-6
		c0-3.8-0.2-7.6,0.1-11.4c0.1-0.2,0.2-0.3,0.4-0.3C178.4,272.9,178.2,273.3,178.1,273.6z"/>
	<path class="st241" d="M189.5,321.6c-0.4-0.5-0.7-0.1-1.1,0c-2.5-1.1-4.6-2.7-6.9-4.2c-5.1-3.4-10.3-6.7-15.5-10.1
		c-5.2-3.4-10.5-6.7-15.7-10.3c-0.8-0.6-1.7-0.5-2.5-0.6c-0.8-0.1-0.9-0.2-0.5-0.9c1.8-0.2,3.7-0.2,5.5,0c1.8,0.4,3.7,0.1,5.6,0.2
		c1.3,0,2.7,0,4,0.1c1.8,1.1,3.6,2.3,5.4,3.5c8.8,5.7,17.5,11.4,26.2,17.1c0.9,0.6,1.6,0.8,2.4-0.1c0.5-0.5,0.5-0.4,1.1,0
		C195.2,318.5,192.5,320.3,189.5,321.6z"/>
	<path class="st242" d="M197.7,316.3c-0.6-0.5-0.8,0.2-1.1,0.4c-0.7,0.5-1.2,1-2.3,0.2c-3.8-2.7-7.8-5.2-11.7-7.7
		c-5.3-3.4-10.6-6.8-15.9-10.3c-1.3-0.9-2.8-1.4-3.8-2.8c0.5-0.5,1.2-0.4,1.9-0.4c4,0,8.1,0,12.1,0c0.1,0,0.3-0.1,0.4-0.2
		c0.1-0.1,0.1-0.2,0.1-0.4c0.1-0.3,0.1-0.5,0.4-0.7c0.2,0,0.4,0.1,0.4,0.2c0.1,1.5,1.3,2.1,2.3,2.7c6.5,4.2,12.9,8.5,19.5,12.6
		c0.7,0.4,1.2,0.9,1.3,1.7c0.1-0.6,0.5-1.1,1.1-1.4c0.2-0.1,0.5-0.3,0.5,0.2C201.5,312.7,199.7,314.7,197.7,316.3z"/>
	<path class="st243" d="M203,310.5c-1.1-0.2-0.9,1.3-1.9,1.4c0-0.9-0.7-1.2-1.3-1.6c-6.8-4.4-13.6-8.9-20.5-13.2
		c-1.1-0.7-1.2-1.6-1.5-2.6c-0.4-0.4-0.4-0.8-0.4-1.3c0-2.4,0-4.8,0-7.2c0-0.5,0-0.9,0.4-1.3c0.6,1.2,0.2,2.6,0.2,3.8
		c0.1,1,0,2.1,0.3,3.2c0-1,0.1-2,0-3c-0.1-1.1,0.4-1.1,1.1-0.6c1.9,1.2,3.9,2.4,5.8,3.6c5,3.3,10,6.5,15,9.8c1.6,1,3.2,2.1,4.7,3.2
		c0.6,0.4,1.1,0.5,1.4-0.4c0.2-0.5,0.5-1,0.7-1.5c0,0,0.1,0,0.1,0.1c0,0.1,0,0.2,0.1,0.3C206.2,305.9,204.8,308.3,203,310.5z"/>
	<path class="st240" d="M174.5,175.4c1.2,1.7,1.6,3.7,2.2,5.6c1,1.5,1,3.2,1.1,4.8c-0.4,1.8,0,3.7-0.2,5.5c-0.6,1.4-1.6,2.6-2.4,3.9
		c-7.8,11.8-15.4,23.8-23.2,35.6c-1.2,1.8-2.3,3.6-3.5,5.4c-0.3,0.4-0.7,1.4-1.4,0.4c-0.2-1.6-0.1-3.1-0.1-4.7c0-0.6,0-1.2-0.2-1.8
		c-0.2-4-0.2-8,0-12c0.1-0.2,0.2-0.5,0.4-0.5c0.3,0,0.4,0.3,0.5,0.6c0.1,0.8,0,1.6,0.1,2.4c0,0.7-0.1,1.4,0.2,2.4
		c1.4-2.4,2.9-4.4,4.2-6.6c3.4-5.4,6.9-10.7,10.4-16.1c4.2-6.4,8.3-12.9,12.6-19.3c0.4-0.7,0.5-1.2,0.3-1.9
		c-0.3-0.8-0.5-1.6-0.8-2.4C174.3,176.3,174,175.8,174.5,175.4z"/>
	<path class="st241" d="M167.7,165.1c2.9,2.8,5.1,6.1,6.7,9.8c-0.2,0.8-0.5,1.4-1,2.1c-8.4,12.7-16.7,25.5-25,38.3
		c-0.4,0.7-0.4,1.5-1.2,2.2c-0.8-3,0.1-5.9-0.6-8.6c-0.1-1.3,0-2.6-0.1-4c0-3.3,0-6.7,0-10c0-0.5,0-1,0.2-1.5
		c0.2-0.5,0.5-0.6,0.7-0.1c0.3,0.5,0.2,1.1,0.2,1.6c0.1,4.4-0.5,8.8-0.2,12.6c0-1.7,0-4,0-6.3c0-0.7,0.3-1.3,0.7-1.9
		c4-6.1,8-12.2,12-18.4c2.7-4.1,5.3-8.3,8.1-12.4c0.5-0.8,0.5-1.4-0.2-2.1C167.7,166.2,166.8,165.8,167.7,165.1z"/>
	<path class="st237" d="M177.5,185.8c-0.1-1.6-0.5-3.2-0.8-4.8c0.6-1.2-0.4-2.1-0.6-3.1c0-0.4-0.5-0.8-0.1-1.1
		c0.4-0.3,0.8,0.2,1.1,0.4c7.4,4.8,14.9,9.7,22.3,14.5c3.1,2,6.2,4,9.4,6c0.4,0.2,0.7,0.5,1.1,0.4c0,3.5,0,6.9,0,10.3
		c-0.7,0.4-1.2-0.1-1.6-0.4c-7.9-5.2-15.9-10.3-23.8-15.5c-1.5-1-3-2-4.6-2.9c-1-0.6-1.2-0.5-1.2,0.7c0,1.3,0,2.7,0,4
		c0,0.8,0.2,1.7-0.5,2.4c-0.7-0.4-0.5-1-0.6-1.6c-0.1-2,0.1-4.1-0.1-6.1C177.6,187.9,177.2,186.9,177.5,185.8z"/>
	<path class="st232" d="M146.2,154.5c0.4,0,0.7,0,1.1,0c3,0.4,5.9,1.2,8.7,2.5c0,0,0,0.1,0,0.1c1.8,1.1,1.8,1.1,0.6,2.9
		c-4,6.3-8.2,12.4-12.1,18.8c-1.2,2-2.7,3.8-3.8,5.8c-0.2,0.4-0.7,0.8-0.5,1.2c0.3,0.4,0.9,0.2,1.3,0.2c1.5,0,3.1-0.1,4.6,0.1
		c0.4,0,1.4,0,0.4,0.9c-2.6,0.2-5.2,0.1-7.8,0.1c-0.4,0-0.7-0.1-1-0.4c-0.4-0.4-0.9-0.3-1.3-0.3c-2.3,0-4.7,0-7,0
		c-0.4,0-0.8,0.2-1-0.2c-0.2-0.4,0.1-0.7,0.3-1c2-3,3.9-6,5.9-9c4.3-6.7,8.6-13.4,13-20.1c0.6-1,0.2-1.2-0.6-1.3
		c-0.5-0.1-0.9,0-1.4,0c0.1-0.1,0.1-0.2,0.2-0.2C145.9,154.5,146.1,154.5,146.2,154.5z"/>
	<path class="st245" d="M137.8,186.6c3.1,0,6.2,0,9.2,0c0.5-1.4,1.4-2.6,2.3-3.8c4.4-6.6,8.6-13.4,13.1-19.9c0.7-1,0-1.5-0.2-2.2
		c0,0,0-0.1,0.1-0.1c0.1-0.1,0.2,0,0.2,0c1.9,1.3,3.8,2.7,5.3,4.5c-0.4,1,0.7,1.2,1.1,1.7c0.5,0.6,0.6,0.9,0.1,1.6
		c-3.4,5.1-6.7,10.3-10,15.4c-3.5,5.4-7.1,10.8-10.6,16.2c-0.4,0.7-0.6,1.3-0.6,2.1c0,2.2,0,4.4-0.3,6.7c0-1.5,0-2.9,0-4.4
		c0-3.3,0-6.5,0-9.8c0-0.5,0.2-1-0.3-1.5c-0.5-0.4-0.4-1-0.4-1.6c0-0.7,0-1.5,0-2.2c0-1.8-0.1-1.9-1.9-1.9c-5.9,0-11.8,0-17.7,0
		c-0.7,0-1.5,0.1-2.2-0.3c-0.2-0.1-0.2-0.3-0.2-0.5c1.1-0.2,2.3-0.2,3.4,0C131.3,186.6,134.5,186.6,137.8,186.6z"/>
	<path class="st243" d="M162.4,160.6c0,0-0.1,0.1-0.1,0.1c1.6,1,0.5,1.9-0.1,2.9c-4.9,7.4-9.7,14.9-14.5,22.4
		c-0.2,0.3-0.3,0.6-0.6,0.7c-1.5-0.6-3.1-0.1-4.7-0.3c-0.9-0.1-2.3,0.4-2.6-0.2c-0.4-0.8,0.7-1.7,1.2-2.5
		c4.8-7.4,9.6-14.8,14.4-22.2c0.5-0.7,0.8-1.5,1.4-2.1c1-1.1,0.9-1.6-0.6-1.9c-0.2,0-0.3-0.2-0.4-0.3c0,0,0-0.1,0.1-0.1
		c0.1,0,0.2,0,0.3-0.1C158.3,157.9,160.5,159.1,162.4,160.6z"/>
	<path class="st246" d="M147,209.3c0.5,0.9,0.2,1.8,0.3,2.7c0.1,1.7,0,3.4,0.1,5.1c-0.1-1.3,0.9-2.1,1.5-3.1
		c5-7.8,10-15.5,15.1-23.2c3.3-5,6.4-10.2,10-15.1c0.2-0.3,0.3-0.6,0.5-0.8c0,0.2,0,0.3,0,0.5c0.2,1.4,0.9,2.7,1.3,4.1
		c0.1,0.4,0.3,0.8,0,1.3c-6,9.1-11.9,18.2-17.8,27.3c-3,4.7-6,9.4-9.1,14c-0.2,0.4-0.5,0.7-0.7,1c-0.1,0.2-0.3,0.4-0.6,0.3
		c-0.3-0.1-0.2-0.4-0.2-0.6c0-1.3,0-2.5,0-3.8c0-0.5,0.1-0.9-0.2-1.3c-0.2-0.2-0.4-0.4-0.4-0.7c-0.2-2.2-0.1-4.5,0-6.7
		C146.7,209.9,146.7,209.5,147,209.3z"/>
	<path class="st234" d="M372.4,307.5c-6.9-7.5-20.7-8.4-28-0.1c0-1.5-0.1-2.7,0-4c0.1-0.9-0.3-1.1-1.1-1.1c-1.4,0.1-2.8,0.1-4.2,0
		c-1.2-0.1-1.5,0.2-1.5,1.4c0,14,0,28,0,42.1c0,3.8,0,7.5,0,11.3c0,0.9,0.2,1.1,1.1,1.1c1.4-0.1,2.9-0.1,4.3,0
		c1,0.1,1.3-0.2,1.3-1.3c0-6.4,0-12.8,0-19.1c0-0.4-0.2-0.8,0.2-1.2c7.2,8,20.5,7.3,27.5,0.1C379.6,329,379.7,315.5,372.4,307.5z
		 M370.8,323.4c-0.7,6.5-4.5,11-10.1,12.3c-9.1,2-16.7-4.2-16.7-13.7c0-6.8,3.9-12.3,9.9-13.7C364.3,305.9,371.7,313.9,370.8,323.4z
		"/>
	<path class="st234" d="M323.3,321.5c0-6,0-11.9,0-17.9c0-1.1-0.3-1.4-1.3-1.3c-1.5,0.1-3,0.1-4.5,0c-0.8,0-1,0.3-1,1.1
		c0.1,1.3,0,2.6,0,4.1c-7-7.8-18.4-7.2-24.8-2.8c-7.5,5.1-10.7,15.4-7.4,24.6c5.4,15.2,24.3,16.3,31.8,7.3c0.1-0.1,0.2-0.1,0.4-0.1
		c0,1.2,0.1,2.4,0,3.5c-0.1,1.2,0.4,1.5,1.5,1.4c1.2-0.1,2.5-0.1,3.8,0c1.2,0.1,1.6-0.2,1.6-1.5
		C323.3,333.9,323.3,327.7,323.3,321.5z M303.6,336c-7.9,0-13.6-5.9-13.6-14.1c0-8.2,5.6-14,13.4-14c7.8,0,13.5,5.8,13.5,14
		C316.9,330.1,311.4,336,303.6,336z"/>
	<path class="st234" d="M484.8,303.3c0-0.7-0.2-1-0.9-1c-1.6,0-3.3,0-4.9,0c-0.7,0-1,0.2-1,0.9c0,1.3,0,2.7,0,4.1
		c-0.2-0.1-0.4-0.2-0.5-0.3c-5.9-6.8-17.3-7.2-24.5-2.3c-8.2,5.6-11,17.4-6.4,26.9c6.4,12.9,23.4,13.6,30.8,5.2
		c0.1-0.1,0.2-0.3,0.5-0.1c0,1.3,0,2.6,0,3.9c0,0.7,0.1,1,0.9,1c1.6,0,3.3,0,4.9,0c0.7,0,1-0.2,1-0.9
		C484.8,328.2,484.8,315.7,484.8,303.3z M465,336c-7.9,0-13.6-5.9-13.5-14.1c0-8.2,5.6-14,13.5-14c7.8,0,13.4,5.9,13.5,14
		C478.4,330.1,472.8,336,465,336z"/>
	<path class="st247" d="M126.6,294.9c2.6,2.1,5.6,3.8,8.4,5.6c4.3,2.9,8.8,5.7,13.2,8.6c7.7,5,15.3,9.9,23,14.9
		c0.5,0.4,1.1,0.5,1.7,0.5c1.7,0,3.3,0,5,0c0.4,0,0.9-0.2,1.3,0.3c-0.3,0-0.5,0-0.8,0c-0.5,0.3-1.2-0.1-1.7,0.2c-0.1,0-0.2,0-0.3,0
		c-0.3,0.2-0.7,0.1-1,0c-5.2-0.1-10.4,0-15.6-0.1c-3.5-0.4-6.1-2.6-8.9-4.4c-8.8-5.6-17.6-11.4-26.4-17.2c-3.7-2.4-7.5-4.7-11.1-7.3
		c-0.5-0.4-1.8-0.7-0.4-1.6c4.1-0.3,8.3-0.1,12.4-0.1C125.9,294.4,126.3,294.5,126.6,294.9z"/>
	<path class="st248" d="M146.2,358c-3.1,0-6.2,0-9.3,0c-0.9-0.2-0.8-0.7-0.4-1.2c0.5-0.8,1-1.6,1.5-2.4c5.8-8.9,11.5-17.7,17.2-26.6
		c0.5-0.8,1-1.7,1.9-2.1c3.2,0,6.3,0,9.5,0c0.4,0.7-0.1,1.1-0.4,1.6c-3.9,6.1-7.9,12.1-11.8,18.1C151.7,349.6,148.9,353.7,146.2,358
		z"/>
	<path class="st249" d="M146.2,358c0.3-1.8,1.6-3.1,2.6-4.6c5.7-8.9,11.5-17.7,17.3-26.6c0.3-0.4,0.5-0.8,0.5-1.3c2.7,0,5.3,0,8,0
		c1,0,1.6,0,0.8,1.3c-2.7,4.1-5.4,8.2-8.1,12.4c-3.7,5.8-7.5,11.6-11.2,17.3c-0.3,0.5-0.5,0.9-0.4,1.4
		C152.5,358,149.4,358,146.2,358z"/>
	<path class="st250" d="M157.1,325.6c-3.3,5.1-6.7,10.2-10.1,15.4c-3.4,5.3-6.8,10.5-10.2,15.8c-0.3,0.5-0.6,0.8,0,1.2
		c-1.6,0-3.2,0-4.7,0c-0.8-0.6-0.1-1.2,0.2-1.7c1.2-2.2,2.6-4.2,4-6.2c5.1-7.8,10.1-15.6,15.1-23.4c0.3-0.5,0.6-1.1,1.2-1.3
		c0.9-0.1,1.7-0.3,2.5,0.3C155.8,325.6,156.5,325.6,157.1,325.6z"/>
	<path class="st239" d="M175.5,325c0.3,0,0.6,0,0.9,0.1c-0.5,0.4-1.1,0.2-1.6,0.2c-6.6,0-13.1,0-19.7,0c-3.1,0.3-6.3,0.4-9.4,0.4
		c-2.6,0-5.2,0-7.8,0c-0.6,0-1.2,0.1-1.8-0.3c-0.2-0.2-0.2-0.3,0-0.5c0.5-0.4,1.2-0.3,1.8-0.3c6.5,0,13-0.2,19.5,0.1
		c5.8,0.2,11.6,0.1,17.4,0.2C175.1,324.9,175.3,324.9,175.5,325z"/>
	<path class="st248" d="M136.1,325.3c6.3,0,12.7,0,19.1,0c0,0.1,0,0.2,0,0.3c-0.9,0-1.9,0-2.8,0c-0.5,0.4-1,0.4-1.6,0.4
		c-1.8,0-3.6,0-5.4,0c-2.7,0-5.5,0.1-8.2,0c-0.7,0-1.4,0.1-2-0.3c-0.2-0.1-0.2-0.3-0.2-0.4C135.3,325,135.7,325,136.1,325.3z"/>
	<path class="st240" d="M176.7,325c0.5-0.5,1.1-0.2,1.7-0.2C177.9,325.2,177.3,325,176.7,325z"/>
	<path class="st251" d="M123.2,358c-9.7,0-19.4,0-29.1,0c-1.2-0.1-1.1-0.7-0.6-1.5c0.9-1.4,1.8-2.8,2.7-4.2
		c5.3-8.1,10.5-16.3,15.9-24.3c0.6-0.9,0.8-2.2,2.1-2.7c2.4-0.2,4.8,0,7.2-0.1c0.5,0,0.9,0,1.4,0.2c0.7,0.7,0.1,1.2-0.2,1.7
		c-1.1,1.9-2.4,3.7-3.6,5.5c-5.1,7.7-10,15.5-15.1,23.2c-0.1,0.2-0.3,0.4-0.4,0.6c-0.4,0.7-0.3,1,0.6,1c1.5,0,3,0,4.5,0
		c2.7-0.1,5.3,0,8,0c1.7,0,3.5,0,5.2,0C122.3,357.4,123,357.2,123.2,358z"/>
	<path class="st252" d="M113.7,325.6c-1.8,3.5-4.2,6.7-6.3,10c-4.5,7-9.1,14-13.6,21c-0.4,0.7-0.5,1.1,0.3,1.4
		c-3.1-0.1-6.1-0.2-9.2-0.2c-0.4-0.9,0.2-1.5,0.6-2.1c2.4-3.6,4.6-7.2,7-10.8c3.8-5.9,7.6-11.8,11.5-17.7c0.2-0.3,0.7-0.7,0.4-1.1
		c-0.2-0.4-0.8-0.2-1.2-0.2c-1.4,0-2.7,0-4,0c-0.5,0-1,0.1-1.4-0.4c-2.7,0-5.4,0-8.1,0c-0.1-0.2,0-0.4,0.2-0.5
		c0.2-0.1,0.5-0.2,0.8-0.2c5.1,0,10.1-0.1,15.2,0.1c2,0.4,4,0.1,6.1,0.2C112.5,325.2,113.2,325.1,113.7,325.6z"/>
	<path class="st253" d="M123.2,358c-1.7-0.5-3.5-0.1-5.2-0.2c-0.5,0-1,0-1.5,0c-0.2-0.7,0.3-1.2,0.6-1.8c2.6-4.2,5.4-8.4,8.1-12.5
		c3.6-5.6,7.2-11.1,10.8-16.6c0.3-0.4,0.5-0.9,0.9-1.2c2.8,0,5.6,0,8.4,0c0.4,0.7-0.1,1.2-0.4,1.6c-3.6,5.6-7.2,11.2-10.8,16.7
		c-2.7,4.2-5.4,8.4-8.2,12.6c-0.2,0.3-0.3,0.7-0.7,0.9c0.5,0.1,1.3-0.3,1.6,0.5C125.6,358,124.4,358,123.2,358z"/>
	<path class="st254" d="M97.8,325.6c2.4,0,4.8,0,7.3,0c0.2,0.6-0.2,1-0.5,1.4c-5,7.7-10.1,15.5-15.1,23.2c-1.3,1.9-2.6,3.9-3.8,5.8
		c-0.3,0.5-0.7,1-0.7,1.6c-2.2,0-4.4,0-6.6,0.1c-0.3,0-0.6,0-0.8-0.2c-0.3-0.4,0.1-0.6,0.2-0.8c1.9-3,3.9-6.1,5.9-9.1
		c4.5-7,9.1-14,13.6-21C97.5,326.4,97.6,326,97.8,325.6z"/>
	<path class="st255" d="M126.8,358c-0.5-0.5-1.2,0-1.8-0.4c0.9-1.9,2.2-3.6,3.4-5.4c5.5-8.5,11-17,16.5-25.4
		c0.2-0.3,0.3-0.8,0.5-1.1c2.3,0,4.7,0,7,0c-0.5,1.4-1.4,2.5-2.2,3.7c-5.5,8.6-11.1,17.1-16.6,25.7c-0.6,0.9-1.6,1.7-1.4,3
		C130.4,358,128.6,358,126.8,358z"/>
	<path class="st254" d="M89.7,325.3c0,0.1,0,0.2,0,0.3c-0.6,0-1.1,0-1.7,0c-1.4,0-2.8,0-4.2,0c-0.1-0.2,0-0.3,0.1-0.5
		C85.8,324.9,87.8,324.6,89.7,325.3z"/>
	<path class="st251" d="M6.3,254.9c0-4.6,0-9.1,0-13.7c0.7-0.4,1.2,0.2,1.7,0.5c9.3,6,18.5,12,27.8,18c0.6,0.4,1.3,1.2,1.9,0.9
		c0.7-0.3,0.2-1.3,0.3-2.1c0.1-0.7-0.2-1.4,0.6-2.1c0.8,1.3,0.1,2.7,0.7,3.9c0.1,4.6,0.1,9.1,0,13.6c-0.1,0.2-0.2,0.5-0.4,0.5
		c-0.2,0-0.3-0.2-0.3-0.4c0-0.7-0.1-1.3,0-2c0,0.7-0.1,1.5,0,2.2c0,0.4,0.2,0.9-0.3,1.1c-0.5,0.2-0.9,0-1.3-0.2
		c-1.6-1.1-3.2-2.1-4.8-3.1c-8.3-5.4-16.5-10.8-24.8-16.1C6.9,255.6,6.5,255.4,6.3,254.9z"/>
	<path class="st239" d="M6.3,254.9c3.9,2.5,7.8,5,11.7,7.5c6.1,3.9,12.2,7.9,18.3,11.8c0.6,0.4,1.1,1.3,1.9,0.9
		c0.6-0.4,0.2-1.4,0.3-2.1c0-0.5,0-0.9,0-1.7c0.6,1.2-0.1,2.3,0.5,3.1c0.7,0.8,0.3,1.7,0.4,2.5c0,2,0.1,4-0.1,6
		c-1,2-1.4,2.1-3.3,0.9c-9.6-6.2-19.2-12.4-28.9-18.6c-0.4-0.2-0.7-0.4-0.9-0.9C6.3,261.2,6.3,258,6.3,254.9z"/>
	<path class="st252" d="M39,259.9c-0.6-1,0-2.1-0.5-3.5c0,1.6,0,2.7,0,3.9c0,1-0.4,1.2-1.2,0.7c-1.9-1.2-3.8-2.4-5.6-3.6
		c-3.6-2.4-7.3-4.8-10.9-7.2c-4.4-2.8-8.7-5.6-13.1-8.4c-0.4-0.3-0.8-0.6-1.4-0.7c0-2.8,0-5.6,0-8.4c0.7-0.5,1.2,0.1,1.8,0.4
		c5.6,3.6,11.2,7.3,16.8,10.9c3.8,2.5,7.6,4.9,11.4,7.4c0.5,0.4,1.1,0.8,1.8,0.9c0.4-1.6-0.3-3.3,0.6-4.8c0.9,1.4,0.2,3.2,0.8,4.6
		c0.1,2.1,0,4.3,0,6.4C39.4,259.1,39.4,259.6,39,259.9z"/>
	<path class="st253" d="M6.3,264.4c3.3,1.8,6.3,3.9,9.4,5.9c5.4,3.5,10.8,6.9,16.3,10.4c1.4,0.9,2.7,1.8,4,2.7c1,0.7,2,1.5,3,0
		c0.4,0.3,0.4,0.7,0.4,1.1c0,2.3,0.1,4.6-0.1,6.8c-0.1,0.2-0.1,0.4-0.3,0.4c-0.4,0.1-0.4-0.3-0.4-0.5c0-0.9,0-1.9,0-2.8
		c0.1,1.2,0,2.5,0.1,3.8c0.1,1-0.7,1-1.3,0.6c-1.3-0.7-2.5-1.5-3.8-2.4c-7.8-5.1-15.6-10.1-23.4-15.2c-1.3-0.8-2.6-1.6-3.8-2.6
		C6.3,270,6.3,267.2,6.3,264.4z"/>
	<path class="st248" d="M6.3,292.1c0-2.7,0-5.4,0-8.1c0.7-0.1,1.2,0.3,1.6,0.6c9.5,6.3,19.1,12.3,28.6,18.6c0.2,0.2,0.5,0.3,0.7,0.5
		c0.6,0.4,0.8,0.2,0.9-0.5c0-0.5-0.1-1.1,0.6-1.5c0.7,1.2,0.1,2.6,0.6,3.8c0.1,1.6,0.2,3.3,0,4.9c-0.6,0.9-0.6,0.2-0.7-0.3
		c0.1,0.9,0.7,1.9-0.1,2.5c-0.9,0.6-1.6-0.4-2.3-0.9c-7.7-4.9-15.3-10-23.1-14.9c-2-1.2-3.9-2.5-5.8-3.8
		C6.9,292.8,6.5,292.5,6.3,292.1z"/>
	<path class="st254" d="M39,251.8c-0.6-1.2,0-2.6-0.5-3.9c0,1.4,0,2.8,0,4.2c0,1-0.2,1.1-1,0.6c-4.6-3-9.3-6-13.9-9
		c-5.3-3.4-10.7-6.9-16-10.4c-0.4-0.3-0.7-0.6-1.3-0.5c0-2.2,0-4.4,0-6.6c0-1,0.2-1,1-0.5c3.7,2.4,7.5,4.8,11.2,7.2
		c6,3.9,12,7.8,18,11.6c0.6,0.4,1.1,1.3,1.7,0.9c0.5-0.4,0.1-1.3,0.2-2c0.1-0.4-0.5-1.2,0.5-1.1c0.4,0.3,0.4,0.8,0.4,1.3
		c0,2.3,0,4.6,0,7C39.4,251,39.4,251.4,39,251.8z"/>
	<path class="st256" d="M6.3,272.8c1.9,0.4,3.2,1.8,4.8,2.8c7.3,4.6,14.6,9.4,21.9,14.1c1.5,1,2.9,1.9,4.4,2.9
		c0.7,0.4,1.1,0.4,1.1-0.6c0-1.2,0-2.5,0.1-3.7c0.5,1.2-0.2,2.5,0.4,3.6c0.4,0.3,0.4,0.7,0.4,1.1c0,1.7,0.1,3.4-0.1,5.2
		c-0.2,0.5-0.5,0.9-0.7,0c-0.1-0.6,0-1.2,0-1.8c0,0.7-0.1,1.4,0,2.1c0.1,0.6,0.3,1.2-0.3,1.5c-0.6,0.3-1.1-0.1-1.5-0.4
		c-1.7-1.1-3.4-2.2-5-3.3c-8.3-5.4-16.5-10.7-24.8-16.1c-0.3-0.2-0.5-0.4-0.7-0.7C6.3,277.2,6.3,275,6.3,272.8z"/>
	<path class="st257" d="M6.3,292.1c3.4,2.2,6.8,4.4,10.3,6.7c6.9,4.5,13.8,8.9,20.7,13.4c0.3,0.2,0.6,0.6,1,0.4
		c0.4-0.2,0.2-0.7,0.2-1c0-0.5,0-1,0-1.8c0.2,0.5,0.4,0.8,0.5,1c0.6,0.6,0.4,1.3,0.4,2c0,1.2,0.1,2.5-0.1,3.8
		c-0.2,0.3-0.4,0.8-0.7,0.1c-0.2-0.4-0.1-0.8,0-1.1c0,0.4-0.1,1,0.1,1.5c0.1,0.5,0.2,1-0.2,1.3c-0.5,0.4-1,0.2-1.4-0.1
		c-2-1.1-3.8-2.4-5.6-3.6c-7.9-5.1-15.8-10.3-23.7-15.4c-0.5-0.3-1-0.6-1.3-1C6.3,296.2,6.3,294.1,6.3,292.1z"/>
	<path class="st249" d="M6.3,298.2c1.3,0.3,2.3,1.2,3.4,1.9c7.3,4.7,14.6,9.5,21.9,14.3c1.9,1.2,3.7,2.4,5.6,3.6
		c0.9,0.6,1.4,0.3,1.3-0.8c0-0.7,0-1.5,0-2.4c0.5,0.8,0,1.6,0.5,2.1c0.2,0.2,0.3,0.4,0.3,0.6c0,1.8,0.2,3.6-0.3,5.3
		c-0.4-0.3-0.1-0.8-0.4-1.1c0,0.1-0.1,0.1-0.1,0.2c-0.1,0.6,0.3,1.5-0.4,1.8c-0.6,0.2-1.2-0.4-1.7-0.8c-7.3-4.7-14.5-9.4-21.8-14.1
		c-2.7-1.8-5.4-3.7-8.3-5.3C6.3,301.7,6.3,300,6.3,298.2z"/>
	<path class="st250" d="M6.3,279.5c3.1,1.6,5.9,3.7,8.8,5.5c6.1,3.9,12.3,7.9,18.4,11.8c1.3,0.8,2.5,1.7,3.8,2.6
		c0.9,0.6,1.2,0.4,1.2-0.7c0-1,0-2,0-3.4c0.6,1.2-0.1,2.2,0.5,3.1c0.3,0.3,0.4,0.6,0.4,1c0,1.6,0,3.2,0,4.7c0,0.4-0.1,0.7-0.4,1
		c-0.6-1,0-2.1-0.5-3.3c0,0.5,0,0.7-0.1,0.9c-0.1,0.6,0.3,1.4-0.3,1.7c-0.6,0.3-1.1-0.4-1.6-0.8c-5.3-3.4-10.6-6.8-15.9-10.3
		c-4.8-3.1-9.6-6.3-14.4-9.4C6.3,282.5,6.3,281,6.3,279.5z"/>
	<path class="st258" d="M39,251.8c0-3.2,0-6.3,0-9.5c0-3.3,0-6.5,0-9.8c0-3.5,0-6.9,0-10.3c0-1.5,0-3,0-4.5c0.6,0.1,0.6,0.6,0.7,1.1
		c0.1,0.6,0,1.2,0,1.8c0,10.2,0,20.4-0.1,30.7c0,7,0,14,0,21c0,0.7,0,1.3,0.2,1.9c0.3,3.6,0.1,7.3,0.1,10.9c0,4.4,0,8.9,0,13.3
		c-0.1,2,0.4,4-0.3,5.9c-0.2,0.1-0.3,0.1-0.5,0c-0.1-8.6,0-17.2,0-25.8c0-0.5,0.1-1-0.1-1.5c0-0.8,0-1.7,0-2.5c0-4.8,0-9.7,0-14.5
		C39,257.2,39,254.5,39,251.8z"/>
	<path class="st251" d="M210,261.6c0,3.1,0,6.1,0,9.2c-0.8,0.4-1.4-0.2-2-0.6c-5.6-3.6-11.2-7.3-16.8-10.9
		c-3.6-2.4-7.3-4.7-10.9-7.1c-0.4-0.3-0.8-0.9-1.3-0.5c-0.4,0.3-0.2,1-0.2,1.5c0,1.4,0.1,2.8-0.1,4.2c0,0.3,0.1,1.3-0.8,0.6
		c-0.3-0.9-0.1-1.8-0.2-2.7c0-2.1-0.1-4.1,0.1-6.2c0.4-1.8,0.1-3.6,0.2-5.4c0-0.6,0-1.2,0.1-1.8c0-0.2,0.1-0.3,0.2-0.4
		c0.6-0.4,1.1,0.1,1.5,0.4c7.1,4.6,14.2,9.1,21.2,13.8C203.9,257.7,207,259.6,210,261.6z"/>
	<path class="st252" d="M178.1,258.2c0.6-1.6,0.1-3.3,0.3-4.9c0.1-0.7-0.4-1.8,0.3-2.2c0.6-0.3,1.3,0.6,1.9,1
		c4.5,2.9,8.9,5.8,13.4,8.7c3.3,2.2,6.7,4.3,10,6.5c1.4,0.9,2.7,1.8,4.1,2.6c0.6,0.4,1.2,0.8,1.9,0.9c0,2.9,0,5.8,0,8.7
		c-0.6,0.2-1-0.1-1.4-0.4c-7.7-4.9-15.4-10-23-14.9c-1.9-1.2-3.8-2.4-5.6-3.6c-1-0.7-1.1-0.6-1.2,0.6c0,1.4,0.1,2.9-0.1,4.3
		c0,0.4,0.1,1.4-0.8,0.6c-0.3-1.5-0.1-3-0.1-4.5C177.8,260.4,177.4,259.2,178.1,258.2z"/>
	<path class="st239" d="M209.9,247.6c0,2.8,0,5.6,0,8.4c-0.7,0.5-1.2-0.1-1.7-0.4c-5.7-3.6-11.2-7.3-16.9-11
		c-3.8-2.4-7.6-4.9-11.4-7.4c-1.1-0.7-1.2-0.6-1.3,0.7c-0.1,1.2,0.4,2.4-0.3,3.5c-0.2,0.1-0.3,0-0.4-0.1c-0.4-1.1-0.1-2.3-0.2-3.4
		c0-0.7,0-1.4,0.1-2.1c0.4-1.8,0.1-3.7,0.2-5.6c0-0.5,0-0.9,0-1.4c0.1-1,0.6-1.3,1.6-0.9c0.4,0.1,0.7,0.4,1,0.6
		c9.3,6,18.7,12.1,28,18.1C209.1,246.9,209.6,247.2,209.9,247.6z"/>
	<path class="st253" d="M209.9,247.6c-1.3-0.2-2.2-1.1-3.3-1.8c-6-3.8-11.9-7.8-17.9-11.5c-3-1.8-5.9-3.9-8.9-5.8
		c-0.4-0.2-0.7-0.7-1.2-0.4c-0.5,0.3-0.3,0.8-0.3,1.3c0,1.6,0,3.3,0,4.9c0,0.4,0.2,0.9-0.3,1.3c-0.8-1.3-0.2-2.7-0.4-4.1
		c0-1.2-0.1-2.5,0.1-3.7c0.2-0.6,0.3-1.3,0.3-1.9c0-1.6,0-3.2,0-4.7c0-0.5-0.1-1.2,0.4-1.5c0.6-0.4,1.2,0.1,1.7,0.4
		c9.5,6.1,19,12.3,28.5,18.4c0.5,0.3,1,0.6,1.3,1C209.9,242.2,209.9,244.9,209.9,247.6z"/>
	<path class="st248" d="M210,219.9c0,2.7,0,5.4,0,8.1c-0.7,0.2-1.1-0.3-1.6-0.6c-9.6-6.2-19.1-12.4-28.7-18.6
		c-0.2-0.2-0.4-0.3-0.9-0.4c-0.2,1.1,0,2.1-0.1,3.1c-0.1,0.3,0.1,1.3-0.8,0.5c-0.3-1.5-0.2-3-0.1-4.4c0.2-0.7,0.2-1.4,0.2-2.1
		c0-1.5,0-3.1,0-4.6c0-1.5,0.6-1.8,1.8-0.9c6.4,4.1,12.8,8.3,19.2,12.4c3.2,2.1,6.3,4.1,9.5,6.1C209.1,218.9,209.7,219.3,210,219.9z
		"/>
	<path class="st254" d="M178.1,266.3c0.6-1.4,0.1-2.8,0.3-4.2c0.1-0.9-0.4-2.1,0.2-2.5c0.7-0.4,1.5,0.7,2.2,1.1
		c9,5.8,18,11.6,27,17.4c0.7,0.5,1.3,1,2.1,1.3c0,2.4,0,4.8,0,7.5c-1.7-1.1-3.4-2.1-5-3.2c-5.3-3.4-10.6-6.8-15.9-10.3
		c-3.1-2-6.2-4-9.3-6.1c-0.3-0.2-0.6-0.7-1.1-0.5c-0.5,0.3-0.3,0.8-0.3,1.3c-0.2,1.8,0.3,3.6-0.3,5.4c0-0.3,0-0.6,0-0.8
		C177.5,270.6,177.4,268.5,178.1,266.3z"/>
	<path class="st256" d="M209.9,239.5c-2.1-0.9-3.9-2.3-5.8-3.5c-8.2-5.2-16.3-10.5-24.5-15.8c-0.3-0.2-0.6-0.6-1-0.4
		c-0.5,0.2-0.3,0.7-0.3,1.1c0,1.8,0,3.5,0,5.3c0,0.4,0.2,0.9-0.3,1.3c-0.7-0.9-0.3-2-0.4-3c0-1.6-0.1-3.1,0.1-4.7
		c0.5-1.6,0.2-3.2,0.3-4.7c0-0.5,0-0.9,0-1.4c0.1-1.2,0.5-1.4,1.6-0.8c0.7,0.4,1.4,0.8,2,1.2c8.6,5.7,17.4,11.2,26,17
		c0.8,0.5,1.7,0.9,2.3,1.5C209.9,234.8,209.9,237.1,209.9,239.5z"/>
	<path class="st257" d="M210,219.9c-3.9-2.5-7.8-5-11.7-7.5c-6.3-4.1-12.6-8.2-18.9-12.3c-0.9-0.6-1-0.2-1,0.6c0,1.8,0,3.5,0,5.3
		c0,0.4,0.2,0.9-0.3,1.3c-0.1-0.1-0.1-0.1-0.2-0.2c-0.4-1.3-0.1-2.7-0.2-4.1c-0.1-2.1,0.2-4.1-0.2-6.2c-0.2-2.5,0-4.9,0.1-7.4
		c0-0.2,0.1-0.5,0.3-0.6c0.5,1,0.2,2.2,0.2,3.2c0.1,1.4,0,2.8,0.3,4.3c0-0.8,0-1.6,0-2.5c0.7-0.5,1.1,0,1.6,0.3
		c4.5,2.8,9,5.8,13.5,8.7c5.3,3.4,10.5,6.9,15.8,10.3c0.2,0.2,0.4,0.4,0.6,0.5C210,215.8,210,217.8,210,219.9z"/>
	<path class="st259" d="M178.4,241.4c0-1.4,0-2.8,0-4.2c0-0.4-0.2-0.8,0.3-1c0.4-0.2,0.7,0.2,1,0.4c4.3,2.8,8.6,5.6,13,8.4
		c5.4,3.5,10.8,7,16.1,10.4c0.4,0.3,0.7,0.6,1.3,0.5c0,1.9,0,3.7,0,5.6c-1.8-0.3-3.1-1.6-4.6-2.6c-5.7-3.6-11.3-7.3-16.9-11
		C185.1,245.8,181.7,243.6,178.4,241.4z"/>
	<path class="st249" d="M210,213.7c-2.4-0.9-4.4-2.6-6.5-3.9c-7.9-5.1-15.8-10.2-23.7-15.4c-0.4-0.3-0.8-0.7-1.4-0.5
		c0-1.4,0-2.9,0-4.3c0-1,0.4-1.1,1.2-0.7c2.4,1.5,4.9,3.1,7.3,4.7c3.7,2.4,7.3,4.8,10.9,7.2c3.6,2.4,7.2,4.7,10.9,7
		c0.4,0.3,0.8,0.6,1.4,0.7C210,210.2,210,212,210,213.7z"/>
	<path class="st250" d="M209.9,232.5c-0.9,0-1.6-0.6-2.2-1.1c-7.2-4.6-14.3-9.2-21.4-13.8c-2.3-1.5-4.5-3-6.8-4.4
		c-0.3-0.2-0.6-0.5-1-0.3c-0.4,0.2-0.2,0.7-0.2,1c0,1.4,0,2.8,0,4.2c0,0.4,0.2,0.9-0.3,1.3c-0.8-1.4-0.2-3-0.4-4.4
		c0.1-0.9-0.3-1.8,0.4-2.6c0.7-1.4,0-3,0.4-4.7c1.6,1,3.2,2,4.8,3.1c7,4.6,14.1,9.1,21.2,13.7c1.8,1.2,3.7,2.4,5.5,3.6
		C210,229.5,209.9,231,209.9,232.5z"/>
	<path class="st251" d="M109.2,154.2c4.6,0,9.1,0,13.7,0c0.4,0.8-0.2,1.3-0.5,1.9c-2.6,4.2-5.3,8.2-7.9,12.3
		c-3.5,5.4-7,10.8-10.5,16.2c-0.2,0.3-0.7,0.7-0.5,1.1c0.2,0.4,0.8,0.3,1.2,0.3c2.3,0,4.6,0,6.9,0c1.2,0,2.3-0.1,3.5,0
		c0.4,0,1.2-0.2,1.1,0.8c-0.3,0.2-0.7,0.3-1.1,0.3c-4.8,0-9.6,0.1-14.5-0.1c-1.5-0.4-3-0.2-4.5-0.2c-1.9,0-3.8,0-5.7,0
		c-0.5,0-1,0-1.4-0.2c-0.7-0.5-0.3-1.1,0-1.6c4.3-6.4,8.4-12.9,12.6-19.4c2-3.2,4.1-6.3,6.1-9.5
		C108.3,155.5,108.6,154.7,109.2,154.2z"/>
	<path class="st239" d="M109.2,154.2c-0.8,2-2.1,3.7-3.3,5.5c-5.1,7.9-10.3,15.9-15.4,23.9c-0.6,0.9-1.5,1.6-1.7,2.8
		c-0.3,0.3-0.7,0.3-1,0.4c-2.4,0-4.7,0-7.1,0c-1.4,0-1.6-0.6-0.9-1.8c1.2-1.9,2.4-3.7,3.6-5.5c5.4-8.4,10.9-16.8,16.3-25.2
		C102.9,154.2,106.1,154.2,109.2,154.2z"/>
	<path class="st253" d="M99.7,154.2c0,0.5-0.2,1-0.5,1.4c-4,6.1-8,12.3-12,18.4c-2.4,3.7-4.8,7.3-7.1,11c-0.2,0.3-0.7,0.6-0.4,1.1
		c0.3,0.4,0.8,0.2,1.2,0.2c2.6,0,5.3,0,8,0c0.5,0,0.9,0,1.4,0c0.1,0.2,0,0.3-0.1,0.4c-0.2,0.1-0.5,0.2-0.7,0.2
		c-3.4,0-6.8,0.1-10.2-0.1c-1.7-0.4-3.5-0.1-5.2-0.2c-0.8,0-1.6,0.1-2.3-0.1c-0.9-0.4-0.6-1-0.3-1.6c0.7-1.1,1.3-2.1,2-3.2
		c5.9-9,11.7-18,17.5-27c0.2-0.2,0.3-0.5,0.5-0.7C94.1,154.2,96.9,154.2,99.7,154.2z"/>
	<path class="st252" d="M111.2,186.3c-2.4,0-4.7,0-7.1,0c-0.4,0-0.9,0.2-1.2-0.2c-0.3-0.5,0.2-0.8,0.4-1.1c3.7-5.7,7.4-11.4,11-17
		c2.6-4,5.2-8.1,7.8-12.1c0.3-0.5,0.7-1,0.7-1.6c2.9,0,5.8,0,8.7,0c0.2,0.7-0.3,1.2-0.6,1.8c-4.3,6.7-8.7,13.3-13,20
		c-2,3.1-4.1,6.1-6,9.2C111.8,185.6,111.6,186,111.2,186.3z"/>
	<path class="st248" d="M72,154.2c1,0,2.1,0,3.1,0c1.7,0,3.3,0,5,0c0.2,0.6-0.2,1-0.4,1.4c-4.3,6.6-8.6,13.2-12.9,19.8
		c-2.2,3.4-4.5,6.9-6.7,10.3c-0.2,0.3-0.4,0.6-0.7,0.8c-2.3,0.4-4.6,0.2-7,0.1c-1.1,0-1.3-0.6-0.7-1.6c0.9-1.5,1.8-2.9,2.8-4.4
		c5.5-8.4,11-16.9,16.5-25.4C71.2,154.9,71.5,154.4,72,154.2z"/>
	<path class="st254" d="M111.2,186.3c0.8-2.1,2.2-3.8,3.4-5.7c5.4-8.4,10.9-16.7,16.3-25.1c0.3-0.4,0.5-0.9,0.7-1.4
		c2.1,0,4.3,0,6.4,0c0.3,0,0.7-0.2,0.9,0.2c0.2,0.3-0.2,0.6-0.4,0.9c-3.5,5.4-7,10.8-10.5,16.2c-3.1,4.7-6.1,9.4-9.2,14.1
		c-0.6,0.9,0,0.8,0.6,0.8c2.4,0,4.8,0,7.3,0c0.4,0,0.9-0.2,1.3,0.3c-1.1,0-2.2,0-3.4,0c-0.3,0.2-0.5,0.4-0.9,0.4
		c-2.2,0.1-4.4,0.1-6.7,0c-0.3,0-0.6-0.1-0.9-0.4C114.6,186,112.9,186.5,111.2,186.3z"/>
	<path class="st255" d="M91.3,154.2c-0.2,1.3-1.1,2.2-1.8,3.3c-5.4,8.3-10.8,16.6-16.2,24.9c-0.8,1.3-2,2.4-2.2,4
		c-0.4,0.4-0.9,0.4-1.4,0.4c-1.7,0-3.4,0.1-5.1,0c-0.2,0-0.3-0.1-0.4-0.2c-0.6-0.6-0.2-1.1,0.2-1.6c6.5-9.9,12.8-19.8,19.3-29.7
		c0.3-0.4,0.5-0.8,0.9-1C86.9,154.2,89.1,154.2,91.3,154.2z"/>
	<path class="st250" d="M84.6,154.2c-2.6,4.5-5.5,8.7-8.3,13c-3.9,6.1-7.9,12.1-11.9,18.2c-0.2,0.3-0.2,0.6-0.2,0.9
		c-1.6,0.6-3.2,0.6-4.8,0c2.3-3.9,4.8-7.6,7.3-11.3c4.5-6.9,8.9-13.9,13.4-20.8C81.6,154.2,83.1,154.2,84.6,154.2z"/>
	<path class="st257" d="M59.4,186.3c1.6,0,3.2,0,4.8,0l0,0c0.1,0.2,0,0.4-0.2,0.5c-0.5,0.2-1,0.2-1.5,0.2c-3.3,0-6.5,0-9.8,0
		c-0.6,0-1.2,0.1-1.7-0.4c-1.8-0.6-3.7-0.1-5.6-0.3c-0.4-0.7,0.2-1.1,0.5-1.6c4.3-6.7,8.6-13.3,12.9-19.9c2-3.1,4-6.2,6-9.3
		c0.3-0.5,0.6-1,1-1.3c2.1,0,4.1,0,6.1,0c-2.4,4.1-5.1,8-7.7,11.9c-4.1,6.3-8.2,12.6-12.3,18.9c-0.2,0.3-0.6,0.5-0.4,1
		c0.2,0.4,0.7,0.3,1,0.3C55,186.4,57.2,186.3,59.4,186.3z"/>
	<path class="st249" d="M65.9,154.2c-0.3,1.3-1.2,2.3-1.9,3.4c-5.6,8.6-11.2,17.2-16.8,25.8c-0.6,1-1.4,1.9-1.7,3
		c-1.4,0-2.9,0-4.3,0c-1,0-1-0.3-0.5-1c2-3,4-5.9,5.9-8.9c4.1-6.7,8.6-13.1,12.7-19.8c0.5-0.8,1.2-1.4,1.4-2.4
		C62.3,154.2,64.1,154.2,65.9,154.2z"/>
	<path class="st247" d="M69.2,260.7c0,4.7,0,9.3,0,14c-1.8,1.8-2.9,4-4.3,6.1c-3.6,5.4-7.2,10.9-10.7,16.4
		c-4.7,7.2-9.3,14.5-14,21.7c-0.2,0.3-0.4,0.5-0.6,0.8c-0.4-0.4-0.3-1-0.3-1.5c0-4.2,0-8.4,0-12.5c0.5-1.5,1.6-2.7,2.5-4
		c2.5-4,5.1-7.9,7.7-11.8c3.2-4.9,6.4-9.9,9.7-14.9c2.8-4.3,5.6-8.6,8.4-12.9C67.9,261.5,68.2,260.7,69.2,260.7z"/>
	<path class="st244" d="M69.2,288.1c0,2.2,0,4.4,0.1,6.6c0.1,0.1,0.1,0.2,0,0.3c-0.2,0-0.5-0.2-0.5,0.1c0,1.1-0.6,1.8-1.1,2.6
		c-5.3,8.3-10.6,16.5-16.1,24.7c-2.8,4.2-5.6,8.4-8.3,12.7c-0.2,0.3-0.4,0.6-0.9,0.6c-0.7-1.2-1-2.6-1.4-3.9c-0.1-0.4-0.1-0.6,0.2-1
		c3.2-4.8,6.3-9.6,9.4-14.4c4.2-6.5,8.5-13,12.7-19.5c1.8-2.8,3.6-5.6,5.4-8.4C68.8,288.5,69,288.3,69.2,288.1z"/>
	<path class="st260" d="M39.6,305.2c0,4.8,0,9.7,0,14.5c0,1.6,0,3.2,0,4.8c0,0.4,0.2,0.9-0.3,1.3c0-0.3,0-0.5,0-0.8
		c-0.2-0.5-0.1-1-0.1-1.5c0-5.9,0-11.8,0-17.7c0-0.5-0.1-1,0.1-1.5c0.1,0,0.2,0,0.3,0C39.8,304.6,39.8,304.9,39.6,305.2z"/>
	<path class="st261" d="M39.3,304.3c0,6.9,0,13.8,0,20.7c-0.5-0.7-0.1-1.5-0.3-2.3c0-2,0-3.9,0-5.9c0-2.1,0-4.1,0-6.1
		c0-1.9,0-3.7,0-5.6c0-2.2,0-4.5,0-6.7c0-2.2,0-4.5,0-6.7c0-2.8,0-5.6,0-8.4c0-2.1,0-4.3,0-6.4c0.4,0.5,0.2,1.1,0.2,1.6
		C39.3,287.1,39.3,295.7,39.3,304.3z"/>
	<path class="st238" d="M83.8,325.3c0,0.1,0,0.2,0,0.3c-2.3,0-4.7,0-7,0c-1,0-2.1,0-3.1,0c-0.1-0.2,0-0.4,0.2-0.5
		c2.4-0.5,4.8-0.1,7.2-0.2C82,324.9,83,324.6,83.8,325.3z"/>
	<path class="st262" d="M69.2,295.1c0-0.1,0-0.2,0-0.3c1.2,0,2.4,0.1,3.6,0.1c4.2,3.2,8.7,5.8,13,8.7c6.8,4.5,13.7,8.9,20.5,13.3
		c3.7,2.4,7.2,5,11.1,7c0.5,0.3,1.3,0.6,0.2,1.2c-3.2,0.2-6.3,0-9.5,0.1c-1.4,0-2.8-0.2-4.2-0.1c-1-0.2-1.7-0.9-2.5-1.5
		c-10.3-6.7-20.7-13.4-31-20.1c-0.4-0.3-0.9-0.5-0.9-1.1c0-0.8,0-1.6,0-2.3c0.2,3.4,0.4,6.8,0.3,10.2c0,4.3,0,8.6,0,12.9
		c0,0.6,0.3,1.4-0.6,1.8c0-0.7,0-1.3,0-2c0-6,0-11.9,0-17.9C69.2,301.7,69.2,298.4,69.2,295.1z"/>
	<path class="st263" d="M83.8,325.3c-3.4,0-6.7,0-10.1,0c-1.5,0.2-3,0.2-4.5,0c0-0.1,0-0.2,0-0.3c0.6-0.4,1.2-0.4,1.9-0.4
		c10.3,0,20.6-0.1,30.9,0c2,0,4.1,0.2,6.1,0.2c8.7,0.1,17.5-0.5,26.2-0.3c0.6,0.1,1.3-0.1,1.8,0.4c0,0.1,0,0.2,0,0.2
		c-0.4,0-0.7,0-1.1,0c-0.5,0.5-1.1,0.4-1.7,0.4c-2.9,0-5.9,0-8.8,0c-1,0-1.9-0.4-2.9-0.3c-4.8,0-9.5,0-14.3,0
		c-0.5,0-0.9,0.1-1.4-0.1c-5.4,0-10.8,0-16.2,0C87.7,325.3,85.7,325.3,83.8,325.3z"/>
	<path class="st264" d="M108.1,325c-13,0-25.9,0-38.9,0c0-0.1,0-0.2,0-0.3c0.4-0.4,0.3-1,0.3-1.5c0-4.5,0-8.9,0-13.4
		c0.9,0.3,0.7,1.1,0.7,1.7c0,3.5,0,7.1,0,10.6c0,2,0.1,2,2,2c7.9,0,15.8,0,23.7,0c1.1-0.1,2.1,0,3.2,0c1.5,0.1,3-0.3,4.5,0.4
		c1.5,0,3,0,4.5,0c0.1,0.1,0.1,0.1,0.1,0.2C108.2,325,108.1,325,108.1,325z"/>
	<path class="st232" d="M69.2,325.3c1.5,0,3,0,4.5,0c0,0.1,0,0.2,0,0.3C72.2,325.5,70.7,325.9,69.2,325.3z"/>
	<path class="st247" d="M104.8,217.1c-5.1,0-10.3,0-15.4,0c-1.9-1-3.6-2.2-5.3-3.3c-10.4-6.8-20.8-13.5-31.2-20.3
		c-2.6-1.7-5.2-3.3-7.7-5c-0.5-0.4-1-0.6-1.7-0.6c-2.1,0-4.2-0.2-6.3,0.2c-0.4,0-0.7,0-1-0.3c-0.1-0.1-0.2-0.2-0.3-0.3
		c0.9-0.1,1.8-0.2,2.7-0.3c1-0.2,2-0.1,3-0.4c2.5,0,5.1,0,7.6,0c2.2,0,4.4,0,6.7,0c0.5,0,0.6,0.3,0.1,0.5c-0.4,0.2-0.8,0.1-1.2,0.1
		c-2.1,0-4.2,0-5.7,0c2.3-0.1,5.3,0.2,8.2-0.2c1.7-0.2,3.2,0.2,4.7,1.3c4.7,3.3,9.5,6.3,14.4,9.4c4.6,3,9.2,6,13.8,9
		c4.5,2.9,9,5.8,13.5,8.8C104.2,215.9,105.1,216.1,104.8,217.1z"/>
	<path class="st239" d="M56.3,186.9c-2.3,0-4.7,0-7-0.1c-0.1-0.1-0.1-0.1-0.1-0.2c0,0,0.1-0.1,0.1-0.1c0.6,0,1.1,0,1.7,0
		c4.4,0,8.8,0,13.1,0c1.1-0.3,2.3-0.1,3.5-0.1c3.3,0,6.7,0,10,0c0.5,0,0.9-0.1,1.4,0.1c3.5,0,7.1,0,10.6,0c0.1,0.2,0,0.3-0.1,0.5
		c-2.1,0.5-4.2,0.1-6.4,0.2c-3.8,0-7.6,0-11.4,0c-4.7,0-9.4,0.1-14-0.1C57.2,187.2,56.7,187.2,56.3,186.9z"/>
	<path class="st257" d="M49.4,186.6c0,0.1,0,0.2,0,0.2c-2.6,0-5.2,0-7.8,0.1c-0.4,0.1-0.8,0.2-1.1,0c0.8-0.5,1.6-0.2,2.4-0.2
		C45,186.6,47.2,186.6,49.4,186.6z"/>
	<path class="st240" d="M40.4,186.9c0.4,0,0.7,0,1.1,0c-0.9,0.5-1.9,0.2-2.8,0.2C39.2,186.8,39.8,187,40.4,186.9z"/>
	<path class="st262" d="M69.3,217.2c0,0.1-0.1,0.2-0.1,0.2c-0.5,0.5-1.1,0.4-1.7,0.4c-2.2,0-4.5,0-6.7,0c-6.5,0-13,0.1-19.5,0
		c-0.8,0-1.6,0-2.3-0.4c0.4-0.5,1-0.3,1.4-0.3c7.2,0,14.3,0,21.5,0C64.4,217.1,66.9,217.2,69.3,217.2z"/>
	<path class="st265" d="M39,217.4c7.3,0,14.5,0,21.8,0c0.1,0.2,0,0.3-0.1,0.4c-1.3,0.5-2.7,0.2-4,0.2c-0.7-0.1-1.3,0.1-1.7,0.8
		c-3.1,4.9-6.2,9.7-9.4,14.5c-1.7,2.5-3.2,5.2-4.9,7.6c-0.5,0.8-0.8,1.6-0.7,2.5c0,2.3,0.1,4.6,0,6.9c0,0.3-0.1,0.5-0.2,0.7
		c-0.1,0.2-0.3,0.2-0.4,0.1c0-10.7,0-21.3,0-32c0-0.5,0.2-1.1-0.3-1.6C39,217.6,39,217.5,39,217.4z"/>
	<path class="st240" d="M36.2,187.7c0.4,0,0.7,0,1.1,0c6.2,4.2,12.5,8.3,18.8,12.4c4.5,3,9.1,5.9,13.6,8.8c3.5,2.3,7,4.4,10.4,6.8
		c0.5,0.3,1.2,0.6,1.1,1.4c-1.8,0-3.5,0-5.3,0c-1.8-1.6-3.9-2.7-5.8-4c-3.8-2.6-7.7-5-11.5-7.5c-8.1-5.2-16.1-10.5-24.1-15.7
		c-0.5-0.3-1.3-0.5-1.3-1.3C34.1,188,35.3,188.3,36.2,187.7z"/>
	<path class="st244" d="M142.5,294.9c1.5,0,3,0,4.5-0.1c0.3,0.2,0.3,0.5,0.2,0.8c0,0.1-0.1,0.3-0.2,0.4c0,0,0.1,0.1,0.1,0.1
		c3.3-0.2,5.4,2.2,7.8,3.7c8.6,5.5,17.2,11,25.7,16.7c2.6,1.7,5.4,3.2,7.8,5.3c-1.2,0.6-2.6,1-3.9,1.4c-3.9-2.8-8-5.3-12-7.9
		c-6.3-4.1-12.7-8.2-19-12.3c-3.4-2.2-6.8-4.4-10.2-6.7C142.9,295.9,142.2,295.7,142.5,294.9z"/>
	<path class="st244" d="M142.5,294.9c0,0.4,0.3,0.6,0.6,0.8c4.8,3.1,9.6,6.2,14.4,9.3c7.6,4.9,15.2,9.8,22.8,14.8
		c1.2,0.8,2.3,1.6,3.5,2.3c0.4,0.2,0.7,0.5,0.7,1c-0.4,0.2-0.8,0.3-1.3,0c-7.9-5.2-15.8-10.3-23.7-15.4c-6.2-4.1-12.4-8.2-18.6-12.2
		c-0.2-0.2-0.4-0.4-0.6-0.5C141.1,294.9,141.8,294.9,142.5,294.9z"/>
	<path class="st262" d="M177.8,284.8c0,3.3,0,6.5,0,9.8c0,0.3,0,0.6,0,0.9c-0.2,0.1-0.4,0-0.5-0.2c-0.3-0.6-0.2-1.3-0.2-1.9
		c0-11.9,0-23.9,0.1-35.8c0-0.5-0.1-1.1,0.2-1.6c0.1-0.2,0.3-0.2,0.5-0.2c0.2,2,0,4,0.1,5.9c-0.1,3.7,0.1,7.4-0.1,11.2
		C177.8,276.8,177.8,280.8,177.8,284.8z"/>
	<path class="st238" d="M177.8,272.7c0-3.7,0-7.5,0-11.2c0.1-0.1,0.2-0.1,0.3,0c0,1.6,0,3.2,0,4.7c0,2.1,0,4.3,0,6.4
		C178,272.7,177.9,272.7,177.8,272.7z"/>
	<path class="st244" d="M147,296c0-0.1,0-0.2,0-0.3c0.1-0.1,0.3-0.2,0.5-0.3c3.2-0.2,6.5,0,9.7-0.1c6.2,0,12.3,0,18.5,0
		c0.7,0,1.5,0,2.2,0.4c0,0.1,0,0.2,0,0.3c-0.3,0.2-0.6,0.1-0.9,0.1c-7.7,0-15.3,0-23,0c-0.3,0-0.7,0.1-0.9-0.1
		C150.9,296,149,296,147,296z"/>
	<path class="st243" d="M152.9,296c8.3,0,16.6,0,24.9,0c-0.4,0.5-1,0.3-1.4,0.3c-4.5,0-8.9,0-13.4,0c-2.9,0-5.8,0-8.6,0
		C153.9,296.2,153.3,296.4,152.9,296z"/>
	<path class="st264" d="M177.8,295.7c-6.9,0-13.8,0-20.7,0c-0.1-0.2,0-0.3,0.1-0.4c0.8-0.4,1.7-0.2,2.6-0.2c5.4-0.1,10.8,0,16.1,0
		c0.6,0,1.1,0,1.6,0.4c0.1,0,0.2,0,0.3,0C177.8,295.5,177.8,295.6,177.8,295.7z"/>
	<path class="st266" d="M147.1,266.1c0-8.7,0-17.4,0-26c0-3.2,0-6.5,0-9.7c0.5,2.2,0.1,4.5,0.2,6.7c0.5,0.4,0.4,1,0.4,1.6
		c0,4,0.1,7.9,0,11.9c-0.1,2-0.1,4,0.1,6c1.2-1.8,2.5-3.5,3.6-5.4c2.6-4.1,5.2-8.1,7.9-12.2c5.3-8.1,10.6-16.3,15.9-24.4
		c0.4-0.5,0.7-1.1,1.2-1.5c0.4-0.3,0.8-0.6,1.1,0.1c0.2,2.2,0,4.4,0.1,6.6c0,2.1,0.1,4.2-0.1,6.3c-0.6,1.4-1.7,2.5-2.6,3.8
		c-5,7.8-10.1,15.6-15.2,23.4c-3.7,5.6-7.3,11.3-11.1,16.9c-0.3,0.5-0.5,1.6-1.6,1c0-0.3,0-0.6,0-0.9
		C147.1,268.7,147.3,267.4,147.1,266.1z"/>
	<path class="st247" d="M147.3,250.9c0-4.7,0-9.3,0-14c1.2-1,1.9-2.4,2.7-3.7c3.9-6,7.8-11.9,11.7-17.9c5-7.7,9.9-15.3,14.9-23
		c0.2-0.3,0.3-0.6,0.6-0.7c0.3,0.3,0.3,0.8,0.3,1.2c-0.1,2.4,0.1,4.7,0.1,7.1c-0.1,1.9,0.1,3.9-0.1,5.8c-2.3,3.1-4.3,6.4-6.4,9.6
		c-7.3,11.2-14.6,22.4-21.9,33.6C148.8,249.8,148.6,250.9,147.3,250.9z"/>
	<path class="st267" d="M177.2,200.1c0-2.8,0-5.6,0-8.4c0.2-1.9-0.3-3.9,0.3-5.9c0.1,1,0.2,2,0.3,3.1c0,2.7,0,5.4,0,8.1
		c0.3,2,0,4.1,0.1,6.1c0,1.4,0,2.8,0,4.3c0,2.5,0,5,0,7.5c0,3.2,0,6.3,0,9.5c0,2.3,0,4.7,0,7c0,1.9,0.1,3.7-0.1,5.6
		c-0.2,0.1-0.3,0.1-0.5,0c-0.4-0.6-0.2-1.3-0.3-1.9c-0.2-5.1,0.4-10.2,0.3-15.3c0-2.9,0-5.8-0.2-8.8c-0.3-3.2,0.4-6.3,0.2-9.5
		C177.4,201,177.5,200.5,177.2,200.1z"/>
	<path class="st262" d="M147,217.2c-0.4,0-0.7-0.1-1.1-0.1c-3.9-2.6-7.8-5.1-11.7-7.6c-7-4.6-14-9.1-21-13.6
		c-3.9-2.5-7.9-5-11.7-7.7c-0.5-0.3-1-0.4-1.6-0.4c-2.5,0-4.9,0-7.4,0c-0.5,0-1,0-1.3-0.4c0.7-1,1.9-0.4,2.8-0.7
		c5.9-0.1,11.7,0.3,17.6,0.1c0.1,0,0.3,0,0.4,0.1c0.2,0.3-0.1,0.4-0.3,0.4c-0.8,0-1.5,0-2.3,0c0.9,0,1.8,0.1,2.7-0.1
		c1.7-0.3,3.4-0.1,5.2-0.1c0.4,0,0.8,0.2,1.1,0.5c2.4,2.1,5.2,3.6,7.9,5.3c6.3,4.2,12.7,8.3,19.1,12.4c0.9,0.6,1.3,1.2,1.2,2.2
		c-0.1,1.1,0,2.2,0,3.3c0-1.6,0.1-3.1-0.1-4.7c0-0.4-0.2-1,0.5-1.1c0,1.4,0,2.8,0,4.2C147,211.9,147,214.6,147,217.2z"/>
	<path class="st265" d="M147,205.1c-0.6,1.1-0.2,2.4-0.3,3.5c-0.1,0.9,0,1.7-0.3,2.6c0-1.3,0-2.6,0-3.9c0-0.7-0.2-1.1-0.8-1.4
		c-7.6-4.9-15.1-9.8-22.7-14.7c-1.7-1.1-3.5-2-4.9-3.4c-0.4-0.4-0.9-0.3-1.4-0.3c-2.6,0-5.1,0-8.1,0c1.4-0.5,2.5,0.1,3.5-0.5
		c0.9-0.4,1.8-0.2,2.7-0.1c3.3,0,6.6-0.2,9.8,0.1c6.8,0,13.6,0,20.3,0c2.3,0,2-0.3,2,2.1c0,1.3,0,2.7,0,4
		C147,197.1,147,201.1,147,205.1z"/>
	<path class="st238" d="M124.6,186.9c-4.2,0-8.4,0-12.6,0c-6.1,0-12.1,0-18.2,0c-1.4-0.1-2.8,0.7-4.2-0.1c0-0.1,0-0.2,0-0.3
		c0.2,0,0.4,0,0.6,0c3.5-0.2,6.9-0.2,10.3,0c5.2,0,10.4,0,15.7,0c2.8,0,5.6,0,8.4,0C124.6,186.7,124.6,186.8,124.6,186.9z"/>
	<path class="st267" d="M106.2,294.9c2.1,0,4.3,0,6.4,0c0.1,0.6,0.7,0.8,1.2,1.1c6.9,4.5,13.8,9,20.8,13.5c6.5,4.2,13,8.4,19.4,12.7
		c1.5,1,2.9,2,4.7,2.2c0.2,0,0.5,0.3,0.7,0.4c-2.4,0.3-4.9,0.1-7.3,0.1c-1.2-0.1-2.1-0.8-3-1.4c-9.1-5.9-18.1-11.8-27.2-17.7
		c-4.9-3.2-9.8-6.3-14.6-9.5C106.7,296,106,295.7,106.2,294.9z"/>
	<path class="st268" d="M151.5,324.8c2.6,0,5.2,0,7.8,0c4.9,0,9.8,0,14.7,0c0.5,0,1-0.2,1.5,0.2c-13.1,0-26.3,0-39.4,0.1
		c-0.6,0-1.1,0-1.7-0.1c-0.1-0.2,0-0.3,0.2-0.4c1.7-0.5,3.5-0.1,5.3-0.2c3.1,0,6.2,0,9.4,0C150,324.3,150.8,324.4,151.5,324.8z"/>
	<path class="st239" d="M137,325.6c-0.9,2.2-2.4,4-3.6,5.9c-5.3,8.3-10.7,16.6-16.1,24.9c-0.3,0.4-0.5,0.9-0.7,1.4
		c-2.8,0-5.6,0-8.4,0c-0.4-0.7,0.1-1.2,0.4-1.6c4.2-6.5,8.4-13,12.6-19.5c2.1-3.3,4.2-6.5,6.3-9.7c0.4-0.6,0.6-1.4,1.5-1.5
		c2,0.1,4-0.2,6,0.1C135.6,325.6,136.3,325.6,137,325.6z"/>
	<path class="st253" d="M135,325.6c-2.1,0-4.3,0-6.4,0c-1.9,0.7-3.7,0.7-5.6,0c-0.5,0-0.9,0-1.4,0c-0.1-0.1-0.1-0.1-0.1-0.2
		c0-0.1,0.1-0.1,0.1-0.1c4.5,0,8.9,0,13.4,0C135,325.4,135,325.5,135,325.6z"/>
	<path class="st259" d="M123,325.6c1.9,0,3.7,0,5.6,0c-0.4,1.1-1.2,2.1-1.8,3.1c-6,9.3-12.1,18.6-18.1,27.9
		c-0.2,0.4-0.5,0.7-0.5,1.1c-1.4,0-2.9-0.1-4.3,0c-1.3,0.1-1.4-0.4-0.8-1.3c1.8-2.7,3.6-5.4,5.3-8.2c4.1-6.3,8.2-12.6,12.3-18.9
		C121.4,328.1,122.3,326.9,123,325.6z"/>
	<path class="st239" d="M121.6,325.3c0,0.1,0,0.2,0,0.3c-2.6,0-5.2,0-7.8,0c-2.2,0-4.4,0-6.5,0c-0.4,0-0.9,0.2-1.3-0.3
		C111.1,325.3,116.3,325.3,121.6,325.3z"/>
	<path class="st266" d="M69.2,240.3c0,4.7,0,9.3,0,14c-3.1,4.3-5.8,8.8-8.7,13.2c-3.5,5.3-6.9,10.6-10.4,15.9
		c-3,4.6-5.9,9.2-8.9,13.7c-0.4,0.6-0.7,1.5-1.7,1.4c0-4.5,0-8.9,0-13.4c2.7-4.1,5.3-8.2,8-12.3c6.4-9.8,12.8-19.6,19.2-29.5
		c0.5-0.8,1.2-1.6,1.6-2.4C68.5,240.6,68.7,240.2,69.2,240.3z"/>
	<path class="st269" d="M69.2,240.3c-1.3,1.9-2.7,3.9-4,5.8c-2.6,3.9-5.1,7.9-7.7,11.8c-3.7,5.7-7.4,11.5-11.1,17.2
		c-1.9,3-3.9,5.9-5.8,8.8c-0.3,0.4-0.6,0.8-1.1,1.1c0-3.6,0-7.3,0-10.9c-0.2-0.2-0.1-0.5-0.1-0.8c2.4-3.8,4.8-7.5,7.3-11.3
		c7-10.7,14-21.5,20.9-32.2c0.3-0.5,0.5-1.4,1.5-1.1C69.2,232.7,69.2,236.5,69.2,240.3z"/>
	<path class="st267" d="M39.6,298.5c1.7-1.4,2.6-3.3,3.8-5.1c3.2-5.1,6.6-10.1,9.8-15.1c4.8-7.4,9.6-14.9,14.4-22.3
		c0.4-0.6,0.6-1.5,1.6-1.6c0,2.1,0,4.3,0,6.4c-1.5,1.1-2.2,2.8-3.1,4.2c-3.6,5.3-7.1,10.8-10.5,16.2c-4.2,6.6-8.6,13-12.7,19.6
		c-1,1.5-1.7,3.3-3.3,4.4c0-0.3,0-0.6,0-0.8C39.6,302.4,39.6,300.4,39.6,298.5z"/>
	<path class="st270" d="M39.6,273.3c0,0.3,0,0.6,0,0.8c-0.5-0.5-0.3-1.1-0.3-1.6c0-7.1,0-14.2,0-21.3c0.1,0,0.2,0,0.3,0
		c0.4,0.4,0.4,1,0.4,1.6c0,3.2,0.1,6.4,0,9.6c0.1,2.8,0,5.6,0,8.3C40,271.6,40.1,272.5,39.6,273.3z"/>
	<path class="st252" d="M178.1,249c0,2.1,0,4.3,0,6.4c-0.2,0.1-0.3,0-0.4-0.1c-0.4-2.6-0.4-5.2,0-7.8c0.1-0.2,0.2-0.2,0.4-0.2
		C178.3,247.8,178.3,248.4,178.1,249z"/>
	<path class="st259" d="M178.1,249c0-0.6,0-1.1,0-1.7c-0.6-2-0.6-3.9,0-5.9c0.1,0,0.2,0,0.3,0c0,2.1,0,4.2,0,6.3
		C178.4,248.1,178.5,248.6,178.1,249z"/>
	<path class="st254" d="M177.8,255.4c0.1,0,0.2,0,0.3,0c0,0.9,0,1.9,0,2.8c0,1.1,0,2.2,0,3.4c-0.1,0-0.2,0-0.3,0c0-2,0-3.9,0-5.9
		C177.7,255.6,177.7,255.5,177.8,255.4z"/>
	<path class="st251" d="M178.1,241.4c0,2,0,3.9,0,5.9c-0.1,0-0.2,0-0.3,0c-0.2-0.2-0.3-0.4-0.3-0.6c0-2.9-0.3-5.8,0.1-8.8
		c0.1-0.2,0.3-0.2,0.5-0.2C178.1,239,178.1,240.2,178.1,241.4z"/>
	<path class="st259" d="M178.1,237.8c-0.1,0-0.2,0-0.3,0c-0.3-0.3-0.2-0.5,0-0.8c0-1.9,0-3.7,0-5.6c0.1-0.1,0.2-0.1,0.3,0
		c0,1.4,0,2.8,0,4.2C178.1,236.3,178.1,237.1,178.1,237.8z"/>
	<path class="st239" d="M178.1,231.4c-0.1,0-0.2,0-0.3,0c0-2.3,0-4.7,0-7c0.1-0.1,0.2-0.1,0.3,0c0,1,0,2.1,0,3.1
		C178.1,228.8,178.1,230.1,178.1,231.4z"/>
	<path class="st256" d="M177.8,214.9c0-2.5,0-5,0-7.5c0.1-0.1,0.2-0.1,0.3,0l0,0c0,1.7,0,3.4,0,5c0,0.8,0,1.7,0,2.5
		C178,215,177.9,215,177.8,214.9z"/>
	<path class="st253" d="M177.8,214.9c0.1,0,0.2,0,0.3,0c0,1.5,0,3,0,4.5c0,1.7,0,3.4,0,5c-0.1,0-0.2,0-0.3,0
		C177.8,221.2,177.8,218,177.8,214.9z"/>
	<path class="st248" d="M177.8,203.1c0-2,0-4.1,0-6.1c0.6,1.5,0.1,3.1,0.3,4.6c0,0.5,0,1,0,1.5C178,203.3,177.9,203.3,177.8,203.1z"
		/>
	<path class="st250" d="M177.8,203.1c0.1,0,0.2,0,0.3,0c0,1.4,0,2.8,0,4.2c-0.1,0-0.2,0-0.3,0C177.8,205.9,177.8,204.5,177.8,203.1z
		"/>
	<path class="st239" d="M100.6,186.6c-3.5,0-6.9,0-10.3,0c0-0.1,0-0.2,0-0.3c3,0,5.9,0,8.9,0C99.6,186.4,100.2,186.2,100.6,186.6z"
		/>
	<path class="st250" d="M79,186.6c-4.9,0-9.9,0-14.8,0c0-0.1,0-0.2,0-0.3c2.3,0,4.7,0,7,0c2.2,0,4.4,0,6.5,0
		C78.2,186.4,78.6,186.2,79,186.6z"/>
	<path class="st266" d="M56.3,186.9c5.1,0,10.3,0,15.4,0c-0.1,0.7-0.7,0.4-1,0.4c-1.7,0.1-3.4,0-5.1,0c-0.2,0,0.1,0.2,0,0.1
		c0-0.1,0-0.1,0.1-0.1c3.4,0.1,6.7-0.2,10.1-0.1c0.8,0,1.4,0.2,2.1,0.6c10.3,6.8,20.7,13.5,31.1,20.2c3.9,2.5,7.8,5.1,11.7,7.6
		c0.5,0.3,1.3,0.6,0.9,1.5c-5.6,0-11.2,0-16.8,0c-1.1-1.6-2.8-2.2-4.3-3.2c-5.3-3.5-10.6-7-16-10.4c-5.9-3.8-11.9-7.6-17.8-11.5
		c-2.1-1.4-4.4-2.6-6.3-4.3c-0.4-0.4-0.9-0.2-1.3-0.2c-3.7,0-7.4,0-11.2-0.3c2.3,0,4.6,0,6.9,0C55.4,187.2,55.9,187.4,56.3,186.9z"
		/>
	<path class="st271" d="M139.7,324.8c-1.8,0-3.5,0-5.3,0c-2,0.3-4,0-6,0.1c-2-0.2-3.7-0.9-5.4-2c-10.4-6.8-20.9-13.6-31.4-20.4
		c-3.2-2.1-6.5-4.2-9.7-6.3c-0.4-0.3-1.1-0.5-0.7-1.3c4.3,0,8.6,0,12.9,0c10.1,6.6,20.1,13.1,30.2,19.6c4.9,3.2,9.7,6.6,14.8,9.5
		C139.5,324.1,139.9,324.3,139.7,324.8z"/>
	<path class="st262" d="M147.3,270.2c0,0.3,0,0.6,0,0.8c0.4,0.5,0.4,1,0.4,1.6c0,3.2,0,6.5,0,9.7c-0.1,2.7,0,5.5,0,8.3
		c0.7-0.2,0.9-0.7,1.1-1.1c6.6-10.2,13.3-20.3,19.9-30.5c2.3-3.6,4.6-7.3,7.1-10.9c0.3-0.4,0.5-0.8,0.9-1.1c0.4-0.3,0.7-0.2,0.8,0.3
		c0.2,4.3-0.2,8.5-0.1,12.8c0.1,0.7-0.6,1.1-0.9,1.7c-6.8,10.5-13.7,21-20.5,31.5c-0.5,0.8-0.6,1.9-1.8,2.2
		c-2.3,0.1-4.6-0.2-6.9,0.1h-0.1H147c0-0.3,0-0.6,0-0.9c0-7.6,0-15.3,0-22.9c0-0.6,0-1.1,0-1.7C147.2,270.1,147.2,270.1,147.3,270.2
		z"/>
	<path class="st266" d="M139.7,324.8c-3.7-2.4-7.4-4.7-11.1-7.1c-8.6-5.6-17.2-11.2-25.8-16.8c-2.5-1.6-5.1-3.2-7.6-4.9
		c-0.4-0.3-1.1-0.4-1.1-1.2c4,0,8,0,12,0c0.2,0.4,0.5,0.7,0.9,1c7.2,4.6,14.3,9.3,21.5,14c5.1,3.3,10.4,6.5,15.4,10
		c2.5,1.7,5.1,3.1,7.5,5C147.6,324.8,143.7,324.8,139.7,324.8z"/>
	<path class="st271" d="M121.6,217.1c0-0.8-0.7-0.9-1.2-1.2c-7-4.5-13.9-9-20.9-13.6c-7.1-4.6-14.3-9.2-21.3-13.9c-1-0.7-2-1-3.2-1
		c-3.3,0.1-6.6,0-9.9-0.3c1.7,0,3.5,0,5.2,0c0.5,0,1,0.2,1.5-0.2c3.8,0,7.7,0,11.5,0c0,0.5-0.4,0.4-0.7,0.4c-1,0-2.1,0-3.1,0
		c3,0.1,6-0.3,9-0.1c2.7,1.7,5.3,3.4,8,5.1c9.1,6,18.3,11.9,27.4,17.8c2.8,1.8,5.5,3.6,8.3,5.4c0.5,0.4,1.3,0.7,0.9,1.6
		C129.2,217.1,125.4,217.1,121.6,217.1z"/>
	<path class="st258" d="M81.3,294.9c0.8,1.4,2.3,1.9,3.6,2.7c4.4,3,9,5.9,13.5,8.8c6.8,4.4,13.7,8.8,20.6,13.3
		c0.5,0.4,1.1,0.7,1.6,1.1c2.4,1.5,4.6,3.4,7.5,4c-3.3,0.2-6.5,0.2-9.8,0c-0.9-1.1-2.3-1.3-3.4-2c-5.2-3.5-10.5-6.8-15.7-10.2
		c-7.5-4.9-15.1-9.7-22.6-14.7c-1.2-0.8-3-1.2-3.6-2.9C75.7,294.9,78.5,294.9,81.3,294.9z"/>
	<path class="st258" d="M92.7,187.5c1.6,0,3.2,0.2,4.7,0c2.6-0.3,4.6,0.6,6.6,2c6.7,4.5,13.4,8.8,20.2,13.2
		c6.8,4.4,13.6,8.8,20.3,13.2c0.5,0.3,1.3,0.5,1.3,1.3c-2.9,0-5.8,0-8.7,0c-7.7-5.3-15.6-10.2-23.3-15.3
		c-6.8-4.4-13.5-8.9-20.4-13.2C93.1,188.4,92.6,188.1,92.7,187.5z"/>
	<path class="st240" d="M81.3,217.1c-1-1.3-2.6-2-3.9-2.9c-5.2-3.5-10.5-6.8-15.8-10.2c-6-3.9-11.9-7.7-17.9-11.6
		c-1.9-1.2-3.8-2.5-5.7-3.8c-0.4-0.2-0.7-0.4-0.7-0.9c2.3-0.6,4.5-0.2,6.8-0.2c0.3,0,0.7,0.3,1,0.5c7.4,4.8,14.8,9.6,22.2,14.4
		c7,4.6,14,9.1,21,13.7c0.4,0.3,0.9,0.5,1.1,1C86.7,217.1,84,217.1,81.3,217.1z"/>
	<path class="st258" d="M39.6,270.8c0-2.8,0-5.6,0-8.4c2.1-2.5,3.6-5.3,5.4-8c4.2-6.5,8.5-13,12.7-19.5c3.7-5.8,7.5-11.4,11.2-17.2
		c0.1-0.1,0.2-0.1,0.4,0c0,3.1,0,6.1,0,9.2c-2.2,2-3.4,4.6-5,7c-3.7,5.5-7.3,11.1-10.8,16.6c-3.6,5.7-7.5,11.2-11,17
		c-0.6,1-1.3,1.8-1.9,2.7C40.2,270.6,40,271,39.6,270.8z"/>
	<path class="st258" d="M92.7,187.5c0.7,1.1,1.9,1.4,2.9,2.1c5.9,3.9,11.9,7.8,17.9,11.6c5.2,3.3,10.4,6.7,15.6,10
		c2.4,1.6,4.8,3.2,7.2,4.8c0.4,0.3,0.8,0.6,1,1.1c-1.4,0-2.8,0-4.2,0c0-0.7-0.5-0.9-1-1.2c-6-3.9-12-7.9-18.1-11.8
		c-8-5.2-16.1-10.4-24.1-15.6c-0.4-0.3-1-0.4-1-1.1c0.8-0.4,1.7-0.4,2.5,0C91.8,187.5,92.3,187.5,92.7,187.5z"/>
	<path class="st258" d="M39.6,270.8c2-2,3.1-4.6,4.7-6.9c6.5-9.8,12.8-19.6,19.2-29.5c1.4-2.2,2.8-4.4,4.2-6.6
		c0.4-0.5,0.8-1.1,1.6-1c0,0.7,0,1.3,0,2c-0.8,0-0.9,0.7-1.2,1.2c-3.6,5.6-7.2,11.2-10.9,16.8c-5.5,8.4-11,16.9-16.5,25.3
		c-0.3,0.4-0.5,0.9-1,1.1C39.6,272.5,39.6,271.6,39.6,270.8z"/>
	<path class="st270" d="M69.2,217.7c-0.1,0-0.2,0-0.2,0c-0.3,0.3-0.6,0.4-1,0.4c-2.2,0-4.4,0.2-6.7-0.1c-0.2-0.1-0.3-0.2-0.4-0.3
		c0-0.1,0-0.2,0-0.3c2.8,0,5.6,0,8.4,0C69.2,217.5,69.2,217.6,69.2,217.7z"/>
	<path class="st269" d="M147.3,270.2c-0.1,0-0.2,0-0.2,0c0-1.4,0-2.8,0-4.2C147.6,267.4,147.2,268.8,147.3,270.2z"/>
	<path class="st265" d="M96.1,324.8c-8.1,0-16.2,0-24.3,0c-2,0-2,0-2-1.9c0-3.8,0-7.6,0-11.5c0-0.5,0.2-1-0.3-1.4
		c0-3.7,0-7.4,0-11.1c0.1,0,0.2,0,0.3,0c0,1.3,0,2.6,0,3.9c0.6,0.9,0.4,1.8,0.4,2.8c-0.4,1.6,0.3,2.6,1.8,3.5
		c7.3,4.6,14.4,9.4,21.7,14c0.5,0.3,1.1,0.6,1.6,0.8C95.6,323.9,96.2,324.1,96.1,324.8z"/>
	<path class="st272" d="M69.8,305.7c0-1,0-2.1,0-3.1c3.6,2,7,4.4,10.4,6.7c5.4,3.5,10.8,6.9,16.1,10.4c2.2,1.4,4.4,2.9,6.6,4.3
		c0.3,0.2,0.4,0.5,0.6,0.7c-1.5,0-3,0-4.5,0c-3.5-1.7-6.6-4-9.9-6.1c-6.2-4-12.3-8.1-18.5-12C70.4,306.4,70,306.2,69.8,305.7z"/>
	<path class="st273" d="M118.2,324.8c3.3,0,6.5,0,9.8,0c2.1,0,4.3,0,6.4,0c0,0.1,0,0.2,0,0.2c-8.8,0-17.5,0-26.3,0
		c0-0.1,0-0.2,0-0.3C111.5,324.8,114.8,324.8,118.2,324.8z"/>
	<path class="st274" d="M69.8,305.7c3.5,1.9,6.8,4.2,10.1,6.4c5.2,3.3,10.3,6.6,15.4,10c1.3,0.9,2.9,1.3,3.9,2.6c-1,0-2.1,0-3.1,0
		c-0.9-1.1-2.3-1.3-3.4-2c-5.4-3.6-10.9-7.1-16.4-10.7c-2-1.3-4-2.5-6-3.8C69.2,307.6,70,306.6,69.8,305.7z"/>
	<path class="st258" d="M91.3,187.5c-0.8,0-1.7,0-2.5,0c-3.3,0-6.5,0-9.8,0c1.4-0.6,2.8,0.1,4.2-0.5c2.1,0,4.3,0,6.4,0
		c1.4,0,2.8,0,4.2,0C93.1,187.6,92.1,186.8,91.3,187.5z"/>
	<path class="st262" d="M61.1,217.7c2.6,0,5.2,0,7.8,0c-0.2,1.3-1.1,2.2-1.8,3.3c-3.4,5.3-6.9,10.7-10.4,16
		c-4.2,6.5-8.4,12.9-12.6,19.3c-1.1,1.8-2.3,3.5-3.4,5.2c-0.3,0.4-0.6,0.9-1.2,0.9c0-3.7,0-7.5,0-11.2c0-0.2,0-0.4,0-0.6
		c3.2-4.7,6.2-9.6,9.4-14.3C53,230.1,57.1,223.9,61.1,217.7z"/>
	<path class="st272" d="M61.1,217.7c0,1.3-1,2.1-1.7,3.1c-3.3,5.2-6.7,10.2-10,15.4c-2.8,4.4-5.7,8.8-8.5,13.2
		c-0.4,0.5-0.8,1-1.4,1.4c0-2.5,0-5,0-7.5c3.4-5,6.6-10.2,10-15.3c2-3,4-6.1,5.9-9.1c0.3-0.4,0.5-0.7,0.9-1.1c1.5,0,3,0,4.5,0
		C60.9,217.7,61,217.7,61.1,217.7z"/>
	<path class="st270" d="M56.4,217.7c-1.7,3.3-3.9,6.2-5.8,9.3c-2.6,4.2-5.3,8.3-8,12.4c-0.9,1.3-1.6,2.8-3,3.8
		c-0.3-1.5,0.8-2.4,1.5-3.5c4.1-6.4,8.3-12.8,12.5-19.2c0.5-0.7,1-1.5,1.4-2.3C55.3,217.4,55.8,217.8,56.4,217.7z"/>
	<path class="st265" d="M177.2,260.7c0-4.6,0-9.1,0-13.7c-0.6-0.7-0.5-1.5,0-2.3c0.2-0.1,0.3,0,0.4,0.2c0,3.6,0.2,7.2-0.1,10.8
		c0,13.2,0,26.5,0,39.7c-6,0-11.9,0-17.9,0c-0.2-0.8,0.3-1.3,0.7-1.9c4.7-7.2,9.3-14.4,14.1-21.6c0.7-1,1.3-2.2,2-3.2
		c0.4-0.6,0.5-1.2,0.5-1.9c0-1.5,0-3.1,0-4.6C176.9,261.8,176.8,261.2,177.2,260.7z"/>
	<path class="st269" d="M177.5,255.7c0-3.6,0-7.3,0-10.9c-0.3-0.3-0.4-0.6-0.4-1c0-1.9,0-3.9,0-5.8c0-0.4,0.1-0.7,0.4-1
		c0.1,0,0.2,0,0.3,0c0,0.3,0,0.6,0,0.8c0,3.2,0,6.3,0,9.5c0,2.7,0,5.4,0,8.1c0,0.1,0,0.2,0,0.3C177.7,255.7,177.6,255.7,177.5,255.7
		z"/>
	<path class="st265" d="M147.3,295.7c0.9-0.6,2-0.2,3-0.3c1.4-0.1,2.9,0,4.3,0c0.8-0.5,1.7-0.6,2.5,0c0,0.1,0,0.2,0,0.3
		C153.8,295.7,150.6,295.7,147.3,295.7z"/>
	<path class="st274" d="M157.1,295.4c-0.8,0-1.7,0-2.5,0c0.1-0.7,0.4-1.2,0.8-1.8c3.3-5,6.5-10,9.8-15.1c3.7-5.8,7.5-11.5,11.2-17.3
		c0.2-0.3,0.4-0.6,0.9-0.6c0,2.5,0.5,5.2-0.2,7.5c-0.7,2.3-2.6,4.2-4,6.3c-4.2,6.5-8.5,12.9-12.7,19.4c-0.3,0.5-0.5,1-0.8,1.5
		C158.8,295.4,157.9,295.4,157.1,295.4z"/>
	<path class="st269" d="M147.3,282.8c0-3.9,0-7.8,0-11.7c1.5-1.1,2.2-2.8,3.2-4.3c3.2-4.8,6.3-9.6,9.4-14.5c5.2-8,10.4-16,15.6-24.1
		c0.5-0.7,1-1.5,1.8-1.9c0.3,2.3,0.1,4.6,0.1,6.9c0,1.3,0,2.7,0,4c0,0.5-0.3,1-0.5,1.4c-4.7,7.3-9.5,14.5-14.2,21.8
		c-3.5,5.4-7.1,10.9-10.6,16.3c-1.2,1.8-2.4,3.7-3.6,5.5C148.2,282.7,148,283.2,147.3,282.8z"/>
	<path class="st267" d="M147.3,250.9c0.9-0.5,1.3-1.6,1.9-2.4c3.7-5.6,7.3-11.2,10.9-16.8c5.2-8,10.3-16,15.5-24
		c0.4-0.6,0.6-1.5,1.6-1.6c0.2,2.1,0.2,4.3,0,6.4c-1.3,0.8-1.8,2.2-2.6,3.4c-5,7.6-9.9,15.2-14.9,22.9c-3.7,5.8-7.4,11.5-11.2,17.3
		c-0.1,0.1-0.2,0.2-0.3,0.3c-0.2,0.3-0.3,0.8-0.7,0.7c-0.5-0.1-0.3-0.6-0.3-1C147.3,254.5,147.3,252.7,147.3,250.9z"/>
	<path class="st262" d="M177.2,237.8c0-3.8,0-7.6,0-11.5c0-2.2,0-4.5,0-6.7c0.1-0.1,0.2-0.1,0.3,0c0,5.8,0,11.6,0,17.3
		c0,2.6,0,5.2,0,7.8c-0.1,0-0.2,0-0.3,0c-0.3-0.3-0.4-0.7-0.4-1.1C176.9,241.7,176.4,239.7,177.2,237.8z"/>
	<path class="st269" d="M177.5,219.6h-0.1h-0.1c0-2.3,0-4.7,0-7c0-2.1,0-4.3,0-6.4c0-2.1,0-4.1,0-6.1c0.5,0.4,0.3,1,0.3,1.4
		C177.5,207.5,177.5,213.6,177.5,219.6z"/>
	<path class="st258" d="M177.2,237.8c0,2.3,0,4.7,0,7c0,0.7,0,1.5,0,2.2c-1,0.6-1.5,1.8-2.1,2.7c-4.3,6.5-8.6,13.1-12.8,19.7
		c-4.4,6.8-8.8,13.5-13.1,20.3c-0.2,0.3-0.4,0.6-0.6,0.9c-0.3,0.3-0.6,0.7-1,0.6c-0.4-0.2-0.2-0.7-0.2-1c0-2.5,0-4.9,0-7.4
		c0.4,0,0.6-0.2,0.8-0.5c4.6-7.1,9.2-14.3,13.8-21.4c3.6-5.5,7.2-10.9,10.7-16.4c1.3-1.9,2.5-3.9,3.7-5.9
		C176.6,238.3,176.9,238,177.2,237.8z"/>
</g>
</svg>
