<?xml version="1.0" encoding="utf-8"?>
<!-- Generator: Adobe Illustrator 25.4.1, SVG Export Plug-In . SVG Version: 6.00 Build 0)  -->
<svg version="1.1" id="图层_1" xmlns="http://www.w3.org/2000/svg" xmlns:xlink="http://www.w3.org/1999/xlink" x="0px" y="0px"
	 viewBox="0 0 512 512" style="enable-background:new 0 0 512 512;" xml:space="preserve">
<style type="text/css">
	.st0{fill-rule:evenodd;clip-rule:evenodd;fill:#EB5C20;}
	.st1{fill-rule:evenodd;clip-rule:evenodd;fill:#E29227;}
	.st2{fill:#EB5C20;}
	.st3{fill-rule:evenodd;clip-rule:evenodd;fill:#70BA33;}
	.st4{fill-rule:evenodd;clip-rule:evenodd;fill:#1C9965;}
	.st5{fill-rule:evenodd;clip-rule:evenodd;fill:#1E5D91;}
	.st6{fill-rule:evenodd;clip-rule:evenodd;fill:#C6224E;}
	.st7{fill:#B5B5B6;}
	.st8{fill-rule:evenodd;clip-rule:evenodd;fill:#B5B5B6;}
	.st9{fill:#DF5B23;}
	.st10{fill:#B5B5B6;stroke:#B5B5B6;stroke-width:10;stroke-miterlimit:10;}
	.st11{fill:#B5B5B6;stroke:#B5B5B6;stroke-width:18;stroke-miterlimit:10;}
	.st12{fill:#1E5D91;}
	.st13{fill:#E29227;}
	.st14{fill:#1C9965;}
	.st15{fill:#70BA33;}
	.st16{fill:#C6224E;}
	.st17{fill:#0E0304;}
	.st18{fill:#29292C;}
	.st19{fill:#2E3032;}
	.st20{fill:#1A1A1B;}
	.st21{fill:#757579;}
	.st22{fill:none;stroke:#B5B5B6;stroke-width:30;stroke-linecap:round;stroke-linejoin:round;stroke-miterlimit:10;}
	.st23{fill:#040000;}
	.st24{fill-rule:evenodd;clip-rule:evenodd;fill:#040000;}
	.st25{fill:url(#SVGID_1_);}
	.st26{fill:#EBE7C3;}
	.st27{fill-rule:evenodd;clip-rule:evenodd;fill:#EBE7C3;}
	.st28{fill:#FFFFFF;}
	.st29{fill:none;stroke:#B5B5B6;stroke-width:10;stroke-miterlimit:10;}
	.st30{fill-rule:evenodd;clip-rule:evenodd;fill:url(#SVGID_00000113319909252217646360000009765329606732900789_);}
	.st31{fill:#221F20;}
	.st32{fill:#F1AA43;}
	.st33{fill:#EB9326;}
	.st34{fill:#EE9F38;}
	.st35{fill:#E8891D;}
	.st36{fill:#EF9E36;}
	.st37{fill:#F9C88E;}
	.st38{fill:#CB838E;}
	.st39{fill:#F7BF75;}
	.st40{fill-rule:evenodd;clip-rule:evenodd;fill:#DF5B23;}
	.st41{fill:#2F2833;}
	.st42{fill:#403944;}
	.st43{fill:#DF5924;}
	.st44{fill-rule:evenodd;clip-rule:evenodd;fill:#CCBCB1;}
	.st45{fill-rule:evenodd;clip-rule:evenodd;fill:#393939;}
	.st46{fill-rule:evenodd;clip-rule:evenodd;fill:#EF9839;}
	.st47{fill-rule:evenodd;clip-rule:evenodd;fill:#EF993A;}
	.st48{fill-rule:evenodd;clip-rule:evenodd;fill:#D07A32;}
	.st49{fill-rule:evenodd;clip-rule:evenodd;fill:#E1893D;}
	.st50{fill-rule:evenodd;clip-rule:evenodd;fill:#E28C38;}
	.st51{fill-rule:evenodd;clip-rule:evenodd;fill:#E18B3C;}
	.st52{fill-rule:evenodd;clip-rule:evenodd;fill:#DF7F24;}
	.st53{fill-rule:evenodd;clip-rule:evenodd;fill:#DDCCC2;}
	.st54{fill-rule:evenodd;clip-rule:evenodd;fill:#DF8C38;}
	.st55{fill-rule:evenodd;clip-rule:evenodd;fill:#8B5930;}
	.st56{fill:#1C5AA8;}
	.st57{fill:#2156A6;}
	.st58{fill:#E7B41E;}
	.st59{fill:#298CCD;}
	.st60{fill:#123443;}
	.st61{fill:#B8266A;}
	.st62{fill:#1B4B68;}
	.st63{fill:#1C4157;}
	.st64{fill:#4A6894;}
	.st65{fill:#343535;}
	.st66{fill:#3E5375;}
	.st67{fill:#6CAACE;}
	.st68{fill:#335C85;}
	.st69{fill:#5294B1;}
	.st70{fill-rule:evenodd;clip-rule:evenodd;fill:#5255A3;}
	.st71{fill-rule:evenodd;clip-rule:evenodd;fill:#2B60AC;}
	.st72{fill:#2B60AC;}
	.st73{fill:#E8412E;}
	.st74{fill:#E83F21;}
	.st75{fill:#E33E28;}
	.st76{fill:#E84138;}
	.st77{fill:#E94526;}
	.st78{fill:#E94423;}
	.st79{fill:#E9481F;}
	.st80{fill:#E94522;}
	.st81{fill:#E9461F;}
	.st82{fill:#E84236;}
	.st83{fill:#E9471E;}
	.st84{fill:#E6411D;}
	.st85{fill:#E8412F;}
	.st86{fill:#132533;}
	.st87{fill:url(#SVGID_00000062168852123888716630000004018685792930090421_);}
	.st88{fill:url(#SVGID_00000159443193732956769530000007889024398750179212_);}
	.st89{fill:#CBCFD7;}
	.st90{fill:url(#SVGID_00000104677185488087819790000000717531556714015412_);}
	.st91{fill:url(#SVGID_00000045604516547598790990000014615524371448453253_);}
	.st92{fill:#366FAE;}
	.st93{fill:#FFF100;}
	.st94{fill:url(#SVGID_00000074419511781650455350000003576821472709867930_);}
	.st95{fill:#FFE000;}
	.st96{fill:url(#SVGID_00000180355110408220194380000005300304625729086879_);}
	.st97{fill:#FAC000;}
	.st98{fill:url(#SVGID_00000063600846758421040510000017568274989591310252_);}
	.st99{fill:#F4A000;}
	.st100{fill:url(#SVGID_00000165225698975760173560000010215116541033869492_);}
	.st101{fill:#EE7300;}
	.st102{fill:url(#SVGID_00000047049952832871692910000006630613413535012234_);}
	.st103{fill:#E94709;}
	.st104{fill:url(#SVGID_00000003786292301594829790000018126573581827718797_);}
	.st105{fill:#009E41;}
	.st106{fill:url(#SVGID_00000110451163741058198840000007592591566115496328_);}
	.st107{fill:#40AF36;}
	.st108{fill:url(#SVGID_00000031918252401900426770000012477726146920361380_);}
	.st109{fill:#72BB2B;}
	.st110{fill:url(#SVGID_00000134928815424734684880000016813172151095494568_);}
	.st111{fill:#E3E300;}
	.st112{fill:url(#SVGID_00000178179270287959117910000003605904427248614585_);}
	.st113{fill:#A3CA0F;}
	.st114{fill:url(#SVGID_00000143606621889374422440000001835946687151075761_);}
	.st115{fill:#C4D700;}
	.st116{fill:url(#SVGID_00000065064867153210920850000012593330439531182012_);}
	.st117{fill:#36B8B7;}
	.st118{fill:#3EB4AD;}
	.st119{fill:#3AB8B9;}
	.st120{fill:#56BAB0;}
	.st121{fill:#65BBB2;}
	.st122{fill:#32B7B0;}
	.st123{fill:#2EB6AE;}
	.st124{fill:#48B6BC;}
	.st125{fill:#4DB5BD;}
	.st126{fill:#3EB4AE;}
	.st127{fill:#57BBB1;}
	.st128{fill:#060909;}
	.st129{fill:#061014;}
	.st130{fill:#FAFAFB;}
	.st131{fill:#F6F7F7;}
	.st132{fill:#F7F7F7;}
	.st133{fill:#F6F6F6;}
	.st134{fill:#7CB8BD;}
	.st135{fill:#3FB5B7;}
	.st136{fill:#4DB6B9;}
	.st137{fill:#F4F5F5;}
	.st138{fill:#F5F5F5;}
	.st139{fill:#070505;}
	.st140{fill:#F4F3F3;}
	.st141{fill:#050202;}
	.st142{fill:#71BCBA;}
	.st143{fill:#73BBB8;}
	.st144{fill:#76BEBC;}
	.st145{fill:#83B8B8;}
	.st146{fill:#3DB9B5;}
	.st147{fill:#40BABA;}
	.st148{fill:#36B8B6;}
	.st149{fill:#28B6B2;}
	.st150{fill:#00B5C6;}
	.st151{fill:#00B5C2;}
	.st152{fill:#23B7BB;}
	.st153{fill:#00B5C4;}
	.st154{fill:#14B6BE;}
	.st155{fill:#09B6C0;}
	.st156{fill:#41B9B1;}
	.st157{fill:#00B4D0;}
	.st158{fill:#00B4D3;}
	.st159{fill:#30B8B8;}
	.st160{fill:#00B4CD;}
	.st161{fill:#1CB6BD;}
	.st162{fill:#28B7BA;}
	.st163{fill:#47BAAE;}
	.st164{fill:#34B8B6;}
	.st165{fill:#4CBBAD;}
	.st166{fill:#3BB9B3;}
	.st167{fill:#44BAAF;}
	.st168{fill:#00B3D6;}
	.st169{fill:#00B3D9;}
	.st170{fill:#00B3D7;}
	.st171{fill:#00B3DB;}
	.st172{fill:#00B5CA;}
	.st173{fill:#37B8B5;}
	.st174{fill:#1BB6BD;}
	.st175{fill:#00B5C8;}
	.st176{fill:#231815;stroke:#FFFFFF;stroke-width:0.187;stroke-miterlimit:10;}
	.st177{fill:#023592;}
	.st178{fill-rule:evenodd;clip-rule:evenodd;fill:#60BEA1;}
	.st179{fill:#FFFFFF;stroke:#FFFFFF;stroke-width:0.187;stroke-miterlimit:10;}
	.st180{fill:#7C2B7F;}
	.st181{fill:#752C7F;}
	.st182{fill:#EE8753;}
	.st183{fill:#F09D47;}
	.st184{fill:#EF944D;}
	.st185{fill:#EE8C51;}
	.st186{fill:#EC795A;}
	.st187{fill:#F0984B;}
	.st188{fill:#EB715E;}
	.st189{fill:#9E2F7F;}
	.st190{fill:#AA2E7E;}
	.st191{fill:#EC7C5D;}
	.st192{fill:#C4337F;}
	.st193{fill:#932D7F;}
	.st194{fill:#A42F7E;}
	.st195{fill:#BD317E;}
	.st196{fill:#B8327F;}
	.st197{fill:#B2317E;}
	.st198{fill:#992D7F;}
	.st199{fill:#CA347F;}
	.st200{fill:#8C2D7F;}
	.st201{fill:#D0357F;}
	.st202{fill:#AE307E;}
	.st203{fill:#EC765E;}
	.st204{fill:#DB377F;}
	.st205{fill:#E44676;}
	.st206{fill:#862C7E;}
	.st207{fill:#E96B64;}
	.st208{fill:#D6357F;}
	.st209{fill:#E96B62;}
	.st210{fill:#E13A80;}
	.st211{fill:#E13D7E;}
	.st212{fill:#822B7F;}
	.st213{fill:#E54D75;}
	.st214{fill:#33A2D3;}
	.st215{fill:#E3417B;}
	.st216{fill:#E65371;}
	.st217{fill:#E65B6C;}
	.st218{fill:#E96764;}
	.st219{fill:#E85F68;}
	.st220{fill:#E96366;}
	.st221{fill:#EA6F67;}
	.st222{fill:#E6566D;}
	.st223{fill:#EA6C6C;}
	.st224{fill:#E7606E;}
	.st225{fill:#EB7563;}
	.st226{fill:#EC7C69;}
	.st227{fill:#E8687D;}
	.st228{fill:#E0EDF7;}
	.st229{fill:#E9676E;}
	.st230{fill:#E9B536;}
	.st231{fill:#864690;}
	.st232{fill:#334190;}
	.st233{fill:#6A438D;}
	.st234{fill:#6B438D;}
	.st235{fill:#6B448D;}
	.st236{fill:#3A4291;}
	.st237{fill:#81458F;}
	.st238{fill:#644390;}
	.st239{fill:#9E458E;}
	.st240{fill:#98468F;}
	.st241{fill:#92468F;}
	.st242{fill:#8D458F;}
	.st243{fill:#9B468F;}
	.st244{fill:#90468E;}
	.st245{fill:#9C468F;}
	.st246{fill:#A3458D;}
	.st247{fill:#4E4491;}
	.st248{fill:#434291;}
	.st249{fill:#534290;}
	.st250{fill:#6E4591;}
	.st251{fill:#754490;}
	.st252{fill:#5F4390;}
	.st253{fill:#7B4490;}
	.st254{fill:#584390;}
	.st255{fill:#594390;}
	.st256{fill:#474392;}
	.st257{fill:#B3458C;}
	.st258{fill:#6A4491;}
	.st259{fill:#AE468C;}
	.st260{fill:#97458F;}
	.st261{fill:#B6468C;}
	.st262{fill:#9B458E;}
	.st263{fill:#C4468C;}
	.st264{fill:#BD478C;}
	.st265{fill:#AA468D;}
	.st266{fill:#A7468D;}
	.st267{fill:#B3468D;}
	.st268{fill:#B0458C;}
	.st269{fill:#BC468C;}
	.st270{fill:#AF458C;}
	.st271{fill:#B9468C;}
	.st272{fill:#BD468B;}
	.st273{fill:#BA468C;}
	.st274{enable-background:new    ;}
	.st275{fill:#1D1E1D;}
	.st276{fill:url(#Fill_1_00000173129903164013094580000013222760627836121525_);}
	.st277{fill:url(#Fill_3_00000040539451837319987940000013294825037477127571_);}
	.st278{fill:url(#Fill_5_00000152954376448876762050000013673131108603830405_);}
	.st279{fill:#1E201F;}
	.st280{fill:#3AB9B5;}
	.st281{fill:#27B4B0;}
	.st282{fill:#009694;}
	.st283{fill:#554B9D;}
	.st284{clip-path:url(#SVGID_00000071522132839027653260000001901890632916222080_);}
	.st285{fill:#FF761A;}
	.st286{fill:#E06300;}
	.st287{fill:#466007;}
	.st288{fill:#56840D;}
	.st289{fill:#C95100;}
	.st290{fill:#DE111E;}
	.st291{opacity:0.22;fill:#231F20;}
	.st292{fill:#DF3D4B;}
	.st293{fill:#C60E2D;}
	.st294{fill:#90C125;}
	.st295{fill:#F27466;}
	.st296{fill:#A36400;}
	.st297{fill:#DB9200;}
	.st298{fill:#BA7700;}
	.st299{fill:#FFCE00;}
	.st300{fill:#4A6D05;}
	.st301{fill:#76A51C;}
	.st302{fill:url(#SVGID_00000032620608146880331070000002277880287743151294_);}
	.st303{fill:url(#SVGID_00000169539672135182654850000013427532066184502695_);}
	.st304{fill:url(#SVGID_00000007386312166921573040000009702048938140135064_);}
	.st305{fill:url(#SVGID_00000038387374554926744040000014500517872174610350_);}
	.st306{fill:url(#SVGID_00000060747806578998049000000005638196436247639456_);}
	.st307{fill:url(#SVGID_00000109031481300379749290000016851406433907206538_);}
	.st308{fill:url(#SVGID_00000173872495614810514860000017748416082345911448_);}
	.st309{fill:url(#SVGID_00000051377998341928331920000012446292679676689024_);}
	.st310{fill:url(#SVGID_00000093886639944496843220000002024703859378736818_);}
	.st311{fill:url(#SVGID_00000128487076358603240670000016954119286806963343_);}
	.st312{fill:url(#SVGID_00000049202763780177981290000008438627560923724459_);}
	.st313{fill:url(#SVGID_00000036219206584276328780000013836339708973382020_);}
	.st314{fill:url(#SVGID_00000119110057269635028050000008626063854479702186_);}
	.st315{fill:url(#SVGID_00000172427124096880541880000015175079116476564897_);}
	.st316{fill:url(#SVGID_00000045605728984556703530000010082585792767496090_);}
	.st317{fill:url(#SVGID_00000112616666723713579520000012914241862200297373_);}
	.st318{fill:url(#SVGID_00000044163442460228954090000015889705188494640319_);}
	.st319{fill:url(#SVGID_00000057866127126306139730000008611794257163756462_);}
	.st320{fill:url(#SVGID_00000048498599662192518770000003325768444596385958_);}
</style>
<g>
	
		<image style="overflow:visible;opacity:0.4;" width="530" height="136" xlink:href="936D37D612EB9598.png"  transform="matrix(1 0 0 1 -2 195)">
	</image>
	<g>
		<g>
			<linearGradient id="SVGID_1_" gradientUnits="userSpaceOnUse" x1="6" y1="253.9559" x2="71.086" y2="253.9559">
				<stop  offset="8.039954e-03" style="stop-color:#FFF000"/>
				<stop  offset="1" style="stop-color:#E50012"/>
			</linearGradient>
			<path class="st25" d="M38.5,203.2c-8.3,0-16.7,3.3-23,9.9c-0.4,0.4-0.7,0.8-1.1,1.2C8.8,220.8,6,228.9,6,237.1h0v67.6h21.7v-35.7
				v-31.9c0-2.6,0.8-5.1,2.5-7.2c0.2-0.3,0.4-0.5,0.7-0.7c2.1-2.2,4.9-3.3,7.7-3.3c2.8,0,5.6,1.1,7.7,3.3c2.1,2.2,3.2,5.1,3.2,8l0,0
				l0,0c0,2.9-1.1,5.8-3.2,8l0,0c0,0,0,0,0,0c-0.9,1-1.7,2.1-2.2,3.3h0l0,0h5.4c5.6,0,11.1,2.2,15.3,6.6c0.3,0.3,0.6,0.6,0.9,0.9
				c7.3-11.2,7.3-26,0.2-37.3c0,0,0,0,0,0c0,0,0,0,0,0c0,0,0,0,0,0c0,0,0,0,0,0c0,0,0,0,0,0c0,0,0,0,0,0c0,0,0,0,0,0c0,0,0,0,0,0
				c-1.2-1.9-2.6-3.6-4.1-5.3C55.2,206.5,46.9,203.2,38.5,203.2"/>
			
				<linearGradient id="SVGID_00000096050219706081217260000010681789429289221764_" gradientUnits="userSpaceOnUse" x1="27.7034" y1="276.4933" x2="71.0874" y2="276.4933">
				<stop  offset="0" style="stop-color:#00A63C"/>
				<stop  offset="1" style="stop-color:#009FE8"/>
			</linearGradient>
			<path style="fill:url(#SVGID_00000096050219706081217260000010681789429289221764_);" d="M44,248.3h-5.5h0
				c-2.8,0-5.6,1.1-7.7,3.3c-3.2,3.3-4,8.2-2.3,12.3c0,0.1,0.1,0.2,0.1,0.3c0.5,1.2,1.3,2.3,2.2,3.3c0.2,0.2,0.4,0.4,0.7,0.6
				c2,1.8,4.5,2.7,7,2.7c2.5,0,5,0.9,7,2.6c0.2,0.2,0.5,0.4,0.7,0.7c2.1,2.2,3.2,5.1,3.2,8v11.3v11.3h21.7v-33.8v0v0l0,0
				c0-3.9-1-7.8-2.9-11.3l0,0l0,0c0,0,0,0,0,0c0,0,0,0,0,0c0,0,0,0,0,0c-0.7-1.3-1.6-2.5-2.5-3.7c-1.2,1.8-2.5,3.5-4,5.1
				c-2.1,2.2-4.9,3.3-7.7,3.3s-5.6-1.1-7.7-3.3c-2.1-2.2-3.2-5.1-3.2-8l0,0C43,251.4,43.4,249.8,44,248.3"/>
			
				<linearGradient id="SVGID_00000002378543762398102500000010823471370583607939_" gradientUnits="userSpaceOnUse" x1="43.0379" y1="256.2897" x2="65.586" y2="256.2897">
				<stop  offset="1.198083e-07" style="stop-color:#F5ED73"/>
				<stop  offset="1" style="stop-color:#FFFFFF"/>
			</linearGradient>
			<path style="fill:url(#SVGID_00000002378543762398102500000010823471370583607939_);" d="M49.4,248.3H44c-0.6,1.5-1,3.1-1,4.7
				c0,2.9,1.1,5.8,3.2,8c2.1,2.2,4.9,3.3,7.7,3.3s5.6-1.1,7.7-3.3c1.5-1.6,2.9-3.3,4-5.1c0,0,0,0,0,0c0,0,0,0,0,0
				c-0.3-0.3-0.6-0.6-0.9-0.9C60.5,250.5,54.9,248.3,49.4,248.3"/>
			
				<linearGradient id="SVGID_00000169550991001986406430000006187289181235316128_" gradientUnits="userSpaceOnUse" x1="334.91" y1="273.0486" x2="276.5691" y2="273.0486">
				<stop  offset="0" style="stop-color:#1D2087"/>
				<stop  offset="0.996" style="stop-color:#EA6DA4"/>
			</linearGradient>
			<path style="fill:url(#SVGID_00000169550991001986406430000006187289181235316128_);" d="M302.7,239.2L302.7,239.2
				C302.7,239.2,302.7,239.2,302.7,239.2C302.7,239.2,302.7,239.2,302.7,239.2C302.6,239.2,302.6,239.2,302.7,239.2
				c-0.1,0-0.1,0-0.1,0c0,0,0,0,0,0c0,0,0,0,0,0c0,0,0,0,0,0c0,0,0,0,0,0c0,0,0,0,0,0c-3.7,0-7.3,0.7-10.6,1.9v26.2
				c1.1-0.5,2.2-1.3,3.2-2.3l0,0l0,0l0,0c2-2,4.7-3.3,7.7-3.3c0.2,0,0.4,0,0.5,0c5.7,0.3,10.3,5.2,10.3,11.3l0,0c0,0,0,0,0,0l0,0
				l0,0l0,0l0,0c0,5.7-4.1,10.4-9.3,11.2c-0.5,0.1-1,0.1-1.5,0.1c-6,0-10.8,5-10.8,11.3s4.9,11.3,10.8,11.3c1.2,0,2.4-0.1,3.6-0.2
				c16.3-1.9,29-16.2,29-33.6c0-16.7-11.7-30.6-27.1-33.3C306.4,239.4,304.6,239.2,302.7,239.2"/>
			
				<linearGradient id="SVGID_00000139975141401854800910000004883539376712321177_" gradientUnits="userSpaceOnUse" x1="281.0169" y1="205.4367" x2="281.0169" y2="306.8545">
				<stop  offset="0" style="stop-color:#00A63C"/>
				<stop  offset="1" style="stop-color:#009FE8"/>
			</linearGradient>
			<path style="fill:url(#SVGID_00000139975141401854800910000004883539376712321177_);" d="M291.9,295.6L291.9,295.6L291.9,295.6
				 M281,205.4c-6,0-10.8,5-10.8,11.3v90.1h21.7v-11.3v-28.2c-1.4,0.7-3,1-4.5,1c-2.8,0-5.6-1.1-7.7-3.3c-2.1-2.2-3.2-5.1-3.2-8l0,0
				c0-2.9,1.1-5.8,3.2-8c3.4-3.5,7.5-6.3,12.2-8v-24.5C291.9,210.5,287,205.4,281,205.4"/>
			
				<linearGradient id="SVGID_00000000212132159739994260000014253493223438218165_" gradientUnits="userSpaceOnUse" x1="280.7472" y1="248.0891" x2="295.9477" y2="263.2897">
				<stop  offset="0" style="stop-color:#1797D5"/>
				<stop  offset="1" style="stop-color:#1EA8DC"/>
			</linearGradient>
			<path style="fill:url(#SVGID_00000000212132159739994260000014253493223438218165_);" d="M291.9,241.2c-4.6,1.7-8.8,4.4-12.2,8
				c-2.1,2.2-3.2,5.1-3.2,8c0,2.9,1.1,5.8,3.2,8c2.1,2.2,4.9,3.3,7.7,3.3c1.5,0,3.1-0.3,4.5-1v0l0,0V241.2L291.9,241.2L291.9,241.2"
				/>
			
				<linearGradient id="SVGID_00000040557683580314719980000014573657031005811086_" gradientUnits="userSpaceOnUse" x1="203.6469" y1="239.2427" x2="203.6469" y2="306.8545">
				<stop  offset="4.019733e-03" style="stop-color:#EA6DA4"/>
				<stop  offset="1" style="stop-color:#1D2087"/>
			</linearGradient>
			<path style="fill:url(#SVGID_00000040557683580314719980000014573657031005811086_);" d="M203.6,239.2c-6,0-10.8,5-10.8,11.3
				v56.3h21.7v-39.5c-1.4,0.6-2.9,1-4.5,1c-6,0-10.8-5-10.8-11.3l0,0l0,0l0,0l0,0c0-3.1,1.2-5.9,3.2-8c2.7-2.8,5.7-5,9-6.6
				c-1.8-1.8-4.1-3-6.7-3.3c0,0,0,0,0,0c0,0,0,0,0,0c0,0,0,0,0,0c0,0,0,0-0.1,0c0,0,0,0,0,0c-0.1,0-0.3,0-0.4,0c0,0,0,0,0,0
				c0,0,0,0,0,0c0,0,0,0,0,0c0,0,0,0,0,0c0,0,0,0,0,0c0,0-0.1,0-0.1,0c0,0-0.1,0-0.1,0c0,0,0,0,0,0
				C203.7,239.2,203.7,239.2,203.6,239.2C203.7,239.2,203.7,239.2,203.6,239.2"/>
			
				<linearGradient id="SVGID_00000057839745298031617910000011469293718968958894_" gradientUnits="userSpaceOnUse" x1="258.1115" y1="273.0494" x2="199.8122" y2="273.0494">
				<stop  offset="0" style="stop-color:#E50012"/>
				<stop  offset="1" style="stop-color:#FFF000"/>
			</linearGradient>
			<path style="fill:url(#SVGID_00000057839745298031617910000011469293718968958894_);" d="M225.3,239.2c-2.7,0-5.4,0.4-8.1,1.1
				c-0.9,0.2-1.9,0.5-2.8,0.9c-1.1,0.4-2.1,0.9-3.2,1.4c2,2,3.2,4.9,3.2,8v16.8l0,0c1.2-0.6,2.3-1.3,3.2-2.3
				c2.1-2.2,4.9-3.3,7.7-3.3c2.8,0,5.6,1.1,7.7,3.3c0.2,0.2,0.5,0.5,0.7,0.7c1.7,2.1,2.5,4.7,2.5,7.2l0,0c0,0,0,0,0,0v32.8v1h21.7
				V273c0-8.7-3.2-17.3-9.5-23.9C242,242.5,233.7,239.2,225.3,239.2"/>
			
				<linearGradient id="SVGID_00000181801755218180330360000011106217849068527260_" gradientUnits="userSpaceOnUse" x1="199.1535" y1="255.4594" x2="214.4949" y2="255.4594">
				<stop  offset="4.019733e-03" style="stop-color:#E3007F"/>
				<stop  offset="1" style="stop-color:#D74589"/>
			</linearGradient>
			<path style="fill:url(#SVGID_00000181801755218180330360000011106217849068527260_);" d="M211.3,242.5c-3.2,1.6-6.3,3.8-9,6.6
				c-2,2-3.2,4.9-3.2,8c0,6.2,4.9,11.3,10.8,11.3c1.6,0,3.1-0.4,4.5-1v-16.8C214.5,247.4,213.3,244.6,211.3,242.5
				C211.3,242.5,211.3,242.5,211.3,242.5C211.3,242.5,211.3,242.5,211.3,242.5"/>
			
				<linearGradient id="SVGID_00000106109253206665497550000011598224714653822143_" gradientUnits="userSpaceOnUse" x1="160.6211" y1="216.7054" x2="182.3175" y2="216.7054">
				<stop  offset="4.019733e-03" style="stop-color:#EA6DA4"/>
				<stop  offset="1" style="stop-color:#1D2087"/>
			</linearGradient>
			<path style="fill:url(#SVGID_00000106109253206665497550000011598224714653822143_);" d="M171.5,205.4c-2.8,0-5.6,1.1-7.7,3.3
				c-2.1,2.2-3.2,5.1-3.2,8c0,2.5,0.8,5,2.4,7.1c0.2,0.3,0.5,0.6,0.7,0.9l0,0c2.1,2.2,4.9,3.3,7.7,3.3c2.8,0,5.6-1.1,7.7-3.3l0,0
				c0.3-0.3,0.5-0.6,0.7-0.9c1.6-2.1,2.4-4.6,2.4-7.1c0-2.9-1.1-5.8-3.2-8C177,206.5,174.2,205.4,171.5,205.4"/>
			
				<linearGradient id="SVGID_00000020374280519932596550000008831555956426302385_" gradientUnits="userSpaceOnUse" x1="171.4693" y1="306.8545" x2="171.4693" y2="239.2425">
				<stop  offset="0" style="stop-color:#00A63C"/>
				<stop  offset="1" style="stop-color:#009FE8"/>
			</linearGradient>
			<path style="fill:url(#SVGID_00000020374280519932596550000008831555956426302385_);" d="M171.5,239.2c-2.8,0-5.6,1.1-7.7,3.3
				c-2.1,2.2-3.2,5.1-3.2,8v56.3h21.7v-56.3c0-2.9-1.1-5.8-3.2-8C177,240.3,174.2,239.2,171.5,239.2"/>
			
				<linearGradient id="SVGID_00000060002273817765952310000014184866845629139102_" gradientUnits="userSpaceOnUse" x1="137.5551" y1="306.8543" x2="137.5551" y2="239.2427">
				<stop  offset="0" style="stop-color:#E50012"/>
				<stop  offset="1" style="stop-color:#FFF000"/>
			</linearGradient>
			<path style="fill:url(#SVGID_00000060002273817765952310000014184866845629139102_);" d="M148.4,239.2h-21.7v1.9
				c2.5,0.9,4.8,2.1,7,3.6l0.1,0.1c4.1,2.8,7.5,6.5,9.9,10.8l0,0c1,1.7,1.5,3.7,1.5,5.8l0,0c0,0.9-0.1,1.8-0.3,2.7
				c-0.2,0.9-0.5,1.7-0.9,2.5c-1.9,3.7-5.6,6.1-9.6,6.1c-0.4,0-0.9,0-1.4-0.1c-0.4-0.1-0.9-0.1-1.3-0.2c-1.6-0.4-2.9-1.1-4.1-2.1
				c-0.4-0.3-0.7-0.6-1-0.9v26.3c0,0.2,0,0.4,0,0.6c0.1,2.7,1.2,5.3,3.2,7.4c2.1,2.2,4.9,3.3,7.7,3.3c2.8,0,5.6-1.1,7.7-3.3
				c2-2,3-4.7,3.2-7.4c0-0.2,0-0.4,0-0.6V239.2"/>
			
				<linearGradient id="SVGID_00000114761363169724424640000004046198135119932851_" gradientUnits="userSpaceOnUse" x1="83.0599" y1="272.7117" x2="144.214" y2="272.7117">
				<stop  offset="4.019733e-03" style="stop-color:#EA6DA4"/>
				<stop  offset="1" style="stop-color:#1D2087"/>
			</linearGradient>
			<path style="fill:url(#SVGID_00000114761363169724424640000004046198135119932851_);" d="M115.9,239.2c-1,0-1.9,0-2.9,0.1l0,0
				c-7.8,0.7-15.1,4.4-20.5,10.2l0,0c-3.9,4.1-6.7,9.3-8.2,15.3l0,0c-0.7,2.8-1,5.5-1,8.2c0,15.1,9.9,28.9,24.6,32.8
				c0.9,0.2,1.8,0.3,2.6,0.3c1.9,0,3.8-0.5,5.6-1.6c2.6-1.6,4.3-4.1,4.9-6.9c0.2-0.9,0.3-1.8,0.3-2.7c0-2-0.5-4-1.5-5.8
				c-1.5-2.7-4-4.4-6.7-5.1l0,0c-4.9-1.3-8.2-5.9-8.2-10.9l0,0v0c0-0.9,0.1-1.8,0.3-2.7l0,0c0.1-0.6,0.4-1.2,0.6-1.8l0,0
				c0,0,0,0,0,0c0,0,0,0,0,0c0,0,0,0,0,0c0,0,0,0,0,0c0,0,0,0,0,0c0,0,0,0,0-0.1c0,0,0-0.1,0-0.1c0,0,0,0,0,0
				c1.8-3.9,5.6-6.4,9.8-6.4c0.9,0,1.8,0.1,2.6,0.3c2.7,0.7,4.9,2.4,6.3,4.5c0.1,0.2,0.3,0.4,0.4,0.6l0,0l0,0c0.4,0.7,1,1.4,1.5,2.1
				v0l0,0v-28.1l0,0v0c-0.9-0.3-1.8-0.6-2.8-0.9c0,0,0,0,0,0c0,0,0,0,0,0c0,0-0.1,0-0.1,0l0,0l0,0
				C121.1,239.6,118.5,239.2,115.9,239.2"/>
			
				<linearGradient id="SVGID_00000102503220293841287100000000770756182151393434_" gradientUnits="userSpaceOnUse" x1="120.7193" y1="247.1631" x2="142.5564" y2="269.0002">
				<stop  offset="4.019733e-03" style="stop-color:#F4BAD0"/>
				<stop  offset="1" style="stop-color:#DB6A9C"/>
			</linearGradient>
			<path style="fill:url(#SVGID_00000102503220293841287100000000770756182151393434_);" d="M126.7,241.2v28.1
				c0.3,0.3,0.7,0.6,1,0.9c1.2,1,2.6,1.7,4.1,2.1c0.4,0.1,0.9,0.2,1.3,0.2c0.5,0.1,0.9,0.1,1.4,0.1c4,0,7.7-2.3,9.6-6.1
				c0.4-0.8,0.7-1.6,0.9-2.5c0.2-0.9,0.3-1.8,0.3-2.7c0-2.1-0.6-4.1-1.5-5.8l0,0c-2.5-4.3-5.8-8-9.9-10.8l-0.1-0.1
				C131.5,243.3,129.2,242.1,126.7,241.2"/>
			
				<linearGradient id="SVGID_00000157999520610478974500000007094694494819988643_" gradientUnits="userSpaceOnUse" x1="346.5567" y1="259.0079" x2="368.2472" y2="259.0079">
				<stop  offset="1.198083e-07" style="stop-color:#F5ED73"/>
				<stop  offset="1" style="stop-color:#FFFFFF"/>
			</linearGradient>
			<path style="fill:url(#SVGID_00000157999520610478974500000007094694494819988643_);" d="M357.4,247.7c-2.6,0-5.3,1-7.4,3
				c-0.1,0.1-0.1,0.2-0.2,0.2l0,0c0,0,0,0,0,0c-2.1,2.2-3.2,5.1-3.2,8c0,1.8,0.4,3.6,1.2,5.2c0.5,1,1.2,1.9,2,2.8
				c2.1,2.2,4.9,3.3,7.7,3.3c1.1,0,2.2-0.2,3.3-0.5c1.6-0.5,3-1.4,4.3-2.6c0,0,0.1-0.1,0.1-0.1c2.1-2.2,3.2-5.1,3.2-8
				s-1.1-5.8-3.2-8C363,248.8,360.2,247.7,357.4,247.7"/>
			
				<linearGradient id="SVGID_00000047059343000118206830000009761108065777294724_" gradientUnits="userSpaceOnUse" x1="340.1965" y1="274.9471" x2="405.2894" y2="274.9471">
				<stop  offset="0" style="stop-color:#FFF000"/>
				<stop  offset="1" style="stop-color:#E50012"/>
			</linearGradient>
			<path style="fill:url(#SVGID_00000047059343000118206830000009761108065777294724_);" d="M372.7,241.1c-0.1,0-0.1,0-0.2,0
				c0,0,0,0,0,0c0,0,0,0,0,0c0,0,0,0,0,0c0,0,0,0,0,0c0,0,0,0,0,0c-0.1,0-0.1,0-0.2,0h0c-8.7,0.1-16.5,3.8-22.2,9.6
				c2.1-2,4.7-3,7.4-3c2.8,0,5.6,1.1,7.7,3.3c2.1,2.2,3.2,5.1,3.2,8c0,2.9-1.1,5.8-3.2,8c0,0-0.1,0.1-0.1,0.1c0,0,0,0,0,0
				c0,0,0.1-0.1,0.1-0.1l0,0c2-2,4.7-3.3,7.7-3.3c6,0,10.8,5,10.8,11.3s-4.9,11.3-10.8,11.3c-6,0-10.8-5-10.8-11.3h0c0,0,0,0,0-0.1
				c0,0,0,0,0,0c0-3,1.2-5.7,3-7.8c-1.2,1.3-2.7,2.1-4.3,2.6c-1.1,0.3-2.2,0.5-3.3,0.5c-2.8,0-5.5-1.1-7.7-3.3
				c-0.8-0.8-1.5-1.8-2-2.8c-0.8-1.6-1.2-3.4-1.2-5.2c0-2.9,1.1-5.8,3.2-8c0,0,0,0,0,0l0,0c-5.9,6.1-9.5,14.6-9.5,23.9l0,0.1l0,0.1
				c0,0.1,0,0.2,0,0.4c0.3,17.7,13.6,32.1,30.5,33.2c0,0,0,0,0,0c0.1,0,0.1,0,0.2,0l0,0c0,0,0,0,0.1,0l0,0c0.1,0,0.1,0,0.2,0
				c0,0,0,0,0,0c0,0,0,0,0,0c0,0,0,0,0,0c0,0,0,0,0,0c0,0,0,0,0,0c0,0,0,0,0.1,0c0,0,0,0,0,0c0,0,0,0,0,0c0,0,0,0,0,0c0,0,0,0,0,0
				c0,0,0,0,0,0c0,0,0,0,0,0c0,0,0,0,0,0c0,0,0,0,0,0c0,0,0,0,0,0c0,0,0,0,0,0c0,0,0,0,0,0c0,0,0,0,0,0c0,0,0,0,0,0c0,0,0,0,0,0
				c0,0,0,0,0,0c0,0,0,0,0,0c0,0,0,0,0,0c0,0,0,0,0,0c0,0,0,0,0,0c0,0,0,0,0,0h0c0,0,0,0,0.1,0c0,0,0,0,0,0c0,0,0,0,0,0c0,0,0,0,0,0
				c0,0,0,0,0,0c0,0,0,0,0,0c0,0,0,0,0,0c0,0,0,0,0,0c0,0,0,0,0,0c0,0,0,0,0,0c0,0,0,0,0,0c0,0,0,0,0,0c0,0,0,0,0,0c0,0,0,0,0,0
				c0,0,0,0,0,0c0,0,0,0,0,0c0,0,0,0,0,0c0,0,0,0,0,0c0,0,0,0,0,0c0,0,0,0,0,0c0,0,0,0,0,0c0,0,0,0,0,0c0,0,0,0,0,0c0,0,0,0,0,0
				c0,0,0,0,0,0c0,0,0,0,0,0c0,0,0,0,0,0c0,0,0,0,0,0c0,0,0,0,0,0c0,0,0,0,0,0c0.1,0,0.1,0,0.2,0c0.3,0,0.6,0,0.9,0
				c17.6-0.5,31.7-15.4,31.7-33.8C405.3,256.3,390.7,241.1,372.7,241.1z"/>
			
				<linearGradient id="SVGID_00000083805960806621385320000000705892340881406366_" gradientUnits="userSpaceOnUse" x1="410.2282" y1="286.2157" x2="475.2641" y2="286.2157">
				<stop  offset="0" style="stop-color:#1D2087"/>
				<stop  offset="0.996" style="stop-color:#EA6DA4"/>
			</linearGradient>
			<path style="fill:url(#SVGID_00000083805960806621385320000000705892340881406366_);" d="M421.1,263.7c-6,0-10.8,5-10.8,11.3
				c0,18.4,14.2,33.4,31.8,33.8c0.2,0,0.5,0,0.7,0c13,0,24.1-7.9,29.4-19.2c1.8-3.9,2.9-8.2,3.1-12.7c-0.6,0-1.2,0.1-1.8,0.1
				c-9,0-17.1-3.8-23-9.9c2.1,2.2,3.2,5.1,3.2,8l0,0l0,0c0,2.9-1.1,5.8-3.2,8c-2.1,2.2-4.9,3.3-7.7,3.3s-5.6-1.1-7.7-3.3
				c-2.1-2.2-3.2-5.1-3.2-8v0v0c0-4.3-2.3-8.1-5.8-9.9c0,0-0.1,0-0.1,0C424.6,264.1,422.9,263.7,421.1,263.7"/>
			
				<linearGradient id="SVGID_00000099653885323713141960000010412477620686575516_" gradientUnits="userSpaceOnUse" x1="450.5928" y1="243.047" x2="506.2391" y2="243.047">
				<stop  offset="0" style="stop-color:#00A63C"/>
				<stop  offset="1" style="stop-color:#009FE8"/>
			</linearGradient>
			<path style="fill:url(#SVGID_00000099653885323713141960000010412477620686575516_);" d="M473.5,209.3c-6,0-10.8,5-10.8,11.3
				c0,0,0,0.1,0,0.1c0,1.8,0.5,3.6,1.2,5.1l0,0l0,0c1.8,3.5,5.3,6,9.4,6.1c0.1,0,0.2,0,0.2,0h0h0l0,0h0c2.6,0,5.1,0.9,7.2,2.8
				c0.2,0.2,0.3,0.3,0.5,0.5c2.1,2.2,3.2,5.1,3.2,8l0,0l0,0c0,2.9-1.1,5.8-3.2,8c-2.1,2.2-4.9,3.3-7.7,3.3c-2.8,0-5.6-1.1-7.7-3.3
				c5.9,6.1,9.5,14.6,9.5,23.9l0,0l0,0l0,0l0,0c0,0.6,0,1.3-0.1,1.9c0.1,0,0.2,0,0.3,0c4.3-0.3,8.3-1.4,12-3.2l0,0
				c11-5.4,18.5-17.1,18.5-30.5C506,224.4,491.4,209.3,473.5,209.3"/>
			
				<linearGradient id="SVGID_00000140003455239251147970000004004647419175062429_" gradientUnits="userSpaceOnUse" x1="447.2657" y1="262.3111" x2="475.317" y2="262.3111">
				<stop  offset="0" style="stop-color:#FFF000"/>
				<stop  offset="1" style="stop-color:#E50012"/>
			</linearGradient>
			<path style="fill:url(#SVGID_00000140003455239251147970000004004647419175062429_);" d="M458.1,247.7c-0.9,0-1.8,0.1-2.6,0.3
				c-1.8,0.5-3.6,1.5-5,3c-2.1,2.2-3.2,5.1-3.2,8c0,2.9,1.1,5.8,3.2,8c5.9,6.1,14,9.9,23,9.9c0.6,0,1.2,0,1.8-0.1l0,0
				c0-0.6,0.1-1.2,0.1-1.9c0-9.3-3.6-17.8-9.5-23.9l0,0l0,0C463.7,248.8,460.9,247.7,458.1,247.7"/>
		</g>
	</g>
</g>
</svg>
