<?xml version="1.0" encoding="utf-8"?>
<!-- Generator: Adobe Illustrator 25.4.1, SVG Export Plug-In . SVG Version: 6.00 Build 0)  -->
<svg version="1.1" id="图层_1" xmlns="http://www.w3.org/2000/svg" xmlns:xlink="http://www.w3.org/1999/xlink" x="0px" y="0px"
	 viewBox="0 0 512 512" style="enable-background:new 0 0 512 512;" xml:space="preserve">
<style type="text/css">
	.st0{fill-rule:evenodd;clip-rule:evenodd;fill:#EB5C20;}
	.st1{fill-rule:evenodd;clip-rule:evenodd;fill:#E29227;}
	.st2{fill:#EB5C20;}
	.st3{fill-rule:evenodd;clip-rule:evenodd;fill:#70BA33;}
	.st4{fill-rule:evenodd;clip-rule:evenodd;fill:#1C9965;}
	.st5{fill-rule:evenodd;clip-rule:evenodd;fill:#1E5D91;}
	.st6{fill-rule:evenodd;clip-rule:evenodd;fill:#C6224E;}
	.st7{fill:#B5B5B6;}
	.st8{fill-rule:evenodd;clip-rule:evenodd;fill:#B5B5B6;}
	.st9{fill:#DF5B23;}
	.st10{fill:#B5B5B6;stroke:#B5B5B6;stroke-width:10;stroke-miterlimit:10;}
	.st11{fill:#B5B5B6;stroke:#B5B5B6;stroke-width:18;stroke-miterlimit:10;}
	.st12{fill:#1E5D91;}
	.st13{fill:#E29227;}
	.st14{fill:#1C9965;}
	.st15{fill:#70BA33;}
	.st16{fill:#C6224E;}
	.st17{fill:#0E0304;}
	.st18{fill:#29292C;}
	.st19{fill:#2E3032;}
	.st20{fill:#1A1A1B;}
	.st21{fill:#757579;}
	.st22{fill:none;stroke:#B5B5B6;stroke-width:30;stroke-linecap:round;stroke-linejoin:round;stroke-miterlimit:10;}
	.st23{fill:#040000;}
	.st24{fill-rule:evenodd;clip-rule:evenodd;fill:#040000;}
	.st25{fill:url(#SVGID_1_);}
	.st26{fill:#EBE7C3;}
	.st27{fill-rule:evenodd;clip-rule:evenodd;fill:#EBE7C3;}
	.st28{fill:#FFFFFF;}
	.st29{fill:none;stroke:#B5B5B6;stroke-width:10;stroke-miterlimit:10;}
	.st30{fill-rule:evenodd;clip-rule:evenodd;fill:url(#SVGID_00000018943861740291503500000010511828040225702302_);}
	.st31{fill:#221F20;}
	.st32{fill:#F1AA43;}
	.st33{fill:#EB9326;}
	.st34{fill:#EE9F38;}
	.st35{fill:#E8891D;}
	.st36{fill:#EF9E36;}
	.st37{fill:#F9C88E;}
	.st38{fill:#CB838E;}
	.st39{fill:#F7BF75;}
	.st40{fill-rule:evenodd;clip-rule:evenodd;fill:#DF5B23;}
	.st41{fill:#2F2833;}
	.st42{fill:#403944;}
	.st43{fill:#DF5924;}
	.st44{fill-rule:evenodd;clip-rule:evenodd;fill:#CCBCB1;}
	.st45{fill-rule:evenodd;clip-rule:evenodd;fill:#393939;}
	.st46{fill-rule:evenodd;clip-rule:evenodd;fill:#EF9839;}
	.st47{fill-rule:evenodd;clip-rule:evenodd;fill:#EF993A;}
	.st48{fill-rule:evenodd;clip-rule:evenodd;fill:#D07A32;}
	.st49{fill-rule:evenodd;clip-rule:evenodd;fill:#E1893D;}
	.st50{fill-rule:evenodd;clip-rule:evenodd;fill:#E28C38;}
	.st51{fill-rule:evenodd;clip-rule:evenodd;fill:#E18B3C;}
	.st52{fill-rule:evenodd;clip-rule:evenodd;fill:#DF7F24;}
	.st53{fill-rule:evenodd;clip-rule:evenodd;fill:#DDCCC2;}
	.st54{fill-rule:evenodd;clip-rule:evenodd;fill:#DF8C38;}
	.st55{fill-rule:evenodd;clip-rule:evenodd;fill:#8B5930;}
	.st56{fill:#1C5AA8;}
	.st57{fill:#2156A6;}
	.st58{fill:#E7B41E;}
	.st59{fill:#298CCD;}
	.st60{fill:#123443;}
	.st61{fill:#B8266A;}
	.st62{fill:#1B4B68;}
	.st63{fill:#1C4157;}
	.st64{fill:#4A6894;}
	.st65{fill:#343535;}
	.st66{fill:#3E5375;}
	.st67{fill:#6CAACE;}
	.st68{fill:#335C85;}
	.st69{fill:#5294B1;}
	.st70{fill-rule:evenodd;clip-rule:evenodd;fill:#5255A3;}
	.st71{fill-rule:evenodd;clip-rule:evenodd;fill:#2B60AC;}
	.st72{fill:#2B60AC;}
	.st73{fill:#E8412E;}
	.st74{fill:#E83F21;}
	.st75{fill:#E33E28;}
	.st76{fill:#E84138;}
	.st77{fill:#E94526;}
	.st78{fill:#E94423;}
	.st79{fill:#E9481F;}
	.st80{fill:#E94522;}
	.st81{fill:#E9461F;}
	.st82{fill:#E84236;}
	.st83{fill:#E9471E;}
	.st84{fill:#E6411D;}
	.st85{fill:#E8412F;}
	.st86{fill:#132533;}
	.st87{fill:url(#SVGID_00000072254024200050808830000000296988628950114445_);}
	.st88{fill:url(#SVGID_00000098932676359375085170000018156383094781879200_);}
	.st89{fill:#CBCFD7;}
	.st90{fill:url(#SVGID_00000014601755567412257170000015095008280103799951_);}
	.st91{fill:url(#SVGID_00000057831505228387016330000002148493806854566321_);}
	.st92{fill:#366FAE;}
	.st93{fill:#FFF100;}
	.st94{fill:url(#SVGID_00000011005535700490312940000016379326986658175923_);}
	.st95{fill:#FFE000;}
	.st96{fill:url(#SVGID_00000024702213791239499930000009208885000466212997_);}
	.st97{fill:#FAC000;}
	.st98{fill:url(#SVGID_00000123420486400648559120000007947742345592017576_);}
	.st99{fill:#F4A000;}
	.st100{fill:url(#SVGID_00000178201014212682725870000015302517900075782817_);}
	.st101{fill:#EE7300;}
	.st102{fill:url(#SVGID_00000006680879167913400540000004763672089442592660_);}
	.st103{fill:#E94709;}
	.st104{fill:url(#SVGID_00000116949083496302766610000003958362347524366479_);}
	.st105{fill:#009E41;}
	.st106{fill:url(#SVGID_00000056422496261520999980000003292745941020771490_);}
	.st107{fill:#40AF36;}
	.st108{fill:url(#SVGID_00000063626196400073488430000006474221559426267014_);}
	.st109{fill:#72BB2B;}
	.st110{fill:url(#SVGID_00000073682185154644387750000010224281731538194836_);}
	.st111{fill:#E3E300;}
	.st112{fill:url(#SVGID_00000165208566421750020030000006744452968317971085_);}
	.st113{fill:#A3CA0F;}
	.st114{fill:url(#SVGID_00000057118485687929600740000016279937598465515704_);}
	.st115{fill:#C4D700;}
	.st116{fill:url(#SVGID_00000036963511346222307040000002260376340207088783_);}
	.st117{fill:#36B8B7;}
	.st118{fill:#3EB4AD;}
	.st119{fill:#3AB8B9;}
	.st120{fill:#56BAB0;}
	.st121{fill:#65BBB2;}
	.st122{fill:#32B7B0;}
	.st123{fill:#2EB6AE;}
	.st124{fill:#48B6BC;}
	.st125{fill:#4DB5BD;}
	.st126{fill:#3EB4AE;}
	.st127{fill:#57BBB1;}
	.st128{fill:#060909;}
	.st129{fill:#061014;}
	.st130{fill:#FAFAFB;}
	.st131{fill:#F6F7F7;}
	.st132{fill:#F7F7F7;}
	.st133{fill:#F6F6F6;}
	.st134{fill:#7CB8BD;}
	.st135{fill:#3FB5B7;}
	.st136{fill:#4DB6B9;}
	.st137{fill:#F4F5F5;}
	.st138{fill:#F5F5F5;}
	.st139{fill:#070505;}
	.st140{fill:#F4F3F3;}
	.st141{fill:#050202;}
	.st142{fill:#71BCBA;}
	.st143{fill:#73BBB8;}
	.st144{fill:#76BEBC;}
	.st145{fill:#83B8B8;}
	.st146{fill:#3DB9B5;}
	.st147{fill:#40BABA;}
	.st148{fill:#36B8B6;}
	.st149{fill:#28B6B2;}
	.st150{fill:#00B5C6;}
	.st151{fill:#00B5C2;}
	.st152{fill:#23B7BB;}
	.st153{fill:#00B5C4;}
	.st154{fill:#14B6BE;}
	.st155{fill:#09B6C0;}
	.st156{fill:#41B9B1;}
	.st157{fill:#00B4D0;}
	.st158{fill:#00B4D3;}
	.st159{fill:#30B8B8;}
	.st160{fill:#00B4CD;}
	.st161{fill:#1CB6BD;}
	.st162{fill:#28B7BA;}
	.st163{fill:#47BAAE;}
	.st164{fill:#34B8B6;}
	.st165{fill:#4CBBAD;}
	.st166{fill:#3BB9B3;}
	.st167{fill:#44BAAF;}
	.st168{fill:#00B3D6;}
	.st169{fill:#00B3D9;}
	.st170{fill:#00B3D7;}
	.st171{fill:#00B3DB;}
	.st172{fill:#00B5CA;}
	.st173{fill:#37B8B5;}
	.st174{fill:#1BB6BD;}
	.st175{fill:#00B5C8;}
	.st176{fill:#231815;stroke:#FFFFFF;stroke-width:0.187;stroke-miterlimit:10;}
	.st177{fill:#023592;}
	.st178{fill-rule:evenodd;clip-rule:evenodd;fill:#60BEA1;}
	.st179{fill:#FFFFFF;stroke:#FFFFFF;stroke-width:0.187;stroke-miterlimit:10;}
	.st180{fill:#7C2B7F;}
	.st181{fill:#752C7F;}
	.st182{fill:#EE8753;}
	.st183{fill:#F09D47;}
	.st184{fill:#EF944D;}
	.st185{fill:#EE8C51;}
	.st186{fill:#EC795A;}
	.st187{fill:#F0984B;}
	.st188{fill:#EB715E;}
	.st189{fill:#9E2F7F;}
	.st190{fill:#AA2E7E;}
	.st191{fill:#EC7C5D;}
	.st192{fill:#C4337F;}
	.st193{fill:#932D7F;}
	.st194{fill:#A42F7E;}
	.st195{fill:#BD317E;}
	.st196{fill:#B8327F;}
	.st197{fill:#B2317E;}
	.st198{fill:#992D7F;}
	.st199{fill:#CA347F;}
	.st200{fill:#8C2D7F;}
	.st201{fill:#D0357F;}
	.st202{fill:#AE307E;}
	.st203{fill:#EC765E;}
	.st204{fill:#DB377F;}
	.st205{fill:#E44676;}
	.st206{fill:#862C7E;}
	.st207{fill:#E96B64;}
	.st208{fill:#D6357F;}
	.st209{fill:#E96B62;}
	.st210{fill:#E13A80;}
	.st211{fill:#E13D7E;}
	.st212{fill:#822B7F;}
	.st213{fill:#E54D75;}
	.st214{fill:#33A2D3;}
	.st215{fill:#E3417B;}
	.st216{fill:#E65371;}
	.st217{fill:#E65B6C;}
	.st218{fill:#E96764;}
	.st219{fill:#E85F68;}
	.st220{fill:#E96366;}
	.st221{fill:#EA6F67;}
	.st222{fill:#E6566D;}
	.st223{fill:#EA6C6C;}
	.st224{fill:#E7606E;}
	.st225{fill:#EB7563;}
	.st226{fill:#EC7C69;}
	.st227{fill:#E8687D;}
	.st228{fill:#E0EDF7;}
	.st229{fill:#E9676E;}
	.st230{fill:#E9B536;}
	.st231{fill:#864690;}
	.st232{fill:#334190;}
	.st233{fill:#6A438D;}
	.st234{fill:#6B438D;}
	.st235{fill:#6B448D;}
	.st236{fill:#3A4291;}
	.st237{fill:#81458F;}
	.st238{fill:#644390;}
	.st239{fill:#9E458E;}
	.st240{fill:#98468F;}
	.st241{fill:#92468F;}
	.st242{fill:#8D458F;}
	.st243{fill:#9B468F;}
	.st244{fill:#90468E;}
	.st245{fill:#9C468F;}
	.st246{fill:#A3458D;}
	.st247{fill:#4E4491;}
	.st248{fill:#434291;}
	.st249{fill:#534290;}
	.st250{fill:#6E4591;}
	.st251{fill:#754490;}
	.st252{fill:#5F4390;}
	.st253{fill:#7B4490;}
	.st254{fill:#584390;}
	.st255{fill:#594390;}
	.st256{fill:#474392;}
	.st257{fill:#B3458C;}
	.st258{fill:#6A4491;}
	.st259{fill:#AE468C;}
	.st260{fill:#97458F;}
	.st261{fill:#B6468C;}
	.st262{fill:#9B458E;}
	.st263{fill:#C4468C;}
	.st264{fill:#BD478C;}
	.st265{fill:#AA468D;}
	.st266{fill:#A7468D;}
	.st267{fill:#B3468D;}
	.st268{fill:#B0458C;}
	.st269{fill:#BC468C;}
	.st270{fill:#AF458C;}
	.st271{fill:#B9468C;}
	.st272{fill:#BD468B;}
	.st273{fill:#BA468C;}
	.st274{enable-background:new    ;}
	.st275{fill:#1D1E1D;}
	.st276{fill:url(#Fill_1_00000099634520433277373410000008032471670881108644_);}
	.st277{fill:url(#Fill_3_00000179624264782699184830000015586340755233513109_);}
	.st278{fill:url(#Fill_5_00000151546009074983611630000016228031618056129184_);}
	.st279{fill:#1E201F;}
	.st280{fill:#3AB9B5;}
	.st281{fill:#27B4B0;}
	.st282{fill:#009694;}
	.st283{fill:#554B9D;}
	.st284{clip-path:url(#SVGID_00000104697748923481311490000010955014995368871340_);}
	.st285{fill:#FF761A;}
	.st286{fill:#E06300;}
	.st287{fill:#466007;}
	.st288{fill:#56840D;}
	.st289{fill:#C95100;}
	.st290{fill:#DE111E;}
	.st291{opacity:0.22;fill:#231F20;}
	.st292{fill:#DF3D4B;}
	.st293{fill:#C60E2D;}
	.st294{fill:#90C125;}
	.st295{fill:#F27466;}
	.st296{fill:#A36400;}
	.st297{fill:#DB9200;}
	.st298{fill:#BA7700;}
	.st299{fill:#FFCE00;}
	.st300{fill:#4A6D05;}
	.st301{fill:#76A51C;}
	.st302{fill:#100628;}
	.st303{fill:#4A16AB;}
	.st304{fill:#4A17AC;}
	.st305{fill:#4B17AC;}
	.st306{fill:#4B18AC;}
	.st307{fill:#5321AF;}
</style>
<g>
	<path class="st303" d="M71.3,316.7c-10.2-10.4-20.3-20.8-30.8-31.5c8.9-8.8,18.2-18,27.4-27.2c2-2,3.5-2,5.3,0
		c1.6,1.9,3.3,3.6,5,5.4c1.1,1,2.4,2,1,3.8c-5.7,5.6-11.4,11.2-17,16.8c-0.5,0.5-1.4,1-1.3,1.4c0.5,4.7,5.1,6.4,7.6,9.7
		c1.6,2.2,3.5,1.1,4.7-0.1c9.1-9,18.2-18.1,27.2-27.1c1.8-1.8,1.3-3.5-0.4-5.1c-9-8.8-18.1-17.5-27-26.5c-2.5-2.5-3.4-0.3-4.6,1
		c-11.7,11.6-23.3,23.3-34.9,34.9c-1.2,1.2-2.1,2.5-3,3.7c-3.5-3.2-6.3-6-9.4-8.5c-1.9-1.6-1.4-2.2,0.2-3.7
		c15.7-15.3,31.2-30.8,46.8-46.3c1.1-1.1,1.8-2.3,2.2-3.7c0.3,0,0.7,0,1,0c15.3,17.1,32.2,32.7,48.3,49c2.6,2.6,2.7,3.8,0,6.4
		c-15.1,14.8-29.9,29.8-44.9,44.7C73.6,314.8,72.4,315.7,71.3,316.7z"/>
	<path class="st304" d="M504.2,279.5c-3.3,0-6.6,0.2-9.9,0.1c-4.9-0.2-7.5-2.7-7.8-7.7c-0.1-2.6,0.1-5.3-0.1-7.9
		c-0.2-2.1,1.2-4.6-2.4-6c-1.5-0.5-1.2-5.4-0.3-5.7c3.2-0.9,2.8-3.4,3.6-5.5c1-2.8,3.7-1.1,5.6-1.4c2-0.4,2.8,0.7,2.5,2.6
		c-0.5,3.3,1.2,4,4,3.6c2.9-0.4,2.7,1.6,2.6,3.4c-0.1,1.7,0.5,4-2.5,3.5c-3.8-0.6-4.2,1.3-4.2,4.5c0.1,9,0,9,8.7,9.4
		C504.2,274.8,504.2,277.1,504.2,279.5z"/>
	<path class="st304" d="M451.4,260.6c0-5,0.2-9.9-0.1-14.9c-0.2-4,2.5-3,4.6-3c2.1,0,5.2-1,4.5,3c-0.9,5.7,1.4,6.3,6.5,5.5
		c9.3-1.6,12.5,1.5,12.5,10.7c0,4.6-0.2,9.3,0.1,13.9c0.3,4.2-2.6,3.2-4.9,3.3c-2.5,0.1-4.6,0.3-4.4-3.4c0.3-3.6,0.3-7.3,0-10.9
		c-0.2-2.8,2.1-7-4-7c-5,0-6.5,2-6,6.8c0.4,3.7-0.1,7.6,0.1,11.4c0.3,4-2.5,3.1-4.6,3.1c-2.2,0-4.8,0.8-4.6-3.1
		C451.6,270.9,451.4,265.8,451.4,260.6z"/>
	<path class="st305" d="M245.6,252c-6.1,8.9-9,17.8,1.6,26.3c-10,1.7-10,1.7-14-5.7c-0.6-1-1.2-2-1.7-3c-0.7-1.5-2-1.6-3.4-1.4
		c-1.6,0.2-1.3,1.6-1.4,2.7c0,0.8,0,1.7,0,2.5c0,6.2,0,6.1-6.4,5.7c-2.2-0.1-2.8-1-2.8-3c0-10.2,0.1-20.5,0-30.7
		c0-4.5,3.3-2.4,5.3-2.8c2.3-0.4,4.2-0.2,3.9,3.1c-0.3,3.9-0.1,7.9-0.1,11.9c0,1.3-0.6,3.1,1.7,3.4c1.7,0.2,2.9-0.5,3.6-2
		c0.3-0.6,0.7-1.1,1-1.7C237.3,250.8,237.3,250.8,245.6,252z"/>
	<path class="st304" d="M384.2,251.6c2,0,4,0,6,0c2.5,0,4.8-0.6,4.7,3.6c-0.1,3.7-2.1,3.4-4.5,3.3c-3-0.1-6,0-8.9,0
		c-1.3,0-3-0.2-2.9,1.7c0.1,1.9,1.8,1.6,3,1.6c2.6,0,5.3-0.1,7.9,0.1c5.4,0.4,8,3.7,7.8,9.4c-0.2,5.5-2.8,8.3-8.3,8.3
		c-5.5,0-10.9-0.6-16.4-0.7c-3.8,0-3-2.5-3.1-4.7c-0.1-3.3,2.1-2.1,3.7-2c4,0.2,7.9,0.3,11.9,0.5c1.5,0.1,2.7-0.4,2.7-2.1
		c0-2.1-1.6-1.6-2.9-1.6c-3,0-6,0.1-8.9-0.1c-4.8-0.3-7.3-3.5-7.2-8.8c0.1-5,2.7-8,7.3-8.3C378.9,251.5,381.6,251.6,384.2,251.6
		C384.2,251.6,384.2,251.6,384.2,251.6z"/>
	<path class="st306" d="M365.4,267.3c0,2.3-0.3,4.7,0.1,6.9c0.6,4.4-1.4,5.1-5.3,5.1c-3.4,0-4.3-1.1-4.2-4.2c0.2-4.3,0-8.6,0.1-12.9
		c0.1-2.8-1-4.1-3.8-3.6c-2.5,0.5-6.1-0.9-6.1,3.7c0,4-0.2,7.9,0.1,11.9c0.2,3.6-0.5,5.1-4.7,5.2c-4.7,0.1-4.6-2.2-4.5-5.4
		c0.1-5.8,0-11.5,0-17.3c0-4.8,3.8-7.3,7.8-4.4c1.8,1.3,2.6,0.7,4.1,0.3c2.2-0.6,4.4-1.4,6.7-1.5c6.4-0.5,9.6,2.5,9.8,8.9
		C365.5,262.4,365.4,264.8,365.4,267.3z"/>
	<path class="st304" d="M281.1,265.4c0-3,0-5.9,0-8.9c0-4.5,3.9-7.2,7.4-4.4c2.3,1.8,3.3,0.8,5,0.2c3.2-1.1,6.4-1.8,9.7-1
		c3.7,0.8,5.9,3,5.9,6.9c0.1,6.1,0,12.2,0.1,18.3c0.1,4.1-2.9,2.6-4.9,2.8c-2.1,0.2-4.4,0.7-4.3-2.9c0.2-4.6,0-9.2,0.1-13.9
		c0.1-2.7-0.7-4.3-3.6-3.7c-2.6,0.5-6.5-1-6.3,4c0.1,4.5-0.2,8.9,0.1,13.4c0.3,4.3-2.7,3.1-5,3.2c-2.5,0.2-4.6,0.2-4.3-3.4
		C281.3,272.3,281.1,268.8,281.1,265.4z"/>
	<path class="st306" d="M167.5,242.7c4,0,8,0.2,11.9-0.1c2.8-0.2,3.7,0.8,3.7,3.6c0,2.7-0.7,4.1-3.6,3.7c-0.8-0.1-1.7,0.1-2.5,0
		c-3.8-0.6-5.2,0.8-5,4.8c0.3,6.9-0.1,13.9,0.2,20.8c0.2,4.4-2.6,3.6-5.1,3.7c-2.7,0.1-4.7,0.1-4.6-3.7c0.3-6.6-0.3-13.2,0.2-19.8
		c0.4-5-1.4-6.5-6-5.7c-3.4,0.5-5.7-0.1-5.2-4.5c0.3-2.2,1-2.7,3-2.7C158.9,242.8,163.2,242.7,167.5,242.7z"/>
	<path class="st305" d="M322.8,242.7c2.2,0,4.3,0,6.5,0c1.5,0,3.3-0.1,2.9,2.1c-0.3,1.8,1.6,4.8-2,5c-2.5,0.1-2.5,1.6-2.5,3.3
		c0,4.5-0.1,8.9,0,13.4c0.1,2.3-1.2,5.2,3.4,5.4c2.2,0.1,0.9,3.4,1.1,5.2c0.2,1.8-1.2,2-2.7,2c-4,0-8,0-11.9,0
		c-1.6,0-4.1,0.9-3.9-2.2c0.1-2-1.8-5.4,2.8-5.3c2.1,0,1.6-1.7,1.7-2.9c0.1-4.1,0.2-8.3,0-12.4c-0.2-2.6,1.9-6.5-3.6-6.8
		c-1.7-0.1-0.7-3.2-0.8-4.9c-0.1-2,1.4-1.9,2.7-1.9C318.5,242.7,320.7,242.7,322.8,242.7z"/>
	<path class="st304" d="M412.6,266c0,2.6-0.3,5.3,0.1,7.9c0.6,4.5-1,5.7-5.4,5.4c-3.2-0.2-3.9-1.2-3.8-4.1c0.2-3.8,0.1-7.6,0-11.4
		c0-2,0.7-4.1-2.8-4.5c-2.3-0.3-0.9-3.3-1.1-5.1c-0.2-1.7,1.3-1.6,2.4-1.6c0.2,0,0.3,0,0.5,0c10.1-0.6,10.1-0.6,10.1,9.4
		C412.6,263.3,412.6,264.6,412.6,266z"/>
	<path class="st307" d="M407.8,249.5c-2.8,0.5-4.4,0.1-4.5-3.6c-0.1-4.2,2.1-3.9,4.9-3.9c2.8,0,4.5,0.1,4.5,3.8
		C412.8,249.9,410.7,249.9,407.8,249.5z"/>
	<path class="st303" d="M440.6,251.5c-3.8,0.4-7.6,0.1-11.4,0.1c-9.3,0-11.3,2-11.3,11.4c0,14.8,0.8,15.6,15.5,14.6
		c1.1-0.1,2.9-1,3.1,1.2c0.2,2.2-1.2,2.8-3.2,2.7c-3.3-0.2-6.6-0.5-9.9-0.6c-1.6-0.1-3.9-1.2-3.8,2.1c0.1,2.1-0.9,4.8,3,4.8
		c5,0,9.9,0.6,14.9,0.6c5.6,0,8-2.6,8.2-8.3c0.1-4,0-7.9,0-11.9c0-3.8-0.3-7.6,0.1-11.4C445.9,252.8,445,251,440.6,251.5z
		 M430.9,271.2c-5.1,0-3.8-3.4-3.9-6.2c-0.2-3.5-0.7-7.1,5-6.6c4.4,0.4,4.5,0.1,4.5,7C437.5,269.3,435.8,271.2,430.9,271.2z"/>
	<path class="st305" d="M260.6,268.9c3.8,0,7.6-0.2,11.4,0.1c3.2,0.2,4.1-1,3.8-4c-0.2-2,0.1-4-0.1-5.9c-0.4-5-2.9-8.2-7.7-7.9
		c-6.6,0.4-14.6-3.5-18.9,5.1c-0.6,1.1-0.6,2.6-0.6,3.9c-0.1,3.6-0.1,7.3,0,10.9c0.2,6.1,2.8,8.5,9,8.6c1.7,0,3.3,0,4.7,0
		c3.2-0.3,6.2-0.7,9.1-0.7c3,0,3.4-1.6,3.3-4.1c0-2.9-1.8-2.5-3.7-2.4c-3.5,0.2-6.9,0.3-10.4,0.4c-1.4,0.1-2.7-0.2-2.8-2
		C257.8,268.8,259.3,268.9,260.6,268.9z M257.7,260.3c0.1-3.3,2.5-2.7,4.6-2.7c1.9,0,4.1-0.4,4.2,2.6c0.1,3.9-2.9,1.8-4.5,2.4
		C260.4,262,257.6,263.8,257.7,260.3z"/>
	<path class="st304" d="M212.4,261.6c0-8.3-2.4-10.7-10.6-10.7c-3,0-6-0.1-9,0c-6.4,0.2-9.1,2.9-9.2,9.1c-0.1,3.1,0,6.3,0,9.4
		c0.1,7.7,2.5,10,10.1,10.1c1.3,0,2.7,0,4,0c13.9,0,14.7-0.8,14.7-14.5C212.4,264,212.4,262.8,212.4,261.6z M203.3,264.8
		c0,8,0,7.8-6.3,7.9c-3.2,0-4.6-1.1-4.3-4.3c0.1-1.5,0.2-3,0-4.4c-0.7-4.8,1.4-6.2,6.1-6.1C204.9,257.8,202.9,261.9,203.3,264.8z"/>
</g>
</svg>
