<?xml version="1.0" encoding="utf-8"?>
<!-- Generator: Adobe Illustrator 25.4.0, SVG Export Plug-In . SVG Version: 6.00 Build 0)  -->
<svg version="1.1" id="图层_1" xmlns="http://www.w3.org/2000/svg" xmlns:xlink="http://www.w3.org/1999/xlink" x="0px" y="0px"
	 viewBox="0 0 512 512" style="enable-background:new 0 0 512 512;" xml:space="preserve">
<style type="text/css">
	.st0{fill-rule:evenodd;clip-rule:evenodd;fill:#EB5C20;}
	.st1{fill-rule:evenodd;clip-rule:evenodd;fill:#E29227;}
	.st2{fill:#EB5C20;}
	.st3{fill-rule:evenodd;clip-rule:evenodd;fill:#70BA33;}
	.st4{fill-rule:evenodd;clip-rule:evenodd;fill:#1C9965;}
	.st5{fill-rule:evenodd;clip-rule:evenodd;fill:#1E5D91;}
	.st6{fill-rule:evenodd;clip-rule:evenodd;fill:#C6224E;}
	.st7{fill:#B5B5B6;}
	.st8{fill-rule:evenodd;clip-rule:evenodd;fill:#B5B5B6;}
	.st9{fill:#DF5B23;}
	.st10{fill:#B5B5B6;stroke:#B5B5B6;stroke-width:10;stroke-miterlimit:10;}
	.st11{fill:#B5B5B6;stroke:#B5B5B6;stroke-width:18;stroke-miterlimit:10;}
	.st12{fill:#1E5D91;}
	.st13{fill:#E29227;}
	.st14{fill:#1C9965;}
	.st15{fill:#70BA33;}
	.st16{fill:#C6224E;}
	.st17{fill:#0E0304;}
	.st18{fill:#29292C;}
	.st19{fill:#2E3032;}
	.st20{fill:#1A1A1B;}
	.st21{fill:#757579;}
	.st22{fill:none;stroke:#B5B5B6;stroke-width:30;stroke-linecap:round;stroke-linejoin:round;stroke-miterlimit:10;}
	.st23{fill:#040000;}
	.st24{fill-rule:evenodd;clip-rule:evenodd;fill:#040000;}
	.st25{fill:url(#SVGID_1_);}
	.st26{fill:#EBE7C3;}
	.st27{fill-rule:evenodd;clip-rule:evenodd;fill:#EBE7C3;}
	.st28{fill:#FFFFFF;}
	.st29{fill:none;stroke:#B5B5B6;stroke-width:10;stroke-miterlimit:10;}
	.st30{fill-rule:evenodd;clip-rule:evenodd;fill:url(#SVGID_00000178195865044795704470000005319439179743798955_);}
	.st31{fill:#221F20;}
	.st32{fill:#F1AA43;}
	.st33{fill:#EB9326;}
	.st34{fill:#EE9F38;}
	.st35{fill:#E8891D;}
	.st36{fill:#EF9E36;}
	.st37{fill:#F9C88E;}
	.st38{fill:#CB838E;}
	.st39{fill:#F7BF75;}
	.st40{fill-rule:evenodd;clip-rule:evenodd;fill:#DF5B23;}
	.st41{fill:#2F2833;}
	.st42{fill:#403944;}
	.st43{fill:#DF5924;}
	.st44{fill-rule:evenodd;clip-rule:evenodd;fill:#CCBCB1;}
	.st45{fill-rule:evenodd;clip-rule:evenodd;fill:#393939;}
	.st46{fill-rule:evenodd;clip-rule:evenodd;fill:#EF9839;}
	.st47{fill-rule:evenodd;clip-rule:evenodd;fill:#EF993A;}
	.st48{fill-rule:evenodd;clip-rule:evenodd;fill:#D07A32;}
	.st49{fill-rule:evenodd;clip-rule:evenodd;fill:#E1893D;}
	.st50{fill-rule:evenodd;clip-rule:evenodd;fill:#E28C38;}
	.st51{fill-rule:evenodd;clip-rule:evenodd;fill:#E18B3C;}
	.st52{fill-rule:evenodd;clip-rule:evenodd;fill:#DF7F24;}
	.st53{fill-rule:evenodd;clip-rule:evenodd;fill:#DDCCC2;}
	.st54{fill-rule:evenodd;clip-rule:evenodd;fill:#DF8C38;}
	.st55{fill-rule:evenodd;clip-rule:evenodd;fill:#8B5930;}
	.st56{fill:#1C5AA8;}
	.st57{fill:#2156A6;}
	.st58{fill:#E7B41E;}
	.st59{fill:#298CCD;}
	.st60{fill:#123443;}
	.st61{fill:#B8266A;}
	.st62{fill:#1B4B68;}
	.st63{fill:#1C4157;}
	.st64{fill:#4A6894;}
	.st65{fill:#343535;}
	.st66{fill:#3E5375;}
	.st67{fill:#6CAACE;}
	.st68{fill:#335C85;}
	.st69{fill:#5294B1;}
	.st70{fill-rule:evenodd;clip-rule:evenodd;fill:#5255A3;}
	.st71{fill-rule:evenodd;clip-rule:evenodd;fill:#2B60AC;}
	.st72{fill:#2B60AC;}
	.st73{fill:#E8412E;}
	.st74{fill:#E83F21;}
	.st75{fill:#E33E28;}
	.st76{fill:#E84138;}
	.st77{fill:#E94526;}
	.st78{fill:#E94423;}
	.st79{fill:#E9481F;}
	.st80{fill:#E94522;}
	.st81{fill:#E9461F;}
	.st82{fill:#E84236;}
	.st83{fill:#E9471E;}
	.st84{fill:#E6411D;}
	.st85{fill:#E8412F;}
	.st86{fill:#132533;}
	.st87{fill-rule:evenodd;clip-rule:evenodd;fill:#FFFFFF;filter:url(#Adobe_OpacityMaskFilter);}
	.st88{mask:url(#mask0_00000132083055698256665120000006893257704987244173_);}
	.st89{fill:url(#SVGID_00000162335484455008986210000000131291552346429314_);}
	
		.st90{fill-rule:evenodd;clip-rule:evenodd;fill:#FFFFFF;filter:url(#Adobe_OpacityMaskFilter_00000054243580450624352180000012062639241905017732_);}
	.st91{mask:url(#mask1_00000072256638231251966880000016508265481841631141_);}
	.st92{fill:url(#SVGID_00000165947129823021321940000014655902206321610686_);}
	.st93{fill:#CBCFD7;}
	
		.st94{fill-rule:evenodd;clip-rule:evenodd;fill:#FFFFFF;filter:url(#Adobe_OpacityMaskFilter_00000137091864929521265970000005791696190639692193_);}
	.st95{mask:url(#mask0_1_);}
	.st96{fill:url(#SVGID_00000172417185415111101860000013884575144874953137_);}
	
		.st97{fill-rule:evenodd;clip-rule:evenodd;fill:#FFFFFF;filter:url(#Adobe_OpacityMaskFilter_00000047776734651800435140000014436487532178247609_);}
	.st98{mask:url(#mask1_1_);}
	.st99{fill:url(#SVGID_00000142897183402457890380000010943296835981849473_);}
	.st100{fill:#366FAE;}
	.st101{fill:#FFF100;}
	.st102{fill:url(#SVGID_00000082366113789913794680000003578383061854650254_);}
	.st103{fill:#FFE000;}
	.st104{fill:url(#SVGID_00000183223756475526410150000002991699671206543774_);}
	.st105{fill:#FAC000;}
	.st106{fill:url(#SVGID_00000095339185648249265940000016816316929856780165_);}
	.st107{fill:#F4A000;}
	.st108{fill:url(#SVGID_00000000209644025944772610000008050583881190736012_);}
	.st109{fill:#EE7300;}
	.st110{fill:url(#SVGID_00000178190646260051060520000008879015957488677812_);}
	.st111{fill:#E94709;}
	.st112{fill:url(#SVGID_00000050659237188380294920000010132525927541349562_);}
	.st113{fill:#009E41;}
	.st114{fill:url(#SVGID_00000010280263390937087660000018440100235346541741_);}
	.st115{fill:#40AF36;}
	.st116{fill:url(#SVGID_00000060002480721106820300000017547262364701449613_);}
	.st117{fill:#72BB2B;}
	.st118{fill:url(#SVGID_00000042736711131059259140000006038593710026512568_);}
	.st119{fill:#E3E300;}
	.st120{fill:url(#SVGID_00000027606061329342211880000016411985181262345645_);}
	.st121{fill:#A3CA0F;}
	.st122{fill:url(#SVGID_00000177444604477223343190000012973913468010030999_);}
	.st123{fill:#C4D700;}
	.st124{fill:url(#SVGID_00000166668437718558370450000001676832200977840059_);}
	.st125{clip-path:url(#SVGID_00000046316762012151077670000014974155684787795363_);}
	.st126{fill:#36B8B7;}
	.st127{fill:#3EB4AD;}
	.st128{fill:#3AB8B9;}
	.st129{fill:#56BAB0;}
	.st130{fill:#65BBB2;}
	.st131{fill:#32B7B0;}
	.st132{fill:#2EB6AE;}
	.st133{fill:#48B6BC;}
	.st134{fill:#4DB5BD;}
	.st135{fill:#3EB4AE;}
	.st136{fill:#57BBB1;}
	.st137{fill:#060909;}
	.st138{fill:#061014;}
	.st139{fill:#FAFAFB;}
	.st140{fill:#F6F7F7;}
	.st141{fill:#F7F7F7;}
	.st142{fill:#F6F6F6;}
	.st143{fill:#7CB8BD;}
	.st144{fill:#3FB5B7;}
	.st145{fill:#4DB6B9;}
	.st146{fill:#F4F5F5;}
	.st147{fill:#F5F5F5;}
	.st148{fill:#070505;}
	.st149{fill:#F4F3F3;}
	.st150{fill:#050202;}
	.st151{fill:#71BCBA;}
	.st152{fill:#73BBB8;}
	.st153{fill:#76BEBC;}
	.st154{fill:#83B8B8;}
	.st155{fill:#3DB9B5;}
	.st156{fill:#40BABA;}
	.st157{fill:#36B8B6;}
	.st158{fill:#28B6B2;}
</style>
<g id="AzlevT_00000101082820655132723400000004933749639840897974_">
	<g>
		<path class="st23" d="M104.92,515.92c-36.28,0-72.56,0-108.84,0C-3.92,343.86-3.91,171.8-4-0.27C-4-3.31-3.32-4.01-0.27-4
			c35.06,0.12,70.13,0.08,105.19,0.08c1.61,1.85,1.14,4.1,1.14,6.22c0.03,30.99,0.01,61.97,0.02,92.96c0,8.51,0.02,8.51,8.28,8.51
			c7.85,0,15.7,0.02,23.54-0.02c1.59-0.01,3.26,0.34,4.74-0.61c1.37-1.8,0.88-3.91,0.89-5.89c0.03-31.65,0.01-63.3,0.04-94.94
			c0-2.12-0.46-4.37,1.14-6.22c122.52,0,245.03,0.01,367.55-0.08c3.05,0,3.73,0.69,3.73,3.73c-0.09,170.84-0.09,341.69,0,512.53
			c0,3.04-0.69,3.73-3.73,3.73c-122.52-0.09-245.03-0.08-367.55-0.08c-1.2-1.3-1.33-2.92-1.33-4.55
			c0.03-33.35-0.22-66.71,0.11-100.05c-0.04-2.29-1.65-2.31-3.31-2.26c-9.47,0.07-18.92,0.07-28.38,0.01
			c-5.34-0.04-5.71,0.3-5.71,5.79c-0.03,31.62,0,63.24-0.03,94.86C106.06,511.83,106.53,514.08,104.92,515.92z"/>
		<path class="st126" d="M109.79-3.92c10.83,0,21.66,0,32.49,0c1.6,1.84,1.14,4.09,1.14,6.2c0.03,29.95,0.02,59.91,0.03,89.86
			c0,2.16-0.12,4.32,0.2,6.46c-0.15,4.24-0.8,4.97-4.77,5.36c-8.53-0.55-17.06-0.55-25.59,0c-2.2-0.17-4.91,1.27-6.13-1.95
			c0.57-1.47,2.15-0.18,3-1.07c0.48-0.02-0.07-0.21-0.11-0.19c-2.08,1.01-2.4-0.13-2.2-1.87c1.59-4.09,0.47-8.35,0.77-12.53
			c0.01-28.02-0.01-56.03,0.02-84.05C108.65,0.18,108.19-2.07,109.79-3.92z"/>
		<path class="st126" d="M139.03,515.92c-9.75,0-19.49,0-29.24,0c-1.6-1.85-1.14-4.1-1.14-6.22c-0.03-28-0.02-56-0.02-83.99
			c-0.31-4.28,0.88-8.66-0.89-12.84c-0.34-1.36,0.06-2.5,1.04-3.47c2.32-1.49,4.76-0.23,7.14-0.26c6.22-0.08,12.45-0.04,18.68-0.02
			c1.62,0,3.27-0.15,4.75,0.74c1.3,1.01,0.92,2.42,0.92,3.75c-0.02,32.18,0,64.35-0.02,96.53
			C140.24,512.13,140.61,514.24,139.03,515.92z"/>
		<path class="st127" d="M144.32,409.78c0.08,1.48,0.22,2.95,0.22,4.43c0.01,32.56,0.01,65.12,0.02,97.68
			c0,1.35,0.11,2.69,0.17,4.04c-1.08,0-2.17,0-3.25,0c-1.35-1.43-1.21-3.22-1.21-4.97c0-31.35-0.01-62.69,0-94.04
			c0-1.63,0.03-3.25,0.61-4.78C141.32,410.35,142.8,410.04,144.32,409.78z"/>
		<path class="st128" d="M142.27,410.37c-1.02,3.83-0.8,7.74-0.8,11.63c0,31.31,0,62.61,0,93.92c-0.81,0-1.62,0-2.44,0
			c0-35.2,0-70.4,0-105.6c-0.23-1.21,0.63-1.29,1.46-1.41C141.38,409.04,142.02,409.46,142.27,410.37z"/>
		<path class="st129" d="M140.65,409.51c-0.67,0.02-1.27,0.17-1.62,0.82c-9.29-0.4-18.62,0.88-27.88-0.77
			c-0.81-0.14-1.62,0.03-2.17,0.78c-1.39,0.79-1.41,2.01-1.4,3.47c0.25,32.38,0.08,64.76,0.11,97.13c0,1.74,0.18,3.55-1.15,4.99
			c-0.54,0-1.08,0-1.62,0c0.1-1.61,0.3-3.21,0.3-4.82c0.01-32.68,0.07-65.36-0.08-98.04c-0.02-3.92,0.8-5.31,5.06-5.14
			c10.38,0.43,20.78,0.26,31.17,0.34C141.45,408.86,141.19,409.27,140.65,409.51z"/>
		<path class="st130" d="M139.04,103.3c2.91,0.2,3.61-1.81,4.05-4.07c-0.63-0.99-0.38-2.1-0.38-3.16c-0.01-32.28-0.01-64.55,0-96.83
			c0-1.06-0.26-2.17,0.38-3.16c0.27,0,0.54,0,0.81,0c0.64,0.99,0.38,2.1,0.38,3.16c0.01,34.08,0.01,68.15,0,102.23
			c0,1.07,0.21,2.17-0.32,3.19c-12.28,0.86-24.57,0.12-36.85,0.41c-1.87,0.04-1.84-1.01-1.84-2.31c0-4.73-0.06-9.46-0.06-14.2
			c0-29.49,0.01-58.98,0-88.46c0-1.34-0.2-2.68-0.3-4.01c0.27,0,0.54,0,0.81,0c1.6,1.84,1.14,4.09,1.14,6.21
			c0.03,30.12,0.02,60.24,0.02,90.36c0,2.03-0.06,4.05,0.11,6.07c0.2,0.97,0.4,1.95,0.35,2.96c1.33,2.52,3.72,1.33,5.68,1.62
			C121.7,103.3,130.37,103.29,139.04,103.3z"/>
		<path class="st131" d="M107.36,101.68c-0.64-0.36-0.79-0.96-0.82-1.63c-0.63-0.99-0.38-2.1-0.38-3.16
			c-0.01-32.55-0.01-65.1,0-97.65c0-1.06-0.26-2.17,0.38-3.16c0.54,0,1.08,0,1.62,0c1.26,1.69,0.79,3.65,0.79,5.5
			c0.03,28.4,0.02,56.8,0.02,85.2c-0.37,4.14,0.83,8.39-0.81,12.45c-0.07,1.69,1.55,1.38,2.49,2.03
			C109.57,102.03,108.41,101.51,107.36,101.68z"/>
		<path class="st132" d="M106.54,515.92c0-33.5-0.01-67,0.03-100.5c0-1.97-0.95-4.61,2.4-5.09c-0.27,0.81-0.54,1.62-0.81,2.43
			c1.7,4.04,0.4,8.28,0.81,12.4c0,28.42,0.01,56.83-0.02,85.25c0,1.85,0.47,3.82-0.79,5.5
			C107.63,515.92,107.09,515.92,106.54,515.92z"/>
		<path class="st133" d="M108.17,515.92c0-30.32,0-60.65,0-90.97c0.54-0.48,1.08-0.48,1.62,0c0,30.32,0,60.65,0,90.97
			C109.25,515.92,108.71,515.92,108.17,515.92z"/>
		<path class="st134" d="M108.18,87.05c0-30.32-0.01-60.65-0.01-90.97c0.54,0,1.08,0,1.62,0c0,30.32,0,60.65,0,90.97
			C109.25,87.53,108.71,87.53,108.18,87.05z"/>
		<path class="st135" d="M143.97,104.66c-0.02-36.19-0.04-72.39-0.06-108.58c0.27,0,0.54,0,0.81,0c-0.06,9.33-0.16,18.66-0.17,28
			c-0.02,25.44,0,50.88-0.04,76.32C144.5,101.81,145.08,103.36,143.97,104.66z"/>
		<path class="st136" d="M106.54-3.92c0,34.66,0,69.31,0,103.97c-1.38-1.35-0.78-3.07-0.78-4.62c-0.04-33.12-0.03-66.23-0.03-99.35
			C106-3.92,106.27-3.92,106.54-3.92z"/>
		<path class="st135" d="M143.1-3.92c0,34.39,0,68.77-0.01,103.16c-1.38-1.35-0.78-3.07-0.78-4.62
			c-0.04-32.85-0.03-65.69-0.03-98.54C142.55-3.92,142.82-3.92,143.1-3.92z"/>
		<path class="st28" d="M286.68,271.36c-2.26,0.04-4.25,1.02-6.3,1.77c-0.74,0.71-1.84,0.03-2.6,0.67l-0.35-0.09l-0.31,0.2
			c-1.31,0.83-2.92-0.11-4.24,0.7c-0.75,0.06-1.51,0.12-2.26,0.18c-1.67,0.51-3.36,0.32-5.05,0.11
			c-21.81,0.39-43.62,0.08-65.43-0.63c19.59-0.8,39.19-0.8,58.78-0.81c-9.46-0.01-18.92-0.01-28.38-0.01
			c-8.93,0-17.86,0.07-26.78-0.03c-5-0.06-5-0.18-5-5.12c0-43.96,0.01-87.92-0.01-131.89c0-2.86,0.61-5.69,0.42-8.56
			c23.12-0.02,46.27-1.34,69.34,0.79c11.15,1.03,21.71,4.53,30.33,12.2c15.32,13.62,17.12,48.29-8.75,58.76
			c1.79,0.74,3.32,1.33,4.81,2c11.14,5.03,17.07,13.83,17.99,25.84c0.93,12.05-0.97,23.43-9.36,32.93
			c-3.74,4.24-8.58,6.86-13.4,9.55C289.05,270.61,287.87,270.99,286.68,271.36z"/>
		<path class="st28" d="M425.75,268.94c-7.14,4.81-15.25,6.8-23.6,7.68c-18.66,1.95-36.76,0.31-53.1-10.04
			c-13.16-8.33-20.03-20.42-21.03-35.95c-0.15-2.33,0.27-3.22,2.93-3.17c10.01,0.19,20.03,0.16,30.05,0.03
			c2.31-0.03,2.87,0.67,3.02,2.91c0.8,12.44,7.59,19.18,20.07,19.96c4.57,0.29,9.16,0.63,13.7-0.67c5.63-1.62,9.84-4.77,10.8-10.77
			c1.03-6.46-0.79-12.1-6.54-15.9c-5.92-3.9-12.56-6.19-19.2-8.48c-11.87-4.1-23.65-8.43-33.86-16.06
			c-17.08-12.76-21.72-34-10.98-50.93c5.69-8.96,14.2-14.38,24.06-17.61c19.85-6.5,39.61-6.87,58.7,2.63
			c14.41,7.17,22.42,19.02,23.76,35.22c0.21,2.53-0.37,3.55-3.21,3.5c-9.74-0.18-19.49-0.1-29.24-0.04
			c-1.97,0.01-3.1-0.17-3.38-2.71c-0.97-8.98-5.8-14.11-14.73-15.82c-6.82-1.31-13.51-0.87-19.51,3.07
			c-8.27,5.44-8.75,14.77-1.06,20.99c5.22,4.23,11.46,6.55,17.73,8.65c11.27,3.77,22.47,7.63,32.62,14
			c17.45,10.96,24.79,29.79,19.06,49.04c-1.08,3.64-2.9,6.88-5.1,9.94c-0.76,0.2-1.23,0.69-1.43,1.45
			c-1.68,1.68-3.36,3.37-5.05,5.05C428.57,265.11,427.36,267.3,425.75,268.94z"/>
		<path class="st28" d="M67.59,256.1c9.73-14.12,19.42-28.26,29.19-42.34c13.17-18.98,26.4-37.93,39.6-56.89
			c0.22-0.31,0.34-0.7,0.71-1.48c-1.61-0.07-3.01-0.19-4.41-0.19c-20.71-0.01-41.42-0.06-62.13,0.08c-2.92,0.02-3.98-0.53-3.86-3.7
			c0.27-6.89,0.16-13.8,0.03-20.7c-0.04-2.27,0.22-3.3,2.97-3.3c36.41,0.11,72.83,0.09,109.24,0.03c2.21,0,3.37,0.48,2.97,2.89
			c-0.02,0.13-0.02,0.27,0,0.41c1.46,10.18-1.94,18.49-7.96,26.85c-16.67,23.12-32.49,46.85-48.65,70.34
			c-0.68,0.99-1.45,1.93-2.17,2.89c-0.36-0.23-0.78-0.36-0.7-0.16c-0.12-0.17,0.34-0.09,0.65,0.2c-3.11,4.54-6.23,9.07-9.34,13.61
			c-1.21,1.25-3.14,0.33-4.66,1.68c0.84,1.1,2.42,0.69,3.27,1.53c22.24-0.01,44.49,0.04,66.73-0.1c2.89-0.02,3.49,0.76,3.47,3.56
			c-0.05,6.57-0.55,13.15,0.29,19.71c-0.82,1.38,0.28,3.14-0.89,4.44c-19.86-0.05-39.71-0.11-59.57-0.13
			c-17.02-0.02-34.05,0.01-51.07-0.04c-1.23,0-2.68,0.7-3.73-0.63c0.5-2.1,2.19-1.13,3.31-1.13c35.55,0,71.11-0.15,106.66,0.05
			c0.36,0,0.49,0.04,0.42-0.41c-1.12,0.54-2.32,0.27-3.48,0.27c-34.34,0.02-68.68,0.02-103.02,0.01c-4.29,0-4.38-0.02-4.27-4.47
			C67.3,264.69,66.66,260.37,67.59,256.1z"/>
		<path class="st28" d="M395.89,384.36c-2.07,0-3.69,0.01-5.3,0c-3.92-0.04-8.59,1.2-11.54-0.51c-2.79-1.62-2.67-6.71-3.71-10.31
			c-0.41-1.42-1-2.26-2.77-2.22c-5.82,0.13-11.64,0.15-17.45,0c-1.96-0.05-2.49,0.93-3.04,2.44c-1.26,3.49-0.75,8.55-3.79,10.18
			c-2.95,1.58-7.39,0.4-11.18,0.42c-1.61,0.01-3.23,0-5.37,0c2.76-7.64,5.36-14.95,8.03-22.23c5.06-13.79,10.24-27.54,15.19-41.38
			c0.83-2.33,1.91-3.13,4.31-2.99c3.91,0.23,8.78-1.26,11.49,0.57c2.67,1.8,3.25,6.8,4.6,10.45
			C382.15,347.09,388.9,365.42,395.89,384.36z"/>
		<path class="st28" d="M191.09,384.36c-2.04,0-3.52,0.01-5,0c-3.92-0.03-8.45,1.15-11.58-0.43c-3.25-1.64-2.77-6.83-4.03-10.43
			c-0.59-1.69-1.36-2.24-3.15-2.19c-5.54,0.13-11.08,0.13-16.62,0c-1.92-0.05-2.9,0.52-3.43,2.39c-0.98,3.47-1.16,8.17-3.51,10
			c-2.77,2.15-7.53,0.49-11.42,0.66c-1.61,0.07-3.23,0.01-5.47,0.01c1.91-5.19,3.7-10.03,5.48-14.87
			c5.99-16.31,12.02-32.6,17.9-48.95c0.78-2.16,1.72-2.94,4.01-2.79c4.03,0.26,8.98-1.18,11.85,0.69c2.65,1.73,3.14,6.85,4.49,10.51
			C177.38,347.24,184.13,365.54,191.09,384.36z"/>
		<path class="st28" d="M195.35,351.01c0-9.87,0.09-19.74-0.06-29.6c-0.04-2.71,0.51-3.83,3.51-3.67
			c10.24,0.54,20.57-0.99,30.74,0.86c13.69,2.5,21.33,15.04,17.51,28.16c-2.47,8.46-11.2,14.34-22.03,14.74
			c-3.37,0.12-6.77,0.21-10.13-0.03c-2.78-0.2-3.36,0.79-3.24,3.43c0.24,5.39,0.01,10.81,0.12,16.21c0.04,2.2-0.2,3.51-3,3.3
			c-4.29-0.32-9.96,1.41-12.56-0.74c-2.7-2.24-0.73-8.11-0.81-12.39C195.25,364.53,195.35,357.77,195.35,351.01z"/>
		<path class="st28" d="M74.07,329.13c5.51-9.75,17.2-14.37,29.79-11.79c7.6,1.56,13.9,4.95,17.45,12.27
			c0.08,1.46,0.87,2.79,0.79,4.28c-0.53,0.48-0.56,1.11-0.48,2.33c0.01-1.13-0.07-1.7,0.34-2.17c1.65-0.65,0.94,1.17,1.61,1.54
			c0.85,5.36,0.85,5.36-4.73,5.35c-0.81,0-1.63-0.05-2.44,0.01c-4.33,0.28-8.22,0.86-8.98-5.63c-0.55-4.65-5.27-5.69-9.51-5.9
			c-4.34-0.22-8.01,1.09-10.12,5.27c-0.98,1.94-1.57,4-1.85,6.17c-0.98,7.55-1.12,15.11,0.32,22.61c1.24,6.48,4.67,9.32,10.76,9.41
			c5.68,0.08,10.92-2.5,11.27-9.02c0.1-1.9,1.16-2.11,2.7-2.08c3.38,0.07,6.79,0.29,10.14-0.04c3.64-0.35,3.62,1.55,3.15,4.1
			c-1.94,10.51-10.85,18.29-22.15,19.33c-20.32,1.87-32.56-8.9-33.11-29.34c-0.19-6.87-0.55-13.82,1.9-20.47
			c0.6-1.63,1.01-3.36,2.29-4.65C73.42,330.15,75.39,330.54,74.07,329.13z"/>
		<path class="st28" d="M307.81,317.8c8.25,0,16.5,0.11,24.75-0.06c2.53-0.05,3.16,0.68,3.17,3.16c0.06,8.97,0.16,8.88-8.65,9
			c-3.71,0.05-8.67-1.67-10.78,0.82c-1.83,2.16-0.63,6.96-0.63,10.59c-0.01,13.12-0.04,26.23,0.11,39.35
			c0.04,2.94-0.68,4.11-3.81,3.77c-2.94-0.32-5.96-0.26-8.91-0.01c-2.75,0.23-3.65-0.52-3.62-3.45c0.15-15.55-0.09-31.1,0.18-46.65
			c0.07-3.89-1.11-4.78-4.68-4.52c-4.17,0.3-8.38-0.01-12.57,0.11c-1.98,0.06-2.44-0.66-2.53-2.57c-0.46-9.53-0.52-9.53,8.91-9.53
			C295.09,317.8,301.45,317.8,307.81,317.8z"/>
		<path class="st28" d="M400.7,350.89c0-9.87,0.11-19.74-0.07-29.6c-0.05-2.89,0.8-3.81,3.64-3.52c4.12,0.42,9.66-1.73,12.01,0.87
			c2.05,2.26,0.66,7.69,0.67,11.72c0.04,12.84,0.12,25.68-0.05,38.52c-0.04,2.92,0.83,3.63,3.6,3.56c7.02-0.18,14.06,0.01,21.08-0.1
			c2.28-0.04,3.35,0.36,3.41,3.04c0.19,9,0.31,8.99-8.67,8.99c-10.68,0-21.36-0.09-32.03,0.06c-2.75,0.04-3.7-0.59-3.65-3.52
			C400.81,370.89,400.7,360.89,400.7,350.89z"/>
		<path class="st28" d="M257.83,351.07c0-10,0.08-20-0.05-29.99c-0.04-2.67,0.75-3.54,3.44-3.33c3.22,0.25,6.5,0.24,9.72-0.01
			c2.64-0.2,3.12,0.84,3.11,3.21c-0.08,20.13-0.1,40.26,0.01,60.39c0.01,2.58-0.75,3.27-3.18,3.04c-4.25-0.42-9.81,1.8-12.39-0.93
			c-2.05-2.17-0.62-7.68-0.64-11.71C257.8,364.85,257.83,357.96,257.83,351.07z"/>
		<path class="st137" d="M441.22,304.88c0.78,0.37,1.56,0.74,3.14,1.49c-2.13,0-3.42,0-4.7,0c-122.36,0-244.72,0-367.08-0.04
			c-2.01,0-4.45,0.96-5.84-1.58c1.98-1.69,4.38-1.14,6.63-1.14c49.12-0.03,98.25-0.02,147.37-0.02c71.18,0,142.37-0.01,213.55,0.04
			C436.63,303.61,439.22,302.82,441.22,304.88z"/>
		<path class="st138" d="M441.22,304.88c-1.89-0.04-3.78-0.12-5.67-0.12c-122.94-0.01-245.87-0.01-368.81-0.01
			c-0.01-0.27-0.02-0.54-0.03-0.82c-0.63-4.61-2.1-9.22-0.01-13.83c0.07-1.03,0.62-1.57,1.66-1.6c0.28,0.32,0.42,0.69,0.43,1.12
			c-0.08,0.84-0.12,1.67-0.11,2.52c0.21,3.15-0.43,6.35,0.47,9.46c1.78,1.88,4.09,1.14,6.16,1.14c62.1,0.04,124.19,0.03,186.29,0.03
			c59.12,0,118.24-0.01,177.34,0c1.56-0.36,3.93,1.1,4.33-1.92c0.05-3.71,0.13-7.41-0.09-11.12c0.01-0.46,0.16-0.88,0.45-1.24
			c2.28,1.65,3.96,7.65,2.73,10.19c-0.33,0.68-1.18,1.19-0.91,2.07C446.7,304.89,443.84,304.74,441.22,304.88z"/>
		<path class="st138" d="M72.43,288.49c121.84,0,243.68,0,365.52,0c1.53-0.51,3.41-2.13,3.75,1.17c-1.45,1-3.1,0.8-4.71,0.8
			c-119.63,0-239.26,0.01-358.89-0.01c-1.74,0-3.53,0.24-5.19-0.59C72.37,289.53,72.22,289.08,72.43,288.49z"/>
		<path class="st139" d="M67.59,256.1c0,4.33,0.23,8.67-0.06,12.98c-0.22,3.37,1.12,4.04,4.19,4.03
			c34.23-0.09,68.45-0.06,102.68-0.06c1.46,0,2.91,0,5.17,0c-2.17,1.2-3.66,0.79-5.08,0.79c-34.09,0.03-68.18,0.01-102.28,0.05
			c-1.55,0-3.27-0.59-4.64,0.75C66.76,268.46,66.73,262.28,67.59,256.1z"/>
		<path class="st137" d="M66.71,290.09c0,4.61,0.01,9.22,0.01,13.83c-2.69-2.95-0.66-7.24-2.95-10.46
			C63.29,292.79,64.2,289.94,66.71,290.09z"/>
		<path class="st140" d="M112.34,247.83c-1.5,1.42-3.13-0.76-4.65,0.16c0.21-0.89,0.33-1.82,0.65-2.67
			c0.84-2.21,2.46-0.75,3.77-0.72c0.54,0.01,1.08,0.02,1.62,0.02C113.65,245.86,112.04,246.43,112.34,247.83z"/>
		<path class="st141" d="M425.75,268.94c1.56-1.72,0.86-6.5,5.5-4.05C429.9,266.9,427.89,268.02,425.75,268.94z"/>
		<path class="st137" d="M442.01,289.24c-1.17-1.24-2.7-0.57-4.06-0.75c2.1-2.27,3.58-2.27,5.69,0c0,0.25,0,0.49,0,0.74
			C443.09,289.72,442.55,289.72,442.01,289.24z"/>
		<path class="st142" d="M121.98,333.98c-0.93-1.34-2.06-2.66-0.68-4.36c1.42,1.74,2.39,3.66,2.25,5.98
			C123.03,335.06,122.5,334.52,121.98,333.98L121.98,333.98z"/>
		<path class="st143" d="M140.65,409.51c0.24-0.42,0.47-0.83,0.71-1.25c1.29-0.09,2.99-0.99,2.96,1.51
			c-0.37,1.27-0.84,2.18-2.04,0.6C141.73,410.08,141.19,409.8,140.65,409.51z"/>
		<path class="st142" d="M74.07,329.13c1.43,1.12,1.62-1.58,3.02-0.88c-0.58,1.96-2,2.56-3.88,2.46
			C73.2,330.03,73.39,329.45,74.07,329.13z"/>
		<path class="st141" d="M436.29,259.84c-0.23-0.81-1.84-1.31-0.87-2.3c0.98-1,1.49,0.63,2.3,0.84
			C437.45,259.08,437.15,259.73,436.29,259.84z"/>
		<path class="st137" d="M265.38,275.38c0.14-0.2,0.28-0.39,0.41-0.59c1.61,0,3.21,0,4.82,0
			C268.99,276.07,267.14,275.36,265.38,275.38z"/>
		<path class="st137" d="M272.88,274.62c1.31-0.86,2.77-0.8,4.24-0.7C275.88,275.19,274.32,274.56,272.88,274.62z"/>
		<path class="st137" d="M277.77,273.81c0.74-0.73,1.65-0.8,2.6-0.67C280.26,276.28,278.44,272.81,277.77,273.81z"/>
		<path class="st137" d="M181.94,275.44c0.3-1.48,0.59-2.96,0.89-4.44C182.67,272.51,183.64,274.25,181.94,275.44z"/>
		<path class="st137" d="M286.68,271.36c0.96-0.92,2.18-1.2,3.43-1.44C289.37,271.37,288.1,271.54,286.68,271.36z"/>
		<path class="st137" d="M72.43,288.49c0,0.25,0,0.5,0,0.75c-1.35,1.26-2.71,1.26-4.06,0c0-0.25,0-0.5,0-0.75
			C69.72,288.49,71.07,288.49,72.43,288.49z"/>
		<path class="st131" d="M139.04,103.3c-1.33,1.36-3.04,0.76-4.57,0.77c-5.89,0.07-11.78,0.05-17.66,0.01
			c-1.29-0.01-2.71,0.42-3.77-0.79c1.05-1.22,2.48-0.79,3.77-0.8c6.16-0.04,12.32-0.04,18.48,0
			C136.56,102.51,137.99,102.08,139.04,103.3z"/>
		<path class="st144" d="M113.79,100.58c7.94,0,15.88,0,23.82,0c0.01,0.21,0.01,0.42,0.02,0.63c-7.94,0-15.88,0-23.82,0
			C113.81,101,113.8,100.79,113.79,100.58z"/>
		<path class="st145" d="M108.18,87.05c0.54,0,1.08,0,1.61,0c0,3.04,0.02,6.08-0.01,9.12c-0.01,1.27,0.33,2.78-1.61,3.06
			C108.17,95.17,108.17,91.11,108.18,87.05z"/>
		<path class="st145" d="M109.79,424.95c-0.54,0-1.08,0-1.62,0c0-4.06,0-8.12,0-12.18c1.94,0.28,1.6,1.78,1.62,3.06
			C109.81,418.87,109.79,421.91,109.79,424.95z"/>
		<path class="st23" d="M234.27,229.97c0-5,0.03-10.01-0.02-15.01c-0.02-1.66,0.09-2.86,2.32-2.79c8.65,0.27,17.31-0.43,25.95,0.49
			c9.82,1.05,14.77,6.97,14.86,17.72c0.08,9.47-5.15,15.53-14.53,16.79c-8.76,1.18-17.57,0.38-26.35,0.67
			c-2.31,0.08-2.25-1.27-2.24-2.86C234.29,239.98,234.27,234.98,234.27,229.97z"/>
		<path class="st23" d="M234.28,171.84c0-4.74,0.06-9.48-0.03-14.21c-0.03-1.67,0.3-2.49,2.19-2.43c7.7,0.25,15.44-0.56,23.1,0.68
			c10.54,1.71,15.17,7.19,14.77,17.27c-0.37,9.27-5.69,14.65-15.92,15.36c-7.15,0.49-14.34,0.23-21.51,0.46
			c-2.3,0.07-2.7-0.96-2.66-2.92c0.09-4.74,0.03-9.47,0.03-14.21C234.26,171.84,234.27,171.84,234.28,171.84z"/>
		<path class="st142" d="M383.59,213.04c-1.7-0.56-2.51-0.83-3.87-1.28C381.32,211.16,382.2,211.27,383.59,213.04z"/>
		<path class="st146" d="M164.08,168.32c-0.19,1.84-1.01,2.22-2.12,3.14C162.1,169.65,162.91,169.26,164.08,168.32z"/>
		<path class="st147" d="M159.58,173.53c-0.32-1.61,0.42-2.25,0.89-3.26C161.24,171.77,160.5,172.54,159.58,173.53z"/>
		<path class="st142" d="M123.07,231.01c-1.5-0.25-2.29-1.12-2.45-2.99c1.54,0.62,1.6,2.17,2.5,2.95
			C123.12,230.97,123.07,231.01,123.07,231.01z"/>
		<path class="st146" d="M72.24,254.87c-0.37,0.27-0.72,0.7-1.17,0.82c-0.47,0.13-0.65-0.33-0.36-0.67
			c0.32-0.38,0.79-0.63,1.19-0.93C71.99,254.3,72.08,254.51,72.24,254.87z"/>
		<path class="st148" d="M370.7,359.21c-4.76,0-9.17,0-13.94,0c2.24-7.21,4.41-14.22,6.92-22.3
			C366.21,344.94,368.41,351.94,370.7,359.21z"/>
		<path class="st146" d="M348.89,372.98c-0.39-0.71-0.78-1.43-1.26-2.3C349.66,370.69,349.3,371.88,348.89,372.98z"/>
		<path class="st148" d="M152.17,357.59c2.13-6.46,4.27-12.92,6.77-20.47c2.49,7.97,4.69,14.97,6.88,21.97
			c-4.24,1-8.53,0.3-12.8,0.38C151.82,359.49,151.32,358.73,152.17,357.59z"/>
		<path class="st149" d="M152.17,357.59c-0.27,1.44,0.47,1.81,1.76,1.77c3.96-0.12,7.92-0.19,11.88-0.27
			c-4.6,1.97-9.43,0.97-14.09,0.65C149.48,359.59,151.13,358.2,152.17,357.59z"/>
		<path class="st150" d="M211.68,339.81c0-10.6,0-10.6,10.81-9.89c5.71,0.38,9.26,4.53,9.12,10.66c-0.13,5.56-3.33,8.63-9.28,8.87
			c-0.27,0.01-0.54,0.02-0.81,0.03C211.68,349.75,211.68,349.75,211.68,339.81z"/>
		<path class="st142" d="M70.4,352.5c-0.44-1.6-0.61-3.12,0-5.11C71.01,349.42,70.85,351,70.4,352.5z"/>
		<path class="st142" d="M121.98,333.98c-0.51,1.12,1.49,3-1.31,3.58C120.76,336.15,120.96,334.94,121.98,333.98
			C121.98,333.98,121.98,333.98,121.98,333.98z"/>
		<path class="st147" d="M88.23,330.86c-0.49-0.94-0.58-1.79,0.07-2.7C88.81,329.1,88.88,329.96,88.23,330.86z"/>
		<path class="st151" d="M68.37,289.24c1.35,0,2.7,0,4.06,0c1.08,0.05,2.15,0.16,3.23,0.16c120.91,0.01,241.81,0.01,362.72,0
			c1.21,0,2.43-0.1,3.64-0.16c0.54,0,1.08-0.01,1.62-0.01c1.84,3.99,0.64,8.17,0.75,12.27c-0.42,0.24-0.78,0.17-1.1-0.19
			c-1.1-1.82-0.74-3.85-0.71-5.79c0.04-2.51-0.3-4.29-3.49-3.18c-0.74,0.26-1.57,0.1-2.35-0.12c-1.9-0.2-3.8-0.13-5.69-0.13
			c-116.74,0-233.48,0-350.22,0c-1.89,0-3.79-0.06-5.67,0.13c-2.17,0.54-4.26-0.11-6.36-0.5c-0.42-0.21-0.8-0.47-1.15-0.79
			C67.45,290.18,67.59,289.57,68.37,289.24z"/>
		<path class="st152" d="M440.38,303.96c-1.21,0.06-2.42,0.19-3.64,0.19c-121.63,0.01-243.26,0.01-364.89-0.07
			c-1.61,0-4.93,1.65-4.23-2.59c0.29-0.27,0.63-0.43,1.03-0.45c1.83,0.77,3.72,1.08,5.71,0.69c0.47,0.07,0.93,0.13,1.4,0.18
			c8.4,0.12,16.8,0.05,25.19,0.05c109.89,0.01,219.79-0.01,329.68,0.06c3.78,0,7.51-0.79,11.28-0.43
			C444.4,304.28,440.64,303,440.38,303.96z"/>
		<path class="st153" d="M68.39,301.47c-0.26,0.01-0.51,0.01-0.77,0.02c0.01-3.52,0.01-7.04,0.02-10.56
			c0.25,0.01,0.51,0.02,0.76,0.03C70.05,294.46,70.23,297.97,68.39,301.47z"/>
		<path class="st154" d="M440.38,303.96c0.8-0.56,1.61-1.11,2.41-1.67c-0.17-0.71,0.11-0.97,0.81-0.83
			c0.26,0.01,0.52,0.03,0.78,0.04C445.07,305.61,442.13,303.8,440.38,303.96z"/>
		<path class="st155" d="M443.6,301.46c-0.27,0.28-0.54,0.55-0.81,0.83c-19.71,1.73-39.46,0.73-59.18,0.75
			c-101.51,0.13-203.02,0.06-304.53,0.03c-1.68,0-3.54,0.66-5.04-0.77c0.29-2.1,2.06-1.86,3.43-2.05c2.01-0.28,4.05-0.13,6.08-0.13
			c116.39,0,232.77,0,349.16-0.01c2.03,0,4.06,0.15,6.07-0.26c1.54-0.31,2.03-1.41,1.62-2.72c-0.53-1.67-1.51-0.23-2.25-0.08
			c-0.94,0.19-1.87,0.22-2.82,0.22c-118.55-0.25-237.1-0.05-355.65-0.1c-0.81,0-1.62,0.04-2.44,0c-4.14-0.19-4.63-1.16-2.52-4.95
			c2.09-0.86,4.28-0.46,6.42-0.46c116.38-0.02,232.77-0.02,349.15-0.02c2.03,0,4.06,0.07,6.09-0.08c0.53-0.16,1.05-0.14,1.57,0.07
			c5.67-1.79,5.67-1.79,5.67,4.18C443.63,297.76,443.61,299.61,443.6,301.46z"/>
		<path class="st156" d="M437.96,291.73c-0.28,0-0.55,0.01-0.83,0.01c-1.54,0.77-3.2,0.37-4.79,0.37
			c-118.67,0.02-237.34,0.02-356,0.02c-0.53,0-1.06-0.01-1.59-0.03c-0.23-0.13-0.47-0.25-0.7-0.38c1.21-1.31,2.79-0.79,4.22-0.79
			c118.49-0.02,236.99-0.02,355.48,0C435.17,290.94,436.75,290.42,437.96,291.73z"/>
		<path class="st155" d="M68.39,301.47c0-3.5,0.01-7.01,0.01-10.51c1.96-0.33,3.78,0.34,5.64,0.77c0,0,0.01,0.02,0.01,0.02
			c-0.17,1.85-2.89,2.21-2.27,5.02c0.41,1.85,0.44,3.8,1.45,5.54C71.24,304.25,69.92,302.28,68.39,301.47z"/>
		<path class="st157" d="M73.24,302.3c-2.66-0.54-3.97-1.79-2.43-4.57c0.25-0.46,0.64-1.26,0.46-1.47
			c-3.95-4.55,2.05-2.91,2.78-4.51c0.27,0,0.54,0,0.81,0c0.29,0.18,0.38,0.36,0.29,0.54c-0.1,0.18-0.19,0.27-0.29,0.27
			c-0.95,2.43-0.96,4.08,2.47,3.28c0.9-0.21,1.89-0.03,2.83-0.03c117.2,0,234.41,0,351.61,0c1.49,0,3.04-0.19,4.44,0.18
			c1.74,0.45,2.59,0.24,2.57-1.7c-0.01-0.7,0.2-1.39,1.03-1.51c1.02-0.15,1.37,0.68,1.73,1.4c2.52,4.96,1.11,7.32-4.36,7.32
			c-119.37,0-238.74,0-358.11,0.03c-1.68,0-3.54-0.67-5.03,0.78c0,0-0.4,0-0.4,0L73.24,302.3z"/>
		<path class="st158" d="M74.87,292.55c0-0.27,0-0.54,0-0.81c120.76,0,241.51,0,362.27,0c-1.49,1.45-3.35,0.78-5.03,0.78
			C313.03,292.56,193.95,292.55,74.87,292.55z"/>
	</g>
</g>
<rect x="201.93" y="272" class="st28" width="62.68" height="2.46"/>
</svg>
