<svg id="图层_1" data-name="图层 1" xmlns="http://www.w3.org/2000/svg" viewBox="0 0 512 512"><defs><style>.cls-1{fill:#eb5c20;}</style></defs><path class="cls-1" d="M322.62,252.18a27.73,27.73,0,0,0-6-7.92,22.91,22.91,0,0,0-10.23-5.41,21.23,21.23,0,0,0-9.71,0,23.44,23.44,0,0,0-13.22,8.49,28.8,28.8,0,0,0-5.4,10.65,32.76,32.76,0,0,0-1,10.9,30.59,30.59,0,0,0,4.48,14.1,26.12,26.12,0,0,0,8.27,8.49,22.44,22.44,0,0,0,11.77,3.49c.72-.12,1.57-.09,2.41-.19a22.71,22.71,0,0,0,14.29-7.46,27.8,27.8,0,0,0,5.83-9.68,36.56,36.56,0,0,0,1.91-9.54,24.5,24.5,0,0,0-.25-5.53A32,32,0,0,0,322.62,252.18Z"/><path class="cls-1" d="M233.69,256.27a31.6,31.6,0,0,0-2.88-6.18,28.51,28.51,0,0,0-5.05-6,22.92,22.92,0,0,0-8.56-4.85,21.36,21.36,0,0,0-12.95,0A23.74,23.74,0,0,0,194,245.89a27.26,27.26,0,0,0-5,7.69,31.81,31.81,0,0,0-2.73,11.51,29.92,29.92,0,0,0,.65,7.77,30.41,30.41,0,0,0,5.45,12.29,25.14,25.14,0,0,0,8.61,7.33,22.34,22.34,0,0,0,10.16,2.44c.63-.05,1.57-.11,2.51-.22a21.41,21.41,0,0,0,7.82-2.58,25.11,25.11,0,0,0,7.66-6.65,29.3,29.3,0,0,0,5.22-10.87,32,32,0,0,0,.89-10.61A28.58,28.58,0,0,0,233.69,256.27Z"/><path class="cls-1" d="M119.73,311.78a3.55,3.55,0,0,0,.16,1.52,36.76,36.76,0,0,0-.12-4.2v-11c0-1.2,0-2.4,0-3.6h-.08l0,.3c0,5.35-.05,10.71,0,16.06A3.22,3.22,0,0,1,119.73,311.78Z"/><path class="cls-1" d="M256,6C117.93,6,6,117.93,6,256S117.93,506,256,506,506,394.07,506,256,394.07,6,256,6ZM392.48,305.44a43.93,43.93,0,0,0-.1,4.73c0,5.29-.19,10.58-.4,15.87a2.91,2.91,0,0,1-1.39,2.33c-3.06,2.32-6.18,4.53-9.34,6.68q-6.18,4.21-12.6,8-6.93,4.1-14.15,7.63c-3.82,1.89-7.67,3.71-11.6,5.35-5.66,2.35-11.36,4.61-17.2,6.45-1.05.33-2.16.35-3.23.62h-.39a9.31,9.31,0,0,1-2.58-3.06c-2.69-4-5.25-8.07-7.63-12.27-1.56-2.75-3.06-5.54-4.42-8.4-.43-.9-.22-1.42.78-1.81,2.27-.9,4.51-1.86,6.74-2.87a143.83,143.83,0,0,0,13.82-7.2c.92-.55.95-.82.12-1.46-1-.75-1.94-1.53-2.89-2.33a1.82,1.82,0,0,0-2.18-.26,153.76,153.76,0,0,1-15.64,6.42,158.15,158.15,0,0,1-27.1,6.9c-4.89.76-9.79,1.32-14.73,1.66a131.89,131.89,0,0,1-14.33.33c-4.9-.19-9.8-.54-14.68-1.15a161.58,161.58,0,0,1-22.1-4.32,167.53,167.53,0,0,1-27.07-9.91,1.55,1.55,0,0,0-1.83.18c-1,.86-2.06,1.7-3.11,2.52-.77.6-.72.89.15,1.41a142.09,142.09,0,0,0,15.17,7.82c1.65.74,3.34,1.42,5,2.11,1.36.55,1.54,1,.93,2.33-1.14,2.49-2.49,4.85-3.8,7.23-1.63,2.95-3.37,5.82-5.2,8.64-1.44,2.22-2.88,4.43-4.43,6.57a3.12,3.12,0,0,1-1.16.92h-.19c-4.52-.6-8.66-2.51-12.9-4.06-4.86-1.77-9.61-3.85-14.31-6s-9.49-4.65-14.13-7.22q-7.47-4.14-14.62-8.87c-4.35-2.88-8.65-5.83-12.78-9.05a1.88,1.88,0,0,1-.75-1.47c-.37-4.47-.43-8.95-.52-13.43,0-.72,0-1.43,0-2.14a.87.87,0,0,0-.15-.24V294.48h.13c.21-1.94.11-3.9.14-5.85a115,115,0,0,1,.68-11.74c1-8.46,2.23-16.9,4-25.23,1.07-4.94,2.27-9.84,3.68-14.68,1.86-6.42,3.94-12.77,6.31-19q3.13-8.25,6.8-16.25c2.68-5.83,5.62-11.51,8.72-17.1q3.1-5.58,6.41-11c1.28-2.12,2.58-4.23,4-6.27a4.76,4.76,0,0,1,2-1.59,219.27,219.27,0,0,1,22.85-9.19,209.77,209.77,0,0,1,26.94-7.19,22.08,22.08,0,0,1,5.51-.46,2.67,2.67,0,0,1,1.36,1.55c1.86,3.83,3.84,7.61,5.52,11.53.56,1.3.83,1.42,2.22,1.24,4.06-.55,8.12-1,12.2-1.37s8.43-.55,12.65-.65c2,0,4-.23,6-.13,5,.26,10.07.25,15.09.75,4.27.43,8.54.82,12.79,1.45,1.15.17,1.48,0,2-1.17,1.82-4,3.62-8.1,5.72-12,.25-.47.42-1,1-1.19a28.89,28.89,0,0,1,6.75.64c5.78,1.24,11.53,2.62,17.21,4.3s11.48,3.62,17.11,5.77c4.84,1.84,9.59,3.91,14.31,6.05a5.32,5.32,0,0,1,2.29,2q6.13,9.23,11.41,19c2.42,4.45,4.72,9,6.86,13.59,2.53,5.48,4.95,11,7.1,16.67,2.31,6,4.39,12.17,6.19,18.4q3.09,10.68,5.22,21.61c1.3,6.65,2.12,13.36,2.93,20.09.48,4,.48,8,.66,12,.09,2,.06,4,.08,6a40,40,0,0,0,.1,4.38Z"/></svg>