<svg id="图层_1" data-name="图层 1" xmlns="http://www.w3.org/2000/svg" viewBox="0 0 512 512"><defs><style>.cls-1{fill:#df5b23;}</style></defs><path class="cls-1" d="M231,376.21a14.65,14.65,0,1,1-14.67,14.62A14.64,14.64,0,0,1,231,376.21h0m229.67-90.57A14.65,14.65,0,1,1,475.36,271a14.64,14.64,0,0,1-14.65,14.63m0-59.91a45.19,45.19,0,0,0-42.9,59.69L268.2,365.06a45.2,45.2,0,0,0-77.79,5.81L56,300c-14.2-7.46-24.83-30.84-23.71-52.13.59-11.1,4.42-19.73,10.28-23.06,3.7-2.08,8.16-1.92,12.91.56l.88.48C92,244.6,208.54,306,213.45,308.27c7.57,3.52,11.77,4.94,24.69-1.19L479.06,181.79c3.54-1.33,7.67-4.73,7.67-9.88,0-7.12-7.38-9.93-7.4-9.93-13.71-6.57-34.77-16.42-55.31-26-43.92-20.56-93.69-43.85-115.54-55.31-18.88-9.87-34.07-1.54-36.78.13l-5.25,2.6C168.08,132,36.41,197.21,28.91,201.77c-13.4,8.16-21.71,24.44-22.79,44.62-1.67,32,14.64,65.42,38,77.65l142.12,73.29a45.27,45.27,0,0,0,90.07-5.79l156.54-84.85a45.28,45.28,0,1,0,27.86-81"/></svg>