<svg id="图层_1" data-name="图层 1" xmlns="http://www.w3.org/2000/svg" viewBox="0 0 512 512"><defs><style>.cls-1{fill:#eb5c20;}</style></defs><path class="cls-1" d="M256,6C117.92,6,6,117.94,6,256S117.92,506,256,506,506,394.06,506,256,394.09,6,256,6ZM199.74,356.79H154.4V211.73h45.34Zm-23.83-163.2h-.33c-16.41,0-27-11.1-27-25.14,0-14.32,11-25.19,27.7-25.19s27,10.85,27.32,25.16C203.56,182.47,193,193.59,175.91,193.59Zm205.17,163.2h-51.4V281.73c0-19.66-8-33.06-25.71-33.06-13.52,0-21,9.05-24.55,17.78-1.31,3.13-1.09,7.48-1.09,11.86v78.48H227.4s.67-133,0-145.06h50.93V234.5c3-9.95,19.26-24.15,45.23-24.15,32.21,0,57.52,20.85,57.52,65.78Z"/></svg>