<svg id="图层_1" data-name="图层 1" xmlns="http://www.w3.org/2000/svg" viewBox="0 0 512 512"><defs><style>.cls-1{fill:#df5b23;}</style></defs><path class="cls-1" d="M256,6C117.93,6,6,117.93,6,256S117.93,506,256,506,506,394.07,506,256,394.07,6,256,6ZM367.09,199c.11,2.44.16,4.93.16,7.41,0,75.76-57.64,163.08-163.09,163.08a162.32,162.32,0,0,1-87.85-25.74A116,116,0,0,0,201.17,320a57.31,57.31,0,0,1-53.54-39.78,57.11,57.11,0,0,0,10.78,1,55.65,55.65,0,0,0,15.1-2,57.32,57.32,0,0,1-46-56.19v-.71a57.45,57.45,0,0,0,26,7.16A57.43,57.43,0,0,1,135.75,153,162.7,162.7,0,0,0,253.9,212.84a56.63,56.63,0,0,1-1.47-13.05,57.32,57.32,0,0,1,99.12-39.21A114.56,114.56,0,0,0,388,146.68a57.36,57.36,0,0,1-25.2,31.7,114.74,114.74,0,0,0,32.92-9A115.92,115.92,0,0,1,367.09,199Z"/></svg>