<?xml version="1.0" encoding="utf-8"?>
<!-- Generator: Adobe Illustrator 24.1.2, SVG Export Plug-In . SVG Version: 6.00 Build 0)  -->
<svg version="1.1" id="Warstwa_3" xmlns="http://www.w3.org/2000/svg" xmlns:xlink="http://www.w3.org/1999/xlink" x="0px" y="0px"
	 viewBox="0 0 430 430" style="enable-background:new 0 0 430 430;" xml:space="preserve">
<style type="text/css">
	.st0{fill:#08A789;}
	.st1{fill:#121331;}
	.st2{fill:#08A88A;}
	.st3{fill:none;}
	.st4{fill:none;stroke:#121331;stroke-width:12;stroke-linecap:round;stroke-linejoin:round;stroke-miterlimit:10;}
	.st5{fill:none;stroke:#08A789;stroke-width:12;stroke-linecap:round;stroke-linejoin:round;stroke-miterlimit:10;}
	.st6{fill:none;stroke:#121331;stroke-width:16;stroke-linecap:round;stroke-linejoin:round;stroke-miterlimit:10;}
</style>
<g>
	<path class="st1" d="M186.79,324.04H175.7c-3.31,0-6-2.69-6-6s2.69-6,6-6h11.09c3.31,0,6,2.69,6,6S190.1,324.04,186.79,324.04z"/>
	<path class="st1" d="M254.35,324.04h-11.1c-3.31,0-6-2.69-6-6s2.69-6,6-6h11.07c3.31,0,6.02,2.69,6.02,6
		S257.66,324.04,254.35,324.04z"/>
	<path class="st1" d="M196.01,386l-14.33-32.73v-35.24c0-3.31-2.69-6-6-6s-6,2.69-6,6v30.48h-32.6v-30.48c0-3.31-2.69-6-6-6
		s-6,2.69-6,6v35.21L110.75,386c-0.81,1.86-0.63,4,0.47,5.69c1.11,1.7,3,2.72,5.02,2.72h74.27c2.03,0,3.91-1.02,5.02-2.72
		C196.65,389.99,196.82,387.85,196.01,386z M125.42,382.4l9.58-21.89h36.76l9.58,21.89H125.42z"/>
	<path class="st1" d="M319.25,386l-14.33-32.74V155.8c0-0.77-0.15-1.53-0.44-2.25l-22.3-55.22c-0.92-2.27-3.12-3.75-5.56-3.75
		s-4.65,1.48-5.56,3.75l-10.71,26.52v-17.41c0-40.12-40.11-69.49-41.82-70.72c-2.1-1.51-4.92-1.51-7.02,0
		c-1.71,1.23-41.81,30.6-41.81,70.72v17.49l-10.75-26.61c-0.92-2.27-3.12-3.75-5.56-3.75s-4.65,1.48-5.56,3.75l-22.3,55.22
		c-0.29,0.71-0.44,1.48-0.44,2.25v40.88c0,0.04-0.01,0.08-0.01,0.12s0.01,0.08,0.01,0.12v73.16c0,3.31,2.69,6,6,6s6-2.69,6-6v-67.28
		h32.6v40.37c0,3.31,2.69,6,6,6c1.66,0,3.17-0.68,4.25-1.77c1.09-1.09,1.76-2.59,1.76-4.24v-135.7c0-27.59,24.12-50.46,33.32-58.19
		c9.21,7.72,33.33,30.59,33.33,58.19v48.07c0,0.1-0.03,0.19-0.03,0.28v197.46L233.99,386c-0.81,1.86-0.63,4,0.47,5.69
		c1.11,1.7,3,2.72,5.02,2.72h74.27c2.03,0,3.91-1.02,5.02-2.72C319.88,389.99,320.06,387.85,319.25,386z M137.09,190.79v-33.83
		l16.3-40.36l16.3,40.36v33.83H137.09z M260.35,156.9l16.27-40.3l16.3,40.36v33.82h-32.57V156.9z M260.32,243.4
		c0.02-0.18,0.03-0.36,0.03-0.54v-40.07h32.57v145.73h-32.6V243.4z M248.66,382.4l9.58-21.89H295l9.58,21.89H248.66z"/>
	<path class="st0" d="M297.23,259.47l-47.98-26.24v-34.67c0-29.66-29.47-51.23-30.72-52.14c-2.1-1.51-4.92-1.51-7.02,0
		c-1.25,0.9-30.72,22.48-30.72,52.14v34.75l-45.73,26.22c-13.27,7.61-21.52,22.76-21.52,39.54v18.97c0,3.31,2.69,6,6,6h61.25v20.55
		c0,3.31,2.69,6,6,6h56.46c3.31,0,6-2.69,6-6v-20.55h64.51c3.31,0,6-2.69,6-6v-18.97C319.75,282.24,311.12,267.07,297.23,259.47z
		 M125.54,312.04v-12.97c0-12.3,6.08-23.73,15.49-29.13l39.76-22.8v64.89H125.54z M237.25,338.59h-44.46v-20.55v-81.25v-38.23
		c0-18.11,15.19-33.42,22.23-39.54c7.05,6.13,22.23,21.43,22.23,39.54v38.23v81.25V338.59z M307.75,312.04h-58.51v-65.13L291.47,270
		c9.89,5.41,16.28,16.82,16.28,29.07V312.04z"/>
	<path class="st1" d="M215.02,369.89c-3.31,0-6-2.69-6-6v-39.62c0-3.31,2.69-6,6-6s6,2.69,6,6v39.62
		C221.02,367.21,218.33,369.89,215.02,369.89z"/>
</g>
</svg>
