<svg xmlns="http://www.w3.org/2000/svg" width="500" height="500" style="width:100%;height:100%;content-visibility:visible"><defs><clipPath id="a"><path d="M0 0h500v500H0z"/></clipPath></defs><g clip-path="url(#a)"><g display="block"><path stroke-linecap="round" stroke-linejoin="round" stroke="#C5214E" stroke-width="12.04" d="M333.885 218.432h-44.6m-78.638 0h-44.601m123.225 44.94l.032-44.935v-89.35c0-37.51-39.32-65.85-39.32-65.85s-39.33 28.34-39.33 65.85v48.36l-.042 85.35m.042-85.35l-22.3-55.22-22.31 55.22v40.99l-.042 71.28m.042 86.44v-35.459m44.61 35.459v-35.459m-44.607 35.463h44.601l14.834 33.886h-74.27l14.835-33.886zm123.237-.004v-35.459m44.6 35.459v-35.459m-.032-52.446l.032-69.815v-40.99l-22.3-55.22-22.28 55.16-.02.06m.002 198.714h44.6l14.835 33.886h-74.27l14.835-33.886z" fill="none"/><path stroke-linecap="round" stroke-linejoin="round" stroke="#FFF" stroke-width="12.04" d="M348.72 339.682h-70.508v-81.25l51.105 27.946c11.891 6.503 19.403 19.796 19.403 34.336v18.968zm-194.217 0h67.249v-81.25l-48.743 27.946c-11.342 6.503-18.506 19.796-18.506 34.336v18.968zm123.709 26.551h-56.46V220.202c0-26.925 28.23-47.269 28.23-47.269s28.23 20.344 28.23 47.269v146.031z" fill="none"/><path stroke-linecap="round" stroke-linejoin="round" stroke="#C5214E" stroke-width="12.04" d="M249.982 385.537v-39.624" fill="none"/></g></g></svg>