<svg width="800" height="600" xmlns="http://www.w3.org/2000/svg">

 <g>
  <title>Layer 1</title>
  <g>

   <path fill="#ffffff" d="m566.00058,112.38001l-202,0a28,28 0 0 0 -27.9,27.91l0,33.39a7.21,7.21 0 0 1 -7.21,7.21l-94.63,0c-11.39,0 -17,9.32 -12.44,20.71l24.73,61.88a7.2,7.2 0 0 1 -6.69,9.88l-70.06,0c-27.49,0 -26.19,22.5 2.86,50l158.7,150.04l0.71,0.78a36.37,36.37 0 0 0 18.37,12.55a16.69,16.69 0 0 0 4.83,0.89l266.81,0a28,28 0 0 0 27.92,-27.92l0,-263.31a7.2,7.2 0 0 0 -2.11,-5.1l-76.8,-76.8a7.22,7.22 0 0 0 -5.09,-2.11zm-335.21,197.94l29.59,0a7.21,7.21 0 0 1 6.69,4.53l18,45c2.87,7.17 -6,13.22 -11.64,7.91l-47.56,-45a7.21,7.21 0 0 1 4.92,-12.44zm91.41,42.92l-50.15,-125.52a7.2,7.2 0 0 1 6.69,-9.88l50.15,0a7.2,7.2 0 0 1 7.21,7.2l0,125.52c0,7.94 -10.95,10.05 -13.9,2.68zm283.65,97.43l-225.6,0a7.2,7.2 0 0 1 -7.2,-7.21l0,-286.93a7.2,7.2 0 0 1 7.2,-7.21l155.16,0a7.21,7.21 0 0 1 7.21,7.21l0,56a7.2,7.2 0 0 0 7.21,7.2l56,0a7.21,7.21 0 0 1 7.21,7.21l0,216.5a7.21,7.21 0 0 1 -7.19,7.23z" class="cls-1"/>
   <path fill="#ffffff" d="m560.90058,375.43001l-135.28,0a14.91,14.91 0 0 0 -14.94,12.87a14.66,14.66 0 0 0 14.52,16.38l135.29,0a14.89,14.89 0 0 0 14.93,-12.87a14.66,14.66 0 0 0 -14.52,-16.38z" class="cls-1"/>
   <path fill="#ffffff" d="m560.90058,310.00001l-135.27,0a14.91,14.91 0 0 0 -14.95,12.89a14.64,14.64 0 0 0 14.52,16.36l135.25,0c7.87,0 14.68,-6 15.06,-13.89a14.67,14.67 0 0 0 -14.61,-15.36z" class="cls-1"/>
   <path fill="#ffffff" d="m410.68058,261.05001a14.91,14.91 0 0 0 14.94,12.87l134.86,0a14.91,14.91 0 0 0 14.94,-12.87a14.66,14.66 0 0 0 -14.52,-16.38l-135.7,0a14.66,14.66 0 0 0 -14.52,16.38z" class="cls-1"/>
  </g>
 </g>
</svg>