<svg id="图层_1" data-name="图层 1" xmlns="http://www.w3.org/2000/svg" viewBox="0 0 512 512"><defs><style>.cls-1{fill:#eb5c20;}</style></defs><path class="cls-1" d="M314.88,325l-.24,0a5.66,5.66,0,0,1-4.86-4.44l-19.84-93.22-89.1-33.84a5.65,5.65,0,0,1,.36-10.7l206-62.83a5.66,5.66,0,0,1,6.75,7.87l-93.53,194A5.64,5.64,0,0,1,314.88,325ZM220.33,188.79l76.51,29.05a5.67,5.67,0,0,1,3.53,4.11l17,80.05,80.73-167.44Z"/><rect class="cls-1" x="70.26" y="301.78" width="250" height="11.32" rx="2" transform="translate(-153.09 201.15) rotate(-40.61)"/></svg>