<svg id="图层_1" data-name="图层 1" xmlns="http://www.w3.org/2000/svg" viewBox="0 0 512 512"><defs><style>.cls-1{fill:#7c2b7f;}.cls-2{fill:#752c7f;}.cls-3{fill:#ee8753;}.cls-4{fill:#f09d47;}.cls-5{fill:#ef944d;}.cls-6{fill:#ee8c51;}.cls-7{fill:#ec795a;}.cls-8{fill:#f0984b;}.cls-9{fill:#eb715e;}.cls-10{fill:#9e2f7f;}.cls-11{fill:#aa2e7e;}.cls-12{fill:#ec7c5d;}.cls-13{fill:#c4337f;}.cls-14{fill:#932d7f;}.cls-15{fill:#a42f7e;}.cls-16{fill:#bd317e;}.cls-17{fill:#b8327f;}.cls-18{fill:#b2317e;}.cls-19{fill:#992d7f;}.cls-20{fill:#ca347f;}.cls-21{fill:#8c2d7f;}.cls-22{fill:#d0357f;}.cls-23{fill:#ae307e;}.cls-24{fill:#ec765e;}.cls-25{fill:#db377f;}.cls-26{fill:#e44676;}.cls-27{fill:#862c7e;}.cls-28{fill:#e96b64;}.cls-29{fill:#d6357f;}.cls-30{fill:#e96b62;}.cls-31{fill:#e13a80;}.cls-32{fill:#e13d7e;}.cls-33{fill:#822b7f;}.cls-34{fill:#e54d75;}.cls-35{fill:#33a2d3;}.cls-36{fill:#e3417b;}.cls-37{fill:#e65371;}.cls-38{fill:#e65b6c;}.cls-39{fill:#e96764;}.cls-40{fill:#e85f68;}.cls-41{fill:#e96366;}.cls-42{fill:#ea6f67;}.cls-43{fill:#e6566d;}.cls-44{fill:#ea6c6c;}.cls-45{fill:#e7606e;}.cls-46{fill:#eb7563;}.cls-47{fill:#ec7c69;}.cls-48{fill:#e8687d;}.cls-49{fill:#e0edf7;}.cls-50{fill:#e9676e;}.cls-51{fill:#fff;}</style></defs><path class="cls-1" d="M26.47,300.4c1.66,3.07,5.72,3.15,7.57,6H28.75c-1.46-1.34-4.32-1-4.56-3.79C24.94,301.87,25.7,301.13,26.47,300.4Z"/><path class="cls-2" d="M24.18,302.61c1.25,1.58,3.75,1.68,4.56,3.79l-8.32.06A14.8,14.8,0,0,1,24.18,302.61Z"/><path class="cls-3" d="M99,244.77a12.59,12.59,0,0,1,.88,6,3.36,3.36,0,0,1-3.51-.59c-4.35-2.92-9.17-5.09-13.29-8.37-8.24-8.91-18-15.29-30.14-17.5-9.32-5.16-18.39-10.72-27.57-16.12-.9-.53-2.11-1-1.89-2.48h9.82q28,16.29,55.83,32.9C92.45,240.6,96.13,242,99,244.77Z"/><path class="cls-4" d="M48.42,205.71c18.84-1.19,38.88,10.54,46.14,27-1.65,1.09-2.86-.12-4.1-.85Q71,220.47,51.58,209C50.26,208.21,48.49,207.74,48.42,205.71Z"/><path class="cls-5" d="M38.58,205.71h6.81C61.58,215.19,77.6,225,94,234.12a10.43,10.43,0,0,1,2,1.63,9.23,9.23,0,0,1,1.66,4.46c-1.83,2.3-3.4.38-4.85-.45-13.37-7.71-26.66-15.56-39.93-23.44-4-2.37-8.07-4.59-12-7.08C39.73,208.47,37.65,208,38.58,205.71Z"/><path class="cls-6" d="M38.58,205.71c2.7,4,7.34,5.34,11.19,7.69,11.72,7.14,23.62,14,35.45,20.95,3.23,1.9,6.45,3.79,9.67,5.71a2.58,2.58,0,0,0,2.82.16A8.45,8.45,0,0,1,99,244.78c-7-2.79-13.12-7.17-19.58-10.94-14.77-8.62-29.47-17.37-44.2-26.07-.85-.5-1.9-.8-1.92-2.05Z"/><path class="cls-7" d="M23.47,205.71c7.78,5.52,16.39,9.66,24.43,14.76,1.79,1.13,3.81,2,5,3.84l-9.83-.72c-6-2.41-11.33-6.15-16.92-9.35-2.05-1.17-4.09-2.34-6.21-3.38C20,208.4,18.19,204.67,23.47,205.71Z"/><path class="cls-8" d="M96,235.75c-6.88-2.24-12.55-6.7-18.74-10.19-9.47-5.34-18.78-11-28.13-16.52-1.45-.86-3.3-1.34-3.78-3.32h3c9,6.25,18.82,11.32,28.25,16.95,5.87,3.5,11.5,7.47,17.9,10.08A4.94,4.94,0,0,1,96,235.75Z"/><path class="cls-9" d="M20,210.87c.46-.16,1.11-.61,1.36-.45,7.17,4.54,14.9,8.15,21.77,13.18H35.52c-5.38-1.47-9.61-5.08-14.34-7.73-.95-.53-1.1-1.59-1.22-2.59Z"/><path class="cls-10" d="M35.54,291.37a5.61,5.61,0,0,1,2.27-2.26c6.82,4.6,14.1,8.42,21.09,12.72,1.24.76,3.2,1,3.14,3.16a14.9,14.9,0,0,1-6,1.24c-2.85-3.34-7-4.73-10.6-7-2.76-1.74-5.67-3.27-8.41-5C36.05,293.59,34.52,293.09,35.54,291.37Z"/><path class="cls-11" d="M39.32,287.62l.84-.7c.63-.61,1.38-.36,2.11-.3,7.88,4.63,15.65,9.43,23.59,13.95,1,.59,2.37,1.06,2.17,2.69a12.4,12.4,0,0,1-4.47,1.51c-3.54-3.45-8.1-5.37-12.26-7.86-3.32-2-6.7-3.9-10-6C40.2,290.24,38.33,289.69,39.32,287.62Z"/><path class="cls-12" d="M83.06,241.82c4.61,1.23,8.16,4.46,12.28,6.62,1.49.78,3,1.64,4.53,2.34h0c.65,1.28.2,2.65.32,4-1.36,1.78-2.63.31-3.76-.25-2.41-1.2-4.56-2.93-7.21-3.67Z"/><path class="cls-13" d="M77.28,295.42A6,6,0,0,1,75,298.37c-4.84-3.74-10.47-6.22-15.58-9.53-1.24-.8-2.69-1.34-3.46-2.73l5.29-1.61c4.89,2.43,9.48,5.35,14.14,8.18C76.31,293.26,77.73,293.75,77.28,295.42Z"/><path class="cls-14" d="M31.76,295.13A5.61,5.61,0,0,1,34,292.87c6,3.21,11.72,6.77,17.49,10.3,1.11.68,3.06,1.05,2.18,3.19l-4.55,0c-5.95-2.14-10.93-6-16.35-9.13C32.06,296.84,31.37,296.2,31.76,295.13Z"/><path class="cls-15" d="M39.32,287.62c2.85,4.2,7.8,5.39,11.72,8.05,3.69,2.49,7.63,4.62,11.49,6.86.94.54,1.79,1,1,2.23L62,305c-7.22-4.35-14.43-8.72-21.66-13.05-1.16-.7-2.59-1.1-2.58-2.83C38.32,288.62,38.82,288.12,39.32,287.62Z"/><path class="cls-16" d="M55.92,286.11l17.85,10.05A2.62,2.62,0,0,1,75,298.37c-.19.21-.39.42-.58.64-1.5.91-2.65-.1-3.79-.77-4.74-2.79-9.62-5.36-14.24-8.36a10.76,10.76,0,0,0-7.4-2c-1.2,0-2.4,0-3.6,0a7.46,7.46,0,0,1-3-.87l-2.23-.09a2.67,2.67,0,0,1,.08-.48Z"/><path class="cls-17" d="M49.19,287a10.64,10.64,0,0,1,7,1.64c6,3.62,11.77,7.53,18.19,10.38a4.51,4.51,0,0,1-3.29,2.88C65.14,297.28,58.35,294,52,290,50.81,289.27,49,289,49.19,287Z"/><path class="cls-18" d="M49.19,287c6.38,3.9,12.79,7.76,19.13,11.72,1.2.74,3.27.9,2.77,3.17l-1.53.69c-7.68-4-15-8.67-22.45-13-1-.55-2-1.12-1.7-2.57Z"/><path class="cls-19" d="M53.7,306.36c-1.92-3.19-5.59-3.95-8.4-5.89-3.08-2.13-6.46-3.82-9.73-5.67-.79-.45-1.54-.88-1.54-1.92l1.51-1.5c2.25,3.55,6.38,4.44,9.59,6.62,3.39,2.3,7,4.23,10.58,6.29,1,.56,1.73,1.07.3,2Z"/><path class="cls-20" d="M77.28,295.42c-3.68-3.37-8.25-5.35-12.48-7.87-1.39-.83-2.92-1.41-3.59-3.05a5.16,5.16,0,0,1,3-1.48l12.38,7.1c1.12.65,2.65,1.18,2.16,3A4,4,0,0,1,77.28,295.42Z"/><path class="cls-21" d="M31.76,295.13c4,3.64,9,5.56,13.41,8.56,1.32.91,2.65,1.8,4,2.71h-6c-3.84-1.86-7.27-4.45-11.15-6.26-1.3-.61-2.76-1.56-1.71-3.49Z"/><path class="cls-22" d="M78.79,293.17c-2.88-3.59-7.46-4.54-11.1-7A10,10,0,0,1,64.25,283l1.3-.75c.58-.21,1.26-.63,1.79-.4,4.53,2,9,4.21,12.7,7.52a1.1,1.1,0,0,1,.19,1.36A3.84,3.84,0,0,1,78.79,293.17Z"/><path class="cls-23" d="M45.42,287c3.2,3.74,8,5,11.91,7.67s8.67,4.49,12.23,7.91l-1.53.68c-6-4.45-12.84-7.46-19-11.6-2.24-1.5-5.09-2.16-6.62-4.65Z"/><path class="cls-24" d="M89.22,250.83c1-1.29,1.86-.52,2.86.08,2.54,1.52,5.15,2.94,7.72,4.4.44,1.66,1,3.33-.41,4.83a2.09,2.09,0,0,1-1.11,0,38,38,0,0,1-7-4.76C90.56,253.88,89.89,252.35,89.22,250.83Z"/><path class="cls-25" d="M82.43,286.12A5.29,5.29,0,0,1,81,289.27c-4-3.38-9.31-4.92-13.2-8.53l2.5-2.16A18.64,18.64,0,0,1,82.43,286.12Z"/><path class="cls-26" d="M85.34,274.83c-.21,1-.43,2-.64,3-4.3.95-6.82-1.64-9.17-4.56a3.15,3.15,0,0,1,1.16-2.95C80.82,269.48,83.12,272.08,85.34,274.83Z"/><path class="cls-27" d="M30.25,296.64c.2,1.89,1.6,2.42,3.11,3.22,3.45,1.84,7.24,3.28,9.75,6.54H38.57a67.74,67.74,0,0,1-7.87-4.46c-1.3-.86-3-1.66-2-3.79Z"/><path class="cls-28" d="M93.82,263.57c-1.08-1.84-1.13-3.95-1.59-5.95-.31-1,.37-1.14.93-.75,1.63,1.15,3.63,1.63,5.16,2.94h0c.51.51,1.41.63,1.55,1.52-.08,1-.15,2-.23,3-.26,1.44-.87,2.35-2.53,1.59A9.3,9.3,0,0,1,93.82,263.57Z"/><path class="cls-29" d="M67.78,280.74c4.48,1.49,8.19,4.42,12.31,6.59a2.21,2.21,0,0,1,.89,1.94l-.75,1.49a43.26,43.26,0,0,0-14.68-8.48A4,4,0,0,1,67.78,280.74Z"/><path class="cls-30" d="M20,213.27c2.45,3.5,6.68,4.46,9.92,6.83,1.78,1.3,3.75,2.34,5.64,3.5H31.74c-4.13-.52-7-3.88-10.85-4.91a1.48,1.48,0,0,1-.93-.24Z"/><path class="cls-31" d="M82.43,286.12a73.17,73.17,0,0,0-12.16-7.54l1.56-1.48a2,2,0,0,1,2.4,0c2.61,1.39,5.09,3,7.68,4.44.84.46,1.68,1.11,1.3,2.33A2.51,2.51,0,0,1,82.43,286.12Z"/><path class="cls-32" d="M83.21,283.92c-3.36-3-7.4-4.85-11.38-6.81L74,274.63c3.73,1.55,7.37,3.24,10.14,6.31C84,282,84.09,283.1,83.21,283.92Z"/><path class="cls-33" d="M28.74,298.14c.69,3.55,4.33,3.65,6.53,5.44,1.12.92,2.63,1.37,3.31,2.81H34a33.06,33.06,0,0,1-5.52-2.92c-1.07-.75-2.47-1.33-2-3.08A5.45,5.45,0,0,1,28.74,298.14Z"/><path class="cls-34" d="M85.34,274.83c-2.84-1.58-5.2-4.06-8.65-4.48l1.87-3.93c2.74.91,5.38,2,6.92,4.67C85.43,272.34,85.38,273.59,85.34,274.83Z"/><path class="cls-35" d="M37.08,248.54c-2.32-.43-3.5-3.07-6-3.06-.72-1-.3-2.22-.36-3.34l.39-.42c1.59.28,3,.19,3.66-1.61a1.89,1.89,0,0,1,1,1.78c0,1-.73,2.22.65,2.92,1.92,1,1.19,2.39.68,3.77Z"/><path class="cls-36" d="M84.12,280.94c-3.57-1.8-7.17-3.56-10.14-6.31a1.57,1.57,0,0,1,1.54-1.33c3.06,1.5,5.46,4.34,9.17,4.56A3.86,3.86,0,0,1,84.12,280.94Z"/><path class="cls-37" d="M85.47,271.1c-2.2-1.71-5-2.51-6.92-4.67a4.83,4.83,0,0,1,.86-2.85,7,7,0,0,1,6,3.75C85.71,268.58,86.25,269.83,85.47,271.1Z"/><path class="cls-38" d="M94.66,271.87c-.06-1.48-.12-2.95-.17-4.43a.69.69,0,0,1,0-1,4.23,4.23,0,0,1,4,1.67,1.82,1.82,0,0,1-.16,1.62c-.21,3.2-2.39,5.63-3.21,8.67-.94-.65-.54-1.38-.46-2.05A8.68,8.68,0,0,0,94.66,271.87Z"/><path class="cls-39" d="M20.39,218.46c.17-1.53,1.07-1,1.82-.59,3.19,1.89,6.35,3.82,9.53,5.73H26.46c-1.82-.75-3.34-2-5.11-2.86C20.45,220.3,19.64,219.66,20.39,218.46Z"/><path class="cls-40" d="M80.09,259.79c0-1.49.07-3,.11-4.48,1.3-1,2.11-.05,3,.75a10.73,10.73,0,0,1,1.62,5.16C83.08,262.92,82.56,262.76,80.09,259.79Z"/><path class="cls-41" d="M20.39,218.46c1.39,2.45,5,2.33,6.07,5.14-.61,0-1.22.11-1.84.12-5.08.07-5.08.07-4.66-5.26C20.11,218.45,20.25,218.46,20.39,218.46Z"/><path class="cls-35" d="M27.26,237.64c-1.57.71-1.19,3.62-3.89,3.47-1.16-.06-1.71-.78-1.38-1.69a5.68,5.68,0,0,1,4-3.51C26.89,235.66,27.19,236.52,27.26,237.64Z"/><path class="cls-42" d="M83.15,256.06l-3-.75c-.16-2.24-1.12-4.37-.83-6.67-.34-.8-.68-1.6.74-1.58C81.09,250.07,83.85,252.49,83.15,256.06Z"/><path class="cls-35" d="M19.83,271.88c1.38,6.26.29,12.59.55,18.89.07,1.67.63,3.49-.58,5.05Z"/><path class="cls-43" d="M85.42,267.33l-6-3.75.18-1.5c2.46-1.53,3.8,1,5.7,1.53Z"/><path class="cls-44" d="M98.37,269.72l-.06-1.63c-1.14-.72-2.15-1.74-3.69-1.45,0,.26-.09.53-.13.79-.81-1.19-.69-2.54-.67-3.87A5.42,5.42,0,0,1,97.07,265c1.31,1.22,1.86.11,2.57-.65A11.58,11.58,0,0,1,98.37,269.72Z"/><path class="cls-45" d="M85.3,263.61c-2.27.86-3.49-2.17-5.7-1.53a2.84,2.84,0,0,1,.49-2.29c1.74-.1,2.47,3,4.68,1.43A2.77,2.77,0,0,1,85.3,263.61Z"/><path class="cls-35" d="M25.88,247.73c-1.16-.44-.85-1.47-.95-2.34.27-1.11.54-2.22,2.07-2.1a1,1,0,0,1,1,.86c.36,1.5-.68,1.88-1.77,2.29C25.65,246.67,25.89,247.26,25.88,247.73Z"/><path class="cls-46" d="M98.32,259.81c-2.28,0-3.73-2.36-6.09-2.19l-1-2.22C93.89,256.4,96.54,257.42,98.32,259.81Z"/><path class="cls-46" d="M99.87,261.33a2.59,2.59,0,0,1-1.55-1.52c2.72-.78,1-3,1.48-4.5l.06-4.54A20.66,20.66,0,0,1,99.87,261.33Z"/><path class="cls-35" d="M32,238.54c-1-.07-1.67-.48-1.67-1.58s.67-1.21,1.49-1.22,1.41.36,1.43,1.3S33,238.49,32,238.54Z"/><path class="cls-35" d="M31.06,232.25c0,1-.58,1.26-1.43,1.25s-1.4-.39-1.43-1.29c0-1.13.73-1.49,1.67-1.48S31.05,231.43,31.06,232.25Z"/><path class="cls-35" d="M22,259.82c-.84,0-1.49-.22-1.57-1.17s.16-1.51,1.11-1.63a1.41,1.41,0,0,1,1.78,1.41C23.42,259.36,22.93,259.8,22,259.82Z"/><path class="cls-35" d="M35.71,241.88a2,2,0,0,1-1-1.77c1.06-1,2.4-1.24,3,.18C38.37,242,36.76,241.79,35.71,241.88Z"/><path class="cls-35" d="M37.76,234c-.1,1-.86,1.06-1.63,1A1.09,1.09,0,0,1,35,233.9c0-1,.63-1.24,1.47-1.22S37.82,233.09,37.76,234Z"/><path class="cls-35" d="M28.86,241.76c-.23-1-.55-2.14,1-2.2s1.19,1.22,1.19,2.16l-.09.08A1.67,1.67,0,0,1,28.86,241.76Z"/><path class="cls-35" d="M22.55,234.23a1,1,0,0,1-1.21.71c-.81-.12-1-.67-.79-1.36a.88.88,0,0,1,1.14-.66A1,1,0,0,1,22.55,234.23Z"/><path class="cls-47" d="M80.11,247.06a1.79,1.79,0,0,0-.74,1.58c-.42-1.18-.85-2.37-1.35-3.78C79.62,245.2,79.8,246.18,80.11,247.06Z"/><path class="cls-35" d="M28.86,241.76l2.13,0c0,1.23,0,2.45.05,3.68C30,244.42,30.64,242.38,28.86,241.76Z"/><path class="cls-48" d="M94.66,271.87a3.85,3.85,0,0,1,0,4.47C94.69,274.85,94.68,273.36,94.66,271.87Z"/><path class="cls-49" d="M33.92,260.39l.87.92c-.15,1.14-.72,1.77-1.94,1.56a1,1,0,0,1-.93-.93C31.85,260.5,33.05,260.65,33.92,260.39Z"/><path class="cls-35" d="M36.16,260.52c-.64.08-1.43.7-1.71.57-.84-.4.43-.68.26-1.15a1.36,1.36,0,0,0,0-.17,4.11,4.11,0,0,1-.3-2.06c0-.51.28-1,.35-1.52a7.49,7.49,0,0,0-.25-.76,2.8,2.8,0,0,0-.27-.4l-.34.44c-1.67-1.66-3.78-.75-5.7-.95-.61-.06-1.3,0-1.53-.71s-.05-1.37.69-1.46c3.34-.37,1.82-2.86,2.09-4.57l-3.62-.05c-1.05-.49,0-1.8-.95-2.34-1,.08-2.13-.14-2.19,1.37,0,1,.33,1.71,1.46,1.77,1.47.07,1.45,1.1,1.41,2.14,0,.63-.07,1.28-.87,1.44a1.67,1.67,0,0,1-2.26-1.31c-.34-1.15-1.34-1.64-2.32-.74a1.85,1.85,0,0,0,0,2.69c2,2.35,6,3.14,5.91,7.23,0,.12.37.33.59.37,1.11.21,2.73.35,1.83,1.89-.8,1.37-2.3,1.13-3.43-.16s-2.85-.78-4.2-.51c-1.75.36-1,2.05-1,3.17-.09,2.37,0,4.75,0,7.13a236,236,0,0,1,0,23.94c.15,3.55-1,7.17.61,10.64a16.48,16.48,0,0,0,4.12-3.31c.78-.81,1.58-1.6,2.39-2.38l2-2.05c.55-.57,1.1-1.13,1.66-1.69s1.12-1.1,1.69-1.64l2-2c.56-.57,1.13-1.13,1.7-1.68l2-2c.43-.44.84-.88,1.25-1.34a7,7,0,0,0,.83-1.06,1.19,1.19,0,0,0,.11-.85v-7.87c.49-4.35-.13-8.73.29-13.06C40.86,262,39.73,260.36,36.16,260.52Z"/><path class="cls-35" d="M34,251.54h0c1.12.2,2.71-.53,2.95,1.4.18,1.43-.88,1.57-1.93,1.66h0l-.36-.07a1.15,1.15,0,0,0-.06.64,1.47,1.47,0,0,1,.19,1,6.9,6.9,0,0,1,0,3.58c.46.89,1.45,1,3,0,0-.49-.09-1.19.18-1.43,1.76-1.52,3.75-2.88,0-4.49-.44-.19-.51-1.78.46-2.2,1.16-.5,2.11-1,1.52-2.37s-1.88-.64-2.9-.73c.36,2.56-1.1,2.59-3,2.05h0C34.09,250.93,34.06,251.23,34,251.54Z"/><path class="cls-35" d="M37,248.57h.05v0Z"/><path class="cls-35" d="M28.9,253.31c1.9.53,4.1.05,5.4,1.71l.38-.49h0l.06-.14a2.84,2.84,0,0,1-1.45-2.86c-2.26.15-2.72-1-2.12-2.92l-1.68-.84C30.87,249.68,30.42,251.45,28.9,253.31Z"/><path class="cls-35" d="M33.55,251.5s0,0,0,0h.29a1,1,0,0,1,.26-.91c.25-2.45-1.5-2-2.94-2h0A13.14,13.14,0,0,0,33.55,251.5Z"/><path class="cls-35" d="M33.94,251.62a.4.4,0,0,1-.25.11A6.94,6.94,0,0,1,35,254C36.31,252.66,34.57,252.33,33.94,251.62Z"/><path class="cls-35" d="M35.05,254.6h0a2.13,2.13,0,0,0,0-.57l-.21.21s0,.1-.07.15a2.73,2.73,0,0,0,.3.21Z"/><path class="cls-35" d="M34,251.54h-.16l.07.08Z"/><path class="cls-35" d="M33.69,251.73l-.11-.19h-.27A.48.48,0,0,0,33.69,251.73Z"/><path class="cls-50" d="M94.62,266.64c1.89-1.19,2.77.18,3.69,1.45Z"/><path class="cls-51" d="M132.82,226h11.82c14.53,0,22.32,8.44,22.32,23.46s-7.79,23.8-22.06,23.8H132.81V226Zm11.37,42.33c11.05,0,16.56-6.92,16.56-18.87S155.24,231,144.19,231h-5.36v37.4Z"/><path class="cls-51" d="M177.09,226h27.25v5.09H183.1v15.94h18v5.09h-18V273.3h-6Z"/><path class="cls-51" d="M212.66,226h6V273.3h-6Z"/><path class="cls-51" d="M228.17,267.15l3.6-4.13a18.47,18.47,0,0,0,13,5.86c6.2,0,9.88-3.09,9.88-7.68,0-4.83-3.42-6.37-7.88-8.31l-6.79-3c-4.4-1.88-9.57-5.22-9.57-12.17,0-7.22,6.29-12.54,14.88-12.54A19.56,19.56,0,0,1,259.25,231l-3.19,3.86a15.14,15.14,0,0,0-10.73-4.43c-5.3,0-8.81,2.67-8.81,6.9,0,4.55,4.12,6.26,7.82,7.82l6.74,2.91c5.47,2.35,9.74,5.61,9.74,12.64,0,7.47-6.17,13.43-16.11,13.43A22.7,22.7,0,0,1,228.17,267.15Z"/><path class="cls-51" d="M278.44,231.13h-14.3V226h34.61v5.09h-14.3V273.3h-6Z"/><path class="cls-51" d="M314,226h6.79l16,47.26h-6.37l-8.24-26.39c-1.7-5.28-3.21-10.47-4.73-15.93h-.29c-1.46,5.48-3,10.64-4.68,15.93l-8.33,26.39h-6.12Zm-7.59,28.06h21.76v4.8H306.45Z"/><path class="cls-51" d="M343.2,226H358c9.63,0,16.54,3.46,16.54,13.3,0,9.44-6.91,14-16.54,14h-8.79v20h-6Zm13.93,22.41c7.35,0,11.4-3,11.4-9.1s-4-8.42-11.4-8.42h-7.92v17.53h7.92Zm-.32,3.23,4.71-3.11,14.42,24.73h-6.82Z"/><path class="cls-51" d="M393,231.13H378.7V226h34.61v5.09H399V273.3h-6Z"/><path class="cls-51" d="M421.75,226H449v5.09H427.76v14.81h17.9V251h-17.9v17.18h21.95v5.09h-28Z"/><path class="cls-51" d="M459.69,226h14.8c9.63,0,16.54,3.46,16.54,13.3,0,9.44-6.91,14-16.54,14H465.7v20h-6Zm13.94,22.41c7.35,0,11.4-3,11.4-9.1s-4-8.42-11.4-8.42h-7.92v17.53h7.92Zm-.32,3.23,4.71-3.11,14.42,24.73h-6.82Z"/></svg>