<?xml version="1.0" encoding="utf-8"?>
<!-- Generator: Adobe Illustrator 25.4.1, SVG Export Plug-In . SVG Version: 6.00 Build 0)  -->
<svg version="1.1" id="图层_1" xmlns="http://www.w3.org/2000/svg" xmlns:xlink="http://www.w3.org/1999/xlink" x="0px" y="0px"
	 viewBox="0 0 512 512" style="enable-background:new 0 0 512 512;" xml:space="preserve">
<style type="text/css">
	.st0{fill-rule:evenodd;clip-rule:evenodd;fill:#EB5C20;}
	.st1{fill-rule:evenodd;clip-rule:evenodd;fill:#E29227;}
	.st2{fill:#EB5C20;}
	.st3{fill-rule:evenodd;clip-rule:evenodd;fill:#70BA33;}
	.st4{fill-rule:evenodd;clip-rule:evenodd;fill:#1C9965;}
	.st5{fill-rule:evenodd;clip-rule:evenodd;fill:#1E5D91;}
	.st6{fill-rule:evenodd;clip-rule:evenodd;fill:#C6224E;}
	.st7{fill:#B5B5B6;}
	.st8{fill-rule:evenodd;clip-rule:evenodd;fill:#B5B5B6;}
	.st9{fill:#DF5B23;}
	.st10{fill:#B5B5B6;stroke:#B5B5B6;stroke-width:10;stroke-miterlimit:10;}
	.st11{fill:#B5B5B6;stroke:#B5B5B6;stroke-width:18;stroke-miterlimit:10;}
	.st12{fill:#1E5D91;}
	.st13{fill:#E29227;}
	.st14{fill:#1C9965;}
	.st15{fill:#70BA33;}
	.st16{fill:#C6224E;}
	.st17{fill:#0E0304;}
	.st18{fill:#29292C;}
	.st19{fill:#2E3032;}
	.st20{fill:#1A1A1B;}
	.st21{fill:#757579;}
	.st22{fill:none;stroke:#B5B5B6;stroke-width:30;stroke-linecap:round;stroke-linejoin:round;stroke-miterlimit:10;}
	.st23{fill:#040000;}
	.st24{fill-rule:evenodd;clip-rule:evenodd;fill:#040000;}
	.st25{fill:url(#SVGID_1_);}
	.st26{fill:#EBE7C3;}
	.st27{fill-rule:evenodd;clip-rule:evenodd;fill:#EBE7C3;}
	.st28{fill:#FFFFFF;}
	.st29{fill:none;stroke:#B5B5B6;stroke-width:10;stroke-miterlimit:10;}
	.st30{fill-rule:evenodd;clip-rule:evenodd;fill:url(#SVGID_00000083786280682919624290000001566654586723669908_);}
	.st31{fill:#221F20;}
	.st32{fill:#F1AA43;}
	.st33{fill:#EB9326;}
	.st34{fill:#EE9F38;}
	.st35{fill:#E8891D;}
	.st36{fill:#EF9E36;}
	.st37{fill:#F9C88E;}
	.st38{fill:#CB838E;}
	.st39{fill:#F7BF75;}
	.st40{fill-rule:evenodd;clip-rule:evenodd;fill:#DF5B23;}
	.st41{fill:#2F2833;}
	.st42{fill:#403944;}
	.st43{fill:#DF5924;}
	.st44{fill-rule:evenodd;clip-rule:evenodd;fill:#CCBCB1;}
	.st45{fill-rule:evenodd;clip-rule:evenodd;fill:#393939;}
	.st46{fill-rule:evenodd;clip-rule:evenodd;fill:#EF9839;}
	.st47{fill-rule:evenodd;clip-rule:evenodd;fill:#EF993A;}
	.st48{fill-rule:evenodd;clip-rule:evenodd;fill:#D07A32;}
	.st49{fill-rule:evenodd;clip-rule:evenodd;fill:#E1893D;}
	.st50{fill-rule:evenodd;clip-rule:evenodd;fill:#E28C38;}
	.st51{fill-rule:evenodd;clip-rule:evenodd;fill:#E18B3C;}
	.st52{fill-rule:evenodd;clip-rule:evenodd;fill:#DF7F24;}
	.st53{fill-rule:evenodd;clip-rule:evenodd;fill:#DDCCC2;}
	.st54{fill-rule:evenodd;clip-rule:evenodd;fill:#DF8C38;}
	.st55{fill-rule:evenodd;clip-rule:evenodd;fill:#8B5930;}
	.st56{fill:#1C5AA8;}
	.st57{fill:#2156A6;}
	.st58{fill:#E7B41E;}
	.st59{fill:#298CCD;}
	.st60{fill:#123443;}
	.st61{fill:#B8266A;}
	.st62{fill:#1B4B68;}
	.st63{fill:#1C4157;}
	.st64{fill:#4A6894;}
	.st65{fill:#343535;}
	.st66{fill:#3E5375;}
	.st67{fill:#6CAACE;}
	.st68{fill:#335C85;}
	.st69{fill:#5294B1;}
	.st70{fill-rule:evenodd;clip-rule:evenodd;fill:#5255A3;}
	.st71{fill-rule:evenodd;clip-rule:evenodd;fill:#2B60AC;}
	.st72{fill:#2B60AC;}
	.st73{fill:#E8412E;}
	.st74{fill:#E83F21;}
	.st75{fill:#E33E28;}
	.st76{fill:#E84138;}
	.st77{fill:#E94526;}
	.st78{fill:#E94423;}
	.st79{fill:#E9481F;}
	.st80{fill:#E94522;}
	.st81{fill:#E9461F;}
	.st82{fill:#E84236;}
	.st83{fill:#E9471E;}
	.st84{fill:#E6411D;}
	.st85{fill:#E8412F;}
	.st86{fill:#132533;}
	.st87{fill:url(#SVGID_00000096025948868196843190000014068840707271840157_);}
	.st88{fill:url(#SVGID_00000053503571450991036580000011374326746069484457_);}
	.st89{fill:#CBCFD7;}
	.st90{fill:url(#SVGID_00000008871641631580125120000016805803214536606641_);}
	.st91{fill:url(#SVGID_00000080175894180605956300000017379893391767419269_);}
	.st92{fill:#366FAE;}
	.st93{fill:#FFF100;}
	.st94{fill:url(#SVGID_00000150803409919533875590000015922095571187381909_);}
	.st95{fill:#FFE000;}
	.st96{fill:url(#SVGID_00000023996591441159206720000002580196707290205594_);}
	.st97{fill:#FAC000;}
	.st98{fill:url(#SVGID_00000102536805680312213570000004900803594956872076_);}
	.st99{fill:#F4A000;}
	.st100{fill:url(#SVGID_00000072996057808751046220000013110061236597203351_);}
	.st101{fill:#EE7300;}
	.st102{fill:url(#SVGID_00000078018148885205313790000004193916003462865845_);}
	.st103{fill:#E94709;}
	.st104{fill:url(#SVGID_00000137111439377792646350000012887453396326940833_);}
	.st105{fill:#009E41;}
	.st106{fill:url(#SVGID_00000006668163149956734220000002127443368924037023_);}
	.st107{fill:#40AF36;}
	.st108{fill:url(#SVGID_00000183937817428769496540000016579630437848601740_);}
	.st109{fill:#72BB2B;}
	.st110{fill:url(#SVGID_00000127013798531807921440000006988780986344574600_);}
	.st111{fill:#E3E300;}
	.st112{fill:url(#SVGID_00000085959931063292975960000010309383014875887527_);}
	.st113{fill:#A3CA0F;}
	.st114{fill:url(#SVGID_00000076567548394295260840000001329726439856735414_);}
	.st115{fill:#C4D700;}
	.st116{fill:url(#SVGID_00000076568773319674703590000015459324026287070396_);}
	.st117{fill:#36B8B7;}
	.st118{fill:#3EB4AD;}
	.st119{fill:#3AB8B9;}
	.st120{fill:#56BAB0;}
	.st121{fill:#65BBB2;}
	.st122{fill:#32B7B0;}
	.st123{fill:#2EB6AE;}
	.st124{fill:#48B6BC;}
	.st125{fill:#4DB5BD;}
	.st126{fill:#3EB4AE;}
	.st127{fill:#57BBB1;}
	.st128{fill:#060909;}
	.st129{fill:#061014;}
	.st130{fill:#FAFAFB;}
	.st131{fill:#F6F7F7;}
	.st132{fill:#F7F7F7;}
	.st133{fill:#F6F6F6;}
	.st134{fill:#7CB8BD;}
	.st135{fill:#3FB5B7;}
	.st136{fill:#4DB6B9;}
	.st137{fill:#F4F5F5;}
	.st138{fill:#F5F5F5;}
	.st139{fill:#070505;}
	.st140{fill:#F4F3F3;}
	.st141{fill:#050202;}
	.st142{fill:#71BCBA;}
	.st143{fill:#73BBB8;}
	.st144{fill:#76BEBC;}
	.st145{fill:#83B8B8;}
	.st146{fill:#3DB9B5;}
	.st147{fill:#40BABA;}
	.st148{fill:#36B8B6;}
	.st149{fill:#28B6B2;}
	.st150{fill:#00B5C6;}
	.st151{fill:#00B5C2;}
	.st152{fill:#23B7BB;}
	.st153{fill:#00B5C4;}
	.st154{fill:#14B6BE;}
	.st155{fill:#09B6C0;}
	.st156{fill:#41B9B1;}
	.st157{fill:#00B4D0;}
	.st158{fill:#00B4D3;}
	.st159{fill:#30B8B8;}
	.st160{fill:#00B4CD;}
	.st161{fill:#1CB6BD;}
	.st162{fill:#28B7BA;}
	.st163{fill:#47BAAE;}
	.st164{fill:#34B8B6;}
	.st165{fill:#4CBBAD;}
	.st166{fill:#3BB9B3;}
	.st167{fill:#44BAAF;}
	.st168{fill:#00B3D6;}
	.st169{fill:#00B3D9;}
	.st170{fill:#00B3D7;}
	.st171{fill:#00B3DB;}
	.st172{fill:#00B5CA;}
	.st173{fill:#37B8B5;}
	.st174{fill:#1BB6BD;}
	.st175{fill:#00B5C8;}
	.st176{fill:#231815;stroke:#FFFFFF;stroke-width:0.187;stroke-miterlimit:10;}
	.st177{fill:#023592;}
	.st178{fill-rule:evenodd;clip-rule:evenodd;fill:#60BEA1;}
	.st179{fill:#FFFFFF;stroke:#FFFFFF;stroke-width:0.187;stroke-miterlimit:10;}
	.st180{fill:#7C2B7F;}
	.st181{fill:#752C7F;}
	.st182{fill:#EE8753;}
	.st183{fill:#F09D47;}
	.st184{fill:#EF944D;}
	.st185{fill:#EE8C51;}
	.st186{fill:#EC795A;}
	.st187{fill:#F0984B;}
	.st188{fill:#EB715E;}
	.st189{fill:#9E2F7F;}
	.st190{fill:#AA2E7E;}
	.st191{fill:#EC7C5D;}
	.st192{fill:#C4337F;}
	.st193{fill:#932D7F;}
	.st194{fill:#A42F7E;}
	.st195{fill:#BD317E;}
	.st196{fill:#B8327F;}
	.st197{fill:#B2317E;}
	.st198{fill:#992D7F;}
	.st199{fill:#CA347F;}
	.st200{fill:#8C2D7F;}
	.st201{fill:#D0357F;}
	.st202{fill:#AE307E;}
	.st203{fill:#EC765E;}
	.st204{fill:#DB377F;}
	.st205{fill:#E44676;}
	.st206{fill:#862C7E;}
	.st207{fill:#E96B64;}
	.st208{fill:#D6357F;}
	.st209{fill:#E96B62;}
	.st210{fill:#E13A80;}
	.st211{fill:#E13D7E;}
	.st212{fill:#822B7F;}
	.st213{fill:#E54D75;}
	.st214{fill:#33A2D3;}
	.st215{fill:#E3417B;}
	.st216{fill:#E65371;}
	.st217{fill:#E65B6C;}
	.st218{fill:#E96764;}
	.st219{fill:#E85F68;}
	.st220{fill:#E96366;}
	.st221{fill:#EA6F67;}
	.st222{fill:#E6566D;}
	.st223{fill:#EA6C6C;}
	.st224{fill:#E7606E;}
	.st225{fill:#EB7563;}
	.st226{fill:#EC7C69;}
	.st227{fill:#E8687D;}
	.st228{fill:#E0EDF7;}
	.st229{fill:#E9676E;}
	.st230{fill:#E9B536;}
	.st231{fill:#864690;}
	.st232{fill:#334190;}
	.st233{fill:#6A438D;}
	.st234{fill:#6B438D;}
	.st235{fill:#6B448D;}
	.st236{fill:#3A4291;}
	.st237{fill:#81458F;}
	.st238{fill:#644390;}
	.st239{fill:#9E458E;}
	.st240{fill:#98468F;}
	.st241{fill:#92468F;}
	.st242{fill:#8D458F;}
	.st243{fill:#9B468F;}
	.st244{fill:#90468E;}
	.st245{fill:#9C468F;}
	.st246{fill:#A3458D;}
	.st247{fill:#4E4491;}
	.st248{fill:#434291;}
	.st249{fill:#534290;}
	.st250{fill:#6E4591;}
	.st251{fill:#754490;}
	.st252{fill:#5F4390;}
	.st253{fill:#7B4490;}
	.st254{fill:#584390;}
	.st255{fill:#594390;}
	.st256{fill:#474392;}
	.st257{fill:#B3458C;}
	.st258{fill:#6A4491;}
	.st259{fill:#AE468C;}
	.st260{fill:#97458F;}
	.st261{fill:#B6468C;}
	.st262{fill:#9B458E;}
	.st263{fill:#C4468C;}
	.st264{fill:#BD478C;}
	.st265{fill:#AA468D;}
	.st266{fill:#A7468D;}
	.st267{fill:#B3468D;}
	.st268{fill:#B0458C;}
	.st269{fill:#BC468C;}
	.st270{fill:#AF458C;}
	.st271{fill:#B9468C;}
	.st272{fill:#BD468B;}
	.st273{fill:#BA468C;}
	.st274{enable-background:new    ;}
	.st275{fill:#1D1E1D;}
	.st276{fill:url(#Fill_1_00000089535756933983531700000000023040217495152563_);}
	.st277{fill:url(#Fill_3_00000015354431798057742450000015310524603860964493_);}
	.st278{fill:url(#Fill_5_00000135677724739468951620000014319930917432517768_);}
	.st279{fill:#1E201F;}
	.st280{fill:#3AB9B5;}
	.st281{fill:#27B4B0;}
	.st282{fill:#009694;}
	.st283{fill:#554B9D;}
	.st284{clip-path:url(#SVGID_00000060740619768557251280000006554930068351165838_);}
	.st285{fill:#FF761A;}
	.st286{fill:#E06300;}
	.st287{fill:#466007;}
	.st288{fill:#56840D;}
	.st289{fill:#C95100;}
	.st290{fill:#DE111E;}
	.st291{opacity:0.22;fill:#231F20;}
	.st292{fill:#DF3D4B;}
	.st293{fill:#C60E2D;}
	.st294{fill:#90C125;}
	.st295{fill:#F27466;}
	.st296{fill:#A36400;}
	.st297{fill:#DB9200;}
	.st298{fill:#BA7700;}
	.st299{fill:#FFCE00;}
	.st300{fill:#4A6D05;}
	.st301{fill:#76A51C;}
	.st302{fill:url(#SVGID_00000158007156069093863710000002369156910760629377_);}
	.st303{fill:url(#SVGID_00000021818563664114796380000011598259937281354927_);}
	.st304{fill:url(#SVGID_00000098917786849306266710000004091551037077203636_);}
	.st305{fill:url(#SVGID_00000139279564418740894680000011386954337827166345_);}
	.st306{fill:url(#SVGID_00000045587759191801236020000010605717087350494873_);}
	.st307{fill:url(#SVGID_00000177477900278308996100000001502503228951750535_);}
	.st308{fill:url(#SVGID_00000031203349752863809050000017240830463380228769_);}
	.st309{fill:url(#SVGID_00000105419798689295347320000005587723704657566122_);}
	.st310{fill:url(#SVGID_00000095334485560188455780000007154920442598016944_);}
	.st311{fill:url(#SVGID_00000044870250055941041220000011949765359223639429_);}
	.st312{fill:url(#SVGID_00000144310088694780342270000007143813063837315200_);}
	.st313{fill:url(#SVGID_00000168819627622544790230000016652058723820202404_);}
	.st314{fill:url(#SVGID_00000081620895308676162100000005696526022619156353_);}
	.st315{fill:url(#SVGID_00000114036850860121664430000000355484640746393736_);}
	.st316{fill:url(#SVGID_00000176725695043084347700000005735850432274059945_);}
	.st317{fill:url(#SVGID_00000004533632334951146830000014947275852453800895_);}
	.st318{fill:url(#SVGID_00000145777192076737543230000010629484086961323400_);}
	.st319{fill:url(#SVGID_00000055689799123496915140000001175581881544817840_);}
	.st320{fill:url(#SVGID_00000132078753492017619480000007722181864514906298_);}
</style>
<path d="M25.7,246c-12.6-11.5-18.4-25.2-17.2-41c0-0.5,0-1.6,0-3.4c0.2-1.8,0.7-4,1.4-6.6c0.9-2.8,2.2-5.6,3.8-8.6
	c1.6-3,3.9-5.9,6.9-8.6c7.4-7.4,16-11.8,25.9-13.4c10.1-1.6,20.1-2.4,30-2.4c3.2,0.2,8.3,0.9,15.2,2.1c6.9,0.9,13.8,3.3,20.7,7.2
	c17.2,9.4,25.5,24.1,24.8,44.1c-0.5,3.4-2.4,5.2-5.9,5.2c-1.8,0-3.3-0.6-4.5-1.7c-0.9-1.1-1.3-2.5-1-4.1c0.5-8.5-1.3-15.5-5.2-21
	c-2.1-3.7-4.8-6.7-8.3-9c-3.4-2.5-7.2-4.6-11.4-6.2c-4.1-1.6-8.4-2.8-12.8-3.4c-4.1-0.9-8.2-1.5-12.1-1.7c-8.3,0-16.8,0.6-25.5,1.7
	c-8.5,1.1-15.9,4.7-22.1,10.7c-4.4,4.1-6.9,8.3-7.6,12.4c-0.7,4.1-1,6.4-1,6.9c-0.2,6.7,0.7,12.6,2.8,17.9c2.1,5.1,5.3,9.7,9.7,13.8
	c4.4,4.1,9.5,8,15.5,11.7c6.2,3.4,13.1,6.8,20.7,10l5.2,2.4c9,3.9,17.1,7.7,24.5,11.4c7.6,3.4,14,7.1,19.3,11
	c6,3.9,10.2,8.3,12.8,13.1c3.2,5.5,4,11.3,2.4,17.2c-0.7,2.8-2.5,4.1-5.5,4.1c-2.3-0.5-3.9-1.3-4.8-2.4c-0.9-1.4-1.1-2.9-0.7-4.5
	c1.8-6.9-2-13.2-11.4-19c-9.4-5.7-23.1-12.6-41-20.7l-5.2-2.1c-6.4-3-13.1-6.2-20-9.7C37.1,255.8,31,251.3,25.7,246z M86.1,377
	c-11.7-0.7-22.8-3.2-33.1-7.6c-10.1-4.4-18.8-10.5-26.2-18.3c-7.1-7.6-12.5-16.1-16.2-25.5c-3.4-9.4-4.9-19.3-4.5-29.7
	c0.5-3.7,2.5-5.5,6.2-5.5c1.6,0.2,2.9,0.9,3.8,2.1c1.1,0.9,1.6,2.3,1.4,4.1c-0.7,17.9,5.2,33.4,17.6,46.5c6.4,6.7,14,12,22.8,15.9
	c8.7,3.9,18.3,6.1,28.6,6.6c1.8,0,3.2,0.6,4.1,1.7c1.1,1.1,1.6,2.5,1.4,4.1c0,1.6-0.6,3-1.7,4.1c-1.1,0.9-2.4,1.4-3.8,1.4H86.1z
	 M155.7,331.9c-8,8.5-17.1,13.8-27.2,15.9c-9.9,2.1-20.3,3.1-31.4,3.1c-5.5-0.2-11.3-1-17.2-2.4c-5.7-1.4-11.3-3.3-16.5-5.9
	c-5.1-2.5-9.7-5.7-13.8-9.7c-4.1-3.9-7.4-8.6-9.7-14.1c-0.5-1.4-0.5-2.8,0-4.1c0.7-1.6,1.7-2.8,3.1-3.4c0.5,0,0.8,0,1,0
	c0.2-0.2,0.6-0.3,1-0.3c2.5,0,4.4,1.1,5.5,3.4c1.8,4.6,4.5,8.4,7.9,11.4c3.4,3,7.4,5.5,11.7,7.6c4.4,1.8,8.8,3.2,13.4,4.1
	c4.8,0.9,9.4,1.6,13.8,2.1c5.7,0,11.7-0.3,17.9-1c6.2-0.7,12.1-2.2,17.6-4.5c5.5-2.3,10.3-5.4,14.5-9.3c4.1-4.1,7-9.5,8.6-16.2
	c0.2-5.7,0-10.3-0.7-13.8c-0.7-3.4-2.4-6.8-5.2-10c-3.4-3.9-9-8-16.5-12.4c-7.6-4.6-18-9.9-31.4-15.9c-9.9-4.4-18.7-8.5-26.5-12.4
	c-7.6-3.9-14-7.8-19.3-11.7c-13.6-10.1-19.3-20.8-17.2-32.1c0.5-2.1,1.3-3.3,2.4-3.8c1.4-0.5,2.9-0.7,4.5-0.7c1.6,0.2,2.8,1,3.4,2.4
	c0.9,1.1,1.3,2.5,1,4.1c-0.7,3.9,0.3,7.8,3.1,11.7c2.8,3.7,6.8,7.4,12.1,11c5.3,3.4,11.5,7,18.6,10.7c7.4,3.4,14.9,6.9,22.8,10.3
	c14.5,6.7,25.6,12.4,33.4,17.2c8,4.8,14,9.5,17.9,14.1c4.6,5.1,7.2,10.1,7.9,15.2c0.9,5.1,1.1,10.6,0.7,16.5c0,0.5-0.7,3.1-2.1,7.9
	C163.6,321.6,160.5,326.6,155.7,331.9z M148.8,161.9c13.6,14.9,19.8,33.2,18.6,54.8c-0.5,3.7-2.4,5.5-5.9,5.5
	c-4.1-0.5-6-2.5-5.5-6.2c0.5-9-0.7-17.5-3.4-25.5c-2.8-8-6.9-15.1-12.4-21c-6-6.7-13.6-11.8-22.8-15.5c-9-3.9-19.1-6.2-30.3-6.9
	c-1.6,0-3-0.6-4.1-1.7c-1.1-1.1-1.6-2.5-1.4-4.1c0-1.6,0.6-2.9,1.7-3.8c1.1-1.1,2.5-1.7,4.1-1.7
	C113.7,137.1,134.1,145.8,148.8,161.9z M48.1,299.8c-1.1,2.8-3.1,4.1-5.9,4.1c-2.8-0.7-4.6-1.8-5.5-3.4c-0.9-1.6-1-3.2-0.3-4.8v-0.3
	c0.7-2.8,2.6-4.1,5.9-4.1c0.5,0,0.8,0.1,1,0.3c0.2,0,0.6,0,1,0c1.6,0.5,2.8,1.5,3.4,3.1c0.7,1.6,0.8,3.2,0.3,4.8V299.8z
	 M245.5,232.9c-4.8-1.4-6.7-3.9-5.5-7.6c2.8-8.3,6.7-16,11.7-23.1c5.1-7.1,10.9-13.3,17.6-18.6c6.7-5.3,14-9.3,22.1-12.1
	c8.3-3,16.9-4.5,25.9-4.5c11.5,0,22.3,2.4,32.4,7.2c10.1,4.6,19,11.1,26.5,19.7c1.1,1.1,1.6,2.5,1.4,4.1c0,1.4-0.6,2.6-1.7,3.8
	c-0.9,0.9-2.2,1.4-3.8,1.4c-1.6,0-3-0.6-4.1-1.7c-6.7-7.4-14.4-13-23.1-16.9c-8.7-4.1-17.9-6.2-27.6-6.2c-7.8,0-15.3,1.3-22.4,3.8
	c-6.9,2.5-13.2,6.1-19,10.7c-5.7,4.6-10.8,10-15.2,16.2c-4.1,6-7.4,12.6-9.7,20C249.9,231.6,248,232.9,245.5,232.9z M317.2,344.3
	c-11.5,0-22.1-2.2-31.7-6.6c-9.7-4.6-18.2-10.7-25.5-18.3c-7.1-7.6-12.9-16.3-17.2-26.2c-4.4-10.1-6.8-20.7-7.2-31.7h-22.1
	c-3.7,0-5.5-1.8-5.5-5.5c0-15.6,2.6-30.7,7.9-45.2c5.5-14.5,13.1-27.2,22.8-38.3c9.9-11.3,21.5-20.2,34.8-26.9
	c13.6-6.9,28.4-10.3,44.5-10.3c11.7,0,22.9,2,33.4,5.9c10.8,3.7,20.6,9,29.3,15.9c9,6.7,16.8,14.7,23.4,24.1
	c6.9,9.2,12.3,19.2,16.2,30c0.5,1.6,0.3,3.2-0.3,4.8c-0.5,1.4-1.5,2.3-3.1,2.8c-0.2,0-0.5,0.1-0.7,0.3c-0.2,0-0.6,0-1,0
	c-2.3,0-4.1-1.3-5.5-3.8c-3.4-9.7-8.3-18.6-14.5-26.9c-6-8.5-13-15.9-21-22.1c-7.8-6.2-16.5-11-26.2-14.5c-9.4-3.4-19.4-5.2-30-5.2
	c-14,0-27,2.9-39,8.6c-11.7,5.7-22,13.4-30.7,23.1c-8.5,9.7-15.3,20.7-20.3,33.1c-5.1,12.4-7.9,25.3-8.6,38.6H241
	c1.6,0,2.9,0.6,3.8,1.7c1.1,1.1,1.7,2.5,1.7,4.1c0,9.9,1.7,19.5,5.2,29c3.4,9.2,8.3,17.4,14.5,24.5c6.2,7.1,13.7,12.9,22.4,17.2
	c8.7,4.1,18.3,6.2,28.6,6.2c13.6,0,26-3.7,37.2-11c11.3-7.4,19.9-17.6,25.9-30.7c1.1-2.1,2.9-3.1,5.2-3.1c0.9,0,1.7,0.1,2.4,0.3
	c1.4,0.7,2.3,1.8,2.8,3.4c0.5,1.4,0.5,2.8,0,4.1c-6.9,14.5-16.9,26.2-30,35.2C347.8,339.9,333.3,344.3,317.2,344.3z M317.9,376.7
	c-12.4,0-24.4-2.2-35.9-6.6c-11.5-4.4-22-10.5-31.4-18.3c-9.4-8-17.6-17.6-24.5-28.6c-6.7-11-11.6-23.1-14.8-36.2
	c-0.5-1.6-0.2-3,0.7-4.1c0.9-1.4,2.2-2.3,3.8-2.8c1.4,0,2.8,0.3,4.1,1c1.4,0.5,2.2,1.5,2.4,3.1c2.8,11,7,21.5,12.8,31.4
	c6,9.9,13.1,18.5,21.4,25.9c8.3,7.4,17.6,13.2,27.9,17.6c10.3,4.1,21.5,6.2,33.4,6.2c10.6,0,20.7-1.7,30.3-5.2
	c9.9-3.7,18.8-8.7,26.9-15.2c8.3-6.4,15.5-14.1,21.7-23.1c6.2-9,11-19,14.5-30c0.7-2.8,2.5-4.1,5.5-4.1c0.2,0,0.5,0.1,0.7,0.3
	c0.2,0,0.6,0,1,0c3.2,1.1,4.5,3.6,3.8,7.2c-3.9,12.2-9.3,23.3-16.2,33.4c-6.9,9.9-14.9,18.4-24.1,25.5c-9.2,7.1-19.3,12.6-30.3,16.5
	C340.9,374.7,329.6,376.7,317.9,376.7z M383.1,219.5c-2.5-0.7-4.3-1.7-5.2-3.1c-0.9-1.6-1.1-3.3-0.7-5.2c1.1-2.8,3.1-4.1,5.9-4.1
	c0.9,0,1.6,0.1,2.1,0.3c1.6,0.5,2.8,1.5,3.4,3.1c0.7,1.4,0.8,3,0.3,4.8C388,218.1,386.1,219.5,383.1,219.5z M494.1,351.2v-89.3
	h-25.9c-3.7,0-5.5-1.8-5.5-5.5V140.8c0-1.6,0.5-3,1.4-4.1c1.1-1.1,2.5-1.7,4.1-1.7s3,0.6,4.1,1.7c1.1,1.1,1.7,2.5,1.7,4.1v109.6
	h25.5c1.6,0,3,0.6,4.1,1.7c1.1,1.1,1.7,2.5,1.7,4.1v94.8c0,1.6-0.6,3-1.7,4.1c-1.1,0.9-2.5,1.4-4.1,1.4
	C495.9,356.7,494.1,354.8,494.1,351.2z M463.1,287.4c0-3.7,1.8-5.5,5.5-5.5c3.9,0,5.9,1.8,5.9,5.5v83.4c0,3.7-2,5.5-5.9,5.5
	c-3.7,0-5.5-1.8-5.5-5.5V287.4z M505.5,225.7c0,1.6-0.6,3-1.7,4.1c-1.1,0.9-2.5,1.4-4.1,1.4c-3.7,0-5.5-1.8-5.5-5.5v-59.3
	c0-1.6,0.5-3,1.4-4.1c1.1-1.1,2.5-1.7,4.1-1.7s3,0.6,4.1,1.7c1.1,1.1,1.7,2.5,1.7,4.1V225.7z M497.6,376.3c-1.6-0.5-2.8-1.5-3.4-3.1
	c-0.7-1.6-0.8-3.2-0.3-4.8v-0.3c1.1-2.8,3.1-4.1,5.9-4.1c0.5,0,0.8,0.1,1,0.3c0.2,0,0.6,0,1,0c1.8,0.5,3.1,1.5,3.8,3.1
	c0.7,1.6,0.7,3.2,0,4.8v0.3c-0.7,2.8-2.6,4.1-5.9,4.1L497.6,376.3z"/>
</svg>
